<svg xmlns="http://www.w3.org/2000/svg" data-name="Layer 2" viewBox="0 0 70.29 70.18">
  <g data-name="Green Notes">
    <path fill="#00949c" d="M35.2 0v16.54c10.19 0 18.45 8.26 18.45 18.45S45.39 53.44 35.2 53.44c-8.16 0-15.07-5.31-17.51-12.65L1.82 45.95C6.61 60.7 19.69 70.2 35.19 70.2c19.38 0 35.09-15.71 35.09-35.09S54.58 0 35.2 0"/>
    <path fill="#34becf" d="M16.75 34.99c0-4.02 1.3-7.73 3.49-10.76L6.81 14.47c-6.84 9.4-8.58 20.41-4.99 31.47l15.87-5.16c-.6-1.82-.94-3.77-.94-5.79"/>
    <path fill="#fff" d="M35.2 16.54V0C23.57 0 13.64 5.06 6.81 14.47l13.43 9.76c3.35-4.65 8.79-7.68 14.96-7.68Z"/>
  </g>
</svg>
