<svg xmlns="http://www.w3.org/2000/svg" data-name="Layer 2" viewBox="0 0 61 61">
  <rect width="60" height="60" x=".5" y=".5" fill="#fff" stroke="#a47764" stroke-miterlimit="10" rx="10" ry="10"/>
  <g fill="none" stroke="#a47764" stroke-linecap="round" stroke-miterlimit="10">
    <path d="M38.12 37.02c-4.45-.74-3.59 3.96-7.62 3.96s-3.17-4.69-7.62-3.96"/>
    <path d="M26.84 38.72c-1.72 1.42-4.28 1.91-6.21.57-2.54-1.76-2.38-6.08.41-9.14 3.45-3.78 4.43-9.39 4.52-15.18m8.6 23.75c1.72 1.42 4.28 1.91 6.21.57 2.54-1.76 2.38-6.08-.41-9.14-3.45-3.78-4.43-9.39-4.52-15.18"/>
  </g>
  <path fill="#a47764" d="M32.15 47.87c0 2.15 1.95 3.84 4.17 3.4 1.64-.32 2.83-1.88 2.77-3.56-.09-2.48-2.42-3.85-3.29-5.67a.192.192 0 0 0-.35 0c-.9 1.86-3.3 3.24-3.3 5.82Z"/>
</svg>
