<svg xmlns="http://www.w3.org/2000/svg" xmlns:xlink="http://www.w3.org/1999/xlink" data-name="Layer 2" viewBox="0 0 76.02 76.02">
  <defs>
    <symbol id="a" viewBox="0 0 102 102">
      <rect width="100" height="100" x="1" y="1" fill="#f4ddd4" stroke="#a47764" stroke-miterlimit="10" stroke-width="2" rx="10" ry="10"/>
      <rect width="57.04" height="65.1" x="22.48" y="20.87" fill="#a47764" rx="1.57" ry="1.57"/>
      <path fill="#fff" d="M27.48 79.41V27.44c0-.87.7-1.57 1.57-1.57h43.9c.87 0 1.57.7 1.57 1.57v51.97c0 .87-.7 1.57-1.57 1.57h-43.9c-.87 0-1.57-.7-1.57-1.57"/>
      <path fill="none" stroke="#a47764" stroke-miterlimit="10" stroke-width="2" d="M33.38 44.91h35.24M33.38 61.94h35.24m-35.24-8.52h18.87m5.46 0h6.7"/>
      <path fill="none" stroke="#a47764" stroke-miterlimit="10" stroke-width="3" d="M45.3 14.03h11.41c1.46 0 2.64 1.18 2.64 2.64v6.37H42.66v-6.37c0-1.46 1.18-2.64 2.64-2.64Z"/>
      <rect width="24.42" height="9.75" x="38.79" y="18.53" fill="#a47764" rx="1.03" ry="1.03"/>
    </symbol>
  </defs>
  <use xlink:href="#a" width="102" height="102" transform="scale(.75)"/>
</svg>
