<svg xmlns="http://www.w3.org/2000/svg" data-name="Layer 2" viewBox="0 0 61 61">
  <rect width="60" height="60" x=".5" y=".5" fill="#fff" stroke="#a47764" stroke-miterlimit="10" rx="10" ry="10"/>
  <path fill="#a47764" d="M26.39 24.79c.46-.37.76-.84 1-1.34.3-.62.46-1.27.5-1.95.03-.52.05-1.05.05-1.57v-8.17c0-.77.62-1.47 1.39-1.5.79-.03 1.59-.05 2.38 0 .7.04 1.19.59 1.29 1.29.03.21.05.43.05.64 0 2.44.01 4.88.02 7.32 0 .49-.03.98-.01 1.47.03.91.14 1.81.59 2.61.21.37.49.69.74 1.03.04.06.12.09.22.17.03-.3.05-.56.07-.81.12-1.17.21-2.35.37-3.52.09-.68.23-1.37.47-2.02.33-.94.95-1.68 1.89-2.1.68-.31 1.41-.32 2.13-.23 1.37.17 2.53.84 3.61 1.63.83.61 1.64 1.27 2.34 2.01 1.58 1.65 2.86 3.53 3.9 5.58 1.32 2.59 2.26 5.32 2.93 8.15q.66 2.76 1.02 5.58c.09.7.14 1.4.18 2.1.07 1.27.17 2.55.14 3.82-.02 1.23-.19 2.46-.74 3.6-.54 1.13-1.41 1.88-2.64 2.12-1.03.2-2.06.1-3.02-.34-.89-.41-1.77-.85-2.65-1.29-1.08-.53-2.24-.81-3.38-1.12-1.29-.35-2.61-.65-3.8-1.31-1.61-.9-2.77-2.17-3.23-3.99-.18-.69-.31-1.42-.32-2.13-.02-1.33.05-2.66.1-3.98.04-1.07.11-2.15.17-3.22l.12-2.24c.01-.24 0-.49.05-.73.08-.42-.13-.67-.42-.93-.61-.54-1.21-1.09-1.79-1.66-.51-.51-1.1-.78-1.82-.77-.42 0-.79.15-1.1.45-.79.76-1.57 1.53-2.37 2.28-.22.21-.13.46-.13.69.02.6.07 1.21.1 1.81.07 1.36.15 2.72.22 4.08.04.78.08 1.55.11 2.33.02.48.06.96.04 1.44-.05 1.09-.17 2.17-.56 3.21-.67 1.79-1.96 2.98-3.69 3.67-1.12.45-2.28.78-3.45 1.07-1.81.45-3.49 1.22-5.14 2.06-.93.47-1.9.75-2.96.71-1.67-.07-3-1.11-3.52-2.7-.53-1.62-.54-3.29-.51-4.97.02-.8.05-1.61.15-2.4.18-1.46.38-2.91.62-4.35.39-2.34.96-4.65 1.75-6.89 1.09-3.1 2.57-6 4.65-8.57 1.39-1.72 3.04-3.12 5-4.13 1.11-.57 2.27-.83 3.51-.61 1.02.18 1.73.82 2.2 1.73.44.85.6 1.78.72 2.71.15 1.23.27 2.47.4 3.7.02.16.04.32.06.52Zm-4.22 4.11c-.27-.03-.48-.07-.7-.07-.85-.03-1.66-.25-2.41-.64-.55-.28-1.02-.68-1.4-1.18-.13-.16-.17-.34 0-.51s.35-.16.54-.04c.07.04.14.09.2.14.21.16.4.34.61.49 1.16.82 2.49 1.02 3.86 1.04.13 0 .3-.08.4-.17.61-.59 1.19-1.19 1.8-1.78.25-.24.38-.46.33-.86-.14-1.32-.2-2.64-.29-3.97-.06-.81-.17-1.61-.44-2.39-.3-.86-.72-1.62-1.67-1.88-.67-.18-1.36-.17-2.03.07-1.61.56-2.98 1.51-4.19 2.68-1.95 1.89-3.43 4.12-4.62 6.55-1.27 2.6-2.1 5.35-2.75 8.16-.26 1.14-.44 2.3-.62 3.45-.13.81-.21 1.63-.28 2.45-.09.99-.17 1.98-.21 2.97-.03.64.03 1.28.04 1.92.02.88.16 1.73.45 2.57.5 1.41 1.96 2.2 3.45 1.9.82-.17 1.58-.48 2.33-.85 1.53-.76 3.12-1.37 4.75-1.86 1.03-.31 2.07-.58 3.07-.96 1.74-.66 2.92-1.9 3.45-3.7.35-1.19.4-2.41.32-3.65-.1-1.41-.15-2.83-.22-4.24l-.18-3.3c0-.07-.03-.14-.06-.25-.11.07-.22.12-.3.19-.25.26-.5.52-.75.79-.87.94-1.54 1.99-1.72 3.28-.09.68-.13 1.36-.22 2.04-.02.16-.14.37-.28.44-.16.09-.39.01-.48-.18-.08-.17-.14-.36-.14-.54 0-.44.05-.88.08-1.32.07-1.11.47-2.11 1.03-3.04.62-1.02 1.47-1.86 2.3-2.7 1.06-1.06 2.2-2.05 3.26-3.12 1.04-1.04 2.91-.95 3.86-.1.67.59 1.33 1.2 1.97 1.82.92.9 1.86 1.78 2.72 2.73 1.04 1.14 1.79 2.47 2.03 4.03.1.69.11 1.4.13 2.11 0 .29-.18.45-.43.45-.35 0-.45-.08-.49-.42-.03-.3-.01-.6-.05-.89-.09-.64-.14-1.3-.3-1.92-.38-1.44-1.32-2.53-2.41-3.5-.07-.07-.2-.07-.31-.1-.02.06-.03.07-.03.09-.06 1.28-.1 2.57-.17 3.85-.06 1.19-.16 2.38-.21 3.57-.04 1.18-.06 2.37.22 3.54.24 1.01.7 1.9 1.44 2.63.86.85 1.92 1.38 3.05 1.75.97.32 1.96.55 2.93.86 1.47.46 2.89 1.06 4.27 1.77.85.43 1.72.79 2.71.77 1.24-.02 2.35-.69 2.81-1.99.35-1 .48-2.03.5-3.08.05-1.86-.11-3.72-.35-5.56-.12-.92-.23-1.84-.39-2.75-.34-1.98-.84-3.93-1.46-5.84-.93-2.89-2.18-5.61-3.97-8.07-1.21-1.68-2.58-3.19-4.35-4.31-.94-.6-1.89-1.18-3.04-1.25-.8-.05-1.59.07-2.11.75-.33.43-.61.95-.79 1.47-.43 1.25-.49 2.56-.57 3.86-.05.79-.04 1.58-.1 2.36-.02.28.07.44.26.62.66.66 1.31 1.33 1.97 1.99.05.05.14.08.21.09 1.25.07 2.43-.16 3.52-.78.41-.23.78-.55 1.17-.83.21-.15.42-.11.6.08s.07.37-.06.5c-.73.79-1.61 1.35-2.65 1.61-.6.15-1.21.21-1.83.32.1.09.2.16.28.25 1.25 1.27 2.33 2.67 3.28 4.17.61.95 1.17 1.93 2.11 2.63.84.63 1.73 1.14 2.75 1.41.23.06.36.24.38.47.03.33-.33.57-.72.42-.54-.19-1.08-.41-1.6-.65-.36-.17-.72-.38-1.04-.62-.44-.33-.84-.71-1.26-1.07-.04-.04-.1-.05-.16-.08 0 .15-.02.27 0 .38.19 1.12.29 2.24.15 3.37-.07.53-.17 1.05-.28 1.57-.07.32-.32.48-.56.43-.28-.06-.39-.26-.35-.64 0-.05.01-.11.03-.16.25-1.03.38-2.08.25-3.14a14.3 14.3 0 0 0-.67-3.03c-.78-2.27-2.26-4.06-3.9-5.73-.27-.28-.56-.54-.83-.82-.64-.64-1.29-1.27-1.92-1.92-.56-.57-1.17-1.1-1.63-1.73-.74-1.01-.95-2.21-.95-3.44v-9.15c0-.5-.22-.76-.7-.77-.56-.02-1.13-.02-1.69 0-.69.03-.86.2-.86.94v8.87c0 .36-.02.73-.07 1.08-.2 1.43-.85 2.63-1.88 3.63-.45.43-.92.84-1.37 1.28-.54.53-1.06 1.07-1.58 1.61-.76.8-1.55 1.57-2.27 2.41-1 1.18-1.68 2.55-2.18 4.03-.55 1.64-.75 3.3-.52 5.01.05.38.14.77.16 1.15 0 .14-.14.35-.27.41-.11.05-.33-.05-.45-.14a.8.8 0 0 1-.25-.44c-.26-1.31-.37-2.62-.14-3.95.06-.35.09-.71.14-1.16-.16.1-.28.14-.35.22-.71.77-1.51 1.4-2.5 1.77-.47.18-.95.34-1.44.47-.29.07-.51-.1-.55-.34-.05-.25.13-.5.41-.58.21-.06.42-.11.61-.2.82-.38 1.62-.79 2.33-1.37.57-.46 1.07-.98 1.43-1.62 1.03-1.85 2.27-3.55 3.78-5.04.09-.09.15-.21.24-.35"/>
  <circle cx="41.64" cy="42.65" r="2.26" fill="#a47764"/>
  <circle cx="48.49" cy="38.45" r="1.77" fill="#a47764"/>
  <circle cx="44.56" cy="35.05" r="1.13" fill="#a47764"/>
  <circle cx="47.68" cy="44.27" r="1.13" fill="#a47764"/>
  <circle cx="46.72" cy="29.44" r="1.13" fill="#a47764"/>
  <circle cx="42.14" cy="22.26" r=".56" fill="#a47764"/>
  <circle cx="39.38" cy="26.37" r="1.93" fill="#a47764"/>
</svg>
