<svg xmlns="http://www.w3.org/2000/svg" data-name="Layer 2" viewBox="0 0 61 61">
  <rect width="60" height="60" x=".5" y=".5" fill="#fff" stroke="#a47764" stroke-miterlimit="10" rx="10" ry="10"/>
  <g fill="#a47764">
    <path d="M42.62 35.1V22.82l-.02-2.69c0-.39.05-1.69-.03-1.95-.2-.23-.51-.41-.76-.58l-.98-.7-2.68-1.94c-.5-.36-1.01-.69-1.49-1.07v-1.61c0-.29.04-.61 0-.9-.01-.1-.03-.24-.11-.32a.8.8 0 0 0-.3-.17c-.93-.31-1.89-.54-2.83-.81l-4.06-1.15-2.54-.72c-.31-.08-.72-.25-1.03-.25h-.07c-.14.08-.28.17-.32.34-.08.3-.03.71-.03 1.02v1.67c-.58.72-1.34 1.43-1.99 2.1l-3.31 3.41c-.27.27-1.51 1.45-1.64 1.7-.1.19-.05 4.4-.05 4.92v17.6l.02 5.55v1.49c0 .25-.03.52 0 .76.01.1.06.2.14.26.21.15.88.34 1.16.44l2.78.98q2.565.93 5.13 1.83l1.63.57c.38.14.77.3 1.16.4.09.02.19-.01.29-.04.38-.11.75-.27 1.12-.4.77-.28 1.53-.55 2.31-.82l6.16-2.19c.45-.16.91-.32 1.36-.48.22-.08.48-.14.68-.25.1-.06.19-.16.24-.27.07-.15.07-.34.08-.51.01-1.4 0-2.8 0-4.21v-8.76Zm-6.33-20.29c.21.08.86.61 1.09.77 1.17.84 2.34 1.69 3.5 2.55-.51.12-1.02.32-1.52.47-.72.22-1.42.45-2.14.68-.65.2-1.3.4-1.95.61-.33.08-.65.22-.97.32-.84.27-1.68.55-2.53.79.4-.5.75-1.05 1.13-1.57.68-.95 1.39-1.87 2.08-2.81.44-.6.84-1.23 1.31-1.81m-9.94-5.75 5.93 1.68 1.99.57c.48.14.97.27 1.44.42v1.93c-.43-.11-.85-.25-1.27-.38l-2.41-.7-5.68-1.64c-.02-.63 0-1.26 0-1.89Zm1.19 41.95-8.21-2.91V23.81q-.015-2.385 0-4.77c1.17.4 2.36.72 3.54 1.07l4.51 1.36c.87.26 1.74.53 2.6.8v29.61c-.16 0-2.11-.74-2.44-.86Zm2.79-29.65-.89-.27c-.82-.26-1.66-.49-2.49-.74l-7.18-2.15c.27-.32.59-.61.88-.91l1.79-1.85 2.73-2.81c.25-.26.47-.54.72-.79.32.05.64.16.95.25l1.65.48c2.28.65 4.54 1.35 6.83 1.95-.41.59-.86 1.15-1.28 1.73l-2.4 3.3c-.44.6-.93 1.16-1.3 1.8Zm11.31 26.66c-.03.05-.12.08-.18.11-.33.14-.68.24-1.02.36-.91.34-1.82.66-2.74.98-1.47.51-2.94 1.04-4.4 1.59-.76.28-1.53.52-2.28.82-.03-.28 0-.58 0-.85v-1.76l.01-6.02V22.26l10.56-3.35c.02 0 0 0 .04.03.03.51 0 1.03 0 1.53v25.77c0 .59.03 1.19 0 1.78Z"/>
    <path d="m18.72 18.65.42 29.63 11.08 4.15.28-30.38zm12.49 2.24 5.12-6.44 5.23 3.74-9.65 3.34z"/>
  </g>
</svg>
