<svg xmlns="http://www.w3.org/2000/svg" data-name="Layer 2" viewBox="0 0 61 61">
  <rect width="60" height="60" x=".5" y=".5" fill="#fff" stroke="#a47764" stroke-miterlimit="10" rx="10" ry="10"/>
  <path fill="#a47764" d="M25.86 53.37V34.8c0-.78.22-1.56.65-2.26l.78-1.28c.97-1.59 1.02-3.43.15-5.05l-1.06-1.98a4.25 4.25 0 0 1-.53-2.04V7.63h-2.21v14.56c0 .7.18 1.39.53 2.04l1.06 1.98c.87 1.62.82 3.47-.15 5.05l-.78 1.28c-.43.71-.65 1.48-.65 2.26v18.57zm11.49 0V34.8c0-.78-.22-1.56-.65-2.26l-.78-1.28c-.97-1.59-1.02-3.43-.15-5.05l1.06-1.98c.35-.64.53-1.34.53-2.04V7.63h-2.21v14.56c0 .7-.18 1.39-.53 2.04l-1.06 1.98c-.87 1.62-.82 3.47.15 5.05l.78 1.28c.43.71.65 1.48.65 2.26v18.57z"/>
  <g fill="none" stroke="#a47764">
    <path stroke-miterlimit="10" d="M12.75 28.55h9.46"/>
    <path stroke-linejoin="round" d="m18.97 30.88 3.24-2.34-3.24-2.34"/>
    <path stroke-miterlimit="10" d="M48.25 28.52h-9.46"/>
    <path stroke-linejoin="round" d="m42.03 26.2-3.24 2.34 3.24 2.34"/>
  </g>
</svg>
