<svg xmlns="http://www.w3.org/2000/svg" xmlns:xlink="http://www.w3.org/1999/xlink" viewBox="0 0 301.23 444.47">
  <defs>
    <clipPath id="a">
      <rect width="298.23" height="441.09" x="1.5" y="1.5" fill="none" rx="9.77" ry="9.77"/>
    </clipPath>
  </defs>
  <g data-name="Layer 2" style="isolation:isolate">
    <path fill="#ffb966" d="M11.31 1.49h278.61c5.42 0 9.81 4.4 9.81 9.81v431.28H1.5V11.31c0-5.42 4.4-9.82 9.81-9.82"/>
    <g clip-path="url(#a)">
      <path fill="#d6866e" d="M179.08 39.93c-3.99-6.32-19.63-12.31-31.27-4.66s-13.31 21.96-13.97 39.59c-.67 17.63-20.29 18.96-23.29 35.59-2.99 16.63 16.3 22.95 17.63 33.6 1.33 10.64 75.01 10.06 77.67.42 2.66-9.65-17.8-22.04-16.47-29.02 1.33-6.99 13.04-11.08 7.32-23.62-4.32-9.48-11.98-5.66-10.98-20.96s3.91-17.88 1.91-25.2-8.57-5.74-8.57-5.74Z"/>
      <path fill="#ffc2b5" d="M132.27 160.68c2 8.7 11.26 15.25 42.87 9.74 31.69-5.51 27.22-31.69 11.26-32.97-15.97-1.2-14.93-38.16-13.73-51.65 0 0-20.76-2.95-19.72 20.92v.32c.16 2.87.24 5.43.24 7.74-.08 17.09-4.71 19.48-11.98 21.72-8.22 2.47-10.94 15.49-8.94 24.19Z"/>
      <path fill="#f0a698" d="M152.95 106.71v.32c.16 2.87.24 5.43.24 7.74 9.74 2.24 17.88-16.69 19.08-24.67 0 0-13.49 9.34-19.32 16.61"/>
      <path fill="#ffc2b5" d="M135.78 81.09c-.08 1.44 0 2.87.16 4.23.72 10.78 3.99 20.04 11.26 22.99 14.53 5.75 29.54-17.48 29.54-38.8 0-21.24-13.25-20.6-21.64-18.92-8.3 1.68-16.93 7.27-16.93 7.27-1.52 7.03-2.55 15.33-2.4 23.23Z"/>
      <path fill="#681b3d" d="M147.4 91.79c.09 0 .17-.08.19-.18.02-.12-.05-.24-.15-.26-2.75-.61-2.83-2.79-2.79-3.35.61-.26 3.37-1.59 4.65-4.7.85-2.07.86-4.48.02-7.16a.203.203 0 0 0-.25-.13c-.1.04-.15.17-.11.29.8 2.56.8 4.85 0 6.8-1.34 3.27-4.52 4.51-4.55 4.52l-.11.05-.02.14s-.37 3.22 3.09 3.99h.04Zm8.4-13.49c-.07 1.91.52 3.48 1.33 3.51s1.52-1.49 1.59-3.4-.52-3.48-1.33-3.51-1.52 1.49-1.59 3.4"/>
      <ellipse cx="142.96" cy="78.36" fill="#681b3d" rx="3.46" ry="1.46" transform="rotate(-87.81 142.947 78.362)"/>
      <path fill="#681b3d" d="M164.26 70.35c.53 1.06-6.01-.55-6.28-1.22-.28-.67.5-1.01 1.76-1.02 1.26-.02 4.39 1.98 4.52 2.25Zm-26.01 0c-.53 1.06 6.01-.55 6.28-1.22s-.5-1.01-1.76-1.02c-1.26-.02-4.39 1.98-4.52 2.25Z"/>
      <path fill="#ff8787" d="M166.48 84.02c.18 1.15-1.64 2.4-4.08 2.78-2.43.38-4.55-.24-4.74-1.4-.18-1.15 1.64-2.4 4.08-2.78 2.43-.38 4.55.24 4.74 1.4m-30.7-2.93c-.08 1.44 0 2.87.16 4.23 2.39.48 4.47-.08 4.71-1.2s-1.6-2.47-3.99-2.95c-.32-.08-.64-.16-.88-.08"/>
      <path fill="#ffc2b5" d="M175.42 75.86c5.02-3.34 8.23.75 6.74 5.74-1.5 4.99-8.48 7.98-9.48 4.24s1.25-8.98 2.74-9.98"/>
      <path fill="#efd7a0" d="M175.42 449.09c-12.47-5.49-42.41-8.48-42.41-8.48s10.48-123.25 20.96-114.76c10.48 8.48 21.46 123.25 21.46 123.25Z"/>
      <path fill="#9aafa3" d="M123.53 299.21c-15.47 55.62-24.45 113.55-19.46 159.9s3 144.56 5.99 149.39c2.25 3.63 14.64 2.47 16.63.62 2-1.85 16.3-76.78 15.3-115.25s-4.99-41.71-2-63.03S154.46 332 154.46 332s13.97 91.89 10.98 112.74c-2.99 20.86-6.49 40.32-4.99 65.35s13.97 99.65 16.47 102.43c2.49 2.78 14.47 1.39 16.47.46s2.99-107.06 6.49-150.63c3.49-43.57-10.98-158.51-14.47-168.71s-61.87 5.56-61.87 5.56Z"/>
      <path fill="#a9bfb3" d="M186.4 161.18c-14.97-2-48.9-3.99-56.88 1s-20.46 132.73-5.99 137.72 59.38 2.99 64.37-.5-1.5-138.22-1.5-138.22"/>
      <path fill="#d6866e" d="M176.59 75.19c-9.04.91-7.82-16.8-7.82-16.8s-28.44 13.47-30.94.5c-2.49-12.97 35.43-17.46 39.25-11.48 3.83 5.99 1.66 22.62 1.16 23.95s-1.66 3.83-1.66 3.83Z"/>
      <path fill="#fffdf8" d="M89.56 448.57c10.06 13.97 30.02 11.02 30.02 8.46s-6.55-32.89 1.44-95.8c4.39-34.73 9.9-74.97 13.09-111.37 0-.64.08-1.28.16-1.92 2.4-28.66 3.43-54.77 1.28-73.77-6.07-53.25-23.47 20.44-23.47 20.44 1.2 23.79 2 38.16 1.12 52.53-.16 1.44-.24 2.79-.4 4.23-.72 9.02-2.24 18.44-4.71 30.58-7.03 33.45-28.42 152.65-18.52 166.62Z"/>
      <path fill="#efd7a0" d="M112.79 251.38c3.43 1.12 15.63.18 21.32-1.52 0-.64.08-1.28.16-1.92-2.79-.72-10.3-1.84-15.73-1.84-2.55 0-4.31.4-5.35 1.04-.16 1.44-.24 2.79-.4 4.23Z"/>
      <path fill="#fffdf8" d="M92.27 243.47c7.42 9.58 51.89 7.98 75.05-.96.64-.32 1.36-.56 2-.8 1.12-.48 2.16-1.04 3.11-1.52 20.36-10.7-8.06-17.01-22.75-18.84-.4-.08-.8-.08-1.2-.16-3.83-.48-7.98-.48-12.06-.4-11.1.32-21.56 2.08-22.51 1.12-1.36-1.36 17.64-82.87 17.64-82.87-28.34 5.99-34.33 30.26-38 48.54-3.59 18.36-9.26 45.59-1.28 55.89"/>
      <path fill="#efd7a0" d="M120.2 143.72c3.33 10.31 8.32 21.46 8.32 21.46s-8.48 3.49-8.65 6.32 13.81 30.94 14.97 31.44-1.66-35.59-2.99-44.08c-1.33-8.48-11.64-15.14-11.64-15.14Z"/>
      <path fill="#fffdf8" d="M137 208.84c2.49-20.71.5-75.1-2.25-72.85-2.74 2.25-15.72 4.74-15.22 6.24s12.72 24.95 12.72 24.95-8.77 1.34-10.48 3.99c-.75 1.16 15.22 37.67 15.22 37.67Z"/>
      <path fill="#ffc2b5" d="M117.5 221.28c1.76-.08 2.39-2.4 2.55-4.23h.08c.16-1.28.08-2.32.08-2.32l.32.16c1.76.96 11.42 5.75 15.01 2.16 3.99-3.99 7.66-11.98 7.66-11.98-16.45-3.75-29.14.48-31.93 5.51-2.71 5.03 3.27 10.94 6.23 10.7"/>
      <path fill="#fffdf8" d="M168.6 237.33v5.35c-.08 32.01 1.04 67.46 3.83 94.13 5.99 57.88 7.98 116.24 8.94 118.8 1.04 2.47 30.5-2 34.97-17.48 4.47-15.49-9.5-98.28-17.96-146.66-2.24-12.69-2.87-25.87-2.63-38.88v-2.63c.88-35.53 8.14-69.38 8.14-88.78 0 0-16.21-45.11-30.98 2.79-2.47 8.14-4.07 38.24-4.31 73.37Z"/>
      <g fill="#efd7a0">
        <rect width="14.38" height="4.93" x="182.62" y="188.66" rx=".33" ry=".33" transform="rotate(-180 189.81 191.12)"/>
        <rect width="14.38" height="4.93" x="182.62" y="188.66" rx=".33" ry=".33" transform="rotate(90 189.81 191.12)"/>
      </g>
      <path fill="#ffc2b5" d="M175.17 213.7c4.74-3.49 18.71-6.24 26.7-2.25 7.98 3.99 9.48 10.73-3.12 9.98s-23.58-7.73-23.58-7.73"/>
      <path fill="#fffdf8" d="M191.72 140.39c13.64 1.66 20.62 2.66 24.62 8.65 1.5 2.25 5.66 14.42 9.11 29.68-8.38.98-17.42 4.37-25.82 6.93-2.57-21.11-7.91-45.26-7.91-45.26"/>
      <path fill="#efd7a0" d="M196.5 140.97c-3.95 5.74-16.26 25.2-16.26 25.2s10.81 1.16 10.81 4.66-20.29 34.76-20.62 37.76 0-36.92 5.66-49.4c5.66-12.47 20.42-18.21 20.42-18.21Z"/>
      <path fill="#fffdf8" d="M169.43 215.32c-1.5-26.94 1.25-48.15 4.99-62.37s5.99-19.83 7.98-18.09c2 1.75 14.96 5.09 14.1 6.11-16.22 19.21-19.83 26.94-19.83 26.94s12.23.75 12.47 2.49c.25 1.75-6.74 12.22-11.73 23.2s-7.98 21.71-7.98 21.71Z"/>
      <path fill="#efd7a0" d="M136.42 220.8c2.16 4.47 23.39 18.6 30.9 21.72.72.32 1.36.56 1.76.64 0 0 .16-.56.24-1.44.4-3.51 0-12.93-13.65-18.12-2.24-.8-4.23-1.6-5.99-2.24-.4-.08-.8-.08-1.2-.16-3.83-.48-7.98-.48-12.06-.4"/>
      <path fill="#efd7a0" d="m168.6 242.68.48.48c11.26 5.19 22.03 9.1 26.67 9.42v-2.63c-5.11-3.99-18.52-11.42-25.23-12.45-.72-.16-1.36-.16-1.92-.16-4.87-.08-1.36 3.99 0 5.35Z"/>
      <path fill="#fffdf8" d="M142.82 201.6c3.99 0 42.91 15.97 54.22 14.97 4.9-.43 4.55-14.79 2.59-30.92 8.4-2.56 17.44-5.95 25.82-6.93 5.74 25.42 9.48 59.43-4.45 70.45-22.29 17.63-86.82-28.94-86.82-30.6s4.66-16.97 8.65-16.97Z"/>
      <path fill="#d6866e" d="M147.98 132.87c-4.49 4.28 3.33 20.17-3.83 29.15-7.15 8.98-19.13 7.15-19.13 6.15s10.48-10.81.75-30.06c-9.9-19.58 22.2-5.24 22.2-5.24Z"/>
      <path fill="#e6e6e6" d="M134.87 187.83c-2.99-1.5-16.97-1.83-17.96-.83-1 1-4.49 12.64-3.66 13.47s17.46 1 19.46-.33 3.49-11.64 2.16-12.31" style="mix-blend-mode:multiply"/>
      <path fill="#fff" d="M133.84 186.8c-2.99-1.5-16.97-1.83-17.96-.83-1 1-4.49 12.64-3.66 13.47s17.46 1 19.46-.33 3.49-11.64 2.16-12.31"/>
      <path fill="#4c4c4c" d="M126.91 181.77c-1.3-.71-4.75-.5-4.75.37s1.02 7.73 1.47 7.98 4.19-7.86 3.28-8.36Z"/>
      <path fill="#fff" d="M156.46 95.82c-6.99 2.74-13.85.25-13.85.25s.5 5.93 7.24 5.74c5.44-.15 6.61-5.99 6.61-5.99"/>
      <path fill="#4c4c4c" d="m115.62 191.33 15.66.79c.09 0 .16.08.15.17 0 .09-.08.16-.17.15l-15.66-.79c-.09 0-.16-.08-.15-.17 0-.09.08-.16.17-.15m6.72 2.08 8.86.45c.09 0 .16.08.15.17 0 .09-.08.16-.17.15l-8.86-.45c-.09 0-.16-.08-.15-.17 0-.09.08-.16.17-.15"/>
      <path fill="#f0a698" d="M175.2 83.52s1.54-5.81 3.07-5.32c1.28.41.45 2.06-.28 3.1-1.13 1.6-2.79 2.22-2.79 2.22m-59.14 129.22c-.32.4 1.92 4.31 3.99 4.31h.08c.16-1.28.08-2.32.08-2.32s-3.75-2.39-4.15-2Z"/>
      <path fill="#efd7a0" d="M113.3 201.85c-3.74 6.74-6.99 19.6-5.35 21.72 1.27 1.64 1.61.13 1.61-3.63-.01-9.52 3.74-18.09 3.74-18.09"/>
      <path fill="#efd7a0" d="M107.73 223.04c5.26.56 28.37-2.19 28.37-2.19s-23.36 4.7-25.8 4.32-2.57-2.13-2.57-2.13"/>
    </g>
    <path fill="none" stroke="#fff" stroke-miterlimit="10" stroke-width="3" d="M11.31 1.5h278.61c5.42 0 9.81 4.4 9.81 9.81v431.66H1.5V11.31c0-5.41 4.4-9.81 9.81-9.81Z"/>
  </g>
</svg>
