<svg xmlns="http://www.w3.org/2000/svg" data-name="Layer 2" viewBox="0 0 77 77">
  <path fill="#fff" stroke="#382f2c" stroke-linecap="round" stroke-miterlimit="10" stroke-width="2" d="M1 19.04V11C1 5.48 5.48 1 11 1h55c5.52 0 10 4.48 10 10v55c0 5.52-4.48 10-10 10H11C5.48 76 1 71.52 1 66V19.04"/>
  <path fill="#a47764" d="M24.26 13.59h32.68c.82 0 1.49.67 1.49 1.49v42.99H18.58V19.28c0-3.14 2.55-5.68 5.68-5.68Zm-5.68 44.48h39.84v7.51H22c-1.89 0-3.43-1.54-3.43-3.43v-4.08Z"/>
  <path fill="#fff" d="M21.33 58.07h35.53v6.15H21.58a1.83 1.83 0 0 1-1.83-1.83v-2.75c0-.87.7-1.57 1.57-1.57ZM32.3 32.13l-1.17-3.33h-4.59l-1.17 3.33h-2.08l4.46-12.05h2.18l4.46 12.05zm-1.68-5.02-1.14-3.28c-.04-.14-.11-.34-.19-.6s-.16-.53-.25-.8-.15-.5-.21-.69c-.05.22-.12.47-.2.75s-.16.53-.23.78c-.07.24-.13.43-.17.56l-1.15 3.28h3.53Zm7.69-1.15H51.5v1.5H38.31zm15.01 23.4H44.7v-1.35l6.1-8.97h-5.92v-1.67h8.27v1.35l-6.1 8.98h6.27v1.67Zm-27.38-6.75h15v1.5h-15z"/>
  <path fill="#a47764" d="M23.29 61.02h3.93v6.39l-1.97-1.37-1.96 1.37z"/>
</svg>
