<svg xmlns="http://www.w3.org/2000/svg" data-name="Layer 2" viewBox="0 0 77 77">
  <path fill="#fff" stroke="#382f2c" stroke-linecap="round" stroke-miterlimit="10" stroke-width="2" d="M1 19.04V11C1 5.48 5.48 1 11 1h55c5.52 0 10 4.48 10 10v55c0 5.52-4.48 10-10 10H11C5.48 76 1 71.52 1 66V19.04"/>
  <path fill="#a47764" d="M27.17 45.24h-2.2v-6.09h-6.22v6.09h-2.21V31.75h2.21v5.52h6.22v-5.52h2.2zm11.2 0h-7.64V31.75h7.64v1.86h-5.42v3.66h5.08v1.85h-5.08v4.23h5.42v1.87Zm2.9 0V31.75h2.21v11.6h5.73v1.88h-7.94Zm14.19-13.48c1.74 0 3.01.36 3.81 1.07s1.2 1.71 1.2 3c0 .58-.09 1.14-.27 1.66-.18.53-.48.99-.89 1.39s-.95.72-1.63.95c-.67.23-1.5.35-2.49.35h-1.44v5.05h-2.21V31.74h3.92Zm-.15 1.83h-1.56v4.75h1.21c.69 0 1.29-.08 1.77-.24.49-.16.85-.42 1.11-.78.25-.36.38-.83.38-1.41 0-.78-.24-1.36-.71-1.74s-1.2-.57-2.2-.57Z"/>
</svg>
