<svg xmlns="http://www.w3.org/2000/svg" data-name="Layer 2" viewBox="0 0 77 77">
  <path fill="#fff" stroke="#382f2c" stroke-miterlimit="10" stroke-width="2" d="M1 19.04V11C1 5.48 5.48 1 11 1h55c5.52 0 10 4.48 10 10v55c0 5.52-4.48 10-10 10H11C5.48 76 1 71.52 1 66V19.04"/>
  <path fill="#a47764" d="M37.85 19.28 16.6 37.68c-.7.61-.27 1.76.65 1.76h42.49c.93 0 1.35-1.15.65-1.76l-21.25-18.4a.99.99 0 0 0-1.31 0ZM22.43 39.44v17.97c0 .3.25.55.55.55h10.05v-12.8h10.94v12.8h10.05c.31 0 .55-.25.55-.55V39.44z"/>
</svg>
