<svg xmlns="http://www.w3.org/2000/svg" xmlns:xlink="http://www.w3.org/1999/xlink" data-name="Layer 2" viewBox="0 0 102 102">
  <defs>
    <symbol id="a" viewBox="0 0 102 102">
      <rect width="100" height="100" x="1" y="1" fill="#f4ddd4" stroke="#a47764" stroke-miterlimit="10" stroke-width="2" rx="10" ry="10"/>
      <path fill="#a47764" d="m43.85 62.15-.36-12.76a.71.71 0 0 1 .67-.73l5.26-.36c2.78-.16 5.07-.96 6.87-2.41 1.79-1.45 2.69-3.56 2.69-6.35 0-2.36-.83-4.31-2.49-5.86s-3.83-2.33-6.51-2.33c-1.88 0-3.49.47-4.86 1.41-1.18.81-2.04 1.78-2.6 2.93-.16.32-.5.5-.84.4l-8.32-2.36a.73.73 0 0 1-.49-.92q1.68-4.8 5.91-7.8c3.02-2.14 6.76-3.21 11.21-3.21 3.75 0 7.07.76 9.96 2.29s5.15 3.61 6.79 6.27c1.63 2.65 2.45 5.72 2.45 9.2 0 2.84-.62 5.38-1.85 7.63s-2.99 4.07-5.26 5.46c-2.12 1.3-4.56 2.16-7.31 2.57-.34.05-.61.34-.61.68l-.13 6.25c0 .39-.33.7-.72.7h-8.73c-.39 0-.7-.31-.71-.69Zm5.08 18.05c-1.77 0-3.28-.63-4.54-1.89q-1.89-1.89-1.89-4.62c0-2.73.63-3.28 1.89-4.54s2.77-1.89 4.54-1.89 3.28.63 4.54 1.89 1.89 2.77 1.89 4.54-.63 3.36-1.89 4.62-2.77 1.89-4.54 1.89"/>
      <path fill="#fff" d="M78.91 30.16 80 25.19c.03-.15.18-.25.33-.22l2.07.37c1.09.21 2.06.12 2.89-.27s1.39-1.12 1.65-2.2c.23-.91.09-1.75-.4-2.51s-1.26-1.27-2.29-1.53c-.73-.18-1.4-.16-2.02.08-.53.2-.96.49-1.29.88-.09.11-.24.14-.37.07l-2.99-1.72c-.14-.08-.19-.27-.1-.4.74-1.13 1.76-1.95 3.04-2.45 1.38-.54 2.93-.59 4.65-.16 1.45.36 2.66.98 3.64 1.85.97.87 1.65 1.9 2.02 3.08.38 1.18.4 2.45.06 3.8-.27 1.1-.76 2.02-1.45 2.78-.69.75-1.55 1.29-2.56 1.61-.95.3-1.97.39-3.08.29-.14-.01-.27.07-.3.21l-.65 2.41c-.04.15-.19.24-.34.2l-3.38-.84a.29.29 0 0 1-.21-.34Zm.23 7.48c-.68-.17-1.21-.56-1.58-1.17s-.46-1.27-.29-1.97.56-1.21 1.17-1.58 1.26-.46 1.94-.29 1.21.56 1.58 1.17.46 1.26.29 1.94-.57 1.24-1.18 1.61-1.26.46-1.94.29ZM21.92 68.93l-1.97-5.16c-.06-.16.01-.33.17-.39l2.1-.9c1.11-.46 1.93-1.12 2.46-1.96.53-.85.59-1.84.19-2.98-.34-.96-.95-1.64-1.85-2.04s-1.9-.41-2.99-.02c-.77.27-1.36.69-1.78 1.27-.36.5-.58 1.02-.65 1.57a.31.31 0 0 1-.29.28l-3.74.22a.31.31 0 0 1-.33-.31c0-1.47.44-2.81 1.3-4.03.93-1.31 2.3-2.28 4.12-2.91 1.53-.53 3-.7 4.4-.49s2.62.74 3.67 1.59 1.82 1.99 2.31 3.41c.41 1.16.52 2.29.33 3.38A6.26 6.26 0 0 1 28 62.44c-.68.83-1.56 1.53-2.62 2.09-.13.07-.2.22-.15.37l.84 2.57c.05.16-.03.33-.19.39l-3.56 1.25a.31.31 0 0 1-.39-.18Zm4.65 6.65c-.72.25-1.43.21-2.12-.12s-1.17-.87-1.43-1.62-.21-1.43.12-2.12.86-1.17 1.58-1.42 1.43-.21 2.12.12 1.17.86 1.42 1.58.22 1.46-.11 2.16c-.33.69-.86 1.17-1.58 1.42"/>
    </symbol>
  </defs>
  <use xlink:href="#a" width="102" height="102"/>
</svg>
