<svg xmlns="http://www.w3.org/2000/svg" data-name="Isolation Mode" viewBox="0 0 451.35 494.68">
  <rect width="419.43" height="494.68" x="0" y="0" fill="#fff" rx="10" ry="10"/>
  <path fill="#7c4f43" d="M240.1 481.39c-2.35 0-4.84-1.07-5.58-2.16-1.58-2.33-1.9-4.25-2.28-6.49-.1-.57-.19-1.15-.32-1.76-.33-1.64-1.02-3.19-1.7-4.69-.55-1.22-1.07-2.38-1.38-3.55-.63-2.37-.83-5.97-.94-8.13-.02-.42-.04-.78-.06-1.07-.05-.75-.31-1.9-.6-3.24-.41-1.83-.87-3.91-1.03-5.91-.2-2.41.61-4.14 1.39-5.81.58-1.25 1.13-2.43 1.24-3.83.16-2.22-1.79-15.53-3.35-26.22-.77-5.31-1.44-9.89-1.72-12.19-.43-3.6-.21-9.3.01-14.82.2-5 .39-9.72-.01-11.67-.29-1.4-.99-2.58-1.79-3.93-1.51-2.54-3.38-5.69-3.85-12.18-.44-6.11-.07-9.57.25-12.62.2-1.9.39-3.69.35-5.87-.05-2.2-.89-8-1.87-14.72-1.51-10.36-3.37-23.21-3.52-30.73-.46.23-1.06.38-1.77.46-1.04.12-2.22.12-3.52.02-.8-.06-1.44-.22-1.96-.48-.15 7.52-2.02 20.35-3.52 30.71-.98 6.72-1.82 12.53-1.87 14.73-.05 2.18.15 3.97.35 5.87.33 3.05.69 6.51.25 12.62-.47 6.48-2.34 9.64-3.85 12.18-.81 1.36-1.5 2.53-1.79 3.93-.4 1.95-.21 6.67-.01 11.67.22 5.51.45 11.22.01 14.82-.28 2.3-.95 6.88-1.72 12.19-1.56 10.7-3.51 24.01-3.35 26.23.1 1.4.65 2.58 1.24 3.83.78 1.67 1.59 3.39 1.39 5.81-.16 2-.62 4.08-1.03 5.91-.3 1.33-.55 2.48-.6 3.24-.02.29-.04.65-.06 1.07-.12 2.15-.31 5.75-.94 8.13-.31 1.17-.83 2.33-1.38 3.55-.67 1.5-1.37 3.05-1.7 4.68-.12.61-.22 1.2-.32 1.76-.37 2.23-.7 4.16-2.28 6.49-.84 1.24-3.94 2.45-6.52 2.1-1.69-.23-2.89-1.08-3.51-2.46-1.68 1.61-3.34 2.35-4.73 2.06-.83-.17-1.49-.7-1.9-1.52-.69.42-1.52.51-2.24.23-.67-.26-1.15-.8-1.34-1.49-.59.13-1.09.06-1.51-.21-.64-.42-.92-1.21-1.03-1.91-.5.16-1 .09-1.42-.2-.56-.39-.85-1.13-.73-1.88.22-1.5 1.27-3.7 3.12-6.54.25-.38 1.02-1.22 2-2.27 1.43-1.55 3.22-3.48 3.69-4.38 2.39-4.58 3.13-8.14 3.52-10.05.4-1.91.26-3.81.12-5.65-.07-.9-.13-1.74-.13-2.57 0-1.13.16-2.31.34-3.57.22-1.61.45-3.27.39-5.06-.04-1.01-.47-4.9-1.06-10.29-1.32-11.92-3.31-29.93-3.66-40-.3-8.47.68-12.19 1.33-14.66.23-.87.41-1.56.46-2.22.08-1.02.03-2.62-.03-4.65-.1-3.01-.22-6.75.03-10.7.23-3.62.76-6.59 1.18-8.97.36-2.02.64-3.61.64-4.91 0-1.5-1.78-15.08-3.49-28.22-1.65-12.59-3.35-25.61-3.72-29.68-.93-10.24 1.04-22.87 2.35-31.23.27-1.72.51-3.29.7-4.64 1.81-12.82 2.33-18.39 2.07-28.25-.04-1.41 0-3.41.04-5.93.14-8.65.38-23.04-1.42-44.34-.04.11-.06.21-.08.3-.2 1.46-.73 4.94-1.3 8.62-.84 5.42-1.79 11.55-1.94 13.13-.13 1.3-.07 3.05 0 4.9.07 1.95.14 3.96.02 5.86-.22 3.52-1.94 12.27-5.32 23.9-3.71 12.81-9.25 32.71-9.3 35.04-.03 1.33.96 2.72 2.11 4.33.99 1.4 2.12 2.98 2.86 4.9.51 1.32.67 3.09.83 4.81.13 1.45.26 2.82.58 3.81.48 1.48 1.62 3.82 3.32 6.76.91 1.57 1.53 4.24.08 5.26-.92.64-1.92.88-2.87.69-.9-.18-1.69-.73-2.24-1.56-.84-1.28-3.81-7.26-4.61-8.96v-.01c-.1.15-.3.56-.56 1.62-.17.71-.33 1.54-.47 2.41-.27 1.66-.43 3.31-.41 4.12.05 2.07 1.19 8.06 2.57 9.61.65.73 1.4 1.45 2.19 2.21.96.92 2.04 1.96 3.17 3.23.52.58.57 1.28.14 1.81-.66.81-2.37 1.11-4.22.05-2.88-1.64-8.97-7.52-10.37-10.88-.9-2.15-1.71-9.26-2.44-15.53-.19-1.63-.37-3.21-.54-4.63-.26-2.08-.46-3.49-.64-4.44-.55-2.97-.24-5.24.08-7.65.25-1.9.52-3.86.42-6.38-.24-5.81 1.35-56.15 2.61-60.96 1.48-5.68 1.93-11.56 2.36-17.26.22-2.85.44-5.8.79-8.7 1.16-9.61 3.47-18.92 6.15-29.21.15-.57.29-1.15.44-1.74 1.21-4.8 2.58-10.24 5.95-13.89 4.56-4.94 10.72-7.02 16.14-8.4l.33-.08c6.1-1.56 12.42-3.16 16.09-7.46.88-1.03 1.72-4.12.66-12.97-.82-1.13-1.89-2.7-2.43-3.86-.99-2.14-2.16-5.11-2.4-7.55-.45.42-.99.66-1.54.68a1.97 1.97 0 0 1-1.64-.75c-.85-1.04-3.88-7.28-4.22-8.67-.16-.68-.48-1.7-.81-2.79-.36-1.18-.73-2.39-.99-3.41-.59-2.28-.67-4.95.86-5.59.84-.35 1.64.38 2.22 1.1-.41-2.92-.81-10.62-.32-17.68.67-9.58 9.08-23.93 29.52-24.21h.91c20.44.28 28.85 14.64 29.52 24.21.49 7.06.09 14.77-.32 17.68.58-.72 1.38-1.45 2.22-1.1 1.53.64 1.44 3.31.86 5.6-.26 1.02-.63 2.23-.99 3.41-.33 1.09-.65 2.11-.81 2.79-.33 1.39-3.36 7.63-4.21 8.67-.42.51-.99.77-1.64.75-.55-.02-1.08-.27-1.54-.68-.24 2.44-1.41 5.41-2.4 7.55-.54 1.16-1.61 2.73-2.43 3.86-1.06 8.84-.23 11.93.66 12.97 3.67 4.29 9.98 5.9 16.09 7.46l.33.08c5.42 1.38 11.58 3.46 16.14 8.4 3.37 3.65 4.74 9.09 5.95 13.89.15.59.3 1.17.44 1.74 2.68 10.3 5 19.61 6.15 29.21.35 2.91.57 5.85.79 8.71.43 5.69.88 11.58 2.36 17.25 1.25 4.81 2.84 55.14 2.61 60.96-.1 2.52.16 4.48.41 6.38.32 2.41.63 4.68.08 7.65-.18.95-.38 2.37-.64 4.44-.17 1.42-.36 2.99-.54 4.62-.72 6.27-1.54 13.38-2.44 15.53-1.4 3.36-7.49 9.24-10.37 10.88-1.85 1.06-3.56.77-4.22-.05-.43-.53-.38-1.23.14-1.81 1.13-1.28 2.22-2.32 3.17-3.23.8-.76 1.55-1.48 2.19-2.21 1.38-1.55 2.51-7.55 2.57-9.61.02-.81-.15-2.46-.41-4.12-.14-.87-.3-1.7-.47-2.41-.26-1.06-.46-1.47-.56-1.62v.01c-.8 1.7-3.77 7.67-4.61 8.96-.55.83-1.34 1.39-2.24 1.56-.95.19-1.95-.05-2.87-.69-1.46-1.01-.83-3.68.08-5.26 1.69-2.94 2.84-5.28 3.32-6.76.32-.99.45-2.36.58-3.81.16-1.72.32-3.49.83-4.81.74-1.92 1.87-3.5 2.86-4.9 1.14-1.61 2.13-3.01 2.11-4.34-.05-2.33-5.59-22.23-9.3-35.04-3.37-11.63-5.1-20.38-5.32-23.9-.12-1.9-.05-3.91.02-5.86.06-1.85.12-3.6 0-4.9-.15-1.57-1.1-7.71-1.94-13.13-.57-3.68-1.11-7.16-1.3-8.62-.01-.09-.04-.19-.08-.3-1.8 21.3-1.56 35.69-1.42 44.34.04 2.52.07 4.52.04 5.93-.26 9.86.26 15.43 2.07 28.25.19 1.35.43 2.91.7 4.64 1.31 8.36 3.29 20.99 2.35 31.23-.37 4.08-2.07 17.09-3.72 29.68-1.72 13.14-3.49 26.72-3.49 28.22 0 1.31.28 2.9.64 4.91.42 2.38.95 5.35 1.18 8.97.25 3.95.13 7.69.03 10.7-.07 2.03-.12 3.63-.03 4.65.05.66.23 1.35.46 2.22.65 2.47 1.62 6.19 1.33 14.66-.35 10.07-2.34 28.08-3.66 40-.6 5.39-1.03 9.28-1.06 10.29-.07 1.79.16 3.45.39 5.06.17 1.25.34 2.44.34 3.57 0 .83-.06 1.67-.13 2.57-.14 1.84-.28 3.74.12 5.65s1.14 5.47 3.52 10.05c.47.9 2.25 2.83 3.69 4.38.98 1.05 1.75 1.89 2 2.27 1.84 2.84 2.89 5.04 3.12 6.54.11.75-.17 1.49-.73 1.88-.41.29-.92.36-1.42.2-.11.7-.39 1.49-1.03 1.91-.42.27-.92.34-1.51.21-.19.69-.67 1.23-1.34 1.49-.72.28-1.55.19-2.24-.23-.41.81-1.08 1.35-1.9 1.52-1.38.29-3.05-.45-4.73-2.06-.62 1.38-1.83 2.23-3.51 2.46a7 7 0 0 1-.94.06Zm28.82-204.52" opacity=".2"/>
  <path fill="#d16f54" d="M231.21 196.53c-3.06-2.42-7.84-2.86-10.02.98-1.49 2.62-.22 6.39 2 7.53.25.13.85.24 1.01.49s0 1.21 0 2.2c-.19.17-.4.34-.62.51-.73.57-1.64 1.21-2.74 2.33-2.75 2.79-2.97 8.11-2.97 11.53s1.17 13.87 1.17 17.2-2.16 7.93-2.16 11.89c0 3.51 3.87 6.35 3.87 12.25 0 .36-.04.72-.13 1.06-.07.3-.18.58-.31.86-.11.23-.24.43-.38.64-.06.09-.13.16-.19.25-.03.04-.05.08-.07.12s-.02.09-.03.13l-.03.18v.05c0 .02.02.03.04.03h.02c.03-.01.06-.03.09-.04 0 0 .02 0 .03-.01.04-.02.09-.03.12-.05s.06-.07.08-.1c.05-.07.11-.14.16-.21.1-.13.19-.27.28-.41.17-.27.31-.54.43-.83.11-.28.2-.58.26-.88q.09-.48.09-.96v-.18c-.09-5.59-3.78-8.38-3.78-11.71 0-3.96 2.25-6.85 2.34-12.25.06-3.6-.9-10.27-.9-16.93 0-6.14.99-9.22 2.7-10.66.58-.49 1.56-.96 2.52-1.08.23-.03.45-.04.67-.03.2.53.35.89.29 1.05-.12.3-2.17 1.44-2.41 4.27-.18 2.04 1.44 4.49 3.2 5.56 2.04 1.24 4.74 1.06 6.77-.11 4.45-2.56 5.11-10.82 4.18-15.23-.74-3.52-2.71-7.17-5.55-9.43Zm-31.02 42.78c0-3.33 1.17-8.69 1.17-12.12s-.23-8.74-2.97-11.53c-1.11-1.13-2.01-1.77-2.74-2.33-.29-.22-.55-.44-.79-.67-.01-.89-.15-1.72 0-1.95.15-.24.74-.35.97-.48 1.49-.76 2.53-2.75 2.55-4.73 0-.88-.18-1.76-.62-2.53-2.1-3.7-6.71-3.28-9.66-.94-2.74 2.18-4.64 5.69-5.35 9.09-.9 4.25-.26 12.21 4.03 14.68 1.95 1.12 4.56 1.3 6.52.1 1.69-1.03 3.25-3.4 3.08-5.36-.24-2.73-2.21-3.83-2.32-4.12-.06-.14.07-.45.24-.91.28-.03.56-.02.85.02.96.13 1.94.59 2.52 1.08 1.71 1.44 2.7 4.52 2.7 10.66 0 6.67-.96 8.24-.9 11.85.09 5.41 2.34 8.29 2.34 12.25 0 3.33-3.69 6.13-3.78 11.71 0 .17 0 .35.01.52.04.64.2 1.26.48 1.83.15.3.32.58.52.85.11.15.22.29.33.43.05.06.11.16.17.21.06.04.14.06.2.1.07.04.14.07.22.05 0-.04-.02-.08-.04-.12-.01-.03-.03-.07-.04-.1-.23-.52-.67-.92-.93-1.43-.31-.61-.47-1.28-.47-1.97 0-5.9 3.87-8.74 3.87-12.25 0-3.96-2.16-8.56-2.16-11.89"/>
  <path fill="#f4bbb5" d="M232.45 175.88c-2.87-.57-4.26.18-5.37.79-.64.35-1.11.53-1.76.5-3.07-.14-5.61-.93-7.55-2.36-5.1-3.74-5.9-11.07-6-17.75-.06-4.2-.12-8.48-.17-12.61v-1.09c-.06-4.5-.12-8.99-.17-13.49l-.06-4.9c-.07-6.15-.14-12.3-.22-18.45-.02-1.37-.07-4.51.18-8.09 0-2.33.26-4.66.56-6.98.13-.99.33-1.98.42-2.98.06-.63.3-2.53-.5-2.87-.3-.13-.56 1.23-.75 1.44-.33.37-.89.41-1.38.36-.45-.04-1.05-.23-1.48 0-.4.23-.45.89-.5 1.3-.14 1.08-.04 2.17-.15 3.25-.25 2.49-.44 5-.41 7.51.03 2.56.06 4.77.05 5.65-.04 4.48-.07 9.02-.07 13.48 0 5.27.03 10.14.09 14.88.03 1.97.02 4.11 0 6.38-.01 3.28-.03 6.66.07 9.59.05 1.45.08 2.88.11 4.26.14 6.32.26 12.29 2.14 18.73.32 1.1 1.25 1.95 2.14 2.78.39.36.76.7 1.08 1.06 2.25 2.55 5.71 3.82 7.99 4.66.82.3 1.47.54 1.85.76.89.5 1.58.9 1.65 1.35.22 1.51-1.66 4.49-4.71 6.35-1.88 1.14-3.57 1.15-5.06 1.16-1.03 0-2.01.01-2.91.39-.55.23-.92.47-1.2.64-.08.05-.17.11-.25.15-.03-.05-.07-.12-.1-.16-.36-.57-.97-1.52-2.29-1.88-1.95-.54-7.02-1.03-11.85 6.08-5.14 7.55-1.32 12.65-.5 13.6 1.56 1.8 4.55 2.6 6.27 2.19 1.03-.24 1.81-.07 2.72.13.51.11 1.03.23 1.65.29 1.39.13 2.78.09 4.15-.14 1.39-.23 2.66-.75 3.98-1.23.42-.15.97-.28 1.26.06.18.2.18.52.09.78-.1.26-.29.46-.48.66-.85.92-1.87 1.8-2.53 2.91-.94 1.58-.9 3.65-.03 5.25 1.03 1.89 3.1 2.38 5.07 2.69 1.74.27 4.03.94 4.37 2.95.86-.1 1.76-.03 2.63.33.43.18.77.39 1.05.63-.09-1.44-.15-2.96-1-4.18-1.19-1.69-2.92-2.75-4.96-3.02-.87-.11-1.76-.16-2.56-.51-.9-.39-1.54-1.16-1.1-2.17.3-.71.97-1.22 1.47-1.78.57-.65 1.19-1.25 1.72-1.95 2.21-2.96-.55-6.65-3.9-6.55-1.41.04-2.88.43-4.23.8-.69.19-1.4.38-2.11.5-1.87.32-3.27.3-4.55-.04-.26-.07-.55-.38-.9-.75-.3-.32-.64-.68-1.07-1-.14-.11-.29-.2-.43-.3-.86-.58-1.61-1.07-1.05-3.71.38-1.79 1.9-3.96 3.54-5.06 1.03-.69 1.74-.83 2.37-.95.31-.06.61-.12.91-.24.24-.1.43-.1.48-.08v.3c-.04.98-.12 3.03 2.1 5.1 1.34 1.25 4.85 3.29 9.52 3.01 4.56-.28 8.76-2.68 12.49-7.14 4.99-5.97 7.02-12.23 5.43-16.74-.86-2.42-2.72-4.03-5.26-4.52Z"/>
  <g fill="#fd9687">
    <path d="M220.4 111.06c-3.45.46-3.03 4.04-5.1 7.02-.16.23-.34.49-.53.77-.12-.13-.23-.25-.35-.37a.186.186 0 0 0-.28.02c-.71.97-1.11 1.76-1.48 2.69-.05.13-.02.27.08.36.09.08.19.18.29.29-1.31 2.68-2.38 6.33-1.69 10.76 1.36 8.74 9.05 13.83 10.41 19.11 1.36 5.29-3.48 10.44-1.06 12.81 1.77 1.73 5.46 1.53 9.4 2.37s9.4 3 11.98 1.33c2.58-1.66 1.21-22.63-2.73-33.49s-13.8-24.36-18.95-23.67Zm-14.79 10.8c.17-.16.19-.41.05-.6-.6-.82-1.11-1.58-1.52-2.35a.2.2 0 0 0-.26-.09c-.01-.02-.02-.05-.04-.07-1.65-3.02-.27-7.41-4.66-7.68-5.23-.33-14.54 10.7-19.2 25.79s-4.66 28.8-2.74 30.18c1.92 1.37 12.62-1.65 16.73-2.19 4.11-.55 8.5-.55 9.88-2.19 1.37-1.65 2.18-15.48 2.2-20.03.04-7.77-.28-15.38-1.1-20.06.25-.28.48-.52.66-.69Zm7.11-30.41c-.65-.14-1.87 5.84-3.86 6.04-2.97.3-3.19-3.67-4.15-3.42-.47.12.05 3.2.23 3.98.14.65.49 2.55.93 2.86.58.4 2.06.81 3.24.8 1.05-.01 3.15-.51 3.62-1.23s.65-8.88 0-9.02Zm.16 24.29c-.37-.06-1.45 1.01-3.59 1.04s-3.33-1.1-3.68-.96c-.35.15-.75 1.54-.51 2.12.11.26 1.69 3 2.09 3.12s1.12-.3 1.95-.3c1.08 0 1.75.3 2.04.23.4-.1.59-1.2.99-1.92.32-.57.95-1.24 1.23-1.67.22-.33-.16-1.59-.54-1.65Z"/>
    <path d="M212.51 111.75c-.38-.17-1.04.6-3.04.6-2.75 0-2.75-.7-3.17-.6-.66.16-.76 2.64-.19 3.2 1.07 1.07 5.16 1.54 6.57-.17.33-.4.14-2.91-.16-3.04Zm-3.04-3.81c-2.46-.06-2.82-.93-3.31-.72-.53.22-.54 2.49-.03 3.01 1.13 1.15 4.87 1.16 6.21.26.62-.42.55-2.78.24-3.19-.38-.5-.64.7-3.1.64Zm-.15-4.52c-2.09-.03-2.96-.97-3.33-.82-.35.14-.31 2.39-.07 2.69.51.64 1.98 1.09 3.4 1.12 1.19.02 2.58-.23 3.21-.88.28-.29.56-2.69.19-2.93-.4-.27-1.32.85-3.41.82Z"/>
  </g>
  <path fill="#d16f54" d="M207.24 191.35c-.07 0-.13-.05-.15-.11-.05-.13-.2-.33-.55-.37a.96.96 0 0 0-.73.21c-.06.05-.13.05-.2.02-.2-.1-.64-.28-.94-.24-.27.04-.47.29-.57.45-.05.08-.14.11-.22.08-.19-.07-.55-.14-.91.06-.22.12-.35.35-.41.51-.04.1-.14.14-.24.11-.21-.08-.57-.17-.87-.04s-.47.47-.54.65c-.03.07-.09.11-.16.12-.23.02-.74.08-1.05.35-.25.21-.3.56-.31.79 0 .12-.11.21-.23.18-.25-.06-.64-.08-.87.26-.16.24-.19.5-.17.71.01.14-.11.24-.25.2-.18-.06-.38-.05-.52.21-.18.33-.18.66-.16.86.01.1-.05.19-.15.21-.16.04-.4.14-.57.45-.18.32-.1.67 0 .91.04.12-.03.24-.16.25-.2.02-.46.1-.59.36a1.2 1.2 0 0 0-.1.75c.02.08-.01.16-.08.2-.15.1-.39.3-.47.57-.08.29.01.64.07.82.02.07 0 .15-.05.2-.12.12-.34.39-.38.8-.04.4.11.72.21.88.04.07.04.16-.01.22-.13.17-.36.54-.32 1.01.04.43.18.67.27.79.04.06.05.13.02.2-.09.2-.25.63-.12 1.06.1.33.33.44.51.47.12.02.19.13.15.24-.08.25-.15.63.04.93.2.32.62.45.86.5.1.02.17.11.15.21-.02.17 0 .44.21.58.22.15.57.11.79.06.11-.02.21.05.23.15.03.18.1.42.27.49.22.09.58-.02.74-.08.05-.02.11-.02.16.01.17.09.6.31.92.31.41 0 1.46-1.35 1.29-1.76-.13-.31-.55-.51-.76-.6a.17.17 0 0 1-.11-.16c0-.11-.04-.29-.18-.53-.12-.21-.33-.26-.5-.27-.13 0-.22-.13-.18-.25.05-.15.08-.35.04-.59-.07-.39-.27-.63-.42-.76a.18.18 0 0 1-.02-.26c.12-.15.29-.41.32-.79.04-.4-.2-.73-.38-.92a.196.196 0 0 1 .05-.3c.18-.09.41-.26.57-.54.29-.5.18-.85.05-1.05-.06-.1-.03-.23.07-.28.24-.12.61-.35.76-.72.15-.38.16-.77.14-.99 0-.1.06-.18.15-.2.25-.04.71-.21 1.11-.86.31-.49.38-.92.4-1.14 0-.09.07-.15.16-.17.21-.04.6-.13.96-.33.33-.18.45-.5.5-.71.02-.11.13-.17.24-.14.19.05.48.11.78.04.35-.08.7-.36.89-.54a.2.2 0 0 1 .27.01c.1.11.29.22.59.12.16-.05.27-.18.33-.29.05-.09.16-.12.25-.07.17.09.44.17.65.01.64-.47.64-2.81.18-3.22-.24-.21-.58-.27-.76-.29Zm15.58-25.51c-.99-.02-5.26-.85-6.92-.84-1.66 0-4.99.31-5.79 1.51-.58.88-.64 2.67-.6 3.71.03.8.32 1.83.63 3.6s.45 5.4 1.28 6.1c.83.71 7.95-2.95 9.96-4.93 1.25-1.23 2.87-3.8 3.68-5 .82-1.2 2.87-2.74 2.13-3.89-.85-1.32-3.39-.24-4.38-.26Z"/>
  <path fill="#d16f54" d="M209.57 174.83c-.32-2.02-1.04-4.58-.85-6.06.19-1.42.7-2.55.14-2.77-2.57-1.03-17.94-2.82-23.49 3.35-5.55 6.18-1.75 20.18-1.87 22.03-.11 1.85-1.89 3.64-.68 4.76 1.26 1.17 4.36-.07 6.01-1.11.28-.18.66-.38.74-.7.07-.28 0-.58 0-1.01 0-.95.44-2.24 2.44-3.02 2.18-.85 3.19-.49 3.75.11.2.22.5.54.72.6.35.1.85.03 1.23-.04 2.33-.45 6.76-1.69 8.6-2.98 3.83-2.68 4.55-6.45 4.13-7.91s-.63-3.74-.88-5.26Z"/>
  <path fill="#00949c" d="M194 190.44c-1.39 0-3.21.93-3.64 1.93-.01.03-.03.07-.04.1-.44 1.26.31 2.03 1.44 2.03h.21c1.55-.12 3.64-1.19 3.71-2.35.07-1.23-.7-1.7-1.69-1.7Z"/>
  <path fill="#fd9687" d="M229.26 216.46c-5.51 2.54-12.26 3.48-16.95 3.82-5.58.41-11.3-.33-16.52-2.14-1.13-.39-2.2-.97-3.23-1.52-1.32-.71-2.69-1.45-4.19-1.79-1.9-.43-3.52.36-4.24 2.06-.86 2.03-.62 4.72-.41 7.09.07.78.13 1.51.16 2.2l.12 3.32c.08 2.22.16 4.52.28 6.77.13 3.31.27 6.72.11 10.08-.09 1.85-.18 3.93 1.04 5.26.4.43.92.76 1.43 1.08.67.42 1.37.86 1.81 1.55.51.8.57 1.76.64 2.68v.19c.08.95.22 1.92.83 2.56.44.47 1.23.63 1.77.36.17-.09.31-.22.4-.38.31-.57-.01-1.3-.38-1.76-.18-.22-.38-.42-.58-.62-.3-.3-.61-.61-.85-.98-.33-.53-.48-1.14-.63-1.73-.16-.63-.3-1.23-.66-1.73-.35-.5-.87-.83-1.43-1.18-.54-.35-1.1-.71-1.5-1.24-.76-1.02-.74-2.37-.71-3.57.08-4.35-.2-8.78-.46-13.06-.22-3.46-.44-7.05-.47-10.58 0-.27-.02-.62-.04-1.02-.12-2.14-.32-5.71 1.71-6.31 1.49-.44 3.19.45 4.69 1.24.43.23.84.44 1.21.61 5.98 2.62 12.9 3.77 20.01 3.34 4.94-.3 10.85-1.73 14.74-2.97.59-.19 1.29-.48 2.03-.8 2.32-.98 4.95-2.1 6.3-.9 1.37 1.22 1.12 3.45.85 4.68-1.19 5.34-1.66 10.19-1.55 16.21.04 2.18.2 4.41.36 6.56.25 3.39.51 6.9.28 10.36-.11 1.71-.43 3.84-1.85 5.18-.99.93-2.47 1.43-4.52 1.53-2.81.13-5.63-.36-8.35-.83-2.03-.35-4.13-.72-6.21-.82-.2 0-.4-.02-.61-.02-1 0-2.1.15-2.85.87-1.1 1.06-.96 2.82-.61 4.48.22-.37.32-.83.42-1.31.1-.46.2-.93.42-1.35.9-1.72 3.3-1.82 4.64-1.73 1.87.12 3.74.47 5.56.81 2.35.44 4.77.89 7.18.85 2.34-.04 4.17-.6 5.43-1.66 1.16-.98 1.99-2.55 2.32-4.41.31-1.74.2-3.56.1-5.16l-.15-2.34c-.38-5.91-.77-12.02-.25-18.03l.09-1.08c.2-2.46.41-5 1.01-7.42.4-1.63.57-3.94-.91-5.63-1.55-1.77-4.33-.83-6.85.33Z"/>
  <path fill="#feb967" d="M224.84 195.68c-.82.09-2.55-.38-4.39.04-1.43.33-2.46 1.22-3.25 1.3s-3.73-1.9-8.78-.65-7.21 4.48-7.5 6.39c-.02.16-.03.32-.03.47l-.18.03c-.03.37-.03.68 0 .94.09-.03.19-.07.28-.1.25 1 .88 1.88 1.45 2.28.68.49 3.55 1.6 6.08.58 1.35-.55 1.27-1.98 1.49-2.23.21-.24 1.18.39 3.01-.16 1.84-.55 3.55-2.08 4.63-2.4s3.39-.57 5.03-1.11c2.13-.71 6.83-4.46 5.57-6.11-.71-.93-2.6.63-3.42.72Z"/>
  <path fill="#f4bbb5" d="M225.93 231.6c.04-.14.11-.29.17-.46.23-.6.52-1.34.48-2.17-.04-.71-.35-2.02-2.07-2.73-2.87-1.18-6.02.75-7.36 1.58-.77.47-1.43 1.07-2.01 1.6-1.44 1.31-1.91 1.59-2.75 1.28-.53-.2-1.04-.56-1.41-.99-.09-.1-.18-.24-.29-.38-.49-.67-1.3-1.8-2.91-1.99-2.51-.29-4.78 2.16-5.06 4.46-.19 1.52-.46 2.19-.93 2.33a.8.8 0 0 1-.2.04c-.07-.07-.36-.39-.63-1.47-.24-1-.35-2.18-.44-3.12-.04-.48-.08-.89-.13-1.24-.26-1.77-1.32-3.11-2.91-3.68-1.77-.64-3.9-.16-5.42 1.21-2.24 2.02-.9 4.72-.18 6.17.24.49.52 1.04.58 1.36.14.72 0 .93-.56 1.73-.33.47-.73 1.06-1.07 1.84-.5 1.18-.51 2.44-.02 3.47.72 1.51 1.92 1.8 2.57 1.84.77.05 1.45-.19 1.99-.39.14-.05.34-.12.48-.16.13.1.2.19.22.27.18.77-1.05 2.65-1.78 3.78-.68 1.04-1.33 2.03-1.63 2.97-.58 1.8-.25 3.7.85 4.95 1.05 1.19 2.73 1.78 4.2 2.3.44.16.86.31 1.18.44 1.06.46 2.07.69 2.98.69 1.35 0 2.47-.5 3.17-1.47.76-1.05.78-2.52.07-3.74.61.12 1.26.2 1.96.15 1.39-.09 2.31.1 3.47.89.99.67 1.9 1.46 3.17 1.4 1.25-.06 2.26-.56 3.15-1 .39-.2.77-.38 1.1-.5.74-.26 1.59-.26 2.32 0 .09.03.19.07.28.1.75.28 2 .74 3.29.13.98-.46 1.64-1.37 1.97-2.71.57-2.31.31-4.75-.73-6.89-.58-1.19-1.3-2.01-2.21-2.52-1.7-.95-3.99-.65-5.7.76-.69.57-1.2 1.38-1.68 2.16-.29.46-.79 1.27-1.12 1.54l-.26-.36c-.2-.29-.43-.61-.73-.92-2.03-2.13-4.53-1.34-6.19-.82-.6.19-1.17.37-1.58.39-.43.02-.75-.12-.91-.39-.18-.3-.14-.72.11-1.12.44-.71 1.29-1.31 2.12-1.88.24-.17.5-.37.77-.59.37-.3.95-1 1.43-1.08.73-.12.9 1.59 1.09 2.05.34.8.86 1.49 1.66 1.87 1.8.86 3.72 0 4.77-2.17.05-.1.1-.21.16-.34.48-1.02.98-2.97 2.34-2.46 1.06.4 1.57 1.74 2.6 2.19 1.23.54 2.5.4 3.66-.26 1.57-.9 2.05-2.64 1.18-4.32-.79-1.55-1-2.61-.68-3.56Zm-3.13 4.57c-.07.04-.3.07-.34-.04-.04-.09-.09-.26-.12-.37-.21-.66-.55-1.76-1.68-2.39-.89-.5-1.86-.6-2.8-.29-2.29.73-3.7 3.71-4.46 5.31v.02c0-.04-.02-.07-.02-.1-.23-1-.59-2.52-2.17-3.31-2.27-1.14-4.51.66-5.85 1.73-.22.18-.43.34-.57.44-1.03.72-2.31 1.62-3.17 2.99-.99 1.6-1.05 3.54-.16 5.06.89 1.51 2.53 2.35 4.38 2.25.9-.05 1.73-.31 2.53-.56 1.55-.49 1.98-.52 2.3-.18.1.11.23.29.37.49.46.66 1.16 1.65 2.49 1.94 2.79.61 4.31-1.84 5.22-3.3.28-.45.66-1.06.87-1.24.46-.38 1.1-.55 1.41-.37.12.06.35.26.65.87.36.74 1.17 2.88.79 3.67-.37.77-1.64.48-2.3.38-1.18-.17-2.28-.35-3.44.05-.57.2-1.1.46-1.56.69-1.96.98-2.14.05-3.8-.91-1.51-.86-3.13-.85-4.53-.76-.67.04-1.38-.17-2.21-.41-.92-.27-1.97-.58-3.14-.57-1.81.02-2.37 1.25-2.5 1.62-.51 1.49.6 2.88 1.26 3.41.35.27.71.56.99.89-.79-.15-1.51-.53-2.26-.8-.89-.31-2.22-.79-2.62-1.24-.2-.23-.23-.77-.08-1.26.14-.45.7-1.3 1.19-2.05 1.34-2.05 2.85-4.37 2.3-6.72-.19-.8-.72-1.94-2.17-2.8-.55-.32-1.1-.44-1.61-.44-.58 0-1.11.14-1.54.28.16-.31.36-.59.56-.89.68-.99 1.61-2.33 1.16-4.63-.16-.81-.54-1.57-.9-2.31-.22-.44-.86-1.3-.52-1.8.25-.36 1.05-.44 1.43-.31.12.04.36.13.43.65.04.25.07.61.11 1.03.21 2.35.54 5.91 2.72 7.4.68.46 1.81.92 3.39.46 1.43-.42 2.45-1.46 3.02-2.81.43-1.02.14-2.87 1.12-3.61.34-.26 3.31 2.62 4.08 2.91 3.13 1.17 5.24-.76 6.64-2.03.5-.46.98-.89 1.44-1.17.51-.31 3.76-2.4 3.18-.65-.37 1.13-.41 2.32-.19 3.48.03.16.73 2.26.67 2.29Z"/>
  <path fill="#fd9687" d="M240.23 223.81c.44-.39 1.18-1.05 1.38-3.31.24-2.63-1.39-3.4-2.08-3.73-.05-.02-.11-.05-.15-.07l.06-.06c.31-.32.89-.91 1.03-2.51.21-2.39-2.26-5-4.45-5.56-1.92-.5-3.55.72-4.25 1.24-.12.09-.23.18-.28.2-.1.04-.36.03-.62.02-.53-.02-1.25-.05-1.94.26-.39.18-.71.63-.97.99-.12.17-.28.4-.34.43-.06.02-.33.05-.58.08-.69.07-1.74.19-2.56.49-1.26.46-1.82 1.07-2.16 1.44-.11.13-.23.25-.29.27-.1.02-.48-.07-.82-.15-.92-.21-2.3-.53-3.54-.33-.57.09-1.07.29-1.49.52q-.285.165-.54.33c-.29.19-.53.39-.74.56-.23.19-.47.38-.57.4-.09.02-.31-.08-.52-.18-.43-.2-1-.46-1.79-.48-.14 0-.28 0-.43.01-.16.01-.33.03-.5.07-.66.14-1.26.49-1.74.77-.31.18-.63.37-.79.37-.12 0-.35-.15-.58-.3-.45-.3-1.07-.7-1.88-.75-1.11-.06-1.79.41-2.29.75-.23.16-.44.3-.57.3-.1 0-.19-.11-.34-.32-.31-.4-.78-1.01-2-1.2-.88-.14-1.78.22-2.31.43-.12.04-.25.1-.33.12-.05-.08-.15-.25-.23-.4-.36-.69-.97-1.83-2.19-2.51-1.16-.65-2.27-.63-3.01-.61-.27 0-.6.01-.67-.04-.08-.05-.17-.25-.28-.46-.3-.6-.76-1.5-1.94-2.13-1.29-.68-2.72-.19-3.56.1-.22.08-.45.16-.53.16s-.28-.06-.5-.13c-.79-.25-2.26-.72-3.78-.04-1.4.63-1.57 1.68-1.69 2.37-.05.28-.09.52-.19.63-.08.08-.27.17-.49.27-.83.37-2.22 1-2.52 3.39-.29 2.22.85 2.87 1.46 3.22.14.07.32.18.34.23 0 .16-.11.35-.24.59-.23.42-.55.99-.62 1.97-.07 1.06.51 1.42.89 1.66.25.15.34.22.34.35 0 .19-.22.51-.46.85-.42.62-1 1.46-1.07 2.56-.07 1.21.49 2.1.85 2.69.14.21.29.46.29.55 0 .1-.11.3-.23.51-.29.5-.72 1.26-.72 2.44 0 1.31.88 2.16 1.36 2.62l.23.23c-.06.06-.17.17-.27.26-.58.55-1.66 1.58-1.51 3 .13 1.25 1.08 1.98 1.71 2.46.18.14.42.33.48.4-.09.07-.31.2-.52.32-1.23.7-4.12 2.34-4.04 6.31.04 2.29.95 4.37 2.56 5.84 1.66 1.54 3.98 2.32 6.33 2.17 2.66-.17 3.71-2.01 4.48-3.36.28-.5.53-.92.79-1.16.19-.17.43-.34.71-.54 1.21-.86 2.87-2.05 3.07-5.22.14-2.14-1.71-3.35-2.81-4.07-.34-.22-.76-.49-.8-.61 0-.12.05-.28.12-.47.17-.48.42-1.22.35-2.48-.06-1.25-.61-1.95-.96-2.4-.13-.17-.27-.35-.27-.43.01-.1.28-.35.46-.54.53-.53 1.34-1.34 1.34-2.41s-.69-2.1-1.15-2.76c-.17-.25-.35-.51-.37-.61 0-.12.28-.54.49-.85.49-.73 1.1-1.63 1.04-2.45-.07-.91-.7-1.54-1.08-1.91-.09-.09-.21-.21-.25-.27.03-.06.13-.18.21-.28.24-.29.57-.68.64-1.2.04-.35-.06-.68-.19-.95.02.02.04.03.06.05.62.49 1.55 1.23 2.57 1.65 1.11.46 2.11.21 2.85.02.33-.08.64-.16.78-.11.15.05.36.22.61.42.58.46 1.36 1.1 2.56 1.3 1.07.18 2.16-.1 2.97-.31.45-.12.92-.23 1.09-.18.11.04.24.25.39.47.38.58.95 1.45 2.41 1.63.92.12 1.79-.37 2.37-.7.2-.11.44-.25.51-.25.09.01.4.19.65.33.7.4 1.77 1 2.77 1s1.84-.69 2.56-1.25c.32-.25.71-.55.86-.55.12 0 .45.07.82.16 1.22.29 3.25.76 5.12.4 1.86-.36 3.12-1.57 3.81-2.23.14-.13.29-.28.36-.33.1.03.32.15.49.23.45.23 1.02.52 1.48.52.37 0 .8-.21 1.18-.39.15-.07.35-.17.49-.21-.05.12-.14.29-.22.42-.24.44-.54.99-.54 1.57 0 .74.41 1.85.68 2.58.08.21.15.4.18.5-.03.14-.31.57-.56.95-.69 1.06-1.63 2.51-1.63 3.68 0 1.08.61 2.29 1.05 3.18.23.47.5 1 .47 1.15-.03.18-.23.44-.44.72-.35.47-.8 1.05-.8 1.69s.35 1 .63 1.3c.2.21.32.35.32.5 0 .18-.23.67-.45 1.1-.4.82-.85 1.75-.79 2.44.05.6.41 1.42.73 2.14.18.41.43.98.42 1.11-.02.06-.18.25-.3.4-.48.57-1.28 1.53-1.13 2.73.11.89.45 1.51.67 1.93.1.19.24.45.22.49-.07.06-.44.06-.76.05-.67 0-1.67 0-2.91.32-.59.15-1.07.51-1.45.8-.3.22-.58.43-.77.43-.16 0-.56-.21-.95-.42-.82-.44-1.94-1.04-3.13-1.1-1.27-.07-2.06.32-2.69.63-.29.15-.54.27-.8.33-.34.07-1.08-.1-1.86-.28-.99-.23-2.21-.52-3.32-.48-2.86.09-4.81 2.59-5.36 6.85-.45 3.57.36 5.31.95 6.59.29.61.53 1.14.57 1.73.03.47-.16 1.1-.39 1.83-.42 1.34-.93 3.02-.36 4.79.89 2.76 2.19 4.36 2.97 5.31.28.34.59.72.58.83-.05.16-.1.29.03.4s.27.03.31 0c.06-.04.16-.1.35-.09.34.01.51 0 .65 0h.38c.03 0 .07.02.11.04.12.05.27.1.4.1.1 0 .18-.03.26-.1.17-.17.09-.43.06-.52-.03-.12.35-.56.64-.87.63-.72 1.59-1.81 2.05-3.31.8-2.6.83-5.12.85-6.78.01-.8.02-1.44.11-1.79.25-1.01.66-1.71 1.01-2.33l.11-.18c.26-.45.25-.86.24-1.13v-.04c.35.35 1.05.99 2.57 1.19 1.62.21 2.88-.37 3.63-.72.24-.11.49-.22.57-.22.1.02.36.29.55.49.57.59 1.42 1.48 2.51 1.41s1.74-.77 2.17-1.23c.16-.17.34-.37.43-.39.1-.01.43.12.7.23.86.34 2.31.92 3.7.43 1.46-.51 2.17-1.94 2.59-2.79.12-.23.26-.52.32-.57s.27-.13.49-.21c.87-.32 2.5-.92 3.55-2.51 1.07-1.59.54-3.69.26-4.82-.06-.24-.13-.51-.13-.58.01-.05.14-.2.25-.32.45-.52 1.3-1.48 1.38-3.25.06-1.62-.72-2.59-1.24-3.24-.18-.23-.37-.47-.37-.57 0-.14.17-.37.34-.62.37-.52.89-1.24.89-2.33s-.52-1.91-.91-2.52c-.15-.24-.35-.57-.34-.66.02-.12.17-.31.32-.51.35-.47.83-1.12.83-2s-.71-1.38-1.18-1.67c-.12-.08-.28-.18-.33-.24.04-.09.18-.29.31-.47.52-.74 1.49-2.12 1.49-3.89s-.77-3.08-1.17-3.8c-.12-.2-.25-.42-.25-.48 0-.09.2-.36.35-.58.39-.56.92-1.33.98-2.17.06-.87-.44-1.26-.81-1.55-.21-.16-.33-.27-.33-.37 0-.06.06-.13.23-.28Z"/>
  <path fill="#a53a34" d="M219.92 266.11v.32zm0 0v.32z"/>
  <path fill="#d16f54" d="M199.22 259.32c-3.39.97-5.1 4.93-4.7 10.88.12 1.75.26 3.52.4 5.22.17 2.07.34 4.14.44 6.22.08 1.7-.11 3.28-.37 4.96-.23 1.5-.19 3.4-.09 3.9.1.51.4 1.72 1.94 1.8 1.27.07 1.58-.93 1.62-1.54.03-.49-.28-1.37-.26-1.52s0-.13.02-.39c.01-.17 0-.26.02-.33s.1-.1.18-.41c.06-.23.02-.34.03-.39.01-.04.06-.1.12-.25.02.08 0 .16 0 .25 0 1.52.78 3.84 2.5 3.84 1.49 0 2.71-1.86 2.71-3.82 0-.85-.1-1.75-.46-2.53-.16-.35-.38-.68-.68-.93-.15-.13-.32-.23-.5-.32-.1-.05-.22-.08-.33-.12.02-.02.04-.05.05-.08.13-.36-.72-.69-.88-.85-.06-.06-.26-.57-1.01-.57-.56 0-.75.44-.85.54-.07.07-.26.15-.47.38s-.26.44-.31.54-.18.13-.28.41c-.07.18-.03.31-.13.44s-.18.16-.34.46c-.16.29-.16.44-.21.57s-.2.28-.29.62c-.1.34-.02.51-.02.65s-.14.26-.1.65c.05.46.2.54.2.64s-.09.3-.05.57c.05.29.16.57.18.67s0 .21.08.39.15.21.18.26c.07.13.03.26.1.41.08.19.21.24.2.42-.03.36-.39.77-1.13.72-1.22-.08-1.41-1.98-1.39-3.14s.32-2.32.51-3.47c.23-1.45.13-2.9.04-4.36-.1-1.78-.25-3.56-.39-5.34-.14-1.7-.28-3.46-.4-5.21-.38-5.65 1.17-9.39 4.28-10.28 2.54-.73 4.57.84 5.9 2.41.11-.15.26-.28.45-.36-1.43-1.71-3.66-3.42-6.51-2.61m20.24.01c-2.73-.78-4.89.73-6.33 2.36.21.05.39.16.52.29 1.33-1.46 3.27-2.77 5.65-2.09 3.13.9 4.71 4.68 4.32 10.38-.12 1.77-.26 3.55-.4 5.26-.14 1.8-.29 3.59-.4 5.39-.09 1.48-.19 2.94.04 4.41.19 1.15.5 2.33.51 3.5.02 1.17-.17 3.09-1.4 3.17-.74.05-1.11-.36-1.14-.73-.02-.18.11-.24.2-.43.07-.15.03-.28.1-.41.03-.05.1-.08.18-.26.08-.19.07-.3.08-.4.02-.1.13-.38.18-.68.05-.28-.05-.48-.05-.58s.15-.18.2-.64c.04-.39-.1-.51-.1-.66s.08-.31-.02-.66-.25-.5-.3-.63-.05-.28-.21-.58c-.17-.3-.25-.33-.35-.46s-.07-.26-.13-.45c-.1-.28-.23-.31-.28-.41s-.1-.31-.31-.54-.41-.31-.48-.38c-.1-.1-.3-.54-.86-.54-.76 0-.96.52-1.02.58-.17.17-1.02.5-.89.86.01.03.03.06.05.08-.11.04-.22.07-.33.12-.18.08-.35.19-.51.32-.3.26-.52.59-.68.94-.36.79-.46 1.7-.46 2.56 0 1.98 1.24 3.86 2.74 3.86 1.73 0 2.52-2.34 2.52-3.88 0-.09-.01-.17 0-.25.06.15.11.21.12.25.02.05-.03.16.03.4.08.31.17.35.18.41s0 .16.02.33c.02.26 0 .25.02.4s-.3 1.04-.26 1.53c.04.61.35 1.62 1.63 1.55 1.56-.08 1.86-1.3 1.96-1.82.1-.51.14-2.42-.09-3.94-.27-1.7-.45-3.29-.38-5.01.1-2.1.28-4.19.44-6.28.14-1.72.28-3.5.4-5.27.41-6-1.32-10-4.74-10.98Z"/>
  <path fill="#feb967" d="M217.04 261.58c-1.03-.65-2.19-1.09-3.37-1.38-1.33-.33-2.7-.48-4.07-.48-.93 0-1.86.06-2.78.2-.42.06-.83.15-1.24.24-1.11.27-2.19.67-3.16 1.27-.82.51-1.56 1.16-2.08 1.98-.31.48-.53 1-.66 1.55-.07.28-.11.57-.13.85-.04.75.05 1.43.28 2.14 1.66 5.39 7.46 6.22 8.11 6.85.55.53.54 1.8.54 2.7 0 .66 2.09.74 2.09.02 0-1.08-.07-2.3.68-2.84 1.17-.85 6.38-1.87 8.22-6.38.03-.07.06-.14.08-.22.54-1.45.52-3-.28-4.36-.54-.9-1.34-1.62-2.22-2.17Z"/>
  <path fill="#fd9687" d="M212.35 276.28c-.36.4-.99.98-1.58.93-.27-.02-.5-.21-.72-.38-.3-.21-.57-.27-.92-.2-.19.04-.34.18-.48.33-.13.14-.27.3-.46.36-.53.19-1.08-.72-1.37-1.04-.62-.68-.26 1.39.37 3.12s-.02 14.27-.12 14.99c-.11.8-.4.87-.48 1.81s.47 1.45.78 1.94c.29.46.21 1.15.44 1.65.31.69 1 1.1 1.71 1.14h.09c.48 0 .95-.16 1.33-.52.68-.66.42-1.57.86-2.28.31-.5.86-1 .78-1.94s-.37-1.01-.48-1.81c-.1-.72-.75-13.26-.12-14.99s.98-3.8.37-3.12Z"/>
  <path fill="#cc4b42" d="M229.47 148.5c-.63.1-2.38-.06-3.76-.26-.11-.28-.23-.56-.37-.83 1.73-.92 3.06-2.4 3.37-2.91.15-.24-.93-1.03-1.17-.75-.75.84-1.71 1.72-3.13 2.26-.69-.83-1.55-1.5-2.58-1.93 0-.14.01-.28.02-.42 1.91-.79 3.86-.93 5.13-1.08.2-.02.31-2.05.06-2.09-1.85-.33-3.76.09-5.38.51-.19-.7-.53-1.44-1.12-2.23 0-.03.01-.06.04-.09.44-.49.96-1.52 1.02-1.81.03-.16-.88-.82-.97-.64s-1.24 1.88-1.85 1.64c-.62-.24 0-2.3.06-2.45s-1.26-.58-1.33-.35c-.07.22-.55 2.35-1.3 2.46-.62.09-1.66-2.08-1.72-2.24-.1-.29-1.4.35-1.28.57.12.44.31.87.49 1.29.13.3.3.63.36.95-.34.18-.64.4-.95.65-.04.03-.08.07-.12.1-.33.3-.61.64-.85 1-.69-.1-1.41-.13-2.19-.03-.13-.98-.34-2.02-.69-3.05-.08-.26-3.04.6-2.98.93.24 1.24.4 2.34.5 3.34-2.35 1.52-3.91 3.89-3.94 3.98-.04.12 1.05.93 1.15.81.06-.07 1.24-1.67 2.93-2.93.07 1.53 0 2.7-.03 3.57-.13.09-.25.19-.37.28-.96.79-1.59 1.86-1.97 3.02-.77-.12-1.52-.32-2.25-.54-.29-.09-.75 1.46-.58 1.51.74.21 1.61.41 2.49.57-.17 1.21-.13 2.44.07 3.5-.66.18-1.34.3-2.05.35-.22.01.08 1.57.36 1.55.67-.05 1.39-.18 2.11-.34 1.05 2.88 3.3 5.25 6.26 7.26 1.73 1.17 2.36 2.69 3.98 3.98 1.14.91 2.55 1.2 3.27 1.21.64.11 1.47.08 2.19-.13 3.39-.86 4.21-5.14 4.44-7.92.21-2.66 1.08-5.62 1.41-8.28.1-.82.08-1.68-.06-2.51 1.38.08 2.75.07 3.34-.02.24-.04.42-1.53-.06-1.45Zm-18.21-6.34c-.18.9-.23 1.84-.13 2.82-.24.02-.49.05-.73.09-.11-.82-.19-2.05-.28-3.6.17-.02.35-.04.52-.04.28 0 .54 0 .8.01-.07.24-.13.48-.18.73Zm4.12 1.82c-.02.1-.06.2-.11.29-.29.13-.39.21-.44.17-.05-.05-.15-.97.04-1.9.45.43.62.94.51 1.44m.36-3.04c.19-.14.42-.25.69-.29.95-.16 1.48.35 1.78.98-.8-.08-1.61-.36-2.47-.69"/>
  <path fill="none" stroke="#333" stroke-miterlimit="10" d="M224.26 65.24h227.09m-234.37 93.6h234.37m0 58.73h-97.78c-2.76 0-5-2.24-5-5v-21.34c0-2.76-2.24-5-5-5H204.29m247.06 86.4h-96.76c-2.76 0-5-2.24-5-5v-38.26c0-2.76-2.24-5-5-5H212.46m24.67 111.22h214.22m-204.94 97.98h204.94"/>
</svg>
