<svg xmlns="http://www.w3.org/2000/svg" xmlns:xlink="http://www.w3.org/1999/xlink" viewBox="0 0 139.08 117.26">
  <defs>
    <filter id="a" width="95.27" height="85.11" x="22.26" y="17.08" filterUnits="userSpaceOnUse">
      <feOffset dx="2" dy="2"/>
      <feGaussianBlur result="blur" stdDeviation="0"/>
      <feFlood flood-color="#a47764" flood-opacity=".2"/>
      <feComposite in2="blur" operator="in"/>
      <feComposite in="SourceGraphic"/>
    </filter>
  </defs>
  <rect width="138.08" height="116.26" x=".5" y=".5" fill="#fadfb3" stroke="#fff" stroke-miterlimit="10" rx="15" ry="15"/>
  <g filter="url(#a)">
    <path fill="#382f2c" d="M24.05 59.88c1.36 3.34 4.42 2.16 5.55 2.64s.85 1.93 2.59 3.11 7.29-.99 8.99-1.76 1.62-2.4 2.68-3.04 2.96.35 2.96-.64-.21-4.02-.28-4.73 2.73-4.24 2.35-6.07c-.38-1.84-2.07-3.6-2.07-3.6s2.68 4.73 2.54 6.28 1.55 7.84 1.55 7.84-.07 3.32-1.13 4.94-4.59 8.19-7.27 7.69c-2.68-.49-11.72-1.48-11.72-1.48s-3.81-2.26-4.24-3.04-4.31-6.85-4.31-6.85l1.79-1.29Z" opacity=".6"/>
    <path fill="#826d6a" d="M28.01 50.84c.44-.33.71-.53 1.31-.64s1.8.81 1.06 1.13-1.55-.6-1.8.74-1.02-.9-.56-1.24Zm2.81 1.68c.16-.07.68.19.38.4s-.78-.09-.68-.26.31-.14.31-.14Zm1.89-5.37c-.33.4-.26.94.02.82s.54-.31.68-.59-.71-.24-.71-.24Zm-5.58 9.16c.19-.56.8-.78.56-.12s-.26-.33-.26 1.08-.8.49-.71.02.4-.99.4-.99Z"/>
    <path fill="none" stroke="#382f2c" stroke-linecap="round" stroke-miterlimit="10" d="M44.86 47.65c7.21-5.44 12.52-17.31 9.78-26.34-2.38-7.84-12.26-1.58-14.77 2.95-4.94 8.88 6.95 10.77 12.93 9.32 3.67-.89 5.99-3.38 9.18-5.2 5.48-3.13 12.59-.67 17.74 2.03 7.05 3.7 11.74 11.51 4.68 17.72-4.25 3.74-9.45 6.12-14.13 9.26-4.03 2.71-7.63 5.84-11.25 9.03-5.34 4.7-13.19 13.15-9.73 20.98 1.29 2.92 4.13 4.84 6.95 6.33 17.34 9.18 50.57 10.33 53.91-15.37.43-3.28.09-6.69-2-9.4-2.21-2.86-5.99-4.21-9.59-4.09-4.79.16-8.69 2.73-12.83 4.82-1.59.8-3.36 1.39-5.13 1.19s-3.51-1.35-3.99-3.06c-1.85-6.68 8.81-8 12.92-8.18 3.77-.16 7.53-.33 11.3-.49 2.96-.13 6-.27 8.73-1.42s5.15-3.54 5.46-6.49"/>
  </g>
</svg>
