<svg xmlns="http://www.w3.org/2000/svg" data-name="Isolation Mode" viewBox="0 0 284.61 105.88">
  <rect width="284.61" height="105.88" fill="#fff" rx="10" ry="10"/>
  <path d="m110.47 66.13-4.39-6.68h4.22l2.65 4.35 2.67-4.35h4.22l-4.44 6.68 4.65 6.97h-4.24l-2.87-4.68-2.88 4.68h-4.22zm22.93 6.97h-12.48v-2.62l4.48-4.53c.9-.93 1.63-1.7 2.18-2.33.55-.62.95-1.19 1.2-1.7s.37-1.06.37-1.65c0-.71-.2-1.24-.59-1.59-.4-.35-.92-.53-1.58-.53a4.5 4.5 0 0 0-2.01.48q-.975.48-2.04 1.35l-2.05-2.43c.51-.44 1.06-.85 1.63-1.25.57-.39 1.24-.71 2-.95s1.67-.36 2.74-.36c1.17 0 2.18.21 3.02.63s1.49 1 1.95 1.73.68 1.55.68 2.47c0 .98-.2 1.88-.59 2.7s-.96 1.62-1.7 2.42c-.75.8-1.64 1.68-2.69 2.65l-2.29 2.16v.17h7.78v3.17Zm13.09.24c-1.52 0-2.76-.6-3.72-1.79s-1.43-2.94-1.43-5.26.48-4.1 1.45-5.3 2.23-1.8 3.8-1.8c.65 0 1.22.09 1.72.27s.92.42 1.29.72.67.64.92 1.01h.12c-.05-.26-.11-.65-.18-1.15-.07-.51-.1-1.03-.1-1.57V54.1h3.73v18.99h-2.86l-.72-1.77h-.16c-.24.37-.53.71-.89 1.02-.35.31-.77.55-1.26.73s-1.06.27-1.72.27Zm1.3-2.97c1.02 0 1.74-.3 2.16-.91s.64-1.52.67-2.74v-.4c0-1.33-.2-2.34-.61-3.05s-1.16-1.06-2.27-1.06c-.82 0-1.46.35-1.93 1.06s-.7 1.73-.7 3.06.23 2.34.7 3.02 1.13 1.01 1.98 1.01Zm15.54-11.2c1.83 0 3.24.4 4.21 1.2s1.46 2.01 1.46 3.64v9.09h-2.6l-.72-1.86h-.1q-.585.735-1.2 1.2c-.41.31-.87.54-1.4.68s-1.17.22-1.93.22c-.81 0-1.53-.15-2.17-.46s-1.14-.78-1.51-1.42-.55-1.45-.55-2.44c0-1.45.51-2.52 1.53-3.2 1.02-.69 2.54-1.07 4.58-1.14l2.37-.07v-.6c0-.72-.19-1.24-.56-1.57s-.9-.5-1.56-.5-1.31.09-1.94.28-1.27.42-1.9.71l-1.23-2.51c.72-.38 1.54-.68 2.44-.9q1.35-.33 2.79-.33Zm1.98 7.6-1.44.05c-1.2.03-2.04.25-2.51.65s-.7.92-.7 1.57c0 .57.17.97.5 1.21s.77.36 1.31.36c.8 0 1.47-.24 2.02-.71s.82-1.14.82-2.01zm9.14-12.67c.55 0 1.03.13 1.43.38s.6.73.6 1.43-.2 1.17-.6 1.43-.88.4-1.43.4-1.04-.13-1.43-.4c-.4-.26-.59-.74-.59-1.43s.2-1.18.59-1.43c.39-.26.87-.38 1.43-.38m1.86 5.35V73.1h-3.72V59.45zm7.38 13.65h-3.72V54.11h3.72zm1.7-13.65h4.08l2.58 7.68c.08.24.15.49.21.74s.11.51.15.78.07.55.1.84h.07c.05-.44.12-.85.2-1.23.09-.38.19-.76.32-1.14l2.53-7.68h3.99l-5.77 15.39c-.35.94-.81 1.73-1.37 2.36s-1.21 1.1-1.93 1.42q-1.095.48-2.4.48c-.42 0-.79-.02-1.1-.07-.31-.04-.57-.09-.79-.14v-2.95a7 7 0 0 0 1.47.16c.52 0 .97-.11 1.34-.33s.69-.51.94-.89c.25-.37.45-.78.6-1.21l.22-.67-5.42-13.55ZM119.2 41.82h-12.48V39.2l4.48-4.53c.9-.93 1.63-1.7 2.18-2.33.55-.62.95-1.19 1.2-1.7s.37-1.06.37-1.65c0-.71-.2-1.24-.59-1.59-.4-.35-.92-.53-1.58-.53a4.5 4.5 0 0 0-2.01.48q-.975.48-2.04 1.35l-2.05-2.43c.51-.44 1.06-.85 1.63-1.25.57-.39 1.24-.71 2-.95s1.67-.36 2.74-.36c1.17 0 2.18.21 3.02.63s1.49 1 1.95 1.73.68 1.55.68 2.47c0 .98-.2 1.88-.59 2.7-.39.81-.96 1.62-1.7 2.42-.75.8-1.64 1.68-2.69 2.65l-2.29 2.16v.17h7.78v3.17Zm24.79-13.9c1.55 0 2.72.4 3.51 1.19s1.19 2.07 1.19 3.81v8.9h-3.74v-7.97c0-.98-.17-1.71-.5-2.21s-.85-.74-1.55-.74c-.98 0-1.68.35-2.1 1.06-.42.7-.62 1.71-.62 3.02v6.85h-3.72v-7.97c0-.65-.07-1.2-.22-1.64s-.37-.77-.67-.99-.69-.33-1.16-.33c-.69 0-1.24.17-1.63.52s-.68.85-.84 1.53c-.17.67-.25 1.49-.25 2.46v6.42h-3.72V28.18h2.84l.5 1.75h.21c.28-.47.62-.85 1.04-1.15s.88-.51 1.39-.65c.5-.14 1.02-.21 1.54-.21 1 0 1.85.16 2.54.49.7.33 1.23.83 1.61 1.51h.33c.41-.7.98-1.21 1.73-1.53s1.51-.48 2.3-.48Zm12.27 19.91c-1.9 0-3.36-.33-4.36-.99-1.01-.66-1.51-1.59-1.51-2.79 0-.82.26-1.51.77-2.06s1.27-.95 2.26-1.18c-.38-.16-.72-.43-1-.8-.29-.37-.43-.76-.43-1.18 0-.52.15-.95.45-1.3s.74-.69 1.31-1.02c-.72-.31-1.28-.81-1.7-1.49s-.63-1.49-.63-2.42c0-.99.22-1.84.65-2.53.43-.7 1.07-1.23 1.9-1.59.83-.37 1.85-.55 3.04-.55.25 0 .55.02.88.05s.64.07.92.11.47.07.57.1h4.76v1.89l-2.14.55c.2.3.34.62.44.96s.15.7.15 1.09c0 1.46-.51 2.61-1.53 3.42s-2.44 1.23-4.25 1.23c-.43-.02-.84-.06-1.22-.1-.19.15-.33.3-.43.46q-.15.24-.15.51c0 .27.08.33.23.45s.38.21.68.27.69.09 1.14.09h2.32q2.25 0 3.42.96c.79.64 1.18 1.59 1.18 2.83 0 1.59-.67 2.83-2 3.71q-1.995 1.32-5.73 1.32Zm.15-2.43c.89 0 1.65-.08 2.29-.25s1.13-.4 1.47-.71.51-.67.51-1.09q0-.51-.3-.81t-.9-.42c-.4-.08-.92-.12-1.54-.12h-1.93c-.46 0-.87.07-1.23.22s-.65.35-.86.62c-.21.26-.32.57-.32.92 0 .51.25.92.74 1.21s1.18.44 2.07.44Zm.6-10.35c.7 0 1.21-.22 1.54-.65s.49-1.02.49-1.76c0-.82-.17-1.44-.51-1.85s-.84-.62-1.52-.62-1.2.21-1.54.62-.51 1.03-.51 1.85c0 .74.17 1.33.51 1.76s.85.65 1.54.65"/>
  <rect width="60" height="60" x="25.39" y="22.94" fill="#fff" stroke="#a47764" stroke-miterlimit="10" rx="10" ry="10"/>
  <rect width="15.26" height="8.4" x="43.87" y="33.24" fill="#a47764" rx="1.39" ry="1.39"/>
  <path fill="#fff" stroke="#a47764" stroke-miterlimit="10" d="M56.87 41.64H46.12l-4.13 3.43c-.78.65-1.23 1.61-1.23 2.62v19.98a4.97 4.97 0 0 0 4.97 4.97h11.51a4.97 4.97 0 0 0 4.97-4.97V47.69c0-1.01-.45-1.97-1.23-2.62l-4.13-3.43Zm-16.1 9.7h21.46m-21.46 11.6h21.46"/>
  <path fill="none" stroke="#fff" stroke-linecap="round" stroke-miterlimit="10" d="M45.78 36.7v3.21m2.54-3.21v3.21"/>
  <path fill="#fff" stroke="#a47764" stroke-miterlimit="10" d="M66.93 48.42a.56.56 0 0 0-.56.56v18.93c0 .12.02.25.05.36l.8 2.72h1.69l.8-2.72c.03-.12.05-.24.05-.36V48.98a.56.56 0 0 0-.56-.56h-2.28Z"/>
  <path fill="#a47764" d="m68.75 71.6-.19 1.04c-.08.55-.92.54-1 0l-.19-1.04c-.14-1.07 1.51-1.07 1.37 0Z"/>
  <path fill="none" stroke="#a47764" stroke-linecap="round" stroke-miterlimit="10" d="M68.77 54.95h.99m-.99 3.35h.99m-.99 3.36h.99m-1.7-13.24v-1.41"/>
  <rect width="3.91" height="1.13" x="66.11" y="45.88" fill="none" stroke="#a47764" stroke-linecap="round" stroke-miterlimit="10" rx=".56" ry=".56"/>
</svg>
