<svg xmlns="http://www.w3.org/2000/svg" xmlns:xlink="http://www.w3.org/1999/xlink" version="1.1" viewBox="0 0 409 304">
  <g style="isolation:isolate">
    <rect width="376.8" height="272" x="16.1" y="15.6" fill="#34becf" opacity=".2" rx="15" ry="15" style="isolation:isolate;mix-blend-mode:multiply"/>
    <image xlink:href="Bookshelf (Sharese, specialist)-1.png" width="409" height="304" style="mix-blend-mode:screen;isolation:isolate"/>
    <rect width="376.8" height="272" x="16.1" y="15.6" fill="none" stroke="#fff" stroke-miterlimit="10" rx="15" ry="15"/>
    <rect width="224.9" height="5.8" x="92.1" y="204.3" fill="#00949c" rx="1.1" ry="1.1"/>
    <path fill="#d6a399" d="M208.4 141.5c1.1 0 1.9.9 1.9 1.9v60.9h-3.9v-60.9c0-1.1.9-1.9 1.9-1.9Z"/>
    <rect width="25.3" height="84.5" x="181.2" y="119.8" fill="#fff" rx="3.6" ry="3.6"/>
    <rect width="25.3" height="84.5" x="155.9" y="119.8" fill="#00949c" rx="3.6" ry="3.6"/>
    <rect width="7.7" height="47.7" x="148.9" y="156.6" fill="#726765" rx="1.9" ry="1.9"/>
    <rect width="7.7" height="55.5" x="218" y="148.8" fill="#00949c" rx="1.9" ry="1.9"/>
    <rect width="7.7" height="55.5" x="235.7" y="150" fill="#726765" rx="1.9" ry="1.9" transform="rotate(-23 239.481 177.712)"/>
    <rect width="10" height="48.6" x="245.2" y="156.1" fill="#fff" rx="1.9" ry="1.9" transform="rotate(-23 250.195 180.403)"/>
    <rect width="7.7" height="51.2" x="141.2" y="153.1" fill="#ba9b93" rx="1.9" ry="1.9"/>
    <rect width="7.7" height="51.2" x="210.3" y="153.1" fill="#726765" rx="1.9" ry="1.9"/>
    <rect width="10.4" height="51.2" x="130.8" y="153.1" fill="#feb967" rx="1.9" ry="1.9"/>
    <rect width="5.4" height="51.2" x="125.4" y="153.1" fill="#a47764" rx="1.9" ry="1.9"/>
    <rect width="51.2" height="3.3" x="92.9" y="177.3" fill="#fff" rx=".4" ry=".4" transform="rotate(-78 118.578 179.037)"/>
    <rect width="16" height="12.3" x="185.8" y="127.5" fill="#f4ddd4" rx="1.9" ry="1.9"/>
    <rect width="16" height="40.9" x="160.5" y="156.6" fill="#fff" rx="1.9" ry="1.9"/>
    <rect width="44.8" height="9.9" x="266.1" y="194.5" fill="#726765" rx="1.7" ry="1.7"/>
    <path fill="#fff" d="M270.6 195.8h40.3v7.2h-40.3c-.4 0-.8-.3-.8-.8v-5.7c0-.4.3-.8.8-.8Z"/>
    <rect width="41.7" height="7.8" x="268.9" y="186.7" fill="#feb967" rx=".9" ry=".9"/>
    <rect width="41.7" height="3" x="267.1" y="183.7" fill="#fff" rx=".9" ry=".9"/>
    <rect width="40.2" height="3" x="267.1" y="180.7" fill="#00949c" rx=".9" ry=".9"/>
    <path fill="#382f2c" d="M76.9 55.3h2.9c0 1.3-.3 2.4-.8 3.3s-1.1 1.6-2 2.1-1.9.7-3.2.7-1.8-.2-2.5-.5-1.4-.8-1.9-1.5-.9-1.4-1.2-2.4c-.3-.9-.4-2-.4-3.2v-3.2c0-1.2.1-2.2.4-3.2s.7-1.7 1.2-2.4 1.2-1.2 1.9-1.5c.8-.3 1.6-.5 2.6-.5s2.3.2 3.1.7 1.5 1.2 1.9 2.1c.5.9.7 2 .8 3.3h-2.9c0-.9-.2-1.6-.4-2.1s-.5-.9-.9-1.2c-.4-.2-.9-.3-1.6-.3s-1 .1-1.4.3-.7.5-1 1c-.3.4-.4.9-.6 1.6-.1.6-.2 1.4-.2 2.2v3.2c0 .8 0 1.5.2 2.2s.3 1.2.5 1.6.6.8.9 1q.6.3 1.5.3c.9 0 1.3-.1 1.7-.3s.7-.6.9-1.1.3-1.2.4-2.1Zm8.5-12v17.8h-3V43.3zM92 58.6v2.5h-7.4v-2.5zm5.5-15.3v17.8h-3V43.3zm12.1 12h2.9c0 1.3-.3 2.4-.8 3.3s-1.1 1.6-2 2.1-1.9.7-3.2.7-1.8-.2-2.5-.5-1.4-.8-1.9-1.5-.9-1.4-1.2-2.4c-.3-.9-.4-2-.4-3.2v-3.2c0-1.2.1-2.2.4-3.2s.7-1.7 1.2-2.4 1.2-1.2 1.9-1.5c.8-.3 1.6-.5 2.6-.5s2.3.2 3.1.7 1.5 1.2 1.9 2.1c.5.9.7 2 .8 3.3h-2.9c0-.9-.2-1.6-.4-2.1s-.5-.9-.9-1.2c-.4-.2-.9-.3-1.6-.3s-1 .1-1.4.3-.7.5-1 1c-.3.4-.4.9-.6 1.6-.1.6-.2 1.4-.2 2.2v3.2c0 .8 0 1.5.2 2.2s.3 1.2.5 1.6.6.8.9 1q.6.3 1.5.3c.9 0 1.3-.1 1.7-.3s.7-.6.9-1.1.3-1.2.4-2.1Zm8.5-12v17.8h-3V43.3zm8.9 0-5.9 8.6-3.6 4.4-.6-3.1 2.4-3.6 4-6.2h3.6Zm-3.3 17.8-4.5-8.4 2-2.1 6 10.5zM145 43.3v2.5h-12v-2.5zm-4.6 0v17.8h-2.9V43.3zm9.9 0v17.8h-3V43.3zm6.8 7.4v2.5h-7.5v-2.5zm2.3-7.4v17.8h-2.9V43.3zm6.4 0v17.8h-3V43.3zm11.1 13.2c0-.4 0-.7-.1-1s-.2-.5-.4-.8c-.2-.2-.5-.5-.9-.7s-.9-.5-1.5-.7c-.7-.3-1.4-.6-2-.9s-1.1-.7-1.6-1.1-.8-.9-1.1-1.5c-.3-.5-.4-1.2-.4-1.9s.1-1.4.4-2 .6-1.1 1.1-1.5 1-.8 1.7-1 1.4-.4 2.2-.4c1.1 0 2.1.2 2.9.7s1.4 1.1 1.9 2 .6 1.7.6 2.7h-2.9c0-.6 0-1.1-.3-1.5-.2-.5-.5-.8-.8-1-.4-.2-.9-.4-1.4-.4s-1 .1-1.4.3-.6.5-.8.9-.2.8-.2 1.3 0 .6.2.9c.1.3.3.5.6.7l.9.6c.3.2.8.4 1.3.6.8.3 1.6.6 2.2 1s1.1.8 1.5 1.2.7 1 .9 1.5.3 1.2.3 1.9-.1 1.4-.4 2-.6 1.1-1.1 1.5-1 .8-1.7 1-1.4.3-2.2.3-1.5-.1-2.2-.3-1.3-.6-1.9-1c-.6-.5-1-1.1-1.3-1.8s-.5-1.5-.5-2.5h3c0 .6 0 1.1.2 1.5.1.4.3.7.6 1s.6.4.9.6c.4.1.8.2 1.2.2s1 0 1.4-.3.6-.5.8-.8.3-.8.3-1.2Zm17.1-3.4h-3.6v-2.3h3.2c.5 0 .9 0 1.3-.3.4-.2.6-.5.8-.8.2-.4.3-.8.3-1.4s0-1.1-.2-1.4-.4-.6-.8-.8-.8-.3-1.3-.3h-2.3v15.3h-3V43.3h5.3c.8 0 1.6 0 2.2.3s1.2.5 1.7.9.8.9 1.1 1.5.4 1.3.4 2.2-.2 1.4-.5 2-.8 1.1-1.4 1.5-1.4.6-2.2.7l-.8.8Zm-.1 8h-4.5l1.4-2.5h3.1c.5 0 1-.1 1.3-.3s.6-.5.8-1 .3-.9.3-1.4 0-1.1-.2-1.5-.4-.8-.7-1-.8-.3-1.3-.3h-3v-2.3h3.8l.7.9q1.35 0 2.1.6c.75.6.9.9 1.2 1.6s.4 1.3.4 2c0 1.1-.2 2.1-.6 2.8s-1 1.3-1.8 1.8c-.8.4-1.7.6-2.9.6Zm20.3-10.4v3c0 1.2-.1 2.3-.4 3.3q-.45 1.35-1.2 2.4c-.5.6-1.2 1.1-1.9 1.4s-1.6.5-2.6.5-1.8-.2-2.5-.5-1.4-.8-2-1.4-1-1.4-1.3-2.4c-.3-.9-.4-2-.4-3.3v-3c0-1.3.1-2.4.4-3.3.3-1 .7-1.8 1.3-2.4s1.2-1.1 2-1.5 1.6-.5 2.5-.5 1.8.2 2.6.5 1.4.8 2 1.5c.5.6 1 1.4 1.3 2.4s.4 2.1.4 3.3Zm-3 3.1v-3c0-.9 0-1.7-.2-2.3-.1-.7-.4-1.2-.6-1.6s-.6-.7-1-.9-.9-.3-1.4-.3-1 0-1.4.3-.7.5-1 .9-.5.9-.6 1.6-.2 1.4-.2 2.3v3c0 .9 0 1.7.2 2.3s.4 1.2.6 1.6.6.7 1 .9.9.3 1.4.3 1 0 1.4-.3c.4-.2.8-.5 1-.9.3-.4.5-.9.6-1.6.1-.6.2-1.4.2-2.3m18-3.1v3c0 1.2-.1 2.3-.4 3.3q-.45 1.35-1.2 2.4c-.5.6-1.2 1.1-1.9 1.4s-1.6.5-2.6.5-1.8-.2-2.5-.5-1.4-.8-2-1.4-1-1.4-1.3-2.4c-.3-.9-.4-2-.4-3.3v-3c0-1.3.1-2.4.4-3.3.3-1 .7-1.8 1.3-2.4s1.2-1.1 2-1.5 1.6-.5 2.5-.5 1.8.2 2.6.5 1.4.8 2 1.5c.5.6 1 1.4 1.3 2.4s.4 2.1.4 3.3Zm-2.9 3.1v-3c0-.9 0-1.7-.2-2.3-.1-.7-.4-1.2-.6-1.6s-.6-.7-1-.9-.9-.3-1.4-.3-1 0-1.4.3-.7.5-1 .9-.5.9-.6 1.6-.2 1.4-.2 2.3v3c0 .9 0 1.7.2 2.3s.4 1.2.6 1.6.6.7 1 .9.9.3 1.4.3 1 0 1.4-.3c.4-.2.8-.5 1-.9.3-.4.5-.9.6-1.6.1-.6.2-1.4.2-2.3m8.9-10.5v17.8h-3V43.3zm8.9 0-5.9 8.6-3.6 4.4-.6-3.1 2.4-3.6 4-6.2h3.6Zm-3.3 17.8-4.5-8.4 2-2.1 6 10.5zm12.8-4.6c0-.4 0-.7-.1-1s-.2-.5-.4-.8c-.2-.2-.5-.5-.9-.7s-.9-.5-1.5-.7c-.7-.3-1.4-.6-2-.9s-1.1-.7-1.6-1.1-.8-.9-1.1-1.5c-.3-.5-.4-1.2-.4-1.9s.1-1.4.4-2 .6-1.1 1.1-1.5 1-.8 1.7-1 1.4-.4 2.2-.4c1.1 0 2.1.2 2.9.7s1.4 1.1 1.9 2q.6 1.2.6 2.7h-2.9c0-.6 0-1.1-.3-1.5-.2-.5-.5-.8-.8-1s-.9-.4-1.4-.4-1 .1-1.4.3-.6.5-.8.9-.2.8-.2 1.3 0 .6.2.9.3.5.6.7l.9.6c.4.2.8.4 1.3.6.8.3 1.6.6 2.2 1s1.1.8 1.5 1.2.7 1 .9 1.5c.2.6.3 1.2.3 1.9s-.1 1.4-.4 2-.6 1.1-1.1 1.5-1 .8-1.7 1-1.4.3-2.2.3-1.5-.1-2.2-.3-1.3-.6-1.9-1c-.6-.5-1-1.1-1.3-1.8s-.5-1.5-.5-2.5h3c0 .6 0 1.1.2 1.5.1.4.3.7.6 1s.6.4.9.6.8.2 1.2.2 1 0 1.4-.3.6-.5.8-.8.3-.8.3-1.2Zm8.6-13.2v17.8h-3V43.3zm6.8 7.4v2.5h-7.5v-2.5zm2.3-7.4v17.8h-3V43.3zm6.3 0v17.8h-3V43.3zm6.9 0v2.5h-7.6v-2.5zm-1 7.4v2.4h-6.7v-2.4zm1 7.9v2.5h-7.7v-2.5zm5.4-15.3v17.8h-3V43.3zm6.6 15.3v2.5h-7.4v-2.5zm5.4-15.3v17.8h-3V43.3zm6.6 0v2.5h-7.3v-2.5zm-.9 7.7v2.5h-6.5V51zm19.4-7.7v2.5h-12v-2.5zm-4.5 0v17.8h-3V43.3zm18.5 7.4v3c0 1.2-.1 2.3-.4 3.3q-.45 1.35-1.2 2.4c-.75 1.05-1.2 1.1-2 1.4s-1.6.5-2.5.5-1.8-.2-2.5-.5-1.4-.8-2-1.4c-.5-.6-1-1.4-1.3-2.4-.3-.9-.5-2-.5-3.3v-3c0-1.3.1-2.4.4-3.3s.7-1.8 1.3-2.4c.5-.6 1.2-1.1 2-1.5.8-.3 1.6-.5 2.5-.5s1.8.2 2.5.5 1.4.8 2 1.5 1 1.4 1.3 2.4.4 2.1.4 3.3m-2.9 3.1v-3c0-.9 0-1.7-.2-2.3-.1-.7-.4-1.2-.6-1.6s-.6-.7-1-.9-.9-.3-1.4-.3-1 0-1.4.3-.8.5-1 .9c-.3.4-.5.9-.6 1.6s-.2 1.4-.2 2.3v3c0 .9 0 1.7.2 2.3s.4 1.2.6 1.6c.3.4.6.7 1 .9s.9.3 1.4.3 1 0 1.4-.3.8-.5 1-.9c.3-.4.5-.9.6-1.6s.2-1.4.2-2.3M85.5 69.3l3.8 14.5.6 3.3h-2.2l-5.3-17.8h3.2Zm3.3 14.5 3.8-14.5h3.2l-5.3 17.8h-2.2zm12.1-14.5v17.8h-3V69.3zm6.4 0v17.8h-3V69.3zm6.9 0v2.5h-7.6v-2.5zm-1 7.4v2.4h-6.7v-2.4zm1 7.9v2.5h-7.7v-2.5zm4.4-15.3 2.3 13.8v4h-1.8l-3.4-17.8zm1.8 13.9 2.8-13.9h1.8v3.5l-3.2 14.3H120zm5.4-13.9 2.8 13.9.4 3.9h-1.8l-3-14.3v-3.5h1.7Zm2.3 13.7 2.2-13.7h2.9l-3.3 17.8H128v-4h.1Zm13.2-13.7h2.5l.4 11.3v6.5h-2.9zm1 0h2.7l4.1 13.2 4.1-13.2h2.5l-5.5 17.8H148zm12.1 0h2.5v17.8H154v-6.5zm17.9 7.4v3c0 1.2-.1 2.3-.4 3.3q-.45 1.35-1.2 2.4c-.5.6-1.2 1.1-1.9 1.4s-1.6.5-2.6.5-1.8-.2-2.5-.5-1.4-.8-2-1.4-1-1.4-1.3-2.4-.4-2-.4-3.3v-3c0-1.3.1-2.4.4-3.3.3-1 .7-1.8 1.3-2.4s1.2-1.1 2-1.4 1.6-.5 2.5-.5 1.8.2 2.6.5 1.4.8 2 1.4c.5.6 1 1.4 1.3 2.4s.4 2.1.4 3.3Zm-3 3.1v-3.1c0-.9 0-1.7-.2-2.3s-.4-1.2-.6-1.6c-.3-.4-.6-.7-1-.9s-.9-.3-1.4-.3-1 0-1.4.3c-.4.2-.7.5-1 .9s-.5.9-.6 1.6-.2 1.4-.2 2.3v3.1c0 .9 0 1.7.2 2.3s.4 1.2.6 1.6c.3.4.6.7 1 .9s.9.3 1.4.3 1 0 1.4-.3c.4-.2.8-.5 1-.9.3-.4.5-.9.6-1.6s.2-1.4.2-2.3m6-10.5h5.4q1.8 0 3 .6c.8.4 1.4 1 1.9 1.8.4.8.6 1.8.6 2.9s-.1 1.7-.4 2.3c-.3.7-.6 1.2-1.1 1.7s-1.1.8-1.8 1.1l-.9.5h-4.5v-2.5h3.2c.6 0 1.1-.1 1.4-.4s.7-.6.9-1.1.3-1 .3-1.5 0-1.1-.3-1.6-.4-.8-.8-1.1-.9-.4-1.4-.4h-2.4v15.3h-3V69.1Zm8.3 17.8-3.4-8h3.1l3.5 7.8v.2zm8.2-17.8v17.8h-3V69.3zm6.9 0v2.5h-7.6v-2.5zm-1 7.4v2.4H191v-2.4zm1 7.9v2.5H191v-2.5zm8.2-15.3h5.4q1.8 0 3 .6c1.2.6 1.4 1 1.9 1.8.4.8.6 1.8.6 2.9s-.1 1.7-.4 2.3c-.3.7-.6 1.2-1.1 1.7s-1.1.8-1.8 1.1l-.9.5h-4.5v-2.5h3.2c.6 0 1.1-.1 1.4-.4s.7-.6.9-1.1.3-1 .3-1.5 0-1.1-.3-1.6-.4-.8-.8-1.1-.9-.4-1.4-.4H210v15.3h-3V69.1Zm8.3 17.8-3.4-8h3.1l3.5 7.8v.2zm8.3-17.8v17.8h-3V69.3zm6.8 0v2.5h-7.6v-2.5zm-.9 7.4v2.4h-6.7v-2.4zm1 7.9v2.5h-7.7v-2.5zm10.1-2.1c0-.4 0-.7-.1-1s-.2-.6-.4-.8-.5-.5-.9-.7-.9-.5-1.5-.7c-.7-.3-1.4-.6-2-.9s-1.1-.7-1.6-1.1-.8-.9-1.1-1.4c-.3-.6-.4-1.2-.4-1.9s.1-1.4.4-2 .6-1.1 1.1-1.6c.5-.4 1-.8 1.7-1s1.4-.4 2.2-.4c1.1 0 2.1.2 2.9.7s1.4 1.1 1.9 2 .6 1.7.6 2.7h-2.9c0-.6 0-1.1-.3-1.5-.2-.4-.5-.8-.8-1.1s-.9-.4-1.4-.4-1 .1-1.4.3-.6.5-.8.9-.2.8-.2 1.3 0 .6.2.9c.1.3.3.5.6.7l.9.6c.4.2.8.4 1.3.6.8.3 1.6.6 2.2 1s1.1.8 1.5 1.2.7 1 .9 1.5.3 1.2.3 1.9-.1 1.4-.4 2-.6 1.1-1.1 1.5-1 .8-1.7 1-1.4.3-2.2.3-1.5-.1-2.2-.3-1.3-.6-1.9-1-1-1.1-1.3-1.8-.5-1.5-.5-2.5h3c0 .6 0 1.1.2 1.5s.3.7.6 1 .6.4.9.6c.4.1.8.2 1.2.2s1 0 1.4-.3c.4-.2.6-.5.8-.8s.3-.8.3-1.2m17.6-5.8v3c0 1.2-.1 2.3-.4 3.3q-.45 1.35-1.2 2.4c-.5.6-1.2 1.1-1.9 1.4s-1.6.5-2.6.5-1.8-.2-2.5-.5-1.4-.8-2-1.4-1-1.4-1.3-2.4-.4-2-.4-3.3v-3c0-1.3.1-2.4.4-3.3.3-1 .7-1.8 1.3-2.4s1.2-1.1 2-1.4 1.6-.5 2.5-.5 1.8.2 2.6.5 1.4.8 2 1.4c.5.6 1 1.4 1.3 2.4s.4 2.1.4 3.3Zm-2.9 3.1v-3.1c0-.9 0-1.7-.2-2.3s-.4-1.2-.6-1.6c-.3-.4-.6-.7-1-.9s-.9-.3-1.4-.3-1 0-1.4.3c-.4.2-.7.5-1 .9s-.5.9-.6 1.6-.2 1.4-.2 2.3v3.1c0 .9 0 1.7.2 2.3s.4 1.2.6 1.6c.3.4.6.7 1 .9s.9.3 1.4.3 1 0 1.4-.3c.4-.2.8-.5 1-.9.3-.4.5-.9.6-1.6s.2-1.4.2-2.3m14.1-10.5h3v12.3c0 1.4-.2 2.4-.8 3.3s-1.2 1.4-2 1.8-1.8.6-2.9.6-2.1-.2-2.9-.6c-.9-.4-1.5-1-2-1.8s-.7-1.9-.7-3.3V69.3h3v12.3c0 .8.1 1.5.3 2s.5.8.9 1q.6.3 1.5.3c.9 0 1.1 0 1.5-.3s.7-.5.9-1 .3-1.1.3-2V69.3Zm6 0h5.4q1.8 0 3 .6c1.2.6 1.4 1 1.9 1.8s.6 1.8.6 2.9-.1 1.7-.4 2.3c-.3.7-.6 1.2-1.1 1.7s-1.1.8-1.8 1.1l-.9.5h-4.5v-2.5h3.2c.6 0 1.1-.1 1.4-.4s.7-.6.9-1.1c.2-.4.3-1 .3-1.5s0-1.1-.3-1.6c-.2-.4-.4-.8-.8-1.1s-.9-.4-1.5-.4h-2.4v15.3h-3V69.1Zm8.3 17.8-3.4-8h3.1l3.5 7.8v.2zm14-5.8h3c0 1.3-.3 2.4-.8 3.3s-1.1 1.6-2 2.1-1.9.7-3.2.7-1.8-.2-2.5-.5c-.8-.3-1.4-.8-1.9-1.5s-.9-1.4-1.2-2.4-.4-2-.4-3.2v-3.2c0-1.2.1-2.2.4-3.2s.7-1.7 1.2-2.4 1.2-1.2 1.9-1.5c.8-.3 1.6-.5 2.6-.5s2.3.2 3.1.7 1.5 1.2 1.9 2.1c.5.9.7 2 .8 3.3h-3c0-.9-.2-1.6-.4-2.1q-.3-.75-.9-1.2c-.4-.2-.9-.3-1.6-.3s-1 .1-1.5.3c-.4.2-.7.5-1 .9s-.5.9-.6 1.6c-.1.6-.2 1.4-.2 2.2v3.2c0 .8 0 1.5.2 2.2.1.6.3 1.2.5 1.6s.5.8.9 1q.6.3 1.5.3c.9 0 1.3-.1 1.7-.3s.7-.6.9-1.1.3-1.2.4-2.1Zm8.5-12v17.8h-3V69.3zm6.9 0v2.5h-7.6v-2.5zm-1 7.4v2.4h-6.7v-2.4zm1 7.9v2.5h-7.7v-2.5zm10.1-2.1c0-.4 0-.7-.1-1s-.2-.6-.4-.8-.5-.5-.9-.7-.9-.5-1.5-.7c-.7-.3-1.4-.6-2-.9s-1.1-.7-1.6-1.1-.8-.9-1.1-1.4c-.3-.6-.4-1.2-.4-1.9s.1-1.4.4-2 .6-1.1 1.1-1.6c.5-.4 1-.8 1.7-1s1.4-.4 2.2-.4c1.1 0 2.1.2 3 .7.8.5 1.4 1.1 1.9 2s.6 1.7.6 2.7h-3c0-.6 0-1.1-.3-1.5-.2-.4-.5-.8-.8-1.1s-.9-.4-1.5-.4-1 .1-1.4.3-.6.5-.8.9-.2.8-.2 1.3 0 .6.2.9c.1.3.3.5.6.7s.6.4 1 .6.8.4 1.3.6c.8.3 1.5.6 2.2 1q.9.6 1.5 1.2c.4.4.7 1 .9 1.5.2.6.3 1.2.3 1.9s-.1 1.4-.4 2-.6 1.1-1.1 1.5-1 .8-1.7 1-1.4.3-2.2.3-1.5-.1-2.2-.3-1.3-.6-1.9-1-1-1.1-1.3-1.8-.5-1.5-.5-2.5h3c0 .6 0 1.1.2 1.5.1.4.3.7.6 1s.6.4.9.6c.4.1.8.2 1.2.2s1 0 1.4-.3c.4-.2.6-.5.8-.8s.3-.8.3-1.2M52.2 228.4h4c1.9 0 3.3.3 4.1.9s1.3 1.5 1.3 2.7-.2 1.5-.7 2.1-1.2.9-2.1 1.1c2.2.5 3.2 1.6 3.2 3.5s-.4 2.3-1.3 3-2.1 1.1-3.6 1.1h-5v-14.3Zm1.7 6.1h2.7c1.2 0 2-.2 2.5-.6s.8-1 .8-1.9-.3-1.4-.9-1.7c-.6-.4-1.5-.5-2.7-.5h-2.4zm0 1.4v5.3h3c1.2 0 2-.2 2.6-.7q.9-.6.9-2.1c0-1.5-.3-1.5-.9-1.9s-1.5-.6-2.7-.6H54Zm15.4 7c-1.6 0-2.8-.5-3.8-1.4-.9-1-1.4-2.3-1.4-4s.4-3.1 1.3-4.1 2-1.5 3.4-1.5 2.4.4 3.2 1.3 1.2 2.1 1.2 3.5v1h-7.4c0 1.3.3 2.2.9 2.9s1.4 1 2.5 1 2.3-.2 3.4-.7v1.4c-.6.2-1.1.4-1.6.5s-1.1.2-1.8.2Zm-.5-9.8c-.9 0-1.5.3-2.1.8-.5.6-.8 1.3-.9 2.3h5.6c0-1-.2-1.8-.7-2.4-.5-.5-1.1-.8-1.9-.8Zm18.9 6.7c0 1-.4 1.8-1.1 2.3s-1.8.8-3.1.8-2.5-.2-3.3-.7v-1.5c.5.3 1.1.5 1.7.6s1.2.2 1.7.2c.8 0 1.5-.1 1.9-.4s.7-.7.7-1.2-.2-.8-.5-1.1-1.1-.6-2.1-1.1c-1-.4-1.7-.7-2.1-1s-.7-.6-.9-.9-.3-.8-.3-1.3c0-.9.3-1.6 1.1-2.1s1.7-.8 2.9-.8 2.3.2 3.4.7l-.6 1.3c-1.1-.4-2.1-.7-2.9-.7s-1.3.1-1.7.4-.6.6-.6 1 0 .5.2.7.4.4.7.6.9.4 1.9.8c1.3.5 2.1.9 2.6 1.4s.7 1.1.7 1.8Zm3.9-7.8v6.9c0 .9.2 1.5.6 1.9s1 .6 1.9.6 1.9-.3 2.5-.9.8-1.6.8-3v-5.6H99v10.7h-1.3l-.2-1.4c-.3.5-.8.9-1.4 1.2s-1.3.4-2 .4c-1.3 0-2.3-.3-2.9-.9s-1-1.6-1-3v-7h1.6Zm15.5-.2c.5 0 .9 0 1.3.1l-.2 1.5c-.4-.1-.8-.1-1.2-.1-.9 0-1.6.4-2.2 1.1s-.9 1.6-.9 2.6v5.7h-1.6V232h1.3l.2 2c.4-.7.9-1.2 1.4-1.6q.9-.6 1.8-.6Zm7.6 11.1c-1.6 0-2.8-.5-3.8-1.4-.9-1-1.4-2.3-1.4-4s.4-3.1 1.3-4.1 2-1.5 3.4-1.5 2.4.4 3.2 1.3 1.2 2.1 1.2 3.5v1h-7.4c0 1.3.3 2.2.9 2.9s1.4 1 2.5 1 2.3-.2 3.4-.7v1.4c-.6.2-1.1.4-1.6.5s-1.1.2-1.8.2Zm-.5-9.8c-.9 0-1.5.3-2.1.8-.5.6-.8 1.3-.9 2.3h5.6c0-1-.2-1.8-.7-2.4-.5-.5-1.1-.8-1.9-.8Zm15.4 8.5h.8c.2 0 .5 0 .6-.1v1.2c-.2 0-.4.1-.8.2s-.6 0-.9 0c-2.1 0-3.1-1.1-3.1-3.3v-6.4h-1.5v-.8l1.5-.7.7-2.3h.9v2.5h3.1v1.3h-3.1v6.3c0 .6.1 1.1.5 1.5s.7.5 1.3.5Zm12.7-4.3c0 1.7-.4 3.1-1.3 4.1s-2.1 1.5-3.6 1.5-1.8-.2-2.6-.7-1.3-1.1-1.7-1.9-.6-1.8-.6-2.9c0-1.7.4-3.1 1.3-4.1s2.1-1.5 3.6-1.5 2.7.5 3.6 1.5 1.3 2.3 1.3 4m-8.2 0c0 1.4.3 2.4.8 3.1s1.4 1.1 2.4 1.1 1.9-.4 2.4-1.1.8-1.8.8-3.1-.3-2.4-.8-3.1-1.4-1.1-2.4-1.1-1.9.4-2.4 1-.8 1.7-.8 3.1Zm20.7-5.5c.5 0 .9 0 1.3.1l-.2 1.5c-.4-.1-.8-.1-1.2-.1-.9 0-1.6.4-2.2 1.1s-.9 1.6-.9 2.6v5.7H150V232h1.3l.2 2c.4-.7.9-1.2 1.4-1.6s1.2-.6 1.9-.6m7.6 11.1c-1.6 0-2.8-.5-3.8-1.4-.9-1-1.4-2.3-1.4-4s.4-3.1 1.3-4.1 2-1.5 3.4-1.5 2.4.4 3.2 1.3 1.2 2.1 1.2 3.5v1h-7.4c0 1.3.4 2.2.9 2.9.6.6 1.4 1 2.5 1s2.3-.2 3.4-.7v1.4c-.6.2-1.1.4-1.6.5s-1.1.2-1.9.2Zm-.5-9.8c-.9 0-1.5.3-2.1.8-.5.6-.8 1.3-.9 2.3h5.6c0-1-.2-1.8-.7-2.4-.5-.5-1.1-.8-1.9-.8Zm9.3 9.6-4.1-10.7h1.7l2.3 6.4c.5 1.5.8 2.4.9 2.9 0-.4.3-1.1.7-2.1s1.2-3.4 2.6-7.1h1.7l-4.1 10.7H171Zm7.4-13.6c0-.4 0-.6.3-.8s.4-.3.7-.3.5 0 .7.3.3.4.3.8 0 .6-.3.8-.4.3-.7.3-.5 0-.7-.3-.3-.4-.3-.8m1.7 13.6h-1.6V232h1.6zm7.8.2c-1.6 0-2.8-.5-3.8-1.4-.9-1-1.4-2.3-1.4-4s.4-3.1 1.3-4.1 2-1.5 3.4-1.5 2.4.4 3.2 1.3 1.2 2.1 1.2 3.5v1h-7.4c0 1.3.4 2.2.9 2.9.6.6 1.4 1 2.5 1s2.3-.2 3.4-.7v1.4c-.6.2-1.1.4-1.6.5s-1.1.2-1.9.2Zm-.5-9.8c-.9 0-1.5.3-2.1.8-.5.6-.8 1.3-.9 2.3h5.6c0-1-.2-1.8-.7-2.4-.5-.5-1.1-.8-1.9-.8Zm15.7 9.6-2-6.3c-.1-.4-.4-1.3-.7-2.6-.3 1.1-.5 2-.7 2.6l-2 6.3H196l-2.9-10.7h1.7c.7 2.7 1.2 4.7 1.6 6.1s.6 2.4.6 2.8c0-.4.2-.9.4-1.4s.3-1.1.4-1.4l2-6.1h1.8l1.9 6.1c.4 1.1.6 2.1.7 2.8 0-.2.1-.6.2-1.1s.8-3.1 2-7.9h1.7l-3 10.7h-1.9Zm15.1-1.1h.8c.2 0 .5 0 .6-.1v1.2c-.2 0-.4.1-.8.2s-.6 0-.9 0c-2.1 0-3.1-1.1-3.1-3.3v-6.4h-1.5v-.8l1.5-.7.7-2.3h.9v2.5h3.1v1.3h-3.1v6.3c0 .6.1 1.1.5 1.5s.7.5 1.3.5Zm10.7 1.1v-6.9c0-.9-.2-1.5-.6-1.9s-1-.6-1.9-.6-1.9.3-2.5.9-.8 1.6-.8 3v5.6h-1.6v-15.2h1.6v6h.1c.3-.5.8-.9 1.4-1.2s1.3-.4 2-.4c1.3 0 2.3.3 2.9.9s1 1.6 1 3v7h-1.6Zm9.3.2c-1.6 0-2.8-.5-3.8-1.4-.9-1-1.4-2.3-1.4-4s.4-3.1 1.3-4.1 2-1.5 3.4-1.5 2.4.4 3.2 1.3 1.2 2.1 1.2 3.5v1h-7.4c0 1.3.4 2.2.9 2.9.6.6 1.4 1 2.5 1s2.3-.2 3.4-.7v1.4c-.6.2-1.1.4-1.6.5s-1.1.2-1.9.2Zm-.4-9.8c-.9 0-1.5.3-2.1.8-.5.6-.8 1.3-.9 2.3h5.6c0-1-.2-1.8-.7-2.4-.5-.5-1.1-.8-1.9-.8Zm13.8 6.7c0 1-.4 1.8-1.1 2.3s-1.8.8-3.1.8-2.5-.2-3.3-.7v-1.5c.5.3 1.1.5 1.7.6s1.2.2 1.7.2c.9 0 1.5-.1 1.9-.4.5-.3.7-.7.7-1.2s-.2-.8-.5-1.1-1.1-.6-2.1-1.1c-1-.4-1.7-.7-2.1-1s-.7-.6-.9-.9-.3-.8-.3-1.3c0-.9.4-1.6 1.1-2.1s1.7-.8 2.9-.8 2.3.2 3.4.7l-.6 1.3c-1.1-.4-2.1-.7-2.9-.7s-1.4.1-1.7.4-.6.6-.6 1 0 .5.2.7.4.4.7.6.9.4 1.9.8c1.3.5 2.1.9 2.6 1.4.4.5.7 1.1.7 1.8Zm7 3.1c-1.6 0-2.8-.5-3.8-1.4-.9-1-1.4-2.3-1.4-4s.4-3.1 1.3-4.1 2-1.5 3.4-1.5 2.4.4 3.2 1.3 1.2 2.1 1.2 3.5v1h-7.4c0 1.3.4 2.2 1 2.9s1.5 1 2.5 1 2.3-.2 3.4-.7v1.4c-.6.2-1.1.4-1.6.5s-1.1.2-1.9.2Zm-.5-9.8c-.9 0-1.5.3-2.1.8-.5.6-.8 1.3-.9 2.3h5.6c0-1-.2-1.8-.7-2.4-.5-.5-1.1-.8-2-.8Zm16.8-1.3c.5 0 .9 0 1.3.1l-.2 1.5c-.4-.1-.8-.1-1.2-.1-.9 0-1.6.4-2.2 1.1s-.9 1.6-.9 2.6v5.7h-1.6V232h1.3l.2 2c.4-.7.9-1.2 1.4-1.6s1.2-.6 1.9-.6m7.6 11.1c-1.6 0-2.8-.5-3.8-1.4-.9-1-1.4-2.3-1.4-4s.4-3.1 1.3-4.1 2-1.5 3.4-1.5 2.4.4 3.2 1.3 1.2 2.1 1.2 3.5v1h-7.4c0 1.3.4 2.2 1 2.9s1.5 1 2.5 1 2.3-.2 3.4-.7v1.4c-.6.2-1.1.4-1.6.5s-1.1.2-1.9.2Zm-.4-9.8c-.9 0-1.5.3-2.1.8-.5.6-.8 1.3-.9 2.3h5.6c0-1-.2-1.8-.7-2.4-.5-.5-1.1-.8-2-.8Zm13.8 6.7c0 1-.4 1.8-1.1 2.3s-1.8.8-3.1.8-2.5-.2-3.3-.7v-1.5c.5.3 1.1.5 1.7.6s1.2.2 1.7.2c.9 0 1.5-.1 2-.4s.7-.7.7-1.2-.2-.8-.5-1.1-1.1-.6-2.1-1.1c-1-.4-1.7-.7-2.1-1s-.7-.6-.9-.9-.3-.8-.3-1.3c0-.9.4-1.6 1.1-2.1s1.7-.8 2.9-.8 2.3.2 3.4.7l-.6 1.3c-1.1-.4-2-.7-2.9-.7s-1.4.1-1.7.4-.6.6-.6 1 0 .5.2.7.4.4.7.6 1 .4 1.9.8c1.3.5 2.1.9 2.6 1.4s.7 1.1.7 1.8Zm11.7-2.5c0 1.7-.4 3.1-1.3 4.1s-2.1 1.5-3.6 1.5-1.8-.2-2.5-.7-1.3-1.1-1.7-1.9-.6-1.8-.6-2.9c0-1.7.4-3.1 1.3-4.1q1.35-1.5 3.6-1.5c2.25 0 2.7.5 3.6 1.5s1.3 2.3 1.3 4Zm-8.1 0c0 1.4.3 2.4.8 3.1s1.4 1.1 2.4 1.1 1.9-.4 2.4-1.1.8-1.8.8-3.1-.3-2.4-.8-3.1-1.4-1.1-2.4-1.1-1.9.4-2.4 1c-.5.7-.8 1.7-.8 3.1ZM312 232v6.9c0 .9.2 1.5.6 1.9s1 .6 1.9.6 1.9-.3 2.5-.9.8-1.6.8-3v-5.6h1.6v10.7h-1.3l-.2-1.4c-.3.5-.8.9-1.4 1.2s-1.3.4-2 .4c-1.3 0-2.3-.3-2.9-.9s-1-1.6-1-3v-7h1.6Zm15.4-.2c.5 0 .9 0 1.3.1l-.2 1.5c-.4-.1-.8-.1-1.2-.1-.9 0-1.6.4-2.2 1.1s-.9 1.6-.9 2.6v5.7h-1.6V232h1.3l.2 2c.4-.7.9-1.2 1.4-1.6s1.2-.6 1.9-.6m7.4 11.1c-1.5 0-2.8-.5-3.6-1.4s-1.3-2.3-1.3-4.1.4-3.2 1.3-4.1c.9-1 2.1-1.5 3.7-1.5s1 0 1.5.2.9.2 1.2.4l-.5 1.4c-.4-.1-.8-.3-1.2-.4-.4 0-.8-.1-1.1-.1q-3.3 0-3.3 4.2c0 4.2.3 2.3.8 3s1.3 1.1 2.4 1.1 1.8-.2 2.7-.6v1.4q-1.05.6-2.7.6Zm9.6 0c-1.6 0-2.8-.5-3.8-1.4-.9-1-1.4-2.3-1.4-4s.4-3.1 1.3-4.1 2-1.5 3.4-1.5 2.4.4 3.2 1.3 1.2 2.1 1.2 3.5v1h-7.4c0 1.3.4 2.2 1 2.9s1.5 1 2.5 1 2.3-.2 3.4-.7v1.4c-.6.2-1.1.4-1.6.5s-1.1.2-1.9.2Zm-.5-9.8c-.9 0-1.5.3-2.1.8-.5.6-.8 1.3-.9 2.3h5.6c0-1-.2-1.8-.7-2.4-.5-.5-1.1-.8-2-.8Zm13.9 6.7c0 1-.4 1.8-1.1 2.3s-1.8.8-3.1.8-2.5-.2-3.3-.7v-1.5c.5.3 1.1.5 1.7.6s1.2.2 1.7.2c.9 0 1.5-.1 2-.4s.7-.7.7-1.2-.2-.8-.5-1.1-1.1-.6-2.1-1.1c-1-.4-1.7-.7-2.1-1s-.7-.6-.9-.9-.3-.8-.3-1.3c0-.9.4-1.6 1.1-2.1s1.7-.8 2.9-.8 2.3.2 3.4.7l-.6 1.3c-1.1-.4-2-.7-2.9-.7s-1.4.1-1.7.4-.6.6-.6 1 0 .5.2.7.4.4.7.6 1 .4 1.9.8c1.3.5 2.1.9 2.6 1.4s.7 1.1.7 1.8ZM78.9 263.5h.8c.2 0 .5 0 .6-.1v1.2c-.2 0-.4.1-.8.2s-.7 0-.9 0c-2.1 0-3.1-1.1-3.1-3.3v-6.4H74v-.8l1.5-.7.7-2.3h.9v2.5h3.1v1.3h-3.1v6.3c0 .6.2 1.1.5 1.5s.7.5 1.3.5Zm12.6-4.2c0 1.7-.4 3.1-1.3 4.1s-2.1 1.5-3.6 1.5-1.8-.2-2.6-.7-1.3-1.1-1.7-1.9-.6-1.8-.6-3c0-1.7.4-3.1 1.3-4.1s2.1-1.5 3.6-1.5 2.7.5 3.6 1.5 1.3 2.3 1.3 4Zm-8.1 0c0 1.4.3 2.4.8 3.1s1.3 1.1 2.4 1.1 1.9-.4 2.4-1.1.8-1.8.8-3.1-.3-2.4-.8-3.1-1.4-1.1-2.4-1.1-1.9.4-2.4 1-.8 1.7-.8 3.1Zm23.1 5.4v-6.9c0-.9-.2-1.5-.6-1.9s-1-.6-1.9-.6-1.9.3-2.5.9-.8 1.6-.8 3v5.6h-1.6v-15.2h1.6v6c.3-.5.8-.9 1.4-1.2s1.3-.4 2-.4c1.3 0 2.3.3 2.9.9s1 1.6 1 3v7h-1.6Zm9.3.2c-1.6 0-2.8-.5-3.8-1.5-.9-1-1.4-2.3-1.4-4s.4-3.1 1.3-4.1 2-1.5 3.4-1.5 2.4.4 3.2 1.3 1.2 2 1.2 3.5v1h-7.4c0 1.3.3 2.2.9 2.9s1.4 1 2.5 1 2.3-.2 3.4-.7v1.5c-.6.2-1.1.4-1.6.5s-1.1.2-1.8.2Zm-.5-9.8c-.9 0-1.5.3-2.1.8-.5.6-.8 1.3-.9 2.3h5.6c0-1-.2-1.8-.7-2.4-.5-.5-1.1-.8-1.9-.8Zm8.6 9.6h-1.6v-15.2h1.6zm8.2.2c-.7 0-1.3-.1-1.9-.4s-1.1-.6-1.4-1.2h-.1c0 .6.1 1.2.1 1.8v4.4h-1.6V254h1.3l.2 1.5c.4-.6.9-1 1.5-1.3s1.2-.4 1.9-.4q2.1 0 3.3 1.5c.8 1 1.2 2.3 1.2 4.1s-.4 3.1-1.2 4.1-1.9 1.5-3.3 1.5Zm-.2-9.7q-1.65 0-2.4.9c-.75.9-.7 1.6-.8 2.9v.4c0 1.5.2 2.6.8 3.2s1.3 1 2.4 1 1.6-.4 2.2-1.1.8-1.8.8-3.1-.3-2.4-.8-3.1-1.3-1.1-2.2-1.1m10.6-1.2h1.7l2.3 6.1c.5 1.4.8 2.4 1 3 0-.3.3-.9.5-1.7.3-.8 1.1-3.3 2.6-7.4h1.7l-4.6 12.2c-.5 1.2-1 2.1-1.6 2.6s-1.4.8-2.2.8-1 0-1.5-.2v-1.3c.4 0 .8.1 1.2.1 1.1 0 1.9-.6 2.4-1.9l.6-1.5-4.3-10.8Zm20.8 5.3c0 1.7-.4 3.1-1.3 4.1s-2.1 1.5-3.6 1.5-1.8-.2-2.6-.7-1.3-1.1-1.7-1.9-.6-1.8-.6-3c0-1.7.4-3.1 1.3-4.1q1.35-1.5 3.6-1.5c2.25 0 2.7.5 3.6 1.5s1.3 2.3 1.3 4Zm-8.2 0c0 1.4.3 2.4.8 3.1s1.4 1.1 2.4 1.1 1.9-.4 2.4-1.1c.6-.7.8-1.8.8-3.1s-.3-2.4-.8-3.1c-.6-.7-1.4-1.1-2.4-1.1s-1.9.4-2.4 1c-.5.7-.8 1.7-.8 3.1Zm12.3-5.3v6.9c0 .9.2 1.5.6 2s1 .6 1.9.6 1.9-.3 2.5-.9.8-1.6.8-3V254h1.6v10.7h-1.3l-.2-1.4c-.3.5-.8.9-1.4 1.2s-1.3.4-2 .4c-1.3 0-2.3-.3-2.9-.9s-1-1.6-1-3v-7h1.6Zm20.1 10.9c-1.6 0-2.8-.5-3.8-1.5-.9-1-1.4-2.3-1.4-4s.4-3.1 1.3-4.1 2-1.5 3.4-1.5 2.4.4 3.2 1.3 1.2 2 1.2 3.5v1H184c0 1.3.4 2.2.9 2.9.6.6 1.4 1 2.5 1s2.3-.2 3.4-.7v1.5c-.6.2-1.1.4-1.6.5s-1.1.2-1.9.2Zm-.4-9.8c-.9 0-1.5.3-2.1.8-.5.6-.8 1.3-.9 2.3h5.6c0-1-.2-1.8-.7-2.4-.5-.5-1.1-.8-1.9-.8Zm13.8 6.7c0 1-.4 1.8-1.1 2.3s-1.8.8-3.1.8-2.5-.2-3.3-.7v-1.5c.5.3 1.1.5 1.7.6s1.2.2 1.7.2c.9 0 1.5-.1 1.9-.4.5-.3.7-.7.7-1.2s-.2-.8-.5-1.1-1.1-.6-2.1-1-1.7-.7-2.1-1-.7-.6-.9-.9-.3-.8-.3-1.3c0-.9.4-1.6 1.1-2.1s1.7-.8 2.9-.8 2.3.2 3.4.7l-.6 1.3c-1.1-.4-2.1-.7-2.9-.7s-1.4.1-1.7.4-.6.6-.6 1 0 .5.2.7.4.4.7.6.9.5 1.9.8c1.3.5 2.1.9 2.6 1.4.4.5.7 1.1.7 1.8Zm6.7 3.1c-1.6 0-2.8-.5-3.6-1.4s-1.3-2.3-1.3-4 .4-3.2 1.3-4.1c.9-1 2.1-1.5 3.7-1.5s1 0 1.5.2.9.2 1.2.4l-.5 1.4c-.4-.1-.8-.3-1.2-.4-.4 0-.8-.1-1.1-.1q-3.3 0-3.3 4.2c0 4.2.3 2.3.8 3s1.3 1 2.4 1 1.8-.2 2.7-.6v1.4q-1.05.6-2.7.6Zm11.7-.2-.3-1.5c-.5.7-1.1 1.1-1.6 1.4s-1.2.4-2 .4-1.9-.3-2.5-.8-.9-1.3-.9-2.3c0-2.2 1.7-3.3 5.2-3.4h1.8v-.7c0-.8-.2-1.5-.5-1.9s-.9-.6-1.7-.6-1.9.3-3 .8l-.5-1.2c.5-.3 1.1-.5 1.7-.7s1.3-.2 1.9-.2c1.3 0 2.2.3 2.8.9s.9 1.5.9 2.7v7.3h-1.2Zm-3.7-1.2c1 0 1.8-.3 2.4-.8s.9-1.3.9-2.3v-1h-1.6c-1.3.1-2.2.3-2.8.7s-.9.9-.9 1.7.2 1 .5 1.3.9.5 1.5.5Zm13 1.4c-.7 0-1.3-.1-1.9-.4s-1.1-.6-1.4-1.2h-.1c0 .6.1 1.2.1 1.8v4.4h-1.6V254h1.3l.2 1.5c.4-.6.9-1 1.5-1.3s1.2-.4 1.9-.4q2.1 0 3.3 1.5c.8 1 1.2 2.3 1.2 4.1s-.4 3.1-1.2 4.1-1.9 1.5-3.3 1.5Zm-.2-9.7q-1.65 0-2.4.9c-.75.9-.7 1.6-.8 2.9v.4c0 1.5.2 2.6.8 3.2s1.3 1 2.4 1 1.6-.4 2.2-1.1.8-1.8.8-3.1-.3-2.4-.8-3.1-1.3-1.1-2.2-1.1m11.8 9.7c-1.6 0-2.8-.5-3.8-1.5-.9-1-1.4-2.3-1.4-4s.4-3.1 1.3-4.1 2-1.5 3.4-1.5 2.4.4 3.2 1.3 1.2 2 1.2 3.5v1h-7.4c0 1.3.4 2.2.9 2.9.6.6 1.4 1 2.5 1s2.3-.2 3.4-.7v1.5c-.6.2-1.1.4-1.6.5s-1.1.2-1.9.2Zm-.5-9.8c-.9 0-1.5.3-2.1.8-.5.6-.8 1.3-.9 2.3h5.6c0-1-.2-1.8-.7-2.4-.5-.5-1.1-.8-1.9-.8Zm15.4 8.4h.8c.2 0 .5 0 .6-.1v1.2c-.2 0-.4.1-.8.2s-.6 0-.9 0c-2.1 0-3.1-1.1-3.1-3.3v-6.4h-1.5v-.8l1.5-.7.7-2.3h.9v2.5h3.1v1.3h-3.1v6.3c0 .6.1 1.1.5 1.5.3.4.7.5 1.3.5Zm10.8 1.2v-6.9c0-.9-.2-1.5-.6-1.9s-1-.6-1.9-.6-2 .3-2.5.9-.8 1.6-.8 3v5.6h-1.6v-15.2h1.6v6h.1c.3-.5.8-.9 1.4-1.2s1.3-.4 2-.4c1.3 0 2.3.3 2.9.9s1 1.6 1 3v7h-1.6Zm9.2.2c-1.6 0-2.8-.5-3.8-1.5s-1.4-2.3-1.4-4 .4-3.1 1.3-4.1 2-1.5 3.4-1.5 2.4.4 3.2 1.3 1.2 2 1.2 3.5v1h-7.4c0 1.3.4 2.2 1 2.9s1.5 1 2.5 1 2.3-.2 3.4-.7v1.5c-.6.2-1.1.4-1.6.5s-1.1.2-1.9.2Zm-.4-9.8c-.9 0-1.5.3-2.1.8s-.8 1.3-.9 2.3h5.6c0-1-.2-1.8-.7-2.4s-1.1-.8-2-.8Zm16.8-1.3c.5 0 .9 0 1.3.1l-.2 1.5c-.4-.1-.8-.1-1.2-.1-.9 0-1.6.4-2.2 1.1s-.9 1.6-.9 2.6v5.7h-1.6V254h1.3l.2 2c.4-.7.9-1.2 1.4-1.6s1.2-.6 1.9-.6m12.3 5.5c0 1.7-.4 3.1-1.3 4.1s-2.1 1.5-3.6 1.5-1.8-.2-2.5-.7-1.3-1.1-1.7-1.9-.6-1.8-.6-3c0-1.7.4-3.1 1.3-4.1q1.35-1.5 3.6-1.5c2.25 0 2.7.5 3.6 1.5s1.3 2.3 1.3 4Zm-8.1 0c0 1.4.3 2.4.8 3.1s1.4 1.1 2.4 1.1 1.9-.4 2.4-1.1.8-1.8.8-3.1-.3-2.4-.8-3.1-1.4-1.1-2.4-1.1-1.9.4-2.4 1c-.5.7-.8 1.7-.8 3.1Zm20 0c0 1.7-.4 3.1-1.3 4.1s-2.1 1.5-3.6 1.5-1.8-.2-2.5-.7-1.3-1.1-1.7-1.9-.6-1.8-.6-3c0-1.7.4-3.1 1.3-4.1s2.1-1.5 3.6-1.5 2.7.5 3.6 1.5 1.3 2.3 1.3 4Zm-8.1 0c0 1.4.3 2.4.8 3.1s1.4 1.1 2.4 1.1 1.9-.4 2.4-1.1.8-1.8.8-3.1-.3-2.4-.8-3.1-1.4-1.1-2.4-1.1-1.9.4-2.4 1-.8 1.7-.8 3.1Zm24.4 5.4v-7c0-.9-.2-1.5-.5-1.9s-.9-.6-1.7-.6-1.8.3-2.2.9c-.5.6-.7 1.5-.7 2.7v6h-1.6v-7c0-.9-.2-1.5-.5-1.9s-.9-.6-1.7-.6-1.8.3-2.2.9c-.5.6-.7 1.6-.7 3v5.6h-1.6v-10.7h1.3l.3 1.5c.3-.5.7-.9 1.3-1.2s1.2-.4 1.9-.4q2.55 0 3.3 1.8c.3-.6.8-1 1.4-1.3s1.3-.5 2.1-.5q1.8 0 2.7.9c.9.9.9 1.6.9 3v7h-1.6Z"/>
  </g>
</svg>
