<svg xmlns="http://www.w3.org/2000/svg" xmlns:xlink="http://www.w3.org/1999/xlink" data-name="Isolation Mode" viewBox="0 0 139.08 117.26">
  <defs>
    <clipPath id="b">
      <rect width="12.3" height="29.21" x="25.37" y="32.44" fill="#fff" stroke="#00949c" stroke-miterlimit="10" rx="6.15" ry="6.15" transform="rotate(-32.61 31.517 47.036)"/>
    </clipPath>
    <filter id="a" width="100.46" height="59.19" x="20.31" y="30.03" filterUnits="userSpaceOnUse">
      <feOffset dx="2" dy="2"/>
      <feGaussianBlur result="blur" stdDeviation="0"/>
      <feFlood flood-color="#00949c" flood-opacity=".2"/>
      <feComposite in2="blur" operator="in"/>
      <feComposite in="SourceGraphic"/>
    </filter>
  </defs>
  <rect width="138.08" height="116.26" x=".5" y=".5" fill="#00949c" stroke="#fff" stroke-miterlimit="10" rx="15" ry="15"/>
  <g filter="url(#a)">
    <rect width="12.3" height="29.21" x="25.37" y="32.44" fill="#fff" rx="6.15" ry="6.15" transform="rotate(-32.61 31.517 47.036)"/>
    <g clip-path="url(#b)">
      <path fill="#00949c" d="M25.12 32.14s12.05 17.51 13.65 20.33.66 8.47-3.48 8.56c5.93.66 7.53 1.69 8-3.48S40.28 42.4 40 41.64s-8.19-7.87-8.19-7.87l-6.68-1.63Z" opacity=".2"/>
    </g>
    <rect width="12.3" height="29.21" x="25.37" y="32.44" fill="none" stroke="#00949c" stroke-miterlimit="10" rx="6.15" ry="6.15" transform="rotate(-32.61 31.517 47.036)"/>
    <path fill="none" stroke="#00949c" stroke-miterlimit="10" d="m26.34 50.36 10.36-6.63"/>
    <path fill="none" stroke="#fff" stroke-linecap="round" stroke-miterlimit="10" d="M39.39 59.35c3.79 2 7.03 6.02 8.19 10.14s.55 8.71-1.64 12.4c-1.23 2.07-3.04 3.91-5.35 4.59s-5.13-.08-6.34-2.17c-1.52-2.62.15-6.21 2.83-7.62s5.94-1.13 8.87-.34c3.71 1 7.19 2.72 10.83 3.94s7.63 1.93 11.32.82c3.68-1.1 6.9-4.43 6.86-8.27-.02-2.27-1.13-4.39-2.41-6.27-6.17-9.07-16.92-15.03-20.58-25.38-.82-2.34-1.21-5.02-.08-7.22 1.45-2.81 5.1-3.96 8.17-3.23s5.58 2.98 7.45 5.53c2.87 3.92 4.48 8.59 5.96 13.22 1.48 4.62 2.88 9.34 5.42 13.48 3.05 4.98 8.7 9.33 14.74 9.59 2.21.09 4.61-.79 5.71-2.72 2.75-4.84-2.09-10.81-3.16-15.41-.71-3.06.16-6.95 3.11-8.04 2.63-.97 5.53.8 7.27 3 3.64 4.59 4.24 10.79 5.02 16.6s2.16 12.08 6.69 15.78"/>
  </g>
</svg>
