<svg xmlns="http://www.w3.org/2000/svg" xmlns:xlink="http://www.w3.org/1999/xlink" data-name="Isolation Mode" viewBox="0 0 287.79 172.31">
  <defs>
    <clipPath id="a">
      <rect width="244.67" height="172.31" x="26.2" y="0" fill="none" rx="10" ry="10"/>
    </clipPath>
  </defs>
  <rect width="244.67" height="172.31" x="26.2" y="0" fill="#fff" rx="10" ry="10"/>
  <circle cx="110.24" cy="31.82" r="9.04" fill="#00949c"/>
  <path fill="#382f2c" d="M46.54 37.21V22.93h1.66v14.28zm5.37 0V22.93h1.66V35.7h6.3v1.5h-7.96Zm9.04-4.62v-1.48h4.79v1.48zm12.4 4.62h-1.58V27.03c0-.85.03-1.65.08-2.4-.14.14-.29.28-.46.43s-.94.78-2.32 1.9l-.86-1.11 3.78-2.92h1.37v14.28Zm14.08-10.92c0 .91-.26 1.66-.77 2.24s-1.24.97-2.17 1.16v.08c1.15.14 2 .51 2.55 1.09s.83 1.35.83 2.3c0 1.36-.47 2.41-1.42 3.14s-2.29 1.1-4.02 1.1c-.75 0-1.45-.06-2.08-.17s-1.24-.31-1.83-.6v-1.54c.62.31 1.28.54 1.98.7s1.36.24 1.99.24c2.47 0 3.7-.97 3.7-2.9 0-1.73-1.36-2.6-4.08-2.6H80.7v-1.4h1.43c1.11 0 2-.25 2.65-.74s.98-1.17.98-2.05c0-.7-.24-1.24-.72-1.64s-1.13-.6-1.95-.6c-.62 0-1.21.08-1.77.25s-1.18.48-1.89.94l-.82-1.09c.59-.46 1.26-.83 2.03-1.09s1.57-.4 2.42-.4c1.39 0 2.46.32 3.23.95s1.15 1.51 1.15 2.61Z"/>
  <g clip-path="url(#a)">
    <path fill="none" stroke="#7f7f7f" stroke-miterlimit="10" stroke-width="8" d="m284.78 100.8-.99-.15a941.2 941.2 0 0 0-279.79 0l-.99.15"/>
    <path fill="#00949c" d="M132.97 54.23h-11.55c-1.18 0-2.13.95-2.13 2.13v25.01c0 1.18.95 2.13 2.13 2.13h10.68v34.57h3V56.35c0-1.18-.95-2.13-2.13-2.13Z"/>
    <path fill="#e5e1dc" d="M158.67 54.23h11.55c1.18 0 2.13.95 2.13 2.13v25.01c0 1.18-.95 2.13-2.13 2.13h-10.68v34.57h-3V56.36c0-1.18.95-2.13 2.13-2.13"/>
  </g>
</svg>
