<svg xmlns="http://www.w3.org/2000/svg" viewBox="0 0 451.35 544.15">
  <rect width="419.43" height="544.15" y="0" fill="#fff" rx="10.49" ry="10.49"/>
  <path fill="none" stroke="#333" stroke-miterlimit="10" d="M451.35 89.97h-99.61a3.16 3.16 0 0 1-3.16-3.16V62.2a3.16 3.16 0 0 0-3.16-3.16H223m17.1 318.79h211.25M249.17 458.3h202.18"/>
  <path fill="#c6b6af" d="M283.91 284.86c-.97-2.82-1.48-5.61-1.71-6.36-.56-1.82-.05-2.38-.39-3.84-.25-1.06-.33-1.59-1.08-3.09-.18-.35-.63-5.53-.83-9.16-.86-8.27-1.96-48.19-3.31-55.46-1.47-7.96-4.21-13.97-5.27-19.28s-.32-10.81-.8-22.02c-.17-4.15-1.3-12.98-.71-20.65.72-9.41-.05-20.54-4.4-29.11-4.07-8.02-13.06-9.06-20.92-11.14-7.88-2.09-16.92-4.93-19.48-9.24-.61-1.03-1.34-2.97-1.76-5.82 4.43-.64 8.88-1.75 13.02-3.56 5.6-2.44 7.48-9.19 4.4-14.46-2.14-3.68-2.35-8.56-1.98-12.68.64-7.05-.24-20.46-3.26-26.64-5.71-11.67-22.92-16.57-33.49-11.44-8.97-1.6-14.22 4.53-18.07 9.34s-15.24 32.09-9.49 44.8c4.72 10.45 14.68 13.14 18.27 13.66.61.09 1.37.2 2.24.33-.25 3.46-.99 5.47-1.72 6.69-2.57 4.31-10.34 6.92-18.22 9.01-7.69 2.04-16.28 3.13-20.56 10.68-4.85 8.54-5.49 20.01-4.75 29.57.59 7.67-.53 16.5-.71 20.65-.47 11.21.26 16.71-.8 22.02s-3.8 11.31-5.27 19.28c-1.34 7.26-2.45 47.11-3.3 55.44-.2 3.57-.67 8.73-.84 9.08-.75 1.5-.84 2.03-1.09 3.1-.34 1.47.18 2.03-.38 3.85-.23.75-.74 3.55-1.72 6.38-1.39 4.02-3.33 8.35-3.33 9.18 0 2.61 1.76 11.75 3.49 14 1.58 2.06 9.41 6.74 10.53 6.74s1.68-1.12 1.68-1.12 1.93.67 2.24-.7c.42-1.83-1.82-2.95-2.66-3.65s-3.94-2.35-5.06-4.59-.83-10.86.44-11.1c2.01-.37.56 4.06.7 5.74s.76 5.89 3.36 6.03c3.8.2 2.38-8.27 2.38-10.51s1.33-5.05 1.54-7.01c.42-3.92-2.8-8.13-2.8-11.49 0-.91 1-4.94 2.45-10.46 3.28-13.72 15.77-55.24 15.77-61.87 0-4.94 1.01-13.02 1.48-18.12.29-3.16 1.69-13.94 2.98-24.44.18 3.22 1.06 6.33 3.41 8.44.28 6.12 1.23 13.73 1.57 17.49.5 5.53 2.51 10.31 1.48 17.83-.72 5.23-4.21 9.88-5.93 13.53-3.7 7.86-6.42 18.65-7.43 24.87-1.89 11.62-2.42 16.76-3.09 20.79-.67 4.02-4.24 19.14-4.07 28.86s12.91 69.24 13.08 71.58c.17 2.35-.5 7.21-.34 10.23.17 3.02 1.34 8.55 1.34 11.4s-4.15 16.76-4.19 23.97c-.17 26.32 7.06 70.99 7.23 74.85s-.87 6.18-1.08 7.62c-.2 1.44-1.01 4.19-.7 5.93-2.66 5.12-10.25 12.91-12.3 13.94-2.05 1.02-3.27 2.42-3.81 3.59-.23.51 0 1.2.4 1.48-.54 1.54.64 2.26 1.39 2.13-.02.7.45 1.19.82 1.38 1.41.74 2.35-.48 2.35-.48s-.13 1.16 1.42 1.96c1.42.74 3.37-.84 3.37-.84s-.9 1.76 1.1 2.82c1.5.79 4 .5 5.97-.36 3.15-1.38 5.46-4.36 5.74-4.61.49-.45 2.39-.88 3.71-2.04 2.11-1.87 1.85-3.03 2.54-3.8.42-.47 3.74-.54 6.14-2.95 1.76-1.77 1.06-5.62.68-7.06-.63-2.44-1.29-5.26-1.29-6.08s-.05-3.44-.15-5.08-1.91-4.95-2.06-9.36c-.13-3.87 9.52-56.27 9.25-63.81s-2.11-11.57-1.95-16.6c.17-5.03 4.86-16.43 5.7-26.99s-2.01-13.24-1.68-18.44c.34-5.2 6.71-54.99 7.04-60.85.26-4.49.27-8.01.32-10.43.9.22 1.97.45 2.87.42 1.44-.04 1.94-.3 3.21-.53.17 2.57 0 5.48.28 10.54.34 5.87 6.71 55.66 7.04 60.85.34 5.2-2.51 7.88-1.68 18.44.84 10.56 5.53 21.96 5.7 26.99s-1.68 9.05-1.95 16.6c-.27 7.54 9.38 59.94 9.25 63.81-.15 4.41-1.96 7.72-2.06 9.36s-.15 4.26-.15 5.08-.65 3.64-1.29 6.08c-.38 1.44-1.07 5.3.68 7.06 2.4 2.41 5.71 2.48 6.14 2.95.69.77.43 1.93 2.54 3.8 1.32 1.17 3.22 1.6 3.71 2.04.28.25 2.59 3.23 5.74 4.61 1.97.86 4.47 1.15 5.97.36 2-1.06 1.1-2.82 1.1-2.82s1.95 1.57 3.37.84c1.56-.8 1.42-1.96 1.42-1.96s.94 1.22 2.35.48c.37-.19.84-.68.82-1.38.75.13 1.93-.59 1.39-2.13.4-.28.64-.97.4-1.48-.54-1.18-1.76-2.57-3.81-3.59s-9.63-8.81-12.3-13.94c.31-1.74-.5-4.49-.7-5.93-.2-1.43-1.24-3.76-1.08-7.62.17-3.86 7.39-48.53 7.23-74.85-.05-7.22-4.19-21.12-4.19-23.97s1.17-8.38 1.34-11.4-.5-7.88-.34-10.23c.17-2.35 12.91-61.86 13.08-71.58s-3.4-24.84-4.07-28.86-1.2-9.17-3.09-20.79c-1.01-6.21-3.73-17-7.43-24.87-1.72-3.65-5.21-8.3-5.93-13.53-1.03-7.52.98-12.3 1.48-17.83.34-3.76 1.28-11.37 1.57-17.49 2.36-2.12 3.24-5.22 3.41-8.44 1.29 10.5 2.69 21.29 2.98 24.44.47 5.11 1.48 13.18 1.48 18.12 0 6.61 11.9 47.38 15.22 61.2 0 0-.02 0 0 0 1.19 4.58 3.01 10.4 3.01 11.21 0 3.36-3.22 7.55-2.8 11.46.21 1.95 1.54 4.75 1.54 6.99s-1.42 10.68 2.38 10.49c2.6-.13 3.22-4.33 3.36-6.01s-1.31-6.1.7-5.73c1.27.23 1.56 8.83.44 11.07s-4.21 3.88-5.05 4.58-3.08 1.81-2.66 3.64c.31 1.36 2.24.7 2.24.7s.56 1.12 1.68 1.12 8.92-4.67 10.5-6.72c1.72-2.24 3.48-11.36 3.48-13.97 0-.83-1.93-5.15-3.32-9.16Z" opacity=".5"/>
  <path fill="#d16f54" d="M231.5 201.97c-3.09-2.45-7.93-2.9-10.14.99-1.51 2.65-.23 6.47 2.03 7.63.25.13.86.25 1.02.5s0 1.22 0 2.23c-.19.17-.4.34-.63.52-.74.58-1.66 1.22-2.78 2.36-2.78 2.83-3.01 8.21-3.01 11.68s1.19 14.04 1.19 17.42-2.19 8.03-2.19 12.04c0 3.56 3.92 6.43 3.92 12.41 0 .36-.04.72-.13 1.08-.07.3-.18.59-.32.87-.11.23-.25.44-.39.65-.06.09-.13.17-.19.25-.03.04-.06.08-.07.12a.3.3 0 0 0-.03.14l-.03.18v.06c0 .02.02.03.04.03h.02c.03-.01.06-.03.09-.04 0 0 .02 0 .03-.01.04-.02.09-.03.12-.05s.06-.07.08-.11c.05-.07.11-.14.16-.21.1-.14.2-.28.29-.42.17-.27.32-.55.43-.84.12-.29.2-.58.26-.89.06-.32.09-.65.09-.97v-.18c-.09-5.66-3.83-8.48-3.83-11.86 0-4.01 2.28-6.93 2.37-12.41.06-3.65-.91-10.39-.91-17.15 0-6.22 1.01-9.34 2.74-10.79.59-.5 1.58-.97 2.55-1.1.23-.03.46-.04.68-.03.2.54.36.9.29 1.06-.13.31-2.19 1.46-2.44 4.33-.18 2.06 1.46 4.55 3.24 5.63 2.06 1.26 4.8 1.07 6.85-.11 4.5-2.59 5.17-10.96 4.23-15.42-.75-3.57-2.74-7.26-5.62-9.55Zm-31.4 43.32c0-3.38 1.19-8.8 1.19-12.27s-.23-8.85-3.01-11.68c-1.12-1.14-2.04-1.79-2.78-2.36-.29-.23-.56-.45-.8-.68-.01-.91-.15-1.75 0-1.97.15-.24.75-.36.99-.48 1.51-.77 2.56-2.78 2.58-4.79 0-.89-.18-1.78-.63-2.56-2.13-3.74-6.79-3.32-9.78-.95-2.78 2.2-4.7 5.77-5.42 9.2-.91 4.3-.26 12.37 4.08 14.87 1.98 1.14 4.62 1.32 6.6.1 1.71-1.04 3.29-3.44 3.12-5.43-.24-2.76-2.23-3.87-2.35-4.17-.06-.15.07-.46.24-.92.28-.03.57-.02.86.02.97.13 1.96.6 2.55 1.1 1.73 1.46 2.74 4.58 2.74 10.79 0 6.75-.97 8.35-.91 11.99.09 5.47 2.37 8.39 2.37 12.41 0 3.38-3.74 6.2-3.83 11.86 0 .17 0 .35.01.52.04.64.2 1.27.49 1.85.15.3.33.59.52.86.11.15.22.29.33.44.05.06.11.16.17.21.06.04.14.07.2.1.07.04.14.07.22.05 0-.04-.02-.08-.04-.12-.01-.04-.03-.07-.04-.1-.23-.53-.68-.93-.94-1.45-.31-.62-.47-1.3-.47-1.99 0-5.98 3.92-8.85 3.92-12.41 0-4.01-2.19-8.67-2.19-12.04Z"/>
  <path fill="#f4bbb5" d="M232.76 181.06c-2.91-.57-4.31.19-5.44.8-.65.35-1.12.53-1.78.51-3.11-.14-5.68-.94-7.64-2.38-5.17-3.79-5.97-11.21-6.08-17.98-.07-4.26-.12-8.58-.17-12.76v-1.1c-.07-4.55-.12-9.1-.17-13.65l-.06-4.97c-.07-6.23-.14-12.46-.22-18.69-.02-1.39-.07-4.56.18-8.19 0-2.36.26-4.72.57-7.06.13-1.01.34-2 .43-3.02.06-.63.31-2.56-.51-2.9-.3-.13-.56 1.25-.76 1.46-.33.37-.9.41-1.4.36-.46-.05-1.07-.24-1.49 0-.41.23-.46.9-.51 1.32-.14 1.09-.04 2.19-.16 3.29-.26 2.53-.45 5.07-.41 7.61.03 2.59.06 4.82.05 5.72-.04 4.54-.07 9.13-.07 13.64 0 5.34.03 10.27.09 15.06.03 2 .02 4.16 0 6.45-.01 3.32-.03 6.75.07 9.71.05 1.47.08 2.92.11 4.32.14 6.4.27 12.44 2.17 18.96.32 1.11 1.26 1.98 2.16 2.82.4.37.77.71 1.09 1.08 2.28 2.58 5.78 3.86 8.09 4.71.83.3 1.49.54 1.87.77.9.51 1.6.91 1.67 1.36.23 1.53-1.68 4.55-4.77 6.43-1.9 1.15-3.61 1.16-5.12 1.18-1.05 0-2.04.01-2.94.4-.55.24-.93.48-1.21.65-.08.05-.17.11-.25.15-.03-.06-.08-.12-.1-.16-.37-.58-.99-1.54-2.32-1.91-1.98-.54-7.11-1.04-12 6.15-5.21 7.65-1.33 12.81-.51 13.77 1.58 1.82 4.61 2.63 6.35 2.21 1.05-.25 1.84-.07 2.76.13.51.11 1.05.23 1.67.29 1.4.13 2.81.09 4.2-.14 1.41-.23 2.7-.76 4.03-1.25.43-.16.98-.28 1.28.06.18.21.19.53.09.79s-.3.47-.49.67c-.86.93-1.89 1.82-2.56 2.94-.95 1.6-.91 3.7-.03 5.31 1.04 1.91 3.14 2.41 5.13 2.72 1.76.28 4.08.95 4.42 2.99.87-.1 1.78-.03 2.66.34.44.18.78.4 1.06.63-.09-1.45-.15-3-1.01-4.23-1.2-1.72-2.95-2.78-5.02-3.05-.88-.11-1.79-.16-2.59-.52-.91-.4-1.55-1.17-1.12-2.2.3-.72.99-1.23 1.49-1.8.58-.66 1.21-1.27 1.74-1.97 2.24-3-.56-6.73-3.95-6.63-1.43.04-2.91.43-4.29.81-.7.19-1.42.38-2.14.51-1.89.32-3.31.31-4.6-.04-.26-.07-.56-.39-.91-.76-.3-.32-.65-.69-1.09-1.01-.14-.11-.29-.21-.43-.3-.87-.58-1.63-1.09-1.06-3.76.38-1.81 1.92-4.01 3.58-5.12 1.04-.7 1.76-.84 2.4-.96.32-.06.61-.12.92-.24.24-.1.43-.1.49-.08v.3c-.04 1-.12 3.07 2.12 5.16 1.36 1.27 4.91 3.34 9.64 3.05 4.61-.28 8.87-2.72 12.64-7.23 5.06-6.05 7.11-12.38 5.5-16.95-.87-2.45-2.76-4.08-5.32-4.58Z"/>
  <g fill="#fd9687">
    <path d="M220.56 115.42c-3.5.47-3.06 4.09-5.16 7.11-.16.23-.34.49-.53.78-.12-.13-.23-.26-.35-.38a.186.186 0 0 0-.28.02c-.72.98-1.13 1.78-1.5 2.72-.05.13-.02.27.08.36.09.08.19.18.29.29-1.32 2.72-2.41 6.4-1.71 10.9 1.38 8.85 9.16 14 10.54 19.35s-3.52 10.57-1.07 12.97c1.79 1.75 5.53 1.55 9.52 2.4s9.52 3.04 12.13 1.35 1.23-22.91-2.76-33.91c-3.99-10.99-13.97-24.66-19.19-23.97Zm-14.98 10.94a.46.46 0 0 0 .05-.61c-.61-.83-1.13-1.6-1.54-2.38a.2.2 0 0 0-.26-.09c-.01-.02-.02-.05-.04-.07-1.67-3.06-.28-7.5-4.72-7.78-5.3-.33-14.72 10.83-19.44 26.11s-4.72 29.16-2.78 30.55 12.78-1.67 16.94-2.22c4.17-.56 8.61-.56 10-2.22 1.39-1.67 2.2-15.68 2.22-20.28.04-7.87-.28-15.57-1.12-20.31.25-.29.48-.53.67-.7Zm7.2-30.79c-.66-.14-1.89 5.91-3.91 6.11-3.01.3-3.23-3.71-4.21-3.47-.48.12.06 3.24.23 4.03.14.66.49 2.58.94 2.89.59.4 2.09.82 3.28.81 1.07-.01 3.19-.52 3.66-1.25.48-.73.66-8.99 0-9.13Zm.16 24.6c-.38-.06-1.46 1.03-3.63 1.06s-3.37-1.12-3.73-.97c-.35.15-.76 1.56-.51 2.14.11.26 1.71 3.04 2.12 3.16s1.13-.31 1.98-.31c1.1 0 1.77.3 2.07.23.4-.1.6-1.22 1.01-1.95.32-.57.96-1.25 1.25-1.69.22-.34-.17-1.61-.55-1.67Z"/>
    <path d="M212.56 116.12c-.38-.17-1.06.61-3.08.61-2.79 0-2.79-.7-3.21-.6-.67.16-.76 2.67-.19 3.24 1.09 1.09 5.23 1.56 6.65-.17.33-.4.14-2.94-.16-3.08Zm-3.07-3.85c-2.49-.06-2.86-.94-3.36-.73-.54.22-.55 2.52-.03 3.05 1.14 1.16 4.93 1.18 6.28.27.63-.42.56-2.82.24-3.23-.39-.51-.65.7-3.14.65Zm-.16-4.57c-2.11-.03-2.99-.99-3.38-.83-.36.15-.31 2.42-.07 2.72.51.65 2 1.11 3.45 1.13 1.2.02 2.61-.23 3.25-.89.28-.29.56-2.72.2-2.96-.4-.27-1.34.86-3.45.83"/>
  </g>
  <path fill="#d16f54" d="M207.23 196.73c-.07 0-.13-.05-.16-.11-.05-.13-.2-.33-.56-.37a.98.98 0 0 0-.74.21c-.06.05-.14.06-.2.02-.21-.1-.64-.28-.95-.24-.28.04-.47.29-.57.45a.19.19 0 0 1-.23.08c-.2-.07-.56-.14-.92.06-.23.13-.35.36-.42.52-.04.1-.15.15-.24.11-.21-.08-.58-.17-.88-.04s-.48.47-.55.65c-.03.07-.09.12-.17.12-.23.02-.75.08-1.06.35-.25.22-.31.57-.31.8 0 .12-.12.21-.23.18-.26-.06-.65-.08-.88.26-.16.25-.19.51-.17.71.01.14-.12.25-.25.2-.18-.06-.39-.05-.53.21-.19.33-.19.67-.16.87.01.1-.06.19-.15.21-.16.04-.4.14-.58.46s-.1.68 0 .92c.05.12-.03.24-.16.26-.21.02-.47.1-.6.36-.16.31-.13.6-.1.76.02.08-.01.16-.08.2-.15.1-.39.3-.48.58-.08.29.01.65.07.83.02.07 0 .15-.05.2-.13.13-.34.39-.38.81-.04.41.11.73.22.89.04.07.04.16-.01.22-.13.18-.37.55-.32 1.02.04.43.18.68.28.8.04.06.05.13.02.2-.09.2-.25.64-.12 1.07.1.34.33.44.52.47.12.02.19.13.16.25-.08.25-.15.64.04.94.2.32.63.45.87.5.1.02.17.11.16.21-.02.18 0 .44.22.59s.57.11.8.06c.11-.02.21.05.23.16.03.18.1.42.28.5.22.09.59-.02.75-.09.05-.02.11-.02.16.01.17.1.61.31.93.31.41 0 1.48-1.36 1.3-1.78-.13-.31-.56-.52-.77-.61a.17.17 0 0 1-.11-.16c0-.11-.04-.29-.18-.53-.12-.21-.33-.27-.51-.27-.13 0-.22-.13-.18-.25.05-.15.08-.36.04-.6-.07-.4-.28-.64-.42-.77a.19.19 0 0 1-.02-.27c.13-.15.29-.41.32-.8.04-.4-.2-.74-.38-.93-.09-.09-.06-.24.05-.3.18-.1.41-.27.57-.54.29-.51.18-.86.05-1.06a.19.19 0 0 1 .07-.28c.25-.12.62-.35.77-.73.16-.39.16-.78.14-1 0-.1.06-.18.15-.2.25-.04.72-.22 1.13-.87.31-.5.39-.94.41-1.16 0-.09.07-.16.16-.17.21-.04.61-.13.97-.33.33-.18.46-.51.5-.72.02-.11.13-.18.24-.15.19.06.48.11.79.04.35-.08.71-.37.91-.55.08-.07.2-.07.28.01.11.11.29.22.6.12.16-.05.27-.19.33-.3.05-.09.16-.12.25-.07.17.09.44.17.66.01.65-.47.65-2.84.18-3.26-.24-.21-.58-.27-.77-.29Zm15.78-25.84c-1-.02-5.33-.86-7.01-.85-1.68 0-5.06.31-5.86 1.53-.59.89-.64 2.7-.6 3.76.03.81.32 1.86.64 3.65s.46 5.46 1.29 6.18c.84.72 8.04-2.98 10.09-4.99 1.26-1.24 2.91-3.85 3.73-5.06.83-1.21 2.91-2.77 2.15-3.94-.86-1.34-3.43-.24-4.43-.27Z"/>
  <path fill="#d16f54" d="M209.59 180c-.33-2.04-1.06-4.64-.86-6.13.19-1.44.71-2.58.14-2.81-2.6-1.04-18.17-2.86-23.78 3.4-5.62 6.25-1.78 20.43-1.89 22.3-.12 1.87-1.91 3.68-.69 4.82 1.28 1.18 4.42-.07 6.09-1.12.29-.18.67-.38.75-.71.07-.29 0-.59 0-1.02 0-.96.45-2.27 2.47-3.06 2.2-.86 3.23-.5 3.8.11.21.22.51.55.73.61.35.1.86.03 1.25-.04 2.36-.46 6.84-1.71 8.71-3.02 3.88-2.72 4.61-6.53 4.18-8.01s-.64-3.79-.89-5.32Z"/>
  <path fill="#7ba96a" d="M193.82 195.8c-1.41 0-3.25.94-3.68 1.95-.01.03-.03.07-.04.1-.44 1.28.31 2.06 1.46 2.06h.21c1.57-.13 3.69-1.2 3.75-2.38.07-1.25-.71-1.72-1.71-1.72Z"/>
  <path fill="#d66042" d="M229.53 222.15c-5.58 2.57-12.41 3.52-17.17 3.87-5.65.41-11.44-.34-16.72-2.17-1.15-.4-2.23-.98-3.27-1.54-1.34-.72-2.73-1.47-4.24-1.81-1.92-.44-3.56.36-4.29 2.09-.87 2.06-.63 4.78-.42 7.18.07.79.13 1.53.16 2.23.04 1.12.09 2.24.13 3.36.08 2.25.16 4.57.28 6.86.13 3.35.27 6.81.12 10.21-.09 1.87-.18 3.98 1.05 5.33.4.44.93.77 1.44 1.09.68.43 1.39.87 1.83 1.57.52.81.58 1.78.64 2.71v.19c.08.96.23 1.95.84 2.6.45.47 1.25.63 1.79.37.18-.09.31-.22.4-.39.31-.57-.01-1.32-.38-1.78-.18-.22-.39-.43-.59-.63-.3-.3-.62-.62-.86-1-.34-.54-.49-1.15-.63-1.75-.16-.64-.31-1.25-.66-1.75-.36-.5-.89-.84-1.44-1.2-.55-.35-1.11-.72-1.51-1.25-.77-1.03-.75-2.4-.72-3.61.08-4.41-.2-8.89-.47-13.22-.22-3.51-.45-7.13-.48-10.71 0-.28-.02-.62-.04-1.03-.12-2.16-.32-5.78 1.73-6.39 1.51-.45 3.23.45 4.74 1.25.44.23.85.45 1.23.61 6.05 2.65 13.06 3.82 20.27 3.38 5-.3 10.99-1.75 14.93-3.01.59-.19 1.3-.49 2.05-.81 2.35-1 5.02-2.13 6.38-.91 1.39 1.24 1.13 3.5.86 4.73-1.21 5.41-1.68 10.32-1.57 16.42.04 2.21.2 4.46.36 6.64.25 3.44.52 6.99.28 10.49-.12 1.73-.43 3.89-1.88 5.25-1 .94-2.5 1.45-4.58 1.55-2.85.13-5.7-.36-8.45-.84-2.06-.36-4.18-.73-6.29-.83-.2 0-.41-.02-.62-.02-1.02 0-2.13.16-2.88.88-1.12 1.07-.97 2.86-.61 4.53.23-.38.32-.84.42-1.33.1-.46.2-.94.42-1.37.91-1.74 3.34-1.85 4.7-1.75 1.89.13 3.79.48 5.63.82 2.38.44 4.83.9 7.27.86 2.37-.04 4.22-.61 5.49-1.68 1.18-.99 2.01-2.58 2.35-4.47.32-1.76.2-3.6.1-5.23l-.15-2.37c-.38-5.98-.78-12.17-.25-18.25l.09-1.09c.21-2.49.42-5.07 1.02-7.51.41-1.65.58-3.99-.92-5.7-1.57-1.8-4.39-.84-6.93.33Z"/>
  <path fill="#feb967" d="M225.05 201.11c-.83.09-2.58-.38-4.45.04-1.45.33-2.49 1.23-3.29 1.32s-3.78-1.93-8.89-.66-7.3 4.54-7.59 6.47q-.03.24-.03.48l-.18.03c-.03.37-.03.69 0 .95.09-.03.19-.07.29-.1.25 1.01.89 1.9 1.47 2.31.69.49 3.59 1.62 6.16.58 1.37-.55 1.29-2.01 1.5-2.25s1.19.39 3.05-.17 3.59-2.1 4.69-2.43c1.1-.32 3.44-.58 5.09-1.13 2.15-.71 6.91-4.51 5.64-6.18-.72-.95-2.64.64-3.46.73Z"/>
  <path fill="#f4bbb5" d="M226.16 237.48c.05-.14.11-.3.18-.47.24-.6.53-1.36.49-2.2-.04-.72-.36-2.04-2.1-2.76-2.91-1.2-6.09.76-7.46 1.6-.78.48-1.45 1.09-2.03 1.62-1.45 1.32-1.93 1.61-2.79 1.3a3.53 3.53 0 0 1-1.72-1.4c-.49-.68-1.32-1.83-2.95-2.01-2.54-.3-4.84 2.19-5.13 4.52-.19 1.53-.46 2.22-.95 2.36a.8.8 0 0 1-.2.04c-.07-.07-.37-.4-.63-1.49-.25-1.02-.36-2.2-.44-3.16-.04-.48-.08-.9-.13-1.25-.26-1.79-1.33-3.15-2.94-3.73-1.8-.65-3.95-.17-5.49 1.22-2.26 2.05-.91 4.78-.19 6.24.25.5.52 1.06.59 1.38.14.73 0 .94-.56 1.75-.33.48-.74 1.08-1.08 1.86-.51 1.19-.52 2.47-.02 3.51.73 1.53 1.94 1.82 2.6 1.87.78.05 1.47-.2 2.02-.39.15-.05.35-.12.49-.16.13.1.2.19.22.27.18.78-1.06 2.68-1.81 3.82-.69 1.06-1.34 2.06-1.65 3-.59 1.83-.26 3.75.86 5.01 1.06 1.2 2.76 1.8 4.26 2.33.45.16.88.31 1.19.45 1.07.47 2.1.7 3.02.7 1.37 0 2.5-.5 3.21-1.49.77-1.06.79-2.55.07-3.78.62.12 1.27.2 1.98.15 1.41-.09 2.34.1 3.51.9 1 .68 1.92 1.47 3.21 1.41 1.27-.06 2.29-.57 3.19-1.02.4-.2.77-.39 1.12-.5.75-.26 1.61-.26 2.35 0 .09.03.19.07.29.1.76.28 2.02.75 3.33.13.99-.47 1.66-1.39 1.99-2.75.57-2.33.31-4.81-.74-6.97-.59-1.2-1.32-2.04-2.23-2.55-1.72-.97-4.04-.66-5.77.77-.7.58-1.21 1.4-1.7 2.19-.29.47-.8 1.29-1.13 1.56-.09-.11-.19-.25-.26-.36-.2-.29-.44-.62-.74-.94-2.06-2.15-4.59-1.36-6.27-.83-.61.19-1.19.37-1.6.39-.43.02-.76-.12-.92-.39-.18-.31-.14-.73.11-1.14.45-.72 1.31-1.32 2.14-1.91.24-.17.5-.38.78-.6.37-.3.97-1.02 1.45-1.1.74-.12.91 1.61 1.11 2.07.34.81.87 1.51 1.68 1.89 1.83.87 3.77 0 4.83-2.19.05-.1.1-.22.16-.35.49-1.04.99-3.01 2.37-2.49 1.07.41 1.59 1.77 2.63 2.22 1.25.55 2.54.41 3.71-.26 1.59-.92 2.07-2.68 1.2-4.38-.8-1.56-1.01-2.64-.69-3.61Zm-3.17 4.63c-.07.04-.3.07-.35-.04-.04-.09-.09-.26-.13-.38-.21-.67-.56-1.78-1.7-2.42-.9-.5-1.88-.61-2.84-.3-2.32.74-3.74 3.76-4.51 5.38v.02c0-.04-.02-.07-.02-.1-.24-1.01-.6-2.55-2.19-3.35-2.3-1.15-4.57.67-5.93 1.75-.22.18-.43.35-.58.45-1.04.73-2.34 1.64-3.21 3.03-1.01 1.62-1.07 3.59-.16 5.13.9 1.52 2.56 2.38 4.43 2.28.91-.05 1.75-.31 2.56-.57 1.57-.49 2-.53 2.33-.18.1.11.23.29.37.49.47.67 1.18 1.67 2.52 1.97 2.83.61 4.37-1.86 5.29-3.35.28-.45.67-1.07.89-1.25.46-.38 1.12-.55 1.43-.38.12.07.36.27.66.88.36.75 1.18 2.92.8 3.72-.38.78-1.66.49-2.33.39-1.19-.18-2.31-.35-3.48.05-.58.2-1.11.46-1.58.7-1.99.99-2.16.05-3.85-.92-1.53-.88-3.17-.86-4.58-.77-.68.04-1.4-.17-2.24-.42-.93-.27-1.99-.59-3.18-.57-1.83.02-2.4 1.26-2.53 1.64-.52 1.51.61 2.92 1.28 3.45.36.27.72.56 1 .9-.8-.15-1.52-.54-2.28-.81-.9-.32-2.25-.8-2.66-1.25-.2-.23-.24-.78-.08-1.28.15-.45.71-1.32 1.21-2.08 1.35-2.07 2.89-4.43 2.33-6.8-.19-.81-.73-1.97-2.2-2.84-.55-.33-1.11-.44-1.63-.44-.58 0-1.12.14-1.56.29.16-.31.36-.6.57-.9.69-1 1.63-2.36 1.17-4.69-.16-.82-.54-1.59-.91-2.34-.22-.45-.87-1.32-.52-1.82.25-.36 1.06-.45 1.44-.31.12.04.36.13.44.66.04.25.07.62.11 1.05.22 2.38.54 5.99 2.76 7.49.69.47 1.84.93 3.43.46 1.45-.42 2.48-1.48 3.06-2.85.44-1.03.15-2.91 1.13-3.66.34-.26 3.35 2.66 4.13 2.95 3.17 1.18 5.31-.77 6.72-2.06.51-.46.99-.9 1.46-1.19.51-.32 3.81-2.43 3.22-.66-.38 1.14-.42 2.35-.2 3.52.03.17.73 2.29.68 2.32Z"/>
  <path fill="#fd9687" d="M240.64 229.59c.44-.4 1.19-1.06 1.4-3.35.24-2.66-1.4-3.44-2.1-3.77-.05-.02-.11-.05-.16-.08l.06-.06c.31-.32.9-.92 1.04-2.54.21-2.42-2.29-5.06-4.5-5.63-1.94-.51-3.6.73-4.31 1.26-.12.09-.24.18-.28.2-.1.04-.37.03-.63.02-.53-.02-1.26-.06-1.96.26-.4.18-.72.63-.98 1-.12.17-.28.4-.35.44-.07.02-.33.05-.59.08-.7.08-1.76.19-2.59.5-1.28.47-1.84 1.09-2.18 1.45-.11.13-.23.26-.29.27-.1.02-.48-.07-.83-.15-.93-.21-2.33-.53-3.58-.33-.58.09-1.08.29-1.51.52-.2.11-.38.22-.55.34-.29.2-.54.4-.74.57-.23.19-.47.38-.58.4-.09.02-.31-.08-.52-.18-.43-.2-1.02-.47-1.81-.49-.14 0-.28 0-.43.01-.16.01-.33.03-.51.07-.67.14-1.27.49-1.76.78-.32.19-.64.38-.8.38-.12 0-.36-.16-.59-.3-.45-.3-1.08-.71-1.9-.75-1.13-.07-1.82.41-2.32.76-.24.16-.44.3-.58.3-.1 0-.19-.11-.35-.32-.31-.41-.79-1.02-2.02-1.22-.89-.14-1.8.22-2.34.44-.12.04-.26.1-.34.12-.06-.08-.15-.25-.23-.4-.37-.7-.99-1.86-2.21-2.54-1.18-.65-2.3-.63-3.05-.62-.27 0-.61.01-.68-.04-.08-.06-.18-.26-.28-.47-.31-.61-.76-1.52-1.96-2.15-1.31-.69-2.75-.19-3.61.1-.23.08-.46.16-.54.16s-.29-.07-.5-.13c-.8-.26-2.29-.73-3.83-.04-1.42.64-1.59 1.7-1.71 2.4-.05.29-.09.53-.19.63-.08.08-.28.17-.5.27-.84.38-2.24 1.01-2.55 3.43-.29 2.25.86 2.91 1.48 3.26.14.08.32.19.34.23 0 .17-.11.35-.24.59-.24.42-.56 1-.62 1.99-.07 1.07.52 1.44.9 1.68.25.16.35.23.35.35 0 .2-.22.52-.46.86-.43.62-1.02 1.48-1.08 2.59-.07 1.23.49 2.13.86 2.73.14.22.29.47.29.56 0 .1-.11.3-.23.51-.29.51-.73 1.27-.73 2.47 0 1.33.89 2.19 1.38 2.65.08.08.18.17.23.23-.06.07-.17.17-.27.26-.59.56-1.68 1.6-1.53 3.04.13 1.26 1.09 2 1.73 2.5.18.14.43.33.48.4-.09.07-.32.21-.52.32-1.25.71-4.17 2.37-4.09 6.39.04 2.32.96 4.42 2.59 5.92 1.69 1.55 4.03 2.35 6.41 2.2 2.69-.17 3.76-2.04 4.54-3.4.29-.5.53-.93.8-1.18.19-.18.43-.35.72-.55 1.23-.88 2.91-2.07 3.11-5.29.14-2.17-1.73-3.39-2.85-4.12-.34-.22-.76-.5-.81-.62 0-.12.06-.28.12-.48.17-.49.42-1.23.36-2.51-.07-1.27-.61-1.97-.98-2.43-.13-.18-.28-.35-.28-.44.01-.1.28-.36.47-.55.54-.54 1.36-1.36 1.36-2.44s-.7-2.13-1.16-2.79c-.18-.25-.36-.51-.38-.62 0-.12.28-.55.49-.86.5-.73 1.11-1.65 1.05-2.48-.07-.92-.71-1.55-1.09-1.94-.09-.09-.21-.21-.25-.27.03-.06.13-.19.21-.28.24-.29.58-.69.64-1.22.05-.36-.06-.69-.2-.96.02.02.04.03.06.05.63.5 1.57 1.25 2.61 1.67 1.12.46 2.14.21 2.88.02.33-.08.65-.16.79-.11.15.05.37.22.62.43.58.47 1.38 1.11 2.6 1.31 1.08.18 2.19-.1 3.01-.31.46-.12.93-.24 1.1-.18.11.04.25.25.39.47.38.59.96 1.47 2.44 1.65.93.12 1.81-.38 2.4-.71.2-.11.44-.25.52-.26.09.01.41.19.66.33.71.4 1.8 1.02 2.81 1.02s1.87-.7 2.6-1.27c.32-.25.72-.56.87-.56.12 0 .45.08.83.17 1.23.29 3.29.77 5.18.41 1.88-.36 3.16-1.59 3.85-2.26.14-.13.29-.28.37-.33.1.03.33.15.5.23.46.24 1.03.53 1.5.53.38 0 .81-.21 1.2-.4.15-.07.36-.17.49-.22-.05.12-.14.29-.22.43-.24.45-.55 1-.55 1.59 0 .75.42 1.87.69 2.61.08.21.15.4.18.5-.03.14-.32.57-.57.96-.7 1.07-1.65 2.54-1.65 3.73 0 1.09.62 2.32 1.06 3.22.24.47.51 1.01.48 1.16-.03.18-.23.45-.45.73-.36.47-.81 1.06-.81 1.71s.35 1.01.63 1.32c.2.22.33.36.33.51 0 .18-.24.68-.45 1.11-.4.83-.86 1.77-.8 2.47.06.61.42 1.44.74 2.17.18.42.43.99.42 1.12-.02.06-.18.26-.31.41-.49.58-1.3 1.55-1.14 2.76.11.9.45 1.53.68 1.95.1.19.24.45.22.5-.07.06-.44.06-.77.06-.68 0-1.69 0-2.94.32-.6.16-1.08.52-1.47.81-.3.22-.59.44-.78.44-.16 0-.57-.22-.96-.43-.83-.44-1.97-1.05-3.17-1.11-1.29-.07-2.08.32-2.72.64-.29.15-.55.27-.81.33-.34.08-1.09-.1-1.89-.29-1-.23-2.24-.52-3.36-.49-2.9.09-4.87 2.62-5.42 6.94-.46 3.61.36 5.38.96 6.67.29.62.54 1.16.58 1.75.03.48-.17 1.12-.39 1.85-.42 1.36-.94 3.05-.37 4.85.9 2.8 2.22 4.41 3.01 5.38.28.34.6.73.59.84-.05.16-.1.3.03.4.13.11.27.03.32 0 .06-.04.16-.1.35-.09.34.01.52 0 .66 0h.39c.03 0 .07.02.11.04.12.05.27.1.41.1.1 0 .19-.03.26-.1.18-.17.09-.44.06-.52-.03-.12.36-.57.64-.89.64-.73 1.61-1.83 2.07-3.35.81-2.63.84-5.18.86-6.86.01-.81.02-1.46.11-1.81.26-1.02.67-1.73 1.02-2.36l.11-.18c.26-.45.25-.87.24-1.15v-.04c.35.35 1.06 1.01 2.61 1.21 1.64.21 2.92-.38 3.68-.73.24-.11.49-.23.58-.23.1.02.36.3.56.5.57.59 1.44 1.5 2.54 1.42 1.11-.07 1.76-.78 2.2-1.24.16-.18.34-.38.43-.4.1-.01.43.12.71.23.88.34 2.34.93 3.75.43 1.47-.51 2.19-1.96 2.63-2.83.12-.23.26-.52.32-.58.07-.05.28-.13.5-.21.89-.33 2.53-.93 3.6-2.54 1.08-1.61.54-3.74.26-4.88-.06-.24-.13-.52-.13-.58.01-.05.14-.2.25-.32.46-.52 1.32-1.5 1.39-3.29.07-1.64-.73-2.63-1.26-3.28-.19-.23-.38-.47-.38-.58 0-.14.17-.38.35-.62.38-.53.9-1.26.9-2.36s-.53-1.93-.92-2.55c-.15-.24-.36-.58-.34-.67.02-.12.17-.31.32-.52.35-.48.84-1.13.84-2.03s-.72-1.39-1.2-1.7c-.12-.08-.28-.18-.33-.24.04-.09.18-.3.31-.48.53-.75 1.51-2.14 1.51-3.94s-.78-3.12-1.19-3.84c-.12-.2-.25-.43-.26-.49 0-.09.2-.36.35-.58.39-.57.93-1.34 1-2.2.07-.88-.44-1.28-.82-1.56-.21-.16-.34-.27-.34-.38 0-.07.07-.13.23-.28Z"/>
  <path fill="#a53a34" d="M220.07 272.42v.33zm0 0v.33z"/>
  <path fill="#feb967" d="M217.15 267.83c-1.05-.65-2.22-1.1-3.42-1.4-1.35-.34-2.74-.49-4.12-.49-.94 0-1.88.06-2.81.21-.42.07-.84.15-1.26.25-1.12.27-2.22.68-3.2 1.29-.83.51-1.58 1.18-2.11 2a5.1 5.1 0 0 0-.8 2.43c-.04.76.05 1.44.28 2.17 1.68 5.46 7.55 6.3 8.21 6.93.56.54.55 1.82.55 2.74 0 .67 2.12.75 2.12.02 0-1.09-.07-2.33.68-2.87 1.19-.87 6.46-1.89 8.33-6.45.03-.07.06-.15.09-.22.54-1.47.53-3.04-.29-4.41-.54-.91-1.35-1.64-2.25-2.2m9.88-9.96c-7.86 0-4.04 12.37.05 12.37 3.29 0 7.91-12.37-.05-12.37m-34.3-.29c-7.86 0-4.04 12.37.05 12.37 3.29 0 7.91-12.37-.05-12.37"/>
  <path fill="#cc4b42" d="M231.01 250.14c-.41-.07-.82-.1-1.27-.1-1.19 0-2.39.24-3.55.47-1.11.22-2.26.45-3.35.45-1.25 0-2.2-.72-3.2-1.48-.37-.28-.75-.57-1.15-.82-1.32-.83-2.94-1.41-4.83-1.74-1-.17-2.02-.26-3.03-.26-2.89 0-5.65.69-7.97 2-.4.23-.78.51-1.16.79-.72.53-1.46 1.08-2.33 1.2-.12.02-.25.03-.38.03-.79 0-1.65-.3-2.49-.59-.5-.17-.98-.34-1.44-.44-1-.22-1.9-.33-2.74-.33s-1.63.11-2.42.32c-3.66 1.02-7.01 4.24-6 8.19.1.38.32.75.53 1.11.23.39.46.79.5 1.12 0 .06 0 .16.01.32.03 1.12.12 4.09 1.79 6.29 1.7 2.24 4.82 3.41 5.59 3.41.3 0 .4-.14.43-.25.08-.28-.17-.54-.97-1.32-.69-.68-1.72-1.69-1.74-2.23.04-.01.12-.03.28-.03.26 0 .61.04.96.08.34.04.72.09 1.02.09.18 0 .66 0 .76-.36.13-.43-.38-.64-1.03-.91-.74-.31-1.66-.69-1.56-1.3 0-.05.03-.21.56-.21.31 0 .7.06 1.05.11.29.04.57.09.77.09.22 0 .35-.05.45-.15.07-.07.1-.17.09-.28-.04-.36-.5-.62-1.15-.97-.48-.26-1.28-.71-1.24-.98.08-.16 1.03-.46 1.39-.58.9-.29 1.42-.47 1.56-.78.05-.1.05-.21.01-.32-.14-.34-.59-.37-1.01-.37h-.79c-.88 0-.89-.19-.89-.25-.02-.35.44-.5 1.41-.67.69-.12 1.28-.23 1.44-.66.06-.16.04-.33-.06-.48-.22-.32-.82-.51-1.57-.51-.25 0-.51.02-.77.06-1.41.24-3.61 1.35-4.05 1.62-.02 0-.12-.06-.23-.26-.29-.52-.53-1.72.08-2.75.92-1.54 2.43-2.23 4.88-2.25h.08c2.12 0 6.01.74 7.47 2.71.19.26.32.61.39 1.13-.44 1.18-2.06 2.13-3.13 2.13q-.24 0-.42-.06l-.64-.21.34.58c.27.46.45 1.01.53 1.63l.15 1.06.35-1.01c.34-.99 1.46-1.45 2.35-1.45.28 0 .53.04.71.13.12 1 .33 1.84.66 2.65.67 1.64 1.58 2.45 2.24 3.04.48.43.77.69.72 1.03-.04.26-.23.54-.48.89-.61.87-1.53 2.18-1.43 5.1.13 3.89 2.64 7.39 3.84 9.07.27.38.49.68.6.87.27.48.22 1.79.17 2.85-.07 1.64-.09 2.58.46 2.74.06.02.13.03.19.03.39 0 .7-.31 1.05-.68.44-.45.95-.96 1.7-.99h.07c.88 0 1.59.59 2.1 1.02.34.28.56.47.81.47l.12-.02c.82-.27.62-1.89.41-3.61-.09-.72-.18-1.46-.13-1.8.04-.28.47-.93.98-1.7 1.25-1.89 3.15-4.75 3.48-7.98.34-3.28-.44-4.24-.96-4.87-.21-.25-.32-.39-.31-.61.02-.39.52-1.14 1.05-1.95.69-1.03 1.54-2.32 1.96-3.67.17-.56.31-1.15.41-1.87.17-.07.42-.11.68-.11.62 0 1.47.23 1.79.87l.27.54.2-.57c.16-.46.39-.87.68-1.21l.58-.69-.86.29s-.08.02-.13.03c-.05 0-.11.01-.2.02h-.13c-.07 0-.13-.01-.2-.02s-.14-.03-.21-.04l-.21-.06c-.08-.02-.15-.05-.22-.08-.08-.03-.15-.06-.22-.09s-.15-.07-.22-.11l-.21-.12c-.07-.04-.14-.09-.21-.14-.06-.05-.13-.09-.19-.15-.06-.05-.12-.1-.17-.16l-.16-.16c-.05-.05-.09-.11-.13-.17s-.08-.11-.11-.17l-.08-.16v-.07c0-.01 0-.05.02-.11.01-.05.02-.11.04-.16.02-.1.05-.2.08-.3.03-.09.06-.18.1-.26.03-.08.07-.15.12-.23.04-.07.09-.13.13-.19.05-.06.1-.11.16-.16 1.85-1.47 5.83-2.34 8.61-2.34 1.05 0 1.84.13 2.17.36.72.52 1.22 1.36 1.37 2.32.1.62.02 1.21-.19 1.51-.53.72-.77.82-.86.82h-.02c-.26-.26-2.38-1.37-4.39-1.37-.73 0-1.39.14-1.95.42-.53.26-.84.48-.78.78.08.38.65.42 1.7.48.61.04 1.87.11 2 .38-.1.22-1.05.45-1.61.59-.94.23-1.55.38-1.55.81 0 .09.03.29.35.37.11.03.26.04.46.04.22 0 .5-.02.8-.03.34-.02.7-.04 1.04-.04 1.08 0 1.22.23 1.23.3.09.41-1.44 1.07-2.18 1.39-1 .43-1.45.63-1.38 1 .03.15.16.34.58.34.29 0 .71-.08 1.16-.16.5-.09 1.07-.19 1.5-.19s.53.11.55.14c-.02.2-.96 1.04-1.31 1.36-1.02.91-1.5 1.37-1.33 1.76.06.14.2.23.36.23.26 0 .61-.22 1.05-.51.42-.27 1-.65 1.33-.65.05 0 .09 0 .12.03 0 0 .09.11-.17.65-.21.44-.55.96-.85 1.44-.56.87-.73 1.17-.65 1.43l.07.13.09.04s.1.03.16.03c.66 0 3.03-1.96 3.76-2.98.76-1.07 2.34-4.72 2.22-5.6-.02-.17.14-.36.38-.65.51-.61 1.36-1.64 1.65-4.01.36-2.98-2.12-5.87-5.52-6.44Z"/>
  <path fill="#ef8f8e" d="M213.2 256.77c2.12-2.21 4.66-3.33 6.79-4.04h-.17c-.49.02-.99.05-1.41.05q-.525 0-.78-.06c-.28-.06-.64-.23-1.09-.44-1.17-.55-3.13-1.47-5.92-1.47s-4.99.95-6.47 1.57c-.57.24-1.02.43-1.33.49-.38.08-1.18.08-2.03.08h-.8c2.94.71 6.38 2.29 7.78 4.36 1.33 1.97 1.82 3.84 1.9 4.63.03.28-.1.79-.26 1.44-.18.72-.4 1.61-.43 2.32-.04.86.27 1.57.48 2.09.11.26.19.46.21.63.03.22.1.81-.28 1.29-.29.36-.78.58-1.44.64-.09 0-.18.01-.27.01-1.29 0-2.11-.87-2.55-1.34 0-.01-.02-.02-.03-.03.04.86.88 1.49 1.33 1.83.25.19.38.29.41.43.06.23-.11.38-.22.48-.14.13-.27.24-.25.51.02.18.16.32.3.46.14.13.28.27.28.47 0 .15-.08.27-.15.39-.1.16-.22.34-.22.67 0 .27.16.35.33.43.13.07.31.15.31.36 0 .14-.08.24-.16.34-.12.16-.27.35-.22.68.03.2.16.34.29.48s.25.28.25.46c0 .13-.05.25-.1.38-.08.2-.16.42-.16.73 0 .25.12.37.25.49.11.1.23.22.23.41 0 .11-.03.2-.06.29-.05.16-.09.3 0 .52.13.33.27.45.39.55.11.09.26.21.26.45 0 .12-.03.23-.06.33-.06.21-.13.44 0 .81.09.28.21.39.31.48.11.1.24.22.24.45 0 .18-.1.33-.21.49-.12.18-.24.37-.22.6s.16.36.28.49c.12.12.25.25.25.44 0 .12-.04.23-.08.36-.05.16-.12.37-.13.66.09-.03.21-.09.31-.13.33-.15.74-.34 1.12-.35h.11c.75 0 1.34.3 1.73.5.06.03.13.07.2.1-.02-.26-.1-.44-.17-.6-.05-.12-.1-.22-.1-.33 0-.13.07-.23.12-.29.08-.1.17-.23.15-.65-.03-.39-.11-.52-.19-.64a.67.67 0 0 1-.13-.39c0-.28.23-.36.31-.4.09-.03.15-.05.17-.31.03-.37-.08-.51-.18-.62-.06-.08-.14-.18-.14-.32 0-.2.15-.29.23-.34.1-.06.17-.11.19-.32.02-.19-.02-.23-.11-.31a.52.52 0 0 1-.21-.41c0-.21.14-.35.3-.51.18-.18.36-.37.34-.64-.03-.32-.21-.47-.35-.6-.12-.1-.23-.2-.23-.37 0-.19.15-.29.3-.38.23-.14.54-.34.54-.79 0-.42-.17-.63-.31-.81-.11-.14-.22-.27-.22-.46 0-.22.17-.38.33-.54.15-.14.31-.3.31-.47s-.08-.25-.22-.37c-.11-.1-.25-.23-.25-.43 0-.18.13-.33.27-.5.15-.18.34-.4.37-.64.03-.25-.06-.53-.12-.75-.07-.22-.12-.4-.08-.56.04-.17.21-.24.48-.36.59-.25 1.57-.66 1.53-1.85v-.06c-.37.46-1.03 1.16-2.21 1.16h-.21c-1.16-.08-1.67-.58-1.87-.87-.21-.3-.28-.65-.19-.95.15-.49.44-1.86.38-2.94-.03-.7-.23-1.55-.38-2.23-.15-.66-.23-1.02-.2-1.21.04-.26.44-2.63 2.94-5.24Z"/>
  <path fill="#cc4b42" d="M229.74 153.34c-.64.1-2.41-.06-3.81-.27a8 8 0 0 0-.38-.84c1.75-.93 3.1-2.43 3.41-2.95.15-.24-.94-1.04-1.18-.76-.76.85-1.73 1.75-3.17 2.29-.7-.84-1.57-1.52-2.62-1.95 0-.14.01-.28.02-.43 1.93-.8 3.9-.94 5.19-1.09.2-.02.31-2.07.06-2.12-1.87-.33-3.81.09-5.45.52-.19-.71-.53-1.46-1.13-2.26 0-.03.01-.06.04-.09.45-.49.98-1.54 1.04-1.83.03-.16-.89-.83-.98-.65-.09.19-1.25 1.91-1.88 1.67-.62-.24 0-2.33.06-2.48s-1.28-.59-1.35-.36-.56 2.38-1.31 2.49c-.63.1-1.68-2.1-1.74-2.27-.1-.29-1.42.35-1.29.58.12.45.31.88.5 1.31.13.31.3.63.36.97-.34.18-.65.4-.96.66-.04.03-.08.07-.12.1-.34.3-.62.64-.86 1.01a8.2 8.2 0 0 0-2.22-.03c-.13-1-.35-2.04-.7-3.09-.09-.26-3.08.61-3.02.94.25 1.25.41 2.37.51 3.38-2.38 1.53-3.96 3.94-3.99 4.03-.04.12 1.06.94 1.16.82.06-.07 1.25-1.7 2.97-2.96.07 1.55 0 2.73-.03 3.61-.13.09-.26.19-.38.29-.98.8-1.61 1.88-1.99 3.06-.78-.13-1.54-.32-2.28-.55-.3-.09-.76 1.48-.59 1.53.75.21 1.63.42 2.52.57-.18 1.23-.13 2.47.07 3.54-.66.18-1.36.3-2.07.35-.22.02.08 1.59.37 1.57.68-.05 1.41-.18 2.14-.35 1.07 2.92 3.34 5.31 6.34 7.35 1.75 1.19 2.39 2.73 4.03 4.03 1.16.92 2.58 1.22 3.31 1.23.65.11 1.49.08 2.22-.13 3.44-.87 4.27-5.21 4.49-8.02.22-2.7 1.09-5.69 1.43-8.38.1-.83.08-1.7-.07-2.54 1.39.08 2.78.08 3.39-.02.24-.04.43-1.55-.06-1.47Zm-18.44-6.42c-.18.91-.23 1.86-.14 2.85-.25.02-.49.05-.74.09-.11-.83-.19-2.08-.28-3.65.18-.02.35-.04.53-.04.28 0 .55 0 .81.01-.07.24-.14.49-.19.73Zm4.17 1.84c-.02.1-.06.2-.11.3-.3.13-.4.21-.44.17-.05-.05-.15-.98.04-1.93.45.44.63.95.51 1.46m.37-3.08c.2-.15.43-.25.7-.3.96-.16 1.5.35 1.8 1-.81-.08-1.63-.37-2.5-.7"/>
  <path fill="none" stroke="#333" stroke-miterlimit="10" d="M451.35 136.42h-99.38a3.16 3.16 0 0 0-3.16 3.16v14.07a3.16 3.16 0 0 1-3.16 3.16H221.94m229.41 41.05h-99.61a3.16 3.16 0 0 1-3.16-3.16v-26.17a3.16 3.16 0 0 0-3.16-3.16H238.63m212.72 81.07h-99.66a3.16 3.16 0 0 1-3.16-3.16v-27.15a3.16 3.16 0 0 0-3.16-3.16H208.89"/>
</svg>
