<svg xmlns="http://www.w3.org/2000/svg" xmlns:xlink="http://www.w3.org/1999/xlink" data-name="Isolation Mode" viewBox="0 0 365.08 304.52">
  <defs>
    <clipPath id="a">
      <path fill="none" d="M40.12 15.84h298.74c5.52 0 10 4.48 10 10V287.8H30.12V25.84c0-5.52 4.48-10 10-10"/>
    </clipPath>
  </defs>
  <path fill="#fff" d="M40.12 15.85h298.74c5.52 0 10 4.48 10 10V288.4H30.12V25.85c0-5.52 4.48-10 10-10"/>
  <g clip-path="url(#a)">
    <path fill="#998784" d="M0 190.19h365.08v114.33H0z"/>
    <path fill="#ffd9b0" d="M0 0h365.08v189.96H0z"/>
    <path fill="#382f2c" d="M268.27 86.99c2.25 0 4.08-1.83 4.08-4.08s-1.82-4.08-4.08-4.08c-.14 0-.27.03-.4.04-.02-.13-.03-.26-.05-.39.28-.55.45-1.17.45-1.83 0-1.27-.6-2.4-1.51-3.15-.13-.47-.26-.95-.41-1.41a4.057 4.057 0 0 0-1.52-6.64c.77-.74 1.25-1.78 1.25-2.93 0-1.92-1.33-3.52-3.13-3.95-.68-1.31-2.03-2.22-3.61-2.22h-.07c.09-.33.15-.68.15-1.04 0-2.25-1.82-4.08-4.08-4.08 0-2.25-1.82-4.08-4.08-4.08-1.29 0-2.43.61-3.18 1.55-.17-.11-.35-.21-.52-.31.13-.39.21-.81.21-1.24 0-2.25-1.82-4.08-4.08-4.08-1.04 0-1.98.4-2.7 1.05a4.063 4.063 0 0 0-6.41-.77c-.86-.18-1.74-.32-2.62-.45-.01-.02-.02-.03-.03-.05-1-1.44-2.76-2.03-4.37-1.61a4.078 4.078 0 0 0-7.97 1.72c-.33.05-.66.12-1 .18a4.07 4.07 0 0 0-4.99-.29c-.32.22-.57.48-.81.77a4.066 4.066 0 0 0-5.45-.77c-1.19.83-1.8 2.18-1.74 3.53-.36-.1-.73-.18-1.12-.18-2.25 0-4.08 1.82-4.08 4.08 0 .26.03.51.08.76-.15.12-.3.24-.46.36a4.07 4.07 0 0 0-3.4.56c-.96.67-1.54 1.67-1.7 2.74a4.05 4.05 0 0 0-3.93.38 4.06 4.06 0 0 0-1.15 5.45c-1.79.43-3.13 2.03-3.13 3.95 0 .26.03.5.08.74-.21-.03-.43-.07-.65-.07-2.25 0-4.08 1.83-4.08 4.08 0 1.17.5 2.21 1.28 2.95-1.2.71-2.02 2-2.02 3.5 0 .75.22 1.44.57 2.04-.35.6-.57 1.29-.57 2.04 0 .61.15 1.19.39 1.71-1.03.74-1.7 1.94-1.7 3.3 0 1.92 1.33 3.51 3.11 3.95-1.78.44-3.11 2.03-3.11 3.95 0 1.53.85 2.85 2.1 3.54-.02.18-.05.35-.05.53 0 1.76 1.13 3.25 2.7 3.82-.42.64-.67 1.4-.67 2.22 0 2.25 1.82 4.08 4.08 4.08.06 0 .12-.02.18-.02-.11.37-.18.74-.18 1.15 0 2.25 1.82 4.08 4.08 4.08.38 0 .74-.07 1.08-.16 0 .06-.02.11-.02.16 0 2.25 1.83 4.08 4.08 4.08.08 0 .16-.02.24-.02 7.5 6.78 17.44 10.91 28.34 10.91 16.54 0 30.85-9.5 37.8-23.34.47.19.98.3 1.51.3 2.25 0 4.08-1.82 4.08-4.08 0-1.68-1.02-3.12-2.47-3.74a4.07 4.07 0 0 0 3.23-3.99c0-1.51-.83-2.82-2.06-3.52.05-.57.1-1.14.13-1.72h.04Z"/>
    <path fill="#7c4f43" d="M140.29 258.69s-.13-14.49-1.96-19.31c.18-.07.36-.13.54-.2.35-.14.13-.67-.22-.61-5.54 1.04-16.28 5.34-16.28 5.34l-3.79 10.19 4.43 4.71 17.28-.13Z"/>
    <path fill="#96aacc" d="M244.33 221.27c-3.99-11.44-13.97-19.39-24.88-23.85-.26-.63-1.08-1.04-1.69-.4-8.41 8.87-13.98 19.71-18.95 30.76-2.27 5.06-5.18 10.47-5.05 16.16.12 4.77 2.65 6.36 7.03 7.15 11.46 2.06 25.55 1.8 36.3-3.22 9.73-4.54 10.34-17.68 7.23-26.6Z"/>
    <path fill="#beccea" d="M206.39 212.84c-2.06-11.64-12.64-19.98-21.24-27.21-5.28-4.44-10.98-8.18-17.33-10.89-6.49-2.77-13.15-4.98-19.51-8.06.04-.3-.25-.61-.62-.43-.05.02-.09.05-.13.07-.11-.05-.22-.1-.33-.16-.63-.32-1.16.33-.95.85-12.97 7.05-21.99 21.69-19.97 36.68 1.02 7.52 5.16 13.57 10.01 19.2 2.08 2.41 4.4 4.83 6.9 7.06-.98.53-1.79 1.37-2.81 2.62-2.55 3.14-4.4 2.13-7.58 3.13-1.25.39-2.32 1.01-3.19 2.01-1.03 1.17-1.56 2.54-1.8 3.98 1.75 7.78 5.47 15.01 8.7 22.42 13.11.81 27.05 1.89 39.91 0 5.45-.8 11.08-1.51 16.22-3.6 5.87-2.38 10.14-6.72 12.52-12.57 4.1-10.07 3.07-24.51 1.2-35.09Z"/>
    <path fill="#7c4f43" d="M228.51 224.96s-14.46.93-19.17 3.03c-.08-.17-.15-.35-.23-.53-.16-.34-.68-.1-.59.25 1.35 5.48 6.24 15.96 6.24 15.96l10.39 3.21 4.46-4.69-1.09-17.24Zm43.76-8.5s-13.18.4-17.98 2.27c-.07-.18-.13-.36-.2-.54-.15-.35-.67-.13-.6.22 1.09 5.53 5.48 16.24 5.48 16.24l10.22 3.7 4.88-4.67-1.79-17.22Z"/>
    <path fill="#00949c" d="M275.96 222.75c-.59 1.8-4.39 2.39-8.78 2.39s-12.98 3.59-13.97 3.4c-.99-.21-3.8-5-4.98-8.59-.18-.53-.4-1.17-.65-1.87-.16-.43-.32-.89-.49-1.39-1.52-4.1-3.77-9.66-5.44-12.1-.43-.62-.99-1.71-1.6-3.03-.18-.35-.34-.72-.51-1.1-1.29-2.92-2.78-6.67-3.91-9.58-.02-.03-.02-.06-.03-.1-.18-.46-.34-.89-.49-1.29-.73-1.93-1.23-3.26-1.23-3.26s-.69-12.48-1.05-21.61c-.02-.53-.05-1.02-.06-1.52-.14-4.05-.21-7.2-.1-7.81.13-.67 3.05-2.7 6.85-5.08.49-.3.99-.62 1.52-.94 7.29-4.49 16.71-9.72 16.71-9.72.14.18.27.37.4.56.1.14.19.3.29.46.61.94 1.6 2.52 2.86 4.85.24.43.48.89.73 1.39.94 1.8 2.01 3.94 3.18 6.48 1.04 2.27 1.98 5.27 2.81 8.64.11.45.22.91.32 1.37.91 3.93 1.68 8.28 2.27 12.48l.24 1.69c.88 6.62 1.36 12.72 1.36 16.12 0 .22 0 .45.02.69.02.54.05 1.13.08 1.77.3 4.04 1.2 9.55 2.03 14.53.1.53.18 1.02.26 1.53.91 5.35 1.68 9.8 1.4 10.61Z"/>
    <path fill="#00949c" d="M258.41 140.59c-.1-.16-.19-.32-.29-.46-.13-.19-.26-.38-.4-.56-3.38-4.49-9.35-6.94-14.25-9.31-10.55-5.09-21.76-8.75-33.39-9.94-.08-.08-.18-.18-.32-.21-9.29-2.57-19.43-2.54-27.31 3.32-.35.26-.69.53-1.02.8-.02.02-.05.03-.06.06-4.02 3.35-7.09 7.61-10.25 11.76-1.37 1.8-2.76 3.5-4.23 5.08-.37.4-.73.8-1.1 1.18-2.71 2.81-5.63 5.33-8.97 7.73-1.04.75-2.11 1.52-3.18 2.3-.34.24-.67.49-1.01.75-2.55 1.92-5 4.01-6.85 6.54-2.7 3.66-1.72 6.19.94 9.43 7.36 8.91 15.66 17.85 24.95 24.77 1.07.78 2.17 1.44 3.32 2.01 0 0 0 .02.02.02 2.94 1.47 6.07 2.46 9.05 3.86h.03c.72.34 1.44.7 2.14 1.1 1.47.85 2.89 1.79 4.33 2.73 3.05 1.98 6.08 4.01 9.48 5.38 7.31 2.92 15.71 1.34 21.01-4.39.4-.43.78-.89 1.13-1.37.11-.13.21-.26.3-.38 1.92-2.67 3.21-5.08 5.83-6.94.22-.18.46-.32.7-.48 1.92-1.2 3.91-2.22 5.63-3.7.29-.26.56-.49.83-.78.03-.02.08-.06.11-.1.46-.45.89-.91 1.29-1.39 2.27-2.63 3.96-5.73 5.49-8.84 2.15-4.42 4.05-9 6.83-13.11.08-.14.18-.29.27-.43.26-.38.53-.75.81-1.12 3.02-4.1 6.62-7.85 8.54-12.64.67-1.68 1.12-3.43 1.25-5.19.05-.59.05-1.2.03-1.8-.1-1.98-.62-3.91-1.69-5.68Z"/>
    <path fill="#00949c" d="M232.65 232.12c-.02.8-5.78.21-10.76.21s-14.97 2-15.47 2-2.51-1.2-4.28-5.99c-1.21-3.27-1.9-4.5-3.18-7.12-.18-.38-.37-.78-.59-1.23-.46-.99-.99-2.15-1.64-3.62-1.29-2.94-3.78-8-6.18-12.8-.59-1.17-1.17-2.3-1.71-3.4-.26-.49-.51-.99-.73-1.47-2.12-4.15-3.74-7.28-3.74-7.28s12.29-3.22 23.69-6.13h.03c.73-.19 1.47-.37 2.19-.56h.02c8.91-2.25 16.68-4.13 16.76-3.88.08.26.34 3.66.69 8.17.03.48.08.96.11 1.45.14 1.71.29 3.53.45 5.38.22 2.63.46 5.3.72 7.71.05.46.1.91.14 1.34.16 1.52.34 2.91.49 4.07.43 3.06.94 6.88 1.44 10.52.06.51.13 1.02.19 1.52.75 5.7 1.36 10.65 1.36 11.11"/>
    <path fill="#fff" d="M262 146.83c-.62.45-1.28.86-1.93 1.25-2.3 1.36-4.68 2.41-7.15 3.02-4.6 1.12-9.02.32-13.42-.86-5.46-1.47-10.89-3.56-16.57-3.35-5.28.18-10.54 1.69-15.85.97-4.36-.57-8.22-2.67-11.52-5.52-5.84-5.03-9.72-11.78-14.19-18.04.02-.03.05-.05.06-.06.34-.27.67-.54 1.02-.8 3.99 5.25 7.17 11.22 11.78 15.96 3.59 3.69 7.92 6.53 13.11 7.2 5.24.65 10.38-.8 15.6-.99 6.16-.22 12.1 2.27 18.09 3.69 3.61.85 7.22 1.31 10.92.54 3.02-.64 5.7-1.92 8.17-3.56.38-.27.78-.54 1.17-.83.24.43.48.89.73 1.39Zm6.31 16.49c-6.21 2.33-12.79 3.97-19.11 4.13-1.18.03-2.35.02-3.51-.06-4.47-.3-8.57-1.9-12.88-2.76-1.98-.4-3.99-.64-6.11-.53-6.66.38-13.06 2.51-19.76 2.27-6.5-.24-12.85-2.06-18.98-4.07-4.8-1.58-9.69-3.46-13.62-6.75-3.85-3.22-6.16-7.6-8.08-12.13-.16-.37-.32-.73-.48-1.1.37-.38.73-.78 1.1-1.18 1.77 4.37 3.7 8.76 7.1 12.13 4.23 4.18 9.99 6.24 15.55 8.01 6.35 2.03 12.91 3.82 19.63 3.66 5.92-.14 11.64-1.9 17.53-2.27 2.12-.13 4.1.08 6.05.45 3.48.64 6.8 1.79 10.42 2.49 2.31.45 4.71.49 7.12.3 4.1-.32 8.27-1.34 12.1-2.33a85 85 0 0 0 5.6-1.63c.11.45.22.91.32 1.37Z"/>
    <path fill="#fff" d="M270.82 177.49c-5.65 2.01-11.19 4.1-16.49 6.94-5.04 2.71-10.28 5.36-16.01 6.19-.89.13-1.79.21-2.7.26h-.14c-2.51.1-5.08-.11-7.61-.42-2.31-.27-4.61-.64-6.85-.91-4.77-.59-8.65-2.57-12.91-4.28h-.03c-.99-.38-2-.77-3.05-1.12-5.4-1.79-11.13-2.14-16.63-3.42-4.53-1.05-8.89-2.81-12.43-5.91-2.39-2.11-4.04-4.84-6.23-7.14-2.06-2.15-4.47-3.91-6.86-5.65-3.43-2.47-7.42-5.43-10.23-8.97.34-.26.67-.51 1.01-.75 3.77 4.61 9.66 7.98 14.22 11.76 3.75 3.13 6.16 7.47 10.01 10.46 4.13 3.21 9.15 4.6 14.22 5.51 4.9.89 9.88 1.44 14.57 3.19 1.25.48 2.43.97 3.62 1.47h.02c3.67 1.53 7.2 3.02 11.38 3.5 1.98.24 4.02.54 6.07.8 2.46.32 4.93.56 7.34.48.56 0 1.1-.03 1.64-.08.05 0 .1-.02.14-.02 7.71-.69 14.09-4.76 20.86-8.12 4.17-2.08 8.43-3.96 12.83-5.48l.24 1.69Zm-41.65 27.41c-2.7-.27-5.41-.32-8.12-.35-2.51-.03-5.03-.08-7.55-.26-7.2-.54-14.06-3.02-21.23-3.82-1.15-.13-2.28-.22-3.42-.32-1.61-.13-3.19-.26-4.76-.43h-.03c-2.99-1.4-6.11-2.39-9.05-3.86 2.81 1.17 5.62 2.14 8.83 2.49 1.42.16 2.84.24 4.28.34 1.93.13 3.86.24 5.78.53 8.04 1.17 15.63 3.72 23.83 3.89 1.48.03 2.97.05 4.45.06 2.3.03 4.6.11 6.85.38.05.46.1.91.14 1.34Zm1.93 14.59c.06.51.13 1.02.19 1.52-1.84-.4-3.67-.94-5.49-1.47-5.95-1.68-11.91-1.93-17.83.05-3.5 1.17-6.03 2.01-9 1.63-.18-.38-.37-.78-.59-1.23.38.08.78.14 1.18.19 4.71.53 9.42-2.7 14.17-3.22 5.99-.65 11.68 1.53 17.37 2.54Zm43.45-7.36a49 49 0 0 1-5.03 1.95c-4.96 1.63-9.8 1.56-14.94 2.03-2.54.22-4.8 1.05-7.01 1.98-.16-.43-.32-.89-.49-1.39 2.36-.97 4.77-1.74 7.5-1.96 4.98-.42 9.77-.43 14.57-2 1.79-.59 3.5-1.31 5.14-2.14.1.53.18 1.02.26 1.53m-2.28-16.06c-2.12.88-4.29 1.61-6.48 2.22-8.08 2.23-17.18 3.82-25.75 3.27-.18-.35-.34-.72-.51-1.1 8.19.14 16.71-1.26 24.53-3.29a49 49 0 0 0 8.12-2.87c.02.54.05 1.13.08 1.77Z"/>
    <path fill="#7c4f43" d="M193.46 88.29a39 39 0 0 0-.07 4.57c.46 9.49 2.77 19.74 9 27.33 7.55 9.2 20.56 13.18 32.5 12.24 11.36-.9 19.57-8.47 24.13-18.42 3.02-6.58 3.54-17.84 2.99-25.09-.47-6.25-2.22-11.68-7.2-15.55-8.32-6.46-18.45-10.3-28.02-14.83-.06-.03-.12-.06-.18-.07-1.33-.27-27.93 7.72-27.93 7.72-1.91 7.54-4.64 14.49-5.22 22.11Z"/>
    <path fill="#7c4f43" d="m205.63 118.16-2.53 8.78s9.08 12.24 17.85 12.89 11.01-2 11.01-2l3.99-9.66-30.32-10.02Zm-8.29-24.84s-7.68-6.88-11.17-4.16c-6.12 4.77 1.25 16.32 4.48 18.85 1.87 1.47 4.34 1.7 6.68 2.1.23.04 5.22-.47 5.16-.66l-5.16-16.13Z"/>
    <path fill="#382f2c" d="M214.59 94.7c-.18-2.47-1.83-3.91-3.08-2.48-.88 1.01-.83 3.04-.53 4.25.25 1 1.05 2.39 2.27 1.98 1.38-.47 1.46-2.14 1.34-3.74Zm35.61.71c0-2.48-1.55-4.03-2.9-2.69-.95.94-1.04 2.97-.82 4.2.18 1.01.88 2.46 2.13 2.13 1.41-.38 1.61-2.04 1.6-3.64Z"/>
    <path fill="#5b352e" d="M232.08 108.04c-.26 0-.52-.13-.67-.36a.794.794 0 0 1 .24-1.1c.48-.31 1.73-1.37 1.68-2.46-.05-1.32-1.33-3.98-1.82-4.9a.796.796 0 0 1 .33-1.08c.39-.21.87-.06 1.08.33.2.37 1.93 3.66 2 5.59.09 2.23-2.31 3.8-2.41 3.86-.13.09-.28.13-.43.13Zm-.53 3.85c3.09.18 5.51-2.17 7.03-.98 1.41 1.11-.57 5.16-6.2 5.34s-8.52-2.78-7.72-4.76c.9-2.23 3.8.21 6.89.4m1.09 21.99c-.25 0-6.26-.03-14.11-2.64-5.89-1.96-12.31-6.39-12.58-6.58a.8.8 0 0 1-.2-1.11.8.8 0 0 1 1.11-.2c.06.04 6.5 4.49 12.17 6.38 7.59 2.52 13.54 2.56 13.6 2.56.44 0 .8.36.8.8s-.36.8-.8.8Z"/>
    <path fill="#382f2c" d="M216.44 85.34c-.2-.17-.45-.3-.76-.37-2.17-.53-4.88.28-6.92 1.27-1.14.55-3.21 2.93-1.02 2.66 1.87-.23 3.59-.67 5.49-.62.88.03 2.14.11 2.94-.44.95-.66 1.01-1.85.26-2.5Zm27.83-.05c.2-.16.46-.28.77-.35 2.18-.46 4.87.44 6.87 1.5 1.12.59 3.11 3.03.93 2.69-1.86-.3-3.56-.79-5.47-.79-.88 0-2.15.04-2.93-.54-.93-.69-.95-1.88-.18-2.5Z"/>
    <path fill="#b2543b" d="M213.27 102.71c.06-2.07-2.62-2.34-4.14-2.32-1.19.01-2.55.18-3.62.73-1.33.69-1.4 2.4.17 2.91 1.73.56 3.42.56 5.24.37 1.02-.1 2.33-.73 2.35-1.69m44.01.38c.06-2.07-2.62-2.34-4.14-2.32-1.19.01-2.55.18-3.62.73-1.33.69-1.4 2.4.17 2.91 1.73.56 3.42.56 5.24.37 1.02-.1 2.33-.73 2.35-1.69"/>
    <path fill="#066a89" d="M188.85 200.96c-.29 0-.57-.16-.71-.44-.21-.41-5.13-10.09-6.73-16.27-1.58-6.08-4.95-17.64-4.98-17.75-.12-.42.12-.87.54-.99.42-.13.87.12.99.54.03.12 3.41 11.7 4.99 17.8 1.56 6.01 6.56 15.84 6.61 15.94.2.39.04.87-.35 1.07q-.18.09-.36.09Zm38.27-5.86c-.39 0-.73-.28-.79-.68-.02-.16-2.46-16.26-3.49-19.73-1.79-5.99-3.52-14.55-3.54-14.64-.09-.43.19-.85.63-.94.43-.09.85.19.94.63.02.09 1.73 8.57 3.5 14.49 1.07 3.58 3.44 19.29 3.54 19.95.07.43-.23.84-.67.91h-.12Zm11.05-6.53a.802.802 0 0 1-.69-1.2c.36-.62 8.92-15.22 12.9-20.38 3.88-5.04 7.22-12.91 7.25-12.99a.81.81 0 0 1 1.05-.43c.41.17.6.64.43 1.05-.14.33-3.45 8.14-7.46 13.34-3.91 5.08-12.7 20.07-12.79 20.22-.15.25-.42.39-.69.39"/>
    <path fill="#7c4f43" d="M237.22 248.49c-.65-1.42-2.13-2.9-2.79-3.61a20.9 20.9 0 0 0-4.88-3.91.48.48 0 0 0-.38-.05c-1.95-1.08-4.94-1.24-6.8-1.5-1.69-.23-4.48-.5-6.43.09v-.08c.06-.11.11-.23.17-.34.1-.2 0-.45-.22-.5-2.15-.49-3.43 7.33-3.76 8.61-.53 2.02-3.02 11.03.63 11.68.38.07.76-.08.96-.42.61-1.08 1.11-4.78 1.41-6.23.22 1.02.45 2.02.63 2.91.37 1.91 1.27 5.84 3.53 6.4 1.18.3 1.84-.35 2.18-1.44.77 2.38 1.93 3.9 3.7 2.26 1.13-1.04.95-3 .66-4.73.91 1.97 2.18 3.41 3.83 2.82 1.67-.6 1.27-3.19 1.03-4.49s-.95-2.8-.91-4.12c.08-2.73 2.9-1.31 4.29-.78 1.07.41 2.04.89 3.06-.17.62-.65.54-1.51.13-2.4Z"/>
    <path fill="#5b352e" d="M225.21 256.68a.81.81 0 0 1-.78-.61l-1.35-5.68c-.1-.43.16-.86.59-.96.43-.11.86.16.96.59l1.35 5.68c.1.43-.16.86-.59.96-.06.02-.12.02-.19.02Zm-4.19 2.7a.81.81 0 0 1-.78-.61l-1.49-6.24c-.1-.43.16-.86.59-.96s.86.16.96.59l1.49 6.24c.1.43-.16.86-.59.96-.06.02-.12.02-.19.02Z"/>
    <path fill="#7c4f43" d="M278.84 240.4c-1.02-2.57-2.5-7.71-5.12-9.06-1.75-.9-5.27.12-7.19.33-2.23.24-4.45.55-6.65.95a5.3 5.3 0 0 0-.38-1.17c-.14-.29-.54-.12-.56.15-.04.48-.12.93-.21 1.35-.22.21-.3.54-.24.85-.71 2.08-2.09 3.58-3.25 5.72-.73 1.35-1.88 3.66-1.04 5.19 1.21 2.2 3.93-.32 5.67-2.5 2.05 1.47 2.47 6.61 3.02 8.55.4 1.42.91 4.35 2.8 4.6 1.57.21 1.86-1.16 1.86-2.4 0-2.31-.16-5.1-.9-7.39 1.18.07 2.27 3.39 2.42 3.9.32 1.11.66 2.21 1.17 3.25.61 1.22 1.7 2.83 3.29 2.15 1.06-.46 1.33-1.55 1.27-2.59 1.45.29 2.23-1.87 2.2-3.18-.02-.95-.15-1.91-.33-2.85.56.59 1.21.94 1.93.78 2.67-.6.79-5.32.26-6.64Z"/>
    <path fill="#5b352e" d="M274.06 251.15a.81.81 0 0 1-.77-.57c-.01-.05-1.49-5.04-2.07-6.52l-.6-1.53c-.16-.41.04-.87.45-1.03s.87.04 1.03.45l.6 1.53c.6 1.54 2.06 6.44 2.12 6.65.12.42-.12.87-.54.99-.08.02-.15.03-.23.03Zm2.43-6.26c-.33 0-.64-.2-.75-.53l-1.33-3.72c-.15-.41.07-.87.48-1.02.42-.15.87.07 1.02.48l1.33 3.72a.802.802 0 0 1-.75 1.07"/>
    <path fill="#beccea" d="M124.36 251.6c-.29-1.67-.48-3.37-.48-5.07 0-1.49.68-3.06.61-4.43-.02-.35-.22-.58-.53-.7-3.21-1.21-8.81-1.77-12.06-.37-3.82 1.65-5.9 6.4-7.64 9.78-4.14 8.01-7.98 16.53-2.66 22.14 2.13 2.24 5.24 3.07 8.15 2.08 3.89-1.33 6.35-6.01 8.76-9.03.84-1.06 1.65-2.41 2.68-3.3.85-.65 1.76-1.18 2.74-1.58.36-.15.71-.31 1.05-.49.81-.82 1.02-1.45 1.06-2.58.06-1.99-1.32-4.48-1.66-6.45Z"/>
    <path fill="#fff" d="M127.69 257.9c-.14-.51-.46-.96-1.01-1.16-.06-.02-.12-.02-.19-.04.65-.53.93-1.46.55-2.27-.28-.59-.87-.95-1.49-1.03 0-.01.02-.02.02-.03.34-.37.55-.84.53-1.31-.02-.37-.19-.68-.43-.93-.2-.29-.47-.52-.8-.65.16-.17.29-.36.37-.6.26-.36.4-.82.35-1.3-.07-.63-.46-1.13-.96-1.4.75-.48 1.15-1.45.83-2.34a1.5 1.5 0 0 0-.53-.69c.87-.39 1.43-1.41.89-2.33-.05-.08-.11-.13-.16-.2 0-.02-.01-.04-.02-.06-.63-1.09-2.25-1.02-2.91-.01-.51.78-.27 1.75.35 2.31-.33.15-.61.4-.79.72-.14.17-.27.36-.33.57-.26.82.1 1.68.78 2.09-1.11.69-1.27 2.3-.33 3.23.18.18.39.3.6.39-.39.36-.65.87-.63 1.43.03.91.73 1.57 1.55 1.74-.04.05-.07.1-.1.15-.3.3-.49.69-.48 1.16.02.92.76 1.62 1.61 1.77-.48.44-.76 1.12-.68 1.8.14 1.24 1.74 2.35 2.75 1.23v-.01c.08-.06.15-.15.22-.23.22-.17.4-.39.5-.66.18-.47.13-.94-.07-1.34Z"/>
    <path fill="#96aacc" d="M164.62 239.91h-.07c-.13-.01-3.36-.29-8.46-2.17-5.06-1.86-12.02-5.89-12.32-6.06a.8.8 0 0 1-.29-1.09.8.8 0 0 1 1.09-.29c.07.04 7.14 4.13 12.07 5.94 4.87 1.8 8.01 2.08 8.04 2.08.44.04.76.42.73.86-.03.42-.38.73-.79.73"/>
    <path fill="#96aacc" d="M151.05 241.01a.8.8 0 0 1-.6-.27l-6.87-7.75a.804.804 0 0 1 .07-1.13c.33-.29.83-.26 1.13.07l6.87 7.75c.29.33.26.84-.07 1.13-.15.14-.34.2-.53.2m-30.23 21.74c-.24 0-.48-.11-.64-.32-.06-.08-1.57-2.1-2.78-4.84-1.25-2.82-1.27-4.47-1.27-4.54 0-.44.36-.8.8-.8s.8.36.8.8c0 0 .03 1.43 1.13 3.89 1.15 2.58 2.59 4.51 2.6 4.53.26.35.19.85-.16 1.12a.77.77 0 0 1-.48.16"/>
    <path fill="#5b352e" d="M190.81 105.33c-.14 0-.29-.04-.42-.12-.25-.16-1.53-1.15-2.08-4.68-.6-3.75 1.57-5.67 1.66-5.75.33-.29.84-.25 1.13.08s.25.83-.08 1.12c-.08.07-1.58 1.47-1.13 4.3.45 2.85 1.39 3.6 1.4 3.6.34.26.43.75.18 1.1-.16.22-.4.34-.65.34Z"/>
    <circle cx="194.09" cy="86.83" r="5.89" fill="#382f2c"/>
    <circle cx="194.97" cy="78.04" r="5.89" fill="#382f2c"/>
    <circle cx="210.78" cy="63.14" r="5.89" fill="#382f2c"/>
    <circle cx="221.68" cy="60.5" r="5.89" fill="#382f2c"/>
    <circle cx="232.64" cy="61.96" r="5.89" fill="#382f2c"/>
    <circle cx="240.81" cy="63.75" r="5.89" fill="#382f2c"/>
    <circle cx="248.76" cy="70.63" r="5.89" fill="#382f2c"/>
    <circle cx="227.77" cy="56.08" r="5.89" fill="#382f2c"/>
    <circle cx="254.81" cy="73.37" r="4.19" fill="#382f2c"/>
    <circle cx="260.92" cy="79.73" r="4.19" fill="#382f2c"/>
    <circle cx="263.19" cy="87.46" r="4.19" fill="#382f2c"/>
    <circle cx="197.54" cy="70.63" r="4.19" fill="#382f2c"/>
    <circle cx="200.86" cy="67.85" r="5.89" fill="#382f2c"/>
  </g>
</svg>
