<svg xmlns="http://www.w3.org/2000/svg" xmlns:xlink="http://www.w3.org/1999/xlink" data-name="Layer 2" viewBox="0 0 645.49 364.11">
  <defs>
    <symbol id="d" viewBox="0 0 49.27 49.27">
      <g data-name="Isolation Mode">
        <circle cx="24.63" cy="24.63" r="24.13" fill="#0078a6" stroke="#fff" stroke-miterlimit="10"/>
        <path fill="#fff" d="M21.86 33.81c-.53 0-1.04-.21-1.41-.59l-5.86-5.86a.284.284 0 0 1 0-.4l2.43-2.43c.11-.11.29-.11.4 0l4.44 4.44 11.55-11.55c.11-.11.29-.11.4 0l2.43 2.43c.11.11.11.29 0 .4L23.28 33.21c-.38.38-.88.59-1.41.59Z"/>
      </g>
    </symbol>
    <symbol id="c" viewBox="0 0 37.55 35.18">
      <path fill="#382f2c" d="M34.34 10.65h-3.55V5.69C30.79 2.55 28.24 0 25.1 0H12.44C9.3 0 6.75 2.55 6.75 5.69v4.96H3.2c-1.77 0-3.21 1.44-3.21 3.21v18.12c0 1.77 1.44 3.21 3.21 3.21h31.13c1.77 0 3.21-1.44 3.21-3.21V13.86c0-1.77-1.44-3.21-3.21-3.21ZM19.36 24.33v2.57h1.72v1.17h-1.72v1.4h-1.18v-5.15c-1.94-.29-3.43-1.94-3.43-3.95a4.01 4.01 0 1 1 8.02 0 3.99 3.99 0 0 1-3.43 3.95Zm8.63-13.68H9.56V5.69a2.88 2.88 0 0 1 2.88-2.88H25.1a2.88 2.88 0 0 1 2.88 2.88v4.96Z"/>
    </symbol>
    <symbol id="b" viewBox="0 0 37.24 46.52">
      <path fill="#ffcb39" stroke="#fff" stroke-miterlimit="10" d="M18.62.5C8.61.5.5 8.61.5 18.62c0 7.94 11.42 21.34 16.13 26.52a2.68 2.68 0 0 0 3.98 0c4.71-5.18 16.13-18.57 16.13-26.52C36.74 8.61 28.62.5 18.62.5Zm0 26.18c-5.1 0-9.24-4.1-9.24-9.21s4.14-9.22 9.24-9.22 9.23 4.14 9.23 9.22-4.14 9.21-9.23 9.21Z"/>
    </symbol>
    <filter id="a" width="645.49" height="364.11" x="0" y="0" filterUnits="userSpaceOnUse">
      <feOffset dx="-5" dy="5"/>
      <feGaussianBlur result="blur" stdDeviation="0"/>
      <feFlood flood-color="#b7a09a" flood-opacity=".2"/>
      <feComposite in2="blur" operator="in"/>
      <feComposite in="SourceGraphic"/>
    </filter>
  </defs>
  <rect width="639.49" height="358.11" x="5.5" y=".5" fill="#fff" stroke="#a47764" stroke-miterlimit="10" filter="url(#a)" rx="10" ry="10"/>
  <path fill="#e5e1dc" stroke="#382f2c" stroke-miterlimit="10" d="M529.56 153.29v-18.65c-10.3 0-18.65 8.35-18.65 18.65h-87.38V43.36h193.41v109.93zm-193.42 0v-18.65c-10.3 0-18.65 8.35-18.65 18.65h-87.38V43.36h193.41v109.93z"/>
  <path fill="#0078a6" stroke="#382f2c" stroke-miterlimit="10" d="M142.73 153.29h87.38V43.36H36.7v109.93h87.38c0-10.3 8.35-18.65 18.65-18.65v18.65h174.76"/>
  <path fill="none" stroke="#382f2c" stroke-miterlimit="10" d="M336.14 153.29h174.77"/>
  <use xlink:href="#b" width="37.24" height="46.52" transform="matrix(.85 0 0 .85 65.3 78.44)"/>
  <text fill="#fff" font-family="OpenSans-SemiBold,&quot;Open Sans&quot;" font-size="18" font-weight="600" transform="translate(107.6 96.09)"><tspan x="0" y="0">Kelvin’s </tspan><tspan x="0" y="18">Exam Room</tspan></text>
  <use xlink:href="#c" width="37.55" height="35.18" transform="matrix(.85 0 0 .85 258.58 83.21)"/>
  <text fill="#382f2c" font-family="OpenSans-SemiBold,&quot;Open Sans&quot;" font-size="18" font-weight="600" opacity=".15" transform="translate(301.01 96.08)"><tspan x="0" y="0">Sharese’s </tspan><tspan x="0" y="18">Exam Room</tspan></text>
  <use xlink:href="#c" width="37.55" height="35.18" transform="matrix(.85 0 0 .85 451.99 83.21)"/>
  <text fill="#382f2c" font-family="OpenSans-SemiBold,&quot;Open Sans&quot;" font-size="18" font-weight="600" opacity=".15" transform="translate(494.42 96.01)"><tspan x="0" y="0">Ivan’s </tspan><tspan x="0" y="18">Exam Room</tspan></text>
  <path fill="none" stroke="#382f2c" stroke-linejoin="round" d="M141.48 263.22v-18.65c-10.3 0-18.65 8.35-18.65 18.65"/>
  <path fill="none" stroke="#382f2c" stroke-linejoin="round" stroke-width="2" d="M122.83 263.22H36.7V43.36h580.24v219.86H141.48"/>
  <text fill="#382f2c" font-family="OpenSans-SemiBold,&quot;Open Sans&quot;" font-size="18" font-weight="600" transform="translate(287.75 211.89)"><tspan x="0" y="0">Waiting Room</tspan></text>
  <use xlink:href="#d" width="49.27" height="49.27" transform="matrix(.85 0 0 .85 239.72 184.1)"/>
  <g stroke="#382f2c" stroke-miterlimit="10">
    <rect width="128.26" height="6.3" x="433.01" y="260.07" fill="#fff" rx=".2" ry=".2"/>
    <path fill="none" d="M433.01 263.1h128.26"/>
  </g>
  <g stroke="#382f2c" stroke-miterlimit="10">
    <rect width="45.42" height="6.3" x="14" y="202.82" fill="#fff" rx=".2" ry=".2" transform="rotate(-90 36.705 205.975)"/>
    <path fill="none" d="M36.59 228.68v-45.41"/>
  </g>
  <g stroke="#382f2c" stroke-miterlimit="10">
    <rect width="45.42" height="6.3" x="14" y="95.1" fill="#fff" rx=".2" ry=".2" transform="rotate(-90 36.7 98.25)"/>
    <path fill="none" d="M36.59 120.96V75.54"/>
  </g>
  <g stroke="#382f2c" stroke-miterlimit="10">
    <rect width="70.13" height="6.3" x="97.09" y="40.21" fill="#fff" rx=".2" ry=".2"/>
    <path fill="none" d="M97.09 43.24h70.13"/>
  </g>
  <g stroke="#382f2c" stroke-miterlimit="10">
    <rect width="70.13" height="6.3" x="291.75" y="40.21" fill="#fff" rx=".2" ry=".2"/>
    <path fill="none" d="M291.75 43.24h70.13"/>
  </g>
  <g stroke="#382f2c" stroke-miterlimit="10">
    <rect width="70.13" height="6.3" x="483.47" y="40.21" fill="#fff" rx=".2" ry=".2"/>
    <path fill="none" d="M483.47 43.24h70.13"/>
  </g>
  <g stroke="#382f2c" stroke-miterlimit="10">
    <rect width="128.26" height="6.3" x="262.69" y="260.07" fill="#fff" rx=".2" ry=".2"/>
    <path fill="none" d="M262.69 263.1h128.26"/>
  </g>
  <text fill="#a47764" font-family="RobotoCondensed-Medium,&quot;RobotoCondensed Medium&quot;" font-size="22.5" font-weight="500" letter-spacing="-.02em" transform="translate(60.69 324.28)"><tspan x="0" y="0">CLICK </tspan></text>
  <text fill="#a47764" font-family="RobotoCondensed-Medium,&quot;RobotoCondensed Medium&quot;" font-size="22.5" font-weight="500" transform="translate(159.27 324.28)"><tspan x="0" y="0" letter-spacing="-.04em">T</tspan><tspan x="10.24" y="0" letter-spacing="-.02em">O GO B</tspan><tspan x="75.49" y="0" letter-spacing="-.03em">A</tspan><tspan x="88.58" y="0" letter-spacing="-.02em">CK</tspan><tspan x="113.15" y="0" letter-spacing="-.06em"> </tspan><tspan x="116.66" y="0" letter-spacing="-.04em">T</tspan><tspan x="126.9" y="0" letter-spacing="-.01em">O</tspan><tspan x="142.06" y="0" letter-spacing="-.06em"> </tspan><tspan x="145.57" y="0" letter-spacing="-.02em">THE </tspan><tspan x="185.92" y="0" letter-spacing="-.01em">R</tspan><tspan x="197.75" y="0" letter-spacing="-.02em">OOMS</tspan><tspan x="256.59" y="0" letter-spacing="-.06em"> </tspan><tspan x="259.98" y="0" letter-spacing="-.05em">Y</tspan><tspan x="271.01" y="0" letter-spacing="-.02em">OU H</tspan><tspan x="319.16" y="0" letter-spacing="-.07em">A</tspan><tspan x="331.4" y="0" letter-spacing="-.02em">VE</tspan><tspan x="354.35" y="0" letter-spacing="-.05em"> </tspan><tspan x="357.97" y="0" letter-spacing="-.02em">VISITE</tspan><tspan x="412.6" y="0" letter-spacing="-.05em">D</tspan><tspan x="426.48" y="0" letter-spacing="-.01em">.</tspan></text>
  <use xlink:href="#d" width="49.27" height="49.27" transform="matrix(.65 0 0 .65 121.19 300.06)"/>
</svg>
