<svg xmlns="http://www.w3.org/2000/svg" xmlns:xlink="http://www.w3.org/1999/xlink" data-name="Isolation Mode" viewBox="0 0 287.79 172.31">
  <defs>
    <clipPath id="a">
      <rect width="244.67" height="172.31" x="26.2" y="0" fill="none" rx="10" ry="10"/>
    </clipPath>
  </defs>
  <rect width="244.67" height="172.31" x="26.2" y="0" fill="#fff" rx="10" ry="10"/>
  <circle cx="110.24" cy="31.82" r="9.04" fill="#ffb966"/>
  <path fill="#382f2c" d="M57.89 37.21V22.93h1.66v14.28zm5.38 0V22.93h1.66V35.7h6.3v1.5h-7.96Zm9.04-4.62v-1.48h4.79v1.48zm16.45 1.34h-2.12v3.28h-1.55v-3.28h-6.94v-1.42l6.78-9.66h1.72v9.6h2.12v1.47Zm-3.67-1.48V27.7c0-.93.03-1.98.1-3.15h-.08c-.31.62-.61 1.14-.88 1.55l-4.46 6.35z"/>
  <g clip-path="url(#a)">
    <path fill="none" stroke="#7f7f7f" stroke-miterlimit="10" stroke-width="8" d="m284.78 100.8-.99-.15a941.2 941.2 0 0 0-279.79 0l-.99.15"/>
    <path fill="#ffb966" d="M132.97 54.23h-11.55c-1.18 0-2.13.95-2.13 2.13v25.01c0 1.18.95 2.13 2.13 2.13h10.68v34.57h3V56.35c0-1.18-.95-2.13-2.13-2.13Z"/>
    <path fill="#e5e1dc" d="M158.67 54.23h11.55c1.18 0 2.13.95 2.13 2.13v25.01c0 1.18-.95 2.13-2.13 2.13h-10.68v34.57h-3V56.36c0-1.18.95-2.13 2.13-2.13"/>
  </g>
  <path fill="none" stroke="#d16f54" stroke-miterlimit="10" stroke-width="4" d="M123.13 19.69 98.87 43.95m0-24.26 24.26 24.26"/>
  <path fill="#d16f54" d="M135.06 37.28V23h1.66v14.28zm5.38 0V23h1.66v12.77h6.3v1.5h-7.96Zm9.04-4.62v-1.48h4.79v1.48zm16.45 1.33h-2.12v3.28h-1.55v-3.28h-6.94v-1.42l6.78-9.66h1.72v9.6h2.12v1.47Zm-3.67-1.47v-4.75c0-.93.03-1.98.1-3.15h-.08c-.31.62-.61 1.14-.88 1.55l-4.46 6.35zm7.49-1.18v5.94h-1.66V23h3.92c1.75 0 3.04.34 3.88 1.01s1.25 1.68 1.25 3.03c0 1.89-.96 3.16-2.87 3.83l3.88 6.42h-1.96l-3.46-5.94h-2.98Zm0-1.43h2.28c1.17 0 2.03-.23 2.58-.7s.82-1.16.82-2.09-.28-1.62-.83-2.04-1.45-.62-2.68-.62h-2.16v5.46Zm14.08 7.56c-1.39 0-2.48-.48-3.25-1.45s-1.16-2.32-1.16-4.07.4-3.16 1.19-4.13 1.92-1.45 3.39-1.45c.79 0 1.44.14 1.97.41s.96.68 1.31 1.23h.12c.16-.6.37-1.08.63-1.45h1.26c-.14.43-.25 1.04-.34 1.85s-.14 1.58-.14 2.33v4.29c0 .74.27 1.11.82 1.11.19 0 .39-.03.61-.1v1.16c-.3.17-.66.25-1.08.25-.53 0-.94-.13-1.23-.4s-.49-.68-.61-1.24h-.13c-.38.56-.85.97-1.39 1.24s-1.2.4-1.97.4Zm.24-1.36c1.1 0 1.89-.32 2.38-.95s.73-1.66.73-3.08v-.15c0-1.49-.25-2.56-.74-3.21s-1.29-.97-2.39-.97c-1.97 0-2.96 1.41-2.96 4.22 0 1.38.24 2.42.72 3.11s1.23 1.04 2.26 1.04Z"/>
</svg>
