<svg xmlns="http://www.w3.org/2000/svg" xmlns:xlink="http://www.w3.org/1999/xlink" data-name="Layer 1" viewBox="0 0 645.49 364.11">
  <defs>
    <symbol id="b" viewBox="0 0 49.27 49.27">
      <g data-name="Isolation Mode">
        <circle cx="24.63" cy="24.63" r="24.13" fill="#00949c" stroke="#fff" stroke-miterlimit="10"/>
        <path fill="#fff" d="M21.86 33.81c-.53 0-1.04-.21-1.41-.59l-5.86-5.86a.284.284 0 0 1 0-.4l2.43-2.43c.11-.11.29-.11.4 0l4.44 4.44 11.55-11.55c.11-.11.29-.11.4 0l2.43 2.43c.11.11.11.29 0 .4L23.28 33.21c-.38.38-.88.59-1.41.59Z"/>
      </g>
    </symbol>
    <filter id="a" width="645.49" height="364.11" x="0" y="0" filterUnits="userSpaceOnUse">
      <feOffset dx="-5" dy="5"/>
      <feGaussianBlur result="blur" stdDeviation="0"/>
      <feFlood flood-color="#b7a09a" flood-opacity=".2"/>
      <feComposite in2="blur" operator="in"/>
      <feComposite in="SourceGraphic"/>
    </filter>
  </defs>
  <rect width="639.49" height="358.11" x="5.5" y=".5" fill="#fff" stroke="#a47764" stroke-miterlimit="10" filter="url(#a)" rx="10" ry="10"/>
  <path fill="none" stroke="#382f2c" stroke-miterlimit="10" d="M529.56 153.29v-18.65c-10.3 0-18.65 8.35-18.65 18.65h-87.38V43.36h193.41v109.93zm-193.42 0v-18.65c-10.3 0-18.65 8.35-18.65 18.65h-87.38V43.36h193.41v109.93z"/>
  <path fill="#fff" stroke="#382f2c" stroke-miterlimit="10" d="M142.73 153.29h87.38V43.36H36.7v109.93h87.38c0-10.3 8.35-18.65 18.65-18.65v18.65h174.76"/>
  <path fill="none" stroke="#382f2c" stroke-miterlimit="10" d="M336.14 153.29h174.77"/>
  <path fill="#382f2c" d="M119.1 96.09h-2.43l-4.03-5.82-1.24 1.01v4.81h-2.1V83.24h2.1v6.13c.57-.7 1.15-1.38 1.71-2.03l3.47-4.1h2.39c-2.24 2.64-3.85 4.51-4.83 5.63zm5.73.17c-1.51 0-2.69-.44-3.55-1.32S120 92.84 120 91.3s.4-2.84 1.19-3.74 1.88-1.36 3.26-1.36c1.28 0 2.3.39 3.04 1.17s1.12 1.85 1.12 3.22v1.12h-6.48c.03.94.28 1.67.76 2.18s1.16.76 2.03.76c.57 0 1.11-.05 1.6-.16s1.03-.29 1.6-.54v1.68q-.75.36-1.53.51c-.78.15-1.1.15-1.77.15Zm-.38-8.5c-.66 0-1.18.21-1.58.62s-.63 1.02-.71 1.82h4.41c-.01-.8-.21-1.41-.58-1.82s-.89-.62-1.55-.62Zm8.57 8.33h-2.07V82.41h2.07zm5.17 0-3.69-9.72h2.18l1.98 5.65c.34.95.54 1.72.62 2.3h.07c.05-.42.26-1.19.62-2.3l1.98-5.65h2.2l-3.71 9.72h-2.23Zm7.29-12.3c0-.37.1-.65.3-.85s.49-.3.87-.3.65.1.85.3.3.48.3.85-.1.63-.3.83-.48.3-.85.3-.66-.1-.87-.3-.3-.48-.3-.83m2.19 12.3h-2.07v-9.72h2.07zm11.5 0h-2.07v-5.98q0-1.125-.45-1.68c-.45-.555-.78-.55-1.44-.55-.87 0-1.51.26-1.92.77s-.61 1.38-.61 2.59v4.84h-2.07v-9.72h1.62l.29 1.27h.11c.29-.46.71-.82 1.25-1.07s1.14-.38 1.79-.38c2.33 0 3.5 1.19 3.5 3.56v6.34Zm4.53-12.85.13.19c-.31 1.22-.83 2.63-1.55 4.21h-1.49c.4-1.69.7-3.16.88-4.4zm8.35 10.08c0 .95-.35 1.68-1.04 2.18s-1.68.76-2.97.76-2.33-.2-3.12-.59v-1.78c1.14.53 2.21.79 3.19.79 1.27 0 1.91-.38 1.91-1.15 0-.25-.07-.45-.21-.62s-.37-.33-.69-.51-.77-.38-1.34-.6c-1.12-.43-1.88-.87-2.27-1.3s-.59-1-.59-1.69c0-.83.34-1.48 1.01-1.94s1.58-.69 2.74-.69 2.22.23 3.24.69l-.67 1.56c-1.05-.43-1.93-.65-2.65-.65-1.09 0-1.63.31-1.63.93 0 .3.14.56.43.77s.9.5 1.86.87c.8.31 1.39.59 1.75.85s.63.56.81.89.26.74.26 1.21Zm-55.49 20.77h-7.27v-12.85h7.27v1.78h-5.17v3.5h4.84v1.76h-4.84v4.03h5.17zm4.72-4.97-3.26-4.75h2.36l2.21 3.4 2.23-3.4h2.34l-3.27 4.75 3.44 4.97h-2.34l-2.4-3.64-2.39 3.64h-2.34zm13.84 4.97-.41-1.35h-.07c-.47.59-.94.99-1.42 1.21s-1.08.32-1.83.32c-.96 0-1.7-.26-2.24-.77s-.8-1.25-.8-2.19c0-1 .37-1.76 1.12-2.27s1.88-.79 3.4-.83l1.68-.05v-.52c0-.62-.15-1.09-.44-1.39s-.74-.46-1.35-.46c-.5 0-.98.07-1.43.22s-.9.32-1.32.52l-.67-1.48c.53-.28 1.1-.48 1.73-.63s1.22-.22 1.78-.22c1.24 0 2.17.27 2.8.81s.94 1.39.94 2.54v6.55h-1.48Zm-3.08-1.41c.75 0 1.35-.21 1.81-.63s.68-1.01.68-1.76v-.84l-1.25.05c-.97.04-1.68.2-2.12.49s-.66.73-.66 1.33c0 .43.13.77.39 1.01s.64.36 1.16.36Zm15.63 1.41h-2.07v-5.99c0-.74-.14-1.3-.42-1.67s-.72-.55-1.32-.55c-.8 0-1.38.26-1.75.78s-.56 1.38-.56 2.59v4.84h-2.07v-9.72h1.62l.29 1.27h.11c.27-.46.66-.82 1.17-1.07s1.08-.38 1.69-.38q2.235 0 2.97 1.53h.14c.29-.48.69-.86 1.21-1.12s1.12-.4 1.79-.4c1.16 0 2.01.29 2.54.88s.8 1.48.8 2.68v6.34h-2.07v-5.99c0-.74-.14-1.3-.43-1.67s-.73-.55-1.32-.55c-.8 0-1.39.25-1.76.75s-.56 1.27-.56 2.31v5.15Zm16.01-5.13v5.13h-2.1v-12.85h3.63c1.66 0 2.89.31 3.68.93s1.2 1.56 1.2 2.81c0 1.6-.83 2.74-2.5 3.42l3.63 5.69h-2.39l-3.08-5.13zm0-1.74h1.46q1.47 0 2.13-.54c.66-.54.66-.9.66-1.62s-.24-1.25-.71-1.56-1.19-.47-2.14-.47h-1.39v4.2Zm17.81 1.99c0 1.59-.41 2.83-1.22 3.72s-1.95 1.34-3.4 1.34c-.91 0-1.71-.21-2.41-.62s-1.23-1-1.61-1.77-.56-1.66-.56-2.67c0-1.58.4-2.81 1.21-3.69s1.95-1.33 3.42-1.33 2.52.45 3.34 1.36 1.23 2.13 1.23 3.66m-7.08 0c0 2.24.83 3.37 2.49 3.37s2.46-1.12 2.46-3.37-.83-3.33-2.48-3.33c-.87 0-1.5.29-1.89.86s-.58 1.4-.58 2.47m18.07 0c0 1.59-.41 2.83-1.22 3.72s-1.95 1.34-3.4 1.34c-.91 0-1.71-.21-2.41-.62s-1.23-1-1.61-1.77-.56-1.66-.56-2.67c0-1.58.4-2.81 1.21-3.69s1.95-1.33 3.42-1.33 2.52.45 3.34 1.36 1.23 2.13 1.23 3.66m-7.07 0c0 2.24.83 3.37 2.49 3.37s2.46-1.12 2.46-3.37-.83-3.33-2.48-3.33c-.87 0-1.5.29-1.89.86s-.58 1.4-.58 2.47m17.64 4.88h-2.07v-5.99c0-.74-.14-1.3-.42-1.67s-.72-.55-1.32-.55c-.8 0-1.38.26-1.75.78s-.56 1.38-.56 2.59v4.84h-2.07v-9.72h1.62l.29 1.27h.11c.27-.46.66-.82 1.17-1.07s1.08-.38 1.69-.38q2.235 0 2.97 1.53h.14c.29-.48.69-.86 1.21-1.12s1.12-.4 1.79-.4c1.16 0 2.01.29 2.54.88s.8 1.48.8 2.68v6.34h-2.07v-5.99c0-.74-.14-1.3-.43-1.67s-.73-.55-1.32-.55c-.8 0-1.39.25-1.76.75s-.56 1.27-.56 2.31v5.15Zm293.07-18.08V83.16h2.1v12.85zm7.49 0-3.69-9.72h2.18l1.98 5.65c.34.95.54 1.72.62 2.3h.07c.05-.42.26-1.19.62-2.3l1.98-5.65h2.2l-3.71 9.72h-2.23Zm13.5 0-.41-1.35h-.07c-.47.59-.94.99-1.42 1.21s-1.08.32-1.83.32c-.96 0-1.7-.26-2.24-.77s-.8-1.25-.8-2.19c0-1 .37-1.76 1.12-2.27s1.88-.79 3.4-.83l1.68-.05v-.52c0-.62-.14-1.09-.43-1.39s-.74-.46-1.35-.46c-.5 0-.98.07-1.43.22s-.9.32-1.32.52l-.67-1.48c.53-.28 1.1-.48 1.73-.63s1.22-.22 1.78-.22c1.24 0 2.17.27 2.8.81s.94 1.39.94 2.54v6.55h-1.48Zm-3.08-1.4c.75 0 1.35-.21 1.81-.63s.68-1.01.68-1.76v-.84l-1.25.05c-.97.04-1.68.2-2.12.49s-.66.73-.66 1.33c0 .43.13.77.39 1.01s.64.36 1.16.36Zm15.99 1.4h-2.07v-5.98q0-1.125-.45-1.68c-.45-.555-.78-.55-1.44-.55-.87 0-1.51.26-1.92.77s-.61 1.38-.61 2.59V96h-2.07v-9.72h1.62l.29 1.27h.11c.29-.46.71-.82 1.25-1.07s1.14-.38 1.79-.38c2.33 0 3.5 1.19 3.5 3.56V96Zm4.52-12.85.13.19c-.31 1.22-.83 2.63-1.55 4.21h-1.49c.4-1.69.7-3.16.88-4.4zm8.35 10.09c0 .95-.35 1.68-1.04 2.18s-1.68.76-2.97.76-2.33-.2-3.12-.59v-1.78c1.14.53 2.21.79 3.19.79 1.27 0 1.91-.38 1.91-1.15 0-.25-.07-.45-.21-.62s-.37-.33-.69-.51-.77-.38-1.34-.6c-1.12-.43-1.88-.87-2.27-1.3s-.59-1-.59-1.69c0-.83.34-1.48 1.01-1.94s1.58-.69 2.74-.69 2.22.23 3.24.69l-.67 1.56c-1.05-.43-1.93-.65-2.65-.65-1.09 0-1.63.31-1.63.93 0 .3.14.56.43.77s.9.5 1.86.87c.8.31 1.39.59 1.75.85s.63.56.81.89.26.74.26 1.21Zm-39.5 20.76h-7.27v-12.85h7.27v1.78h-5.17v3.5h4.84v1.76h-4.84v4.03h5.17zm4.72-4.96-3.26-4.75h2.36l2.21 3.4 2.23-3.4h2.34l-3.27 4.75 3.44 4.97h-2.34l-2.4-3.64-2.39 3.64h-2.34zm13.83 4.96-.41-1.35h-.07c-.47.59-.94.99-1.42 1.21s-1.08.32-1.83.32c-.96 0-1.7-.26-2.24-.77s-.8-1.25-.8-2.19c0-1 .37-1.76 1.12-2.27s1.88-.79 3.4-.83l1.68-.05v-.52c0-.62-.14-1.09-.43-1.39s-.74-.46-1.35-.46c-.5 0-.98.07-1.43.22s-.9.32-1.32.52l-.67-1.48c.53-.28 1.1-.48 1.73-.63s1.22-.22 1.78-.22c1.24 0 2.17.27 2.8.81s.94 1.39.94 2.54v6.55h-1.48Zm-3.08-1.4c.75 0 1.35-.21 1.81-.63s.68-1.01.68-1.76v-.84l-1.25.05c-.97.04-1.68.2-2.12.49s-.66.73-.66 1.33c0 .43.13.77.39 1.01s.64.36 1.16.36Zm15.63 1.4h-2.07v-5.99c0-.74-.14-1.3-.42-1.67s-.72-.55-1.32-.55c-.8 0-1.38.26-1.75.78s-.56 1.38-.56 2.59v4.84h-2.07v-9.72h1.62l.29 1.27h.11c.27-.46.66-.82 1.17-1.07s1.08-.38 1.69-.38q2.235 0 2.97 1.53h.14c.29-.48.69-.86 1.21-1.12s1.12-.4 1.79-.4c1.16 0 2.01.29 2.54.88s.79 1.48.79 2.68v6.34h-2.07v-5.99c0-.74-.14-1.3-.43-1.67s-.73-.55-1.32-.55c-.8 0-1.39.25-1.76.75s-.56 1.27-.56 2.31v5.15Zm16.01-5.13v5.13h-2.1v-12.85h3.63c1.66 0 2.89.31 3.68.93s1.2 1.56 1.2 2.81c0 1.6-.83 2.74-2.5 3.42l3.63 5.69h-2.39l-3.08-5.13zm0-1.74h1.46q1.47 0 2.13-.54c.66-.54.66-.9.66-1.62s-.24-1.25-.71-1.56-1.19-.47-2.14-.47h-1.39v4.2Zm17.81 2c0 1.59-.41 2.83-1.22 3.72s-1.95 1.34-3.4 1.34c-.91 0-1.71-.21-2.41-.62s-1.23-1-1.61-1.77-.56-1.66-.56-2.67c0-1.58.4-2.81 1.21-3.69s1.95-1.33 3.42-1.33 2.52.45 3.34 1.36 1.23 2.13 1.23 3.66m-7.07 0c0 2.24.83 3.37 2.49 3.37s2.46-1.12 2.46-3.37-.83-3.33-2.48-3.33c-.87 0-1.5.29-1.88.86s-.58 1.4-.58 2.47Zm18.07 0c0 1.59-.41 2.83-1.22 3.72s-1.95 1.34-3.4 1.34c-.91 0-1.71-.21-2.41-.62s-1.23-1-1.61-1.77-.56-1.66-.56-2.67c0-1.58.4-2.81 1.21-3.69s1.95-1.33 3.42-1.33 2.52.45 3.34 1.36 1.23 2.13 1.23 3.66m-7.08 0c0 2.24.83 3.37 2.49 3.37s2.46-1.12 2.46-3.37-.83-3.33-2.48-3.33c-.87 0-1.5.29-1.88.86s-.58 1.4-.58 2.47Zm17.64 4.87h-2.07v-5.99c0-.74-.14-1.3-.42-1.67s-.72-.55-1.32-.55c-.8 0-1.38.26-1.75.78s-.56 1.38-.56 2.59v4.84h-2.07v-9.72h1.62l.29 1.27h.11c.27-.46.66-.82 1.17-1.07s1.08-.38 1.69-.38q2.235 0 2.97 1.53h.14c.29-.48.69-.86 1.21-1.12s1.12-.4 1.79-.4c1.16 0 2.01.29 2.54.88s.79 1.48.79 2.68v6.34h-2.07v-5.99c0-.74-.14-1.3-.43-1.67s-.73-.55-1.32-.55c-.8 0-1.39.25-1.76.75s-.56 1.27-.56 2.31v5.15ZM310.99 92.52c0 1.14-.41 2.04-1.24 2.69s-1.97.98-3.42.98-2.64-.23-3.57-.68v-1.99c.59.28 1.21.49 1.87.65s1.27.24 1.84.24c.83 0 1.45-.16 1.84-.47s.59-.74.59-1.27c0-.48-.18-.89-.54-1.22s-1.11-.73-2.25-1.19c-1.17-.47-2-1.02-2.48-1.63s-.72-1.34-.72-2.2c0-1.07.38-1.92 1.14-2.53.76-.62 1.78-.92 3.07-.92s2.46.27 3.67.81l-.67 1.71q-1.71-.72-3.06-.72c-.68 0-1.2.15-1.55.44s-.53.69-.53 1.17c0 .33.07.62.21.86s.37.46.69.67.9.49 1.74.83c.94.39 1.63.76 2.07 1.1s.76.72.97 1.15.31.93.31 1.51Zm10.82 3.49h-2.07v-5.98q0-1.125-.45-1.68c-.45-.555-.78-.55-1.44-.55-.87 0-1.5.26-1.91.78s-.61 1.39-.61 2.61v4.83h-2.07V82.34h2.07v3.47c0 .56-.04 1.15-.11 1.78h.13c.28-.47.67-.83 1.17-1.09s1.09-.39 1.75-.39c2.36 0 3.53 1.19 3.53 3.56v6.34Zm8.96 0-.41-1.35h-.07c-.47.59-.94.99-1.42 1.21s-1.08.32-1.83.32c-.96 0-1.7-.26-2.24-.77s-.8-1.25-.8-2.19c0-1 .37-1.76 1.12-2.27s1.88-.79 3.4-.83l1.68-.05v-.52c0-.62-.15-1.09-.44-1.39s-.74-.46-1.35-.46c-.5 0-.98.07-1.43.22s-.9.32-1.32.52l-.67-1.48c.53-.28 1.1-.48 1.73-.63s1.22-.22 1.78-.22c1.24 0 2.17.27 2.8.81s.95 1.39.95 2.54v6.55h-1.48Zm-3.08-1.4c.75 0 1.35-.21 1.81-.63s.68-1.01.68-1.76v-.84l-1.25.05c-.97.04-1.68.2-2.12.49s-.66.73-.66 1.33c0 .43.13.77.39 1.01s.64.36 1.16.36Zm12.37-8.49c.42 0 .76.03 1.03.09l-.2 1.92c-.29-.07-.6-.11-.91-.11q-1.245 0-2.01.81c-.765.81-.77 1.24-.77 2.1v5.08h-2.07v-9.72h1.62l.27 1.71h.11q.48-.87 1.26-1.38c.78-.51 1.08-.51 1.67-.51Zm7.07 10.07c-1.51 0-2.69-.44-3.55-1.32s-1.28-2.1-1.28-3.64.4-2.84 1.19-3.74 1.88-1.36 3.26-1.36c1.28 0 2.3.39 3.04 1.17s1.12 1.85 1.12 3.22v1.12h-6.48c.03.94.28 1.67.76 2.18s1.16.76 2.03.76c.57 0 1.11-.05 1.6-.16s1.03-.29 1.6-.54v1.68q-.75.36-1.53.51c-.78.15-1.1.15-1.77.15Zm-.38-8.51c-.66 0-1.18.21-1.58.62s-.63 1.02-.71 1.82h4.41c-.01-.8-.21-1.41-.58-1.82s-.89-.62-1.55-.62Zm13.04 5.57c0 .95-.35 1.68-1.04 2.18s-1.68.76-2.97.76-2.33-.2-3.12-.59v-1.78c1.14.53 2.21.79 3.19.79 1.27 0 1.91-.38 1.91-1.15 0-.25-.07-.45-.21-.62s-.37-.33-.69-.51-.77-.38-1.34-.6c-1.12-.43-1.88-.87-2.27-1.3s-.59-1-.59-1.69c0-.83.33-1.48 1.01-1.94s1.58-.69 2.74-.69 2.22.23 3.24.69l-.67 1.56c-1.05-.43-1.93-.65-2.65-.65-1.09 0-1.63.31-1.63.93 0 .3.14.56.43.77s.9.5 1.86.87c.8.31 1.39.59 1.75.85s.63.56.81.89.26.74.26 1.21Zm6.48 2.94c-1.51 0-2.69-.44-3.55-1.32s-1.28-2.1-1.28-3.64.4-2.84 1.19-3.74 1.88-1.36 3.26-1.36c1.28 0 2.3.39 3.04 1.17s1.12 1.85 1.12 3.22v1.12h-6.48c.03.94.28 1.67.76 2.18s1.16.76 2.03.76c.57 0 1.11-.05 1.6-.16s1.03-.29 1.6-.54v1.68q-.75.36-1.53.51c-.78.15-1.1.15-1.77.15Zm-.38-8.51c-.66 0-1.18.21-1.58.62s-.63 1.02-.71 1.82h4.41c-.01-.8-.21-1.41-.58-1.82s-.89-.62-1.55-.62Zm8.15-4.52.13.19c-.31 1.22-.83 2.63-1.55 4.21h-1.49c.4-1.69.7-3.16.88-4.4zm8.35 10.09c0 .95-.35 1.68-1.04 2.18s-1.68.76-2.97.76-2.33-.2-3.12-.59v-1.78c1.14.53 2.21.79 3.19.79 1.27 0 1.91-.38 1.91-1.15 0-.25-.07-.45-.21-.62s-.37-.33-.69-.51-.77-.38-1.34-.6c-1.12-.43-1.88-.87-2.27-1.3s-.59-1-.59-1.69c0-.83.33-1.48 1.01-1.94s1.58-.69 2.74-.69 2.22.23 3.24.69l-.67 1.56c-1.05-.43-1.93-.65-2.65-.65-1.09 0-1.63.31-1.63.93 0 .3.14.56.43.77s.9.5 1.86.87c.8.31 1.39.59 1.75.85s.63.56.81.89.26.74.26 1.21Zm-71.54 20.76h-7.27v-12.85h7.27v1.78h-5.17v3.5h4.84v1.76h-4.84v4.03h5.17zm4.72-4.96-3.26-4.75h2.36l2.21 3.4 2.23-3.4h2.34l-3.27 4.75 3.44 4.97h-2.34l-2.4-3.64-2.39 3.64h-2.34zm13.83 4.96-.41-1.35h-.07c-.47.59-.94.99-1.42 1.21s-1.08.32-1.83.32c-.96 0-1.7-.26-2.24-.77s-.8-1.25-.8-2.19c0-1 .37-1.76 1.12-2.27s1.88-.79 3.4-.83l1.68-.05v-.52c0-.62-.15-1.09-.44-1.39s-.74-.46-1.35-.46c-.5 0-.98.07-1.43.22s-.9.32-1.32.52l-.67-1.48c.53-.28 1.1-.48 1.73-.63s1.22-.22 1.78-.22c1.24 0 2.17.27 2.8.81s.95 1.39.95 2.54v6.55h-1.48Zm-3.07-1.4c.75 0 1.35-.21 1.81-.63s.68-1.01.68-1.76v-.84l-1.25.05c-.97.04-1.68.2-2.12.49s-.66.73-.66 1.33c0 .43.13.77.39 1.01s.64.36 1.16.36Zm15.63 1.4h-2.07v-5.99c0-.74-.14-1.3-.42-1.67s-.72-.55-1.32-.55c-.8 0-1.38.26-1.75.78s-.56 1.38-.56 2.59v4.84h-2.07v-9.72h1.62l.29 1.27h.11c.27-.46.66-.82 1.17-1.07s1.08-.38 1.69-.38q2.235 0 2.97 1.53h.14c.29-.48.69-.86 1.21-1.12s1.12-.4 1.79-.4c1.16 0 2 .29 2.54.88s.8 1.48.8 2.68v6.34h-2.07v-5.99c0-.74-.14-1.3-.43-1.67s-.72-.55-1.32-.55c-.8 0-1.39.25-1.76.75s-.56 1.27-.56 2.31v5.15Zm16.01-5.13v5.13h-2.1v-12.85h3.63c1.66 0 2.89.31 3.68.93s1.2 1.56 1.2 2.81c0 1.6-.83 2.74-2.5 3.42l3.63 5.69h-2.39l-3.08-5.13zm0-1.74h1.46q1.47 0 2.13-.54c.66-.54.66-.9.66-1.62s-.24-1.25-.71-1.56-1.19-.47-2.14-.47h-1.39v4.2Zm17.81 2c0 1.59-.41 2.83-1.22 3.72s-1.95 1.34-3.4 1.34c-.91 0-1.71-.21-2.41-.62s-1.23-1-1.61-1.77-.56-1.66-.56-2.67c0-1.58.4-2.81 1.21-3.69s1.95-1.33 3.42-1.33 2.52.45 3.34 1.36 1.23 2.13 1.23 3.66m-7.08 0c0 2.24.83 3.37 2.49 3.37s2.46-1.12 2.46-3.37-.83-3.33-2.48-3.33c-.87 0-1.5.29-1.89.86s-.58 1.4-.58 2.47m18.07 0c0 1.59-.41 2.83-1.22 3.72s-1.95 1.34-3.4 1.34c-.91 0-1.71-.21-2.41-.62s-1.23-1-1.61-1.77-.56-1.66-.56-2.67c0-1.58.4-2.81 1.21-3.69s1.95-1.33 3.42-1.33 2.52.45 3.34 1.36 1.23 2.13 1.23 3.66m-7.07 0c0 2.24.83 3.37 2.49 3.37s2.46-1.12 2.46-3.37-.83-3.33-2.48-3.33c-.87 0-1.5.29-1.89.86s-.58 1.4-.58 2.47m17.64 4.87h-2.07v-5.99c0-.74-.14-1.3-.42-1.67s-.72-.55-1.32-.55c-.8 0-1.38.26-1.75.78s-.56 1.38-.56 2.59v4.84h-2.07v-9.72h1.62l.29 1.27h.11c.27-.46.66-.82 1.17-1.07s1.08-.38 1.69-.38q2.235 0 2.97 1.53h.14c.29-.48.69-.86 1.21-1.12s1.12-.4 1.79-.4c1.16 0 2 .29 2.54.88s.8 1.48.8 2.68v6.34h-2.07v-5.99c0-.74-.14-1.3-.43-1.67s-.72-.55-1.32-.55c-.8 0-1.39.25-1.76.75s-.56 1.27-.56 2.31v5.15Z"/>
  <path fill="none" stroke="#382f2c" stroke-linejoin="round" d="M141.48 263.22v-18.65c-10.3 0-18.65 8.35-18.65 18.65"/>
  <path fill="none" stroke="#382f2c" stroke-linejoin="round" stroke-width="2" d="M122.83 263.22H36.7V43.36h580.24v219.86H141.48"/>
  <path fill="#382f2c" d="M301.3 211.89h-2.29l-2.18-7.66c-.09-.33-.21-.82-.35-1.45s-.23-1.07-.25-1.31c-.06.38-.15.86-.29 1.46s-.24 1.04-.33 1.34l-2.13 7.63h-2.29l-1.66-6.43-1.69-6.42h2.14l1.84 7.49c.29 1.2.49 2.26.62 3.18.06-.5.16-1.05.29-1.67s.25-1.11.35-1.49l2.09-7.51h2.08l2.14 7.54c.21.7.42 1.74.65 3.13.09-.84.3-1.9.63-3.2l1.83-7.47h2.13l-3.35 12.85Zm11.03 0-.41-1.35h-.07c-.47.59-.94 1-1.42 1.21-.47.21-1.08.32-1.83.32-.96 0-1.7-.26-2.24-.77s-.8-1.25-.8-2.19c0-1 .37-1.76 1.12-2.27.74-.51 1.88-.79 3.4-.83l1.68-.05v-.52c0-.62-.15-1.09-.44-1.39-.29-.31-.74-.46-1.35-.46-.5 0-.98.07-1.43.22s-.9.32-1.32.52l-.67-1.48c.53-.28 1.1-.49 1.73-.63a8.2 8.2 0 0 1 1.78-.22c1.24 0 2.17.27 2.8.81s.95 1.39.95 2.54v6.55h-1.48Zm-3.08-1.4c.75 0 1.35-.21 1.81-.63.45-.42.68-1.01.68-1.76v-.84l-1.25.05c-.97.04-1.68.2-2.12.49s-.66.73-.66 1.33c0 .43.13.77.39 1.01s.64.36 1.16.36Zm7.31-10.89c0-.37.1-.65.3-.85s.49-.3.87-.3.65.1.85.3.3.48.3.85-.1.63-.3.83-.48.3-.85.3-.66-.1-.87-.3c-.2-.2-.3-.48-.3-.83m2.19 12.29h-2.07v-9.72h2.07zm6.58-1.49c.5 0 1.01-.08 1.51-.24v1.56c-.23.1-.52.18-.88.25s-.73.1-1.12.1q-2.94 0-2.94-3.09v-5.24h-1.33v-.91l1.42-.76.7-2.06h1.27v2.16h2.77v1.56h-2.77v5.2c0 .5.12.87.37 1.1.25.24.58.36.98.36Zm3.33-10.8c0-.37.1-.65.3-.85s.49-.3.87-.3.65.1.85.3.3.48.3.85-.1.63-.3.83-.48.3-.85.3-.66-.1-.87-.3c-.2-.2-.3-.48-.3-.83m2.18 12.29h-2.07v-9.72h2.07zm11.51 0h-2.07v-5.98q0-1.125-.45-1.68c-.45-.555-.78-.55-1.44-.55-.87 0-1.51.26-1.92.77s-.61 1.38-.61 2.59v4.84h-2.07v-9.72h1.62l.29 1.27h.11c.29-.46.71-.82 1.25-1.07s1.14-.38 1.79-.38c2.33 0 3.5 1.19 3.5 3.56v6.34Zm11.08-9.72v1.13l-1.66.31c.15.21.28.46.38.76s.15.62.15.95c0 1-.35 1.79-1.04 2.36s-1.64.86-2.86.86c-.31 0-.59-.02-.84-.07-.45.28-.67.6-.67.97 0 .22.1.39.31.5s.59.17 1.15.17h1.7c1.07 0 1.89.23 2.44.69s.83 1.12.83 1.98c0 1.1-.45 1.95-1.36 2.55s-2.22.9-3.94.9c-1.32 0-2.33-.23-3.03-.7s-1.05-1.14-1.05-2c0-.6.19-1.1.57-1.51s.91-.69 1.59-.85c-.28-.12-.5-.31-.68-.57a1.4 1.4 0 0 1-.27-.82c0-.36.1-.67.31-.92s.51-.5.91-.75c-.5-.22-.91-.57-1.23-1.06-.31-.49-.47-1.06-.47-1.72 0-1.05.33-1.87 1-2.45s1.61-.87 2.84-.87c.28 0 .56.02.87.06.3.04.53.08.68.12h3.37Zm-7.63 11.23c0 .45.2.79.6 1.03s.97.36 1.69.36c1.12 0 1.96-.16 2.51-.48s.83-.75.83-1.28q0-.63-.45-.9t-1.68-.27h-1.56q-.885 0-1.41.42c-.35.28-.52.66-.52 1.13Zm.88-8.08c0 .61.16 1.08.47 1.41s.76.49 1.35.49c1.2 0 1.79-.64 1.79-1.92 0-.63-.15-1.12-.44-1.46q-.45-.51-1.35-.51c-.9 0-1.05.17-1.36.51s-.46.83-.46 1.49Zm15.55 1.44v5.13h-2.1v-12.85h3.63c1.66 0 2.89.31 3.68.93s1.2 1.56 1.2 2.81c0 1.6-.83 2.74-2.5 3.42l3.63 5.69h-2.39l-3.08-5.13zm0-1.74h1.46q1.47 0 2.13-.54c.66-.54.66-.9.66-1.62s-.24-1.25-.71-1.56-1.19-.47-2.14-.47h-1.39v4.2Zm17.81 2c0 1.59-.41 2.83-1.22 3.72s-1.95 1.34-3.4 1.34c-.91 0-1.71-.21-2.41-.62s-1.23-1-1.61-1.77-.56-1.66-.56-2.67c0-1.58.4-2.81 1.21-3.69S374 202 375.47 202s2.52.45 3.34 1.36q1.23 1.35 1.23 3.66m-7.08 0c0 2.24.83 3.37 2.49 3.37s2.46-1.12 2.46-3.37-.83-3.33-2.48-3.33c-.87 0-1.5.29-1.89.86s-.58 1.4-.58 2.47m18.07 0c0 1.59-.41 2.83-1.22 3.72s-1.95 1.34-3.4 1.34c-.91 0-1.71-.21-2.41-.62s-1.23-1-1.61-1.77-.56-1.66-.56-2.67c0-1.58.4-2.81 1.21-3.69s1.95-1.33 3.42-1.33 2.52.45 3.34 1.36q1.23 1.35 1.23 3.66m-7.07 0c0 2.24.83 3.37 2.49 3.37s2.46-1.12 2.46-3.37-.83-3.33-2.48-3.33c-.87 0-1.5.29-1.89.86s-.58 1.4-.58 2.47m17.64 4.87h-2.07v-5.99c0-.74-.14-1.3-.42-1.67s-.72-.55-1.32-.55c-.8 0-1.38.26-1.75.78s-.56 1.38-.56 2.59v4.84h-2.07v-9.72h1.62l.29 1.27h.11c.27-.46.66-.82 1.17-1.07s1.08-.38 1.69-.38q2.235 0 2.97 1.53h.14c.29-.48.69-.86 1.21-1.12s1.12-.4 1.79-.4c1.16 0 2 .29 2.54.88s.8 1.48.8 2.68v6.34h-2.07v-5.99c0-.74-.14-1.3-.43-1.67-.28-.37-.72-.55-1.32-.55-.8 0-1.39.25-1.76.75s-.56 1.27-.56 2.31v5.15Z"/>
  <g stroke="#382f2c" stroke-miterlimit="10">
    <rect width="128.26" height="6.3" x="433.01" y="260.07" fill="#fff" rx=".2" ry=".2"/>
    <path fill="none" d="M433.01 263.1h128.26"/>
  </g>
  <g stroke="#382f2c" stroke-miterlimit="10">
    <rect width="45.42" height="6.3" x="14" y="202.82" fill="#fff" rx=".2" ry=".2" transform="rotate(-90 36.705 205.975)"/>
    <path fill="none" d="M36.59 228.68v-45.41"/>
  </g>
  <g stroke="#382f2c" stroke-miterlimit="10">
    <rect width="45.42" height="6.3" x="14" y="95.1" fill="#fff" rx=".2" ry=".2" transform="rotate(-90 36.7 98.25)"/>
    <path fill="none" d="M36.59 120.96V75.54"/>
  </g>
  <g stroke="#382f2c" stroke-miterlimit="10">
    <rect width="70.13" height="6.3" x="97.09" y="40.21" fill="#fff" rx=".2" ry=".2"/>
    <path fill="none" d="M97.09 43.24h70.13"/>
  </g>
  <g stroke="#382f2c" stroke-miterlimit="10">
    <rect width="70.13" height="6.3" x="291.75" y="40.21" fill="#fff" rx=".2" ry=".2"/>
    <path fill="none" d="M291.75 43.24h70.13"/>
  </g>
  <g stroke="#382f2c" stroke-miterlimit="10">
    <rect width="70.13" height="6.3" x="483.47" y="40.21" fill="#fff" rx=".2" ry=".2"/>
    <path fill="none" d="M483.47 43.24h70.13"/>
  </g>
  <g stroke="#382f2c" stroke-miterlimit="10">
    <rect width="128.26" height="6.3" x="262.69" y="260.07" fill="#fff" rx=".2" ry=".2"/>
    <path fill="none" d="M262.69 263.1h128.26"/>
  </g>
  <path d="M73.01 323.79c-.72.36-2.16.72-4.01.72-4.28 0-7.49-2.7-7.49-7.67s3.22-7.97 7.92-7.97c1.89 0 3.08.4 3.6.67l-.47 1.6c-.74-.36-1.8-.63-3.06-.63-3.56 0-5.92 2.27-5.92 6.26 0 3.71 2.14 6.1 5.83 6.1 1.19 0 2.41-.25 3.2-.63zm2.11-14.68h1.96v13.53h6.48v1.64h-8.44zm12.24 0v15.17H85.4v-15.17zm13.68 14.68c-.72.36-2.16.72-4.01.72-4.28 0-7.49-2.7-7.49-7.67s3.22-7.97 7.92-7.97c1.89 0 3.08.4 3.6.67l-.47 1.6c-.74-.36-1.8-.63-3.06-.63-3.56 0-5.92 2.27-5.92 6.26 0 3.71 2.14 6.1 5.83 6.1 1.19 0 2.41-.25 3.2-.63l.41 1.55Zm2.11-14.68h1.96v7.31h.07c.41-.58.81-1.12 1.19-1.62l4.64-5.69h2.43l-5.49 6.44 5.92 8.73h-2.32l-5-7.45-1.44 1.67v5.78h-1.96zm60.71 1.67h-4.61v-1.67h11.23v1.67h-4.64v13.5h-1.98zm20.32 5.76c0 5.22-3.17 7.99-7.04 7.99s-6.82-3.11-6.82-7.7c0-4.82 2.99-7.97 7.04-7.97s6.82 3.17 6.82 7.67Zm-11.77.25c0 3.24 1.76 6.14 4.84 6.14s4.86-2.86 4.86-6.3c0-3.02-1.58-6.17-4.84-6.17s-4.86 2.99-4.86 6.32Zm29.95 6.82c-.88.32-2.61.83-4.66.83-2.3 0-4.19-.59-5.67-2-1.31-1.26-2.12-3.29-2.12-5.65.02-4.52 3.13-7.83 8.21-7.83 1.76 0 3.13.38 3.78.7l-.47 1.6c-.81-.36-1.82-.65-3.35-.65-3.69 0-6.1 2.3-6.1 6.1s2.32 6.12 5.85 6.12c1.28 0 2.16-.18 2.61-.4v-4.52h-3.08v-1.58h5v7.29Zm15.62-7.07c0 5.22-3.17 7.99-7.04 7.99s-6.82-3.11-6.82-7.7c0-4.82 2.99-7.97 7.04-7.97s6.82 3.17 6.82 7.67Zm-11.77.25c0 3.24 1.76 6.14 4.84 6.14s4.86-2.86 4.86-6.3c0-3.02-1.58-6.17-4.84-6.17s-4.86 2.99-4.86 6.32Zm18.4-7.47c.86-.18 2.21-.31 3.58-.31 1.96 0 3.22.34 4.16 1.1.79.58 1.26 1.49 1.26 2.68 0 1.46-.97 2.75-2.57 3.33v.04c1.44.36 3.13 1.55 3.13 3.8 0 1.3-.52 2.29-1.28 3.04-1.06.97-2.77 1.42-5.24 1.42-1.35 0-2.39-.09-3.04-.18zm1.96 6.21h1.78c2.07 0 3.29-1.08 3.29-2.54 0-1.78-1.35-2.48-3.33-2.48-.9 0-1.42.07-1.73.13v4.88Zm0 7.27c.38.07.95.09 1.64.09 2.03 0 3.89-.74 3.89-2.95 0-2.07-1.78-2.93-3.92-2.93h-1.62v5.79Zm12.35-3.29-1.58 4.77h-2.03l5.15-15.17h2.36l5.18 15.17h-2.09l-1.62-4.77h-5.38Zm4.98-1.53-1.49-4.37c-.34-.99-.56-1.89-.79-2.77h-.04c-.23.9-.47 1.82-.77 2.75l-1.49 4.39h4.57Zm16.26 5.81c-.72.36-2.16.72-4.01.72-4.28 0-7.49-2.7-7.49-7.67s3.22-7.97 7.92-7.97c1.89 0 3.08.4 3.6.67l-.47 1.6c-.74-.36-1.8-.63-3.06-.63-3.56 0-5.92 2.27-5.92 6.26 0 3.71 2.14 6.1 5.83 6.1 1.19 0 2.41-.25 3.2-.63l.41 1.55Zm2.12-14.68h1.96v7.31h.07c.4-.58.81-1.12 1.19-1.62l4.64-5.69h2.43l-5.49 6.44 5.92 8.73h-2.32l-5-7.45-1.44 1.67v5.78h-1.96zm18.24 1.67h-4.61v-1.67h11.23v1.67h-4.64v13.5h-1.98zm20.32 5.76c0 5.22-3.17 7.99-7.04 7.99s-6.82-3.11-6.82-7.7c0-4.82 2.99-7.97 7.04-7.97s6.82 3.17 6.82 7.67Zm-11.77.25c0 3.24 1.76 6.14 4.84 6.14s4.86-2.86 4.86-6.3c0-3.02-1.58-6.17-4.84-6.17s-4.86 2.99-4.86 6.32Zm20.37-6.01h-4.61v-1.67h11.23v1.67h-4.64v13.5h-1.98zm9.92-1.67v6.35h7.34v-6.35h1.98v15.17h-1.98v-7.11h-7.34v7.11h-1.96v-15.17zm20.23 8.06h-5.9v5.47h6.57v1.64h-8.53v-15.17h8.19v1.64h-6.23v4.79h5.9v1.62Zm7.31-7.85c.99-.2 2.41-.31 3.76-.31 2.09 0 3.44.38 4.39 1.24.77.67 1.19 1.71 1.19 2.88 0 2-1.26 3.33-2.86 3.87v.07c1.17.41 1.87 1.49 2.23 3.06.5 2.12.86 3.58 1.17 4.16h-2.03c-.25-.43-.59-1.73-1.01-3.62-.45-2.09-1.26-2.88-3.04-2.95h-1.85v6.57h-1.96v-14.97Zm1.96 6.91h2c2.09 0 3.42-1.15 3.42-2.88 0-1.96-1.42-2.81-3.49-2.84-.95 0-1.62.09-1.94.18v5.54Zm22.84.31c0 5.22-3.17 7.99-7.04 7.99s-6.82-3.11-6.82-7.7c0-4.82 2.99-7.97 7.04-7.97s6.82 3.17 6.82 7.67Zm-11.78.25c0 3.24 1.76 6.14 4.84 6.14s4.86-2.86 4.86-6.3c0-3.02-1.58-6.17-4.84-6.17s-4.86 2.99-4.86 6.32Zm26.94-.25c0 5.22-3.17 7.99-7.04 7.99s-6.82-3.11-6.82-7.7c0-4.82 2.99-7.97 7.04-7.97s6.82 3.17 6.82 7.67Zm-11.77.25c0 3.24 1.76 6.14 4.84 6.14s4.86-2.86 4.86-6.3c0-3.02-1.58-6.17-4.84-6.17s-4.86 2.99-4.86 6.32Zm26.76.83c-.11-2.12-.25-4.66-.22-6.55h-.07c-.52 1.78-1.15 3.67-1.91 5.76l-2.68 7.36h-1.49l-2.45-7.22c-.72-2.14-1.33-4.1-1.76-5.9h-.04c-.04 1.89-.16 4.43-.29 6.71l-.41 6.5h-1.87l1.06-15.17h2.5l2.59 7.34c.63 1.87 1.15 3.53 1.53 5.11h.07c.38-1.53.92-3.2 1.6-5.11l2.7-7.34h2.5l.95 15.17h-1.91l-.38-6.66Zm4.69 4.28c.88.54 2.16.99 3.51.99 2 0 3.17-1.06 3.17-2.59 0-1.42-.81-2.23-2.86-3.02-2.48-.88-4.01-2.16-4.01-4.3 0-2.36 1.96-4.12 4.91-4.12 1.55 0 2.68.36 3.35.74l-.54 1.6c-.5-.27-1.51-.72-2.88-.72-2.07 0-2.86 1.24-2.86 2.27 0 1.42.92 2.12 3.02 2.93 2.57.99 3.87 2.23 3.87 4.46 0 2.34-1.73 4.37-5.31 4.37-1.46 0-3.06-.43-3.87-.97zm17.8 2.38v-6.44l-4.79-8.73h2.23l2.14 4.19c.58 1.15 1.04 2.07 1.51 3.13h.04c.43-.99.95-1.98 1.53-3.13l2.18-4.19h2.23l-5.09 8.71v6.46zm20.62-7.74c0 5.22-3.17 7.99-7.04 7.99s-6.82-3.11-6.82-7.7c0-4.82 2.99-7.97 7.04-7.97s6.82 3.17 6.82 7.67Zm-11.78.25c0 3.24 1.76 6.14 4.84 6.14s4.86-2.86 4.86-6.3c0-3.02-1.58-6.17-4.84-6.17s-4.86 2.99-4.86 6.32Zm15.93-7.68v8.98c0 3.4 1.51 4.84 3.53 4.84 2.25 0 3.69-1.49 3.69-4.84v-8.98h1.98v8.84c0 4.66-2.45 6.57-5.74 6.57-3.11 0-5.45-1.78-5.45-6.48v-8.93h1.98Zm18.66 0v6.35h7.34v-6.35h1.98v15.17h-1.98v-7.11h-7.34v7.11h-1.96v-15.17zm14.82 10.4-1.58 4.77h-2.03l5.15-15.17h2.36l5.18 15.17h-2.09l-1.62-4.77h-5.38Zm4.98-1.53-1.49-4.37c-.34-.99-.56-1.89-.79-2.77h-.04c-.23.9-.47 1.82-.77 2.75l-1.49 4.39h4.57Zm8.14 6.3-4.95-15.17h2.12l2.36 7.47c.65 2.05 1.21 3.89 1.62 5.67h.05c.43-1.76 1.06-3.67 1.73-5.65l2.57-7.5h2.09l-5.42 15.17h-2.16Zm16.74-7.11h-5.9v5.47h6.57v1.64h-8.53v-15.17h8.19v1.64h-6.23v4.79h5.9v1.62Zm9.83 7.11-4.95-15.17h2.12l2.36 7.47c.65 2.05 1.21 3.89 1.62 5.67h.04c.43-1.76 1.06-3.67 1.73-5.65l2.57-7.5h2.09l-5.42 15.17h-2.16Zm10.85-15.17v15.17h-1.96v-15.17zm2.81 12.79c.88.54 2.16.99 3.51.99 2 0 3.17-1.06 3.17-2.59 0-1.42-.81-2.23-2.86-3.02-2.48-.88-4.01-2.16-4.01-4.3 0-2.36 1.96-4.12 4.91-4.12 1.55 0 2.68.36 3.35.74l-.54 1.6c-.5-.27-1.51-.72-2.88-.72-2.07 0-2.86 1.24-2.86 2.27 0 1.42.92 2.12 3.02 2.93 2.57.99 3.87 2.23 3.87 4.46 0 2.34-1.73 4.37-5.31 4.37-1.46 0-3.06-.43-3.87-.97zm12.98-12.79v15.17h-1.96v-15.17zm5.97 1.67h-4.61v-1.67h11.23v1.67h-4.64v13.5h-1.98zm15.82 6.39h-5.9v5.47h6.57v1.64h-8.53v-15.17h8.19v1.64h-6.23v4.79h5.9v1.62Zm2.87-7.85c1.19-.18 2.61-.31 4.16-.31 2.81 0 4.82.65 6.14 1.89 1.35 1.24 2.14 2.99 2.14 5.45s-.76 4.5-2.18 5.9c-1.42 1.42-3.76 2.18-6.71 2.18-1.4 0-2.57-.07-3.56-.18v-14.92Zm1.96 13.41c.5.09 1.22.11 1.98.11 4.19 0 6.46-2.34 6.46-6.44.02-3.58-2-5.85-6.14-5.85-1.01 0-1.78.09-2.3.2v11.97Zm11.38.38c0-.83.56-1.42 1.35-1.42s1.33.59 1.33 1.42-.52 1.42-1.35 1.42c-.79 0-1.33-.61-1.33-1.42"/>
  <use xlink:href="#b" width="49.27" height="49.27" transform="matrix(.65 0 0 .65 121.19 300.06)"/>
</svg>
