<svg xmlns="http://www.w3.org/2000/svg" xmlns:xlink="http://www.w3.org/1999/xlink" viewBox="0 0 1424.84 389.89">
  <defs>
    <symbol id="b" data-name="checkmark 2" viewBox="0 0 49.27 49.27">
      <g data-name="Isolation Mode">
        <circle cx="24.63" cy="24.63" r="24.13" fill="#00949c" stroke="#fff" stroke-miterlimit="10"/>
        <path fill="#fff" d="M21.86 33.81c-.53 0-1.04-.21-1.41-.59l-5.86-5.86a.284.284 0 0 1 0-.4l2.43-2.43c.11-.11.29-.11.4 0l4.44 4.44 11.55-11.55c.11-.11.29-.11.4 0l2.43 2.43c.11.11.11.29 0 .4L23.28 33.21c-.38.38-.88.59-1.41.59Z"/>
      </g>
    </symbol>
    <symbol id="c" viewBox="0 0 37.55 35.18">
      <path fill="#382f2c" d="M34.34 10.65h-3.55V5.69C30.79 2.55 28.24 0 25.1 0H12.44C9.3 0 6.75 2.55 6.75 5.69v4.96H3.2c-1.77 0-3.21 1.44-3.21 3.21v18.12c0 1.77 1.44 3.21 3.21 3.21h31.13c1.77 0 3.21-1.44 3.21-3.21V13.86c0-1.77-1.44-3.21-3.21-3.21ZM19.36 24.33v2.57h1.72v1.17h-1.72v1.4h-1.18v-5.15c-1.94-.29-3.43-1.94-3.43-3.95a4.01 4.01 0 1 1 8.02 0 3.99 3.99 0 0 1-3.43 3.95Zm8.63-13.68H9.56V5.69a2.88 2.88 0 0 1 2.88-2.88H25.1a2.88 2.88 0 0 1 2.88 2.88v4.96Z"/>
    </symbol>
    <symbol id="a" viewBox="0 0 37.24 46.52">
      <path fill="#ffcb39" stroke="#fff" stroke-miterlimit="10" d="M18.62.5C8.61.5.5 8.61.5 18.62c0 7.94 11.42 21.34 16.13 26.52a2.68 2.68 0 0 0 3.98 0c4.71-5.18 16.13-18.57 16.13-26.52C36.74 8.61 28.62.5 18.62.5Zm0 26.18c-5.1 0-9.24-4.1-9.24-9.21s4.14-9.22 9.24-9.22 9.23 4.14 9.23 9.22-4.14 9.21-9.23 9.21Z"/>
    </symbol>
    <filter id="d" width="511.31" height="98.91" x="265.43" y="0" filterUnits="userSpaceOnUse">
      <feOffset dx="1" dy="1"/>
      <feGaussianBlur result="blur" stdDeviation="0"/>
      <feFlood flood-color="#fff" flood-opacity="1"/>
      <feComposite in2="blur" operator="in"/>
      <feComposite in="SourceGraphic"/>
    </filter>
    <filter id="e" width="492.42" height="19.82" x="250.04" y="214.1" filterUnits="userSpaceOnUse">
      <feOffset dx="1" dy="1"/>
      <feGaussianBlur result="blur-2" stdDeviation="0"/>
      <feFlood flood-color="#fff" flood-opacity="1"/>
      <feComposite in2="blur-2" operator="in"/>
      <feComposite in="SourceGraphic"/>
    </filter>
    <filter id="f" width="262.13" height="140.12" x="480.33" y="154" filterUnits="userSpaceOnUse">
      <feOffset dx="1" dy="1"/>
      <feGaussianBlur result="blur-3" stdDeviation="0"/>
      <feFlood flood-color="#fff" flood-opacity="1"/>
      <feComposite in2="blur-3" operator="in"/>
      <feComposite in="SourceGraphic"/>
    </filter>
  </defs>
  <path d="M832.34 137.19h-2.08v-16h-5.65v-1.84h13.38v1.84h-5.65zm16.94 0v-8.65c0-1.09-.25-1.9-.75-2.44s-1.27-.81-2.33-.81c-1.41 0-2.44.38-3.08 1.15-.65.77-.97 2.02-.97 3.76v6.99h-2.03V118.2h2.03v5.75c0 .69-.03 1.27-.1 1.72h.12c.4-.64.97-1.15 1.7-1.52.74-.37 1.58-.56 2.52-.56 1.64 0 2.86.39 3.68 1.17s1.23 2.01 1.23 3.7v8.73h-2.03Zm11.59.25c-1.98 0-3.54-.6-4.68-1.81-1.14-1.2-1.71-2.88-1.71-5.02s.53-3.87 1.59-5.14 2.49-1.9 4.28-1.9c1.68 0 3 .55 3.98 1.65s1.46 2.56 1.46 4.36v1.28h-9.22c.04 1.57.44 2.76 1.19 3.58.75.81 1.81 1.22 3.18 1.22 1.44 0 2.87-.3 4.27-.9v1.81c-.72.31-1.39.53-2.03.67s-1.41.2-2.31.2m-.55-12.17c-1.07 0-1.93.35-2.57 1.05s-1.02 1.67-1.13 2.91h6.99c0-1.28-.29-2.26-.85-2.94-.57-.68-1.38-1.02-2.44-1.02m21.14 12.17c-.87 0-1.67-.16-2.39-.48s-1.32-.82-1.81-1.48h-.15q.15 1.17.15 2.22v5.51h-2.03v-19.38h1.65l.28 1.83h.1c.52-.73 1.13-1.26 1.82-1.59s1.48-.49 2.38-.49c1.77 0 3.14.61 4.11 1.82.96 1.21 1.45 2.91 1.45 5.1s-.49 3.9-1.47 5.12-2.34 1.82-4.08 1.82Zm-.29-12.15q-2.055 0-2.97 1.14c-.61.76-.92 1.96-.94 3.61v.45c0 1.88.31 3.22.94 4.03s1.63 1.21 3.01 1.21c1.16 0 2.06-.47 2.72-1.4.66-.94.98-2.23.98-3.87s-.33-2.95-.98-3.84-1.58-1.34-2.76-1.34Zm8.96-5.1c0-.46.11-.8.34-1.02s.51-.32.85-.32.61.11.84.33c.24.22.35.56.35 1.01s-.12.8-.35 1.02c-.24.22-.52.34-.84.34-.34 0-.63-.11-.85-.34-.23-.22-.34-.56-.34-1.02m2.2 17h-2.03v-13.38h2.03zm13.2 0v-8.65c0-1.09-.25-1.9-.75-2.44s-1.27-.81-2.33-.81c-1.4 0-2.42.38-3.08 1.14s-.98 2.01-.98 3.75v7.02h-2.03v-13.38h1.65l.33 1.83h.1c.42-.66 1-1.17 1.75-1.53s1.58-.54 2.5-.54c1.61 0 2.82.39 3.64 1.17.81.78 1.22 2.02 1.22 3.73v8.73h-2.03Zm20.82-3.65c0 1.25-.46 2.21-1.39 2.88-.93.68-2.23 1.01-3.91 1.01-1.77 0-3.16-.28-4.15-.84v-1.88c.64.33 1.33.58 2.07.77s1.45.28 2.13.28c1.06 0 1.87-.17 2.44-.51s.86-.85.86-1.54c0-.52-.23-.97-.68-1.34s-1.33-.81-2.64-1.31c-1.25-.46-2.13-.87-2.66-1.21-.53-.35-.92-.74-1.17-1.18-.26-.44-.38-.96-.38-1.57 0-1.09.44-1.95 1.33-2.58s2.1-.95 3.65-.95c1.44 0 2.85.29 4.22.88l-.72 1.65c-1.34-.55-2.56-.83-3.65-.83-.96 0-1.68.15-2.17.45s-.73.72-.73 1.25c0 .36.09.66.27.92.18.25.48.49.89.72q.615.345 2.34.99c1.59.58 2.66 1.16 3.22 1.75s.84 1.32.84 2.21Zm12.2 3.65v-8.65c0-1.09-.25-1.9-.75-2.44s-1.27-.81-2.33-.81c-1.41 0-2.44.38-3.08 1.15-.65.77-.97 2.02-.97 3.76v6.99h-2.03V118.2h2.03v5.75c0 .69-.03 1.27-.1 1.72h.12c.4-.64.97-1.15 1.7-1.52.74-.37 1.58-.56 2.52-.56 1.64 0 2.86.39 3.68 1.17s1.23 2.01 1.23 3.7v8.73h-2.03Zm17.49-6.7c0 2.18-.55 3.88-1.65 5.11-1.1 1.22-2.62 1.84-4.55 1.84-1.2 0-2.26-.28-3.19-.84s-1.64-1.37-2.15-2.42c-.5-1.05-.76-2.28-.76-3.69 0-2.18.54-3.88 1.63-5.1s2.6-1.82 4.54-1.82 3.36.62 4.46 1.87 1.65 2.93 1.65 5.05Zm-10.2 0c0 1.71.34 3.01 1.03 3.91.68.9 1.69 1.34 3.01 1.34s2.33-.45 3.02-1.34 1.03-2.2 1.03-3.91-.34-2.99-1.03-3.88c-.69-.88-1.7-1.32-3.05-1.32s-2.33.44-3 1.31c-.68.87-1.01 2.17-1.01 3.89m24.42 6.7-2.45-7.85q-.225-.72-.87-3.27h-.1c-.33 1.42-.61 2.52-.86 3.3l-2.53 7.82h-2.34l-3.65-13.38h2.12c.86 3.36 1.52 5.92 1.97 7.68s.71 2.94.78 3.55h.1c.09-.46.23-1.06.43-1.8s.37-1.32.52-1.75l2.45-7.68h2.2l2.39 7.68c.46 1.4.77 2.58.93 3.53h.1c.03-.29.12-.74.26-1.35s.99-3.89 2.55-9.85h2.1l-3.7 13.38h-2.4Zm16.9-3.65c0 1.25-.46 2.21-1.39 2.88-.93.68-2.23 1.01-3.91 1.01-1.77 0-3.16-.28-4.15-.84v-1.88c.64.33 1.33.58 2.07.77s1.45.28 2.13.28c1.06 0 1.87-.17 2.44-.51s.86-.85.86-1.54c0-.52-.23-.97-.68-1.34s-1.33-.81-2.64-1.31c-1.25-.46-2.13-.87-2.66-1.21-.53-.35-.92-.74-1.17-1.18-.26-.44-.38-.96-.38-1.57 0-1.09.44-1.95 1.33-2.58s2.1-.95 3.65-.95c1.44 0 2.85.29 4.22.88l-.72 1.65c-1.34-.55-2.56-.83-3.65-.83-.96 0-1.68.15-2.17.45s-.73.72-.73 1.25c0 .36.09.66.27.92.18.25.48.49.89.72q.615.345 2.34.99c1.59.58 2.66 1.16 3.22 1.75s.84 1.32.84 2.21Zm20.22 3.65-2.45-7.85q-.225-.72-.87-3.27h-.1c-.33 1.42-.61 2.52-.86 3.3l-2.53 7.82h-2.34l-3.65-13.38h2.12c.86 3.36 1.52 5.92 1.97 7.68s.71 2.94.78 3.55h.1c.09-.46.23-1.06.43-1.8s.37-1.32.52-1.75l2.45-7.68h2.2l2.39 7.68c.46 1.4.77 2.58.93 3.53h.1c.03-.29.12-.74.26-1.35s.99-3.89 2.55-9.85h2.1l-3.7 13.38h-2.4Zm17.42 0v-8.65c0-1.09-.25-1.9-.75-2.44s-1.27-.81-2.33-.81c-1.41 0-2.44.38-3.08 1.15-.65.77-.97 2.02-.97 3.76v6.99h-2.03V118.2h2.03v5.75c0 .69-.03 1.27-.1 1.72h.12c.4-.64.97-1.15 1.7-1.52.74-.37 1.58-.56 2.52-.56 1.64 0 2.86.39 3.68 1.17s1.23 2.01 1.23 3.7v8.73h-2.03Zm5.77-17c0-.46.11-.8.34-1.02s.51-.32.85-.32.61.11.84.33c.24.22.35.56.35 1.01s-.12.8-.35 1.02c-.24.22-.52.34-.84.34-.34 0-.63-.11-.85-.34-.23-.22-.34-.56-.34-1.02m2.2 17h-2.03v-13.38h2.03zm9.39.25c-1.94 0-3.44-.6-4.5-1.79s-1.59-2.88-1.59-5.06.54-3.97 1.62-5.19 2.61-1.83 4.61-1.83c.64 0 1.29.07 1.93.21s1.15.3 1.51.49l-.62 1.72a10 10 0 0 0-1.46-.45c-.53-.12-1-.18-1.4-.18-2.72 0-4.08 1.73-4.08 5.2 0 1.64.33 2.91.99 3.78s1.65 1.32 2.95 1.32c1.12 0 2.26-.24 3.43-.72v1.79c-.9.46-2.02.7-3.38.7Zm15.46-.25v-8.65c0-1.09-.25-1.9-.75-2.44s-1.27-.81-2.33-.81c-1.41 0-2.44.38-3.08 1.15-.65.77-.97 2.02-.97 3.76v6.99h-2.03V118.2h2.03v5.75c0 .69-.03 1.27-.1 1.72h.12c.4-.64.97-1.15 1.7-1.52.74-.37 1.58-.56 2.52-.56 1.64 0 2.86.39 3.68 1.17s1.23 2.01 1.23 3.7v8.73h-2.03Zm18.29-13.62c.59 0 1.13.05 1.6.15l-.28 1.88c-.55-.12-1.04-.18-1.46-.18-1.08 0-2.01.44-2.78 1.32s-1.15 1.97-1.15 3.28v7.18h-2.03v-13.38h1.67l.23 2.48h.1c.5-.87 1.09-1.54 1.79-2.01s1.47-.71 2.31-.71Zm15.4 6.92c0 2.18-.55 3.88-1.65 5.11-1.1 1.22-2.62 1.84-4.55 1.84-1.2 0-2.26-.28-3.19-.84s-1.64-1.37-2.15-2.42c-.5-1.05-.76-2.28-.76-3.69 0-2.18.54-3.88 1.63-5.1s2.6-1.82 4.54-1.82 3.36.62 4.46 1.87 1.65 2.93 1.65 5.05Zm-10.2 0c0 1.71.34 3.01 1.03 3.91.68.9 1.69 1.34 3.01 1.34s2.33-.45 3.02-1.34 1.03-2.2 1.03-3.91-.34-2.99-1.03-3.88c-.69-.88-1.7-1.32-3.05-1.32s-2.33.44-3 1.31c-.68.87-1.01 2.17-1.01 3.89m25.05 0c0 2.18-.55 3.88-1.65 5.11-1.1 1.22-2.62 1.84-4.55 1.84-1.2 0-2.26-.28-3.19-.84s-1.64-1.37-2.15-2.42c-.5-1.05-.76-2.28-.76-3.69 0-2.18.54-3.88 1.63-5.1s2.6-1.82 4.54-1.82 3.36.62 4.46 1.87 1.65 2.93 1.65 5.05Zm-10.2 0c0 1.71.34 3.01 1.03 3.91.68.9 1.69 1.34 3.01 1.34s2.33-.45 3.02-1.34 1.03-2.2 1.03-3.91-.34-2.99-1.03-3.88c-.69-.88-1.7-1.32-3.05-1.32s-2.33.44-3 1.31c-.68.87-1.01 2.17-1.01 3.89m30.55 6.7v-8.7c0-1.07-.23-1.87-.68-2.4-.46-.53-1.16-.8-2.12-.8-1.26 0-2.19.36-2.8 1.09-.6.72-.9 1.84-.9 3.34v7.47h-2.03v-8.7c0-1.07-.23-1.87-.68-2.4-.46-.53-1.17-.8-2.14-.8q-1.905 0-2.79 1.14c-.59.76-.88 2.01-.88 3.74v7.02h-2.03v-13.38h1.65l.33 1.83h.1q.57-.975 1.62-1.53c.7-.37 1.48-.55 2.34-.55 2.09 0 3.46.76 4.1 2.27h.1c.4-.7.98-1.25 1.73-1.66.76-.41 1.62-.61 2.59-.61 1.51 0 2.65.39 3.4 1.17s1.13 2.02 1.13 3.73v8.73h-2.03Zm10.07-13.38h2.17l2.93 7.63c.64 1.74 1.04 3 1.2 3.77h.1c.11-.42.33-1.12.67-2.13s1.44-4.1 3.31-9.27h2.17l-5.75 15.23c-.57 1.51-1.24 2.57-2 3.2s-1.7.95-2.8.95q-.93 0-1.83-.21v-1.62q.675.15 1.5.15c1.39 0 2.38-.78 2.98-2.34l.74-1.9-5.4-13.45Zm26.02 6.68c0 2.18-.55 3.88-1.65 5.11-1.1 1.22-2.62 1.84-4.55 1.84-1.2 0-2.26-.28-3.19-.84s-1.64-1.37-2.15-2.42c-.5-1.05-.76-2.28-.76-3.69 0-2.18.54-3.88 1.63-5.1s2.6-1.82 4.54-1.82 3.36.62 4.46 1.87 1.65 2.93 1.65 5.05Zm-10.19 0c0 1.71.34 3.01 1.03 3.91.68.9 1.69 1.34 3.01 1.34s2.33-.45 3.02-1.34 1.03-2.2 1.03-3.91-.34-2.99-1.03-3.88c-.69-.88-1.7-1.32-3.05-1.32s-2.33.44-3 1.31c-.68.87-1.01 2.17-1.01 3.89m15.4-6.68v8.68c0 1.09.25 1.9.74 2.44.5.54 1.27.81 2.33.81 1.4 0 2.42-.38 3.07-1.15.65-.76.97-2.01.97-3.75v-7.03h2.03v13.38h-1.67l-.29-1.79h-.11c-.42.66-.99 1.16-1.73 1.51s-1.58.52-2.52.52c-1.63 0-2.85-.39-3.66-1.16s-1.21-2.01-1.21-3.71v-8.75zm27.66 13.38-.4-1.9h-.1c-.67.84-1.33 1.41-2 1.7-.66.3-1.49.45-2.48.45-1.33 0-2.37-.34-3.12-1.03s-1.13-1.66-1.13-2.92c0-2.7 2.16-4.12 6.48-4.25l2.27-.07v-.83c0-1.05-.23-1.82-.68-2.33-.45-.5-1.17-.75-2.17-.75-1.12 0-2.38.34-3.78 1.03l-.62-1.55c.66-.36 1.38-.64 2.17-.84s1.57-.31 2.36-.31c1.59 0 2.78.35 3.55 1.06s1.15 1.84 1.15 3.41v9.13zm-4.58-1.43c1.26 0 2.25-.35 2.97-1.04q1.08-1.035 1.08-2.91v-1.21l-2.03.09q-2.415.09-3.48.75c-.71.44-1.07 1.13-1.07 2.07 0 .73.22 1.29.67 1.67q.66.57 1.86.57Zm16.11-12.19c.59 0 1.13.05 1.6.15l-.28 1.88c-.55-.12-1.04-.18-1.46-.18-1.08 0-2.01.44-2.78 1.32s-1.15 1.97-1.15 3.28v7.18h-2.03v-13.38h1.67l.23 2.48h.1c.5-.87 1.09-1.54 1.79-2.01s1.47-.71 2.31-.71Zm9.5 13.87c-1.98 0-3.54-.6-4.68-1.81-1.14-1.2-1.71-2.88-1.71-5.02s.53-3.87 1.59-5.14 2.49-1.9 4.28-1.9c1.68 0 3 .55 3.98 1.65s1.46 2.56 1.46 4.36v1.28h-9.22c.04 1.57.44 2.76 1.19 3.58.75.81 1.81 1.22 3.18 1.22 1.44 0 2.87-.3 4.27-.9v1.81c-.72.31-1.39.53-2.03.67s-1.41.2-2.31.2m-.55-12.17c-1.07 0-1.93.35-2.57 1.05s-1.02 1.67-1.13 2.91h6.99c0-1.28-.29-2.26-.85-2.94-.57-.68-1.38-1.02-2.44-1.02m20.27 12.17c-1.94 0-3.44-.6-4.5-1.79s-1.59-2.88-1.59-5.06.54-3.97 1.62-5.19 2.61-1.83 4.61-1.83c.64 0 1.29.07 1.93.21s1.15.3 1.51.49l-.62 1.72a10 10 0 0 0-1.46-.45c-.53-.12-1-.18-1.4-.18-2.72 0-4.08 1.73-4.08 5.2 0 1.64.33 2.91.99 3.78s1.65 1.32 2.95 1.32c1.12 0 2.26-.24 3.43-.72v1.79c-.9.46-2.02.7-3.38.7Zm8.21-13.63v8.68c0 1.09.25 1.9.74 2.44.5.54 1.27.81 2.33.81 1.4 0 2.42-.38 3.07-1.15.65-.76.97-2.01.97-3.75v-7.03h2.03v13.38h-1.67l-.29-1.79h-.11c-.42.66-.99 1.16-1.73 1.51s-1.58.52-2.52.52c-1.63 0-2.85-.39-3.66-1.16s-1.21-2.01-1.21-3.71v-8.75zm19.29-.24c.59 0 1.13.05 1.6.15l-.28 1.88c-.55-.12-1.04-.18-1.46-.18-1.08 0-2.01.44-2.78 1.32s-1.15 1.97-1.15 3.28v7.18h-2.03v-13.38h1.67l.23 2.48h.1c.5-.87 1.09-1.54 1.79-2.01s1.47-.71 2.31-.71Zm9.95 0c.59 0 1.13.05 1.6.15l-.28 1.88c-.55-.12-1.04-.18-1.46-.18-1.08 0-2.01.44-2.78 1.32s-1.15 1.97-1.15 3.28v7.18h-2.03v-13.38h1.67l.23 2.48h.1c.5-.87 1.09-1.54 1.79-2.01s1.47-.71 2.31-.71Zm9.51 13.87c-1.98 0-3.54-.6-4.68-1.81-1.14-1.2-1.71-2.88-1.71-5.02s.53-3.87 1.59-5.14 2.49-1.9 4.28-1.9c1.68 0 3 .55 3.98 1.65s1.46 2.56 1.46 4.36v1.28h-9.22c.04 1.57.44 2.76 1.19 3.58.75.81 1.81 1.22 3.18 1.22 1.44 0 2.87-.3 4.27-.9v1.81c-.72.31-1.39.53-2.03.67s-1.41.2-2.31.2m-.55-12.17c-1.07 0-1.93.35-2.57 1.05s-1.02 1.67-1.13 2.91h6.99c0-1.28-.29-2.26-.85-2.94-.57-.68-1.38-1.02-2.44-1.02m17.83 11.92v-8.65c0-1.09-.25-1.9-.75-2.44s-1.27-.81-2.33-.81c-1.4 0-2.42.38-3.08 1.14s-.98 2.01-.98 3.75v7.02h-2.03v-13.38h1.65l.33 1.83h.1c.42-.66 1-1.17 1.75-1.53s1.58-.54 2.5-.54c1.61 0 2.82.39 3.64 1.17.81.78 1.22 2.02 1.22 3.73v8.73h-2.03Zm10.26-1.43c.36 0 .7-.03 1.04-.08.33-.05.6-.11.79-.16v1.55c-.22.11-.54.19-.97.26s-.81.1-1.15.1c-2.59 0-3.88-1.36-3.88-4.09v-7.96h-1.92v-.98l1.92-.84.85-2.86h1.17v3.1h3.88v1.57h-3.88v7.87c0 .81.19 1.42.57 1.86.38.43.91.65 1.58.65Zm6.28 1.43h-2.03V118.2h2.03zm1.92-13.38h2.17l2.93 7.63c.64 1.74 1.04 3 1.2 3.77h.1c.11-.42.33-1.12.67-2.13s1.44-4.1 3.31-9.27h2.17l-5.75 15.23c-.57 1.51-1.24 2.57-2 3.2s-1.7.95-2.8.95q-.93 0-1.83-.21v-1.62q.675.15 1.5.15c1.39 0 2.38-.78 2.98-2.34l.74-1.9-5.4-13.45Zm20.55-3.62c0-.46.11-.8.34-1.02s.51-.32.85-.32.61.11.84.33c.24.22.35.56.35 1.01s-.12.8-.35 1.02c-.24.22-.52.34-.84.34-.34 0-.63-.11-.85-.34-.23-.22-.34-.56-.34-1.02m2.19 17h-2.03v-13.38h2.03zm13.21 0v-8.65c0-1.09-.25-1.9-.75-2.44s-1.27-.81-2.33-.81c-1.4 0-2.42.38-3.08 1.14s-.98 2.01-.98 3.75v7.02h-2.03v-13.38h1.65l.33 1.83h.1c.42-.66 1-1.17 1.75-1.53s1.58-.54 2.5-.54c1.61 0 2.82.39 3.64 1.17.81.78 1.22 2.02 1.22 3.73v8.73h-2.03Zm5.64-1.29c0-.55.12-.96.37-1.24s.6-.42 1.07-.42.84.14 1.1.42.4.69.4 1.24-.13.94-.4 1.22-.63.43-1.1.43c-.42 0-.76-.13-1.03-.38-.27-.26-.41-.68-.41-1.26Z"/>
  <use xlink:href="#a" width="37.24" height="46.52" transform="translate(756.6 104.14)"/>
  <path d="m838.06 222.98-2.22-5.68h-7.15l-2.2 5.68h-2.1l7.06-17.92h1.74l7.02 17.92zm-2.86-7.54-2.07-5.53c-.27-.7-.54-1.56-.83-2.58-.18.78-.44 1.64-.77 2.58l-2.1 5.53zm18.5 7.78c-1.94 0-3.44-.6-4.5-1.79s-1.59-2.88-1.59-5.06.54-3.97 1.62-5.19 2.62-1.83 4.61-1.83c.64 0 1.29.07 1.93.21s1.15.3 1.51.49l-.62 1.72a10 10 0 0 0-1.46-.45c-.53-.12-1-.18-1.4-.18-2.72 0-4.08 1.73-4.08 5.2 0 1.64.33 2.91.99 3.78.66.88 1.65 1.32 2.95 1.32 1.12 0 2.26-.24 3.43-.72v1.79c-.89.46-2.02.7-3.38.7Zm15.46-.24v-8.65c0-1.09-.25-1.9-.74-2.44s-1.27-.81-2.33-.81c-1.41 0-2.44.38-3.08 1.15-.65.77-.97 2.02-.97 3.76v6.99h-2.03v-18.99h2.03v5.75c0 .69-.03 1.27-.1 1.72h.12c.4-.64.96-1.15 1.7-1.52s1.58-.56 2.52-.56c1.64 0 2.86.39 3.68 1.17s1.23 2.01 1.23 3.7v8.73zm11.59.24c-1.98 0-3.54-.6-4.68-1.81-1.14-1.2-1.71-2.88-1.71-5.02s.53-3.87 1.59-5.14 2.49-1.9 4.28-1.9c1.68 0 3 .55 3.98 1.65s1.46 2.56 1.46 4.36v1.28h-9.21c.04 1.57.44 2.76 1.19 3.58.75.81 1.81 1.22 3.18 1.22 1.44 0 2.87-.3 4.27-.9v1.81c-.72.31-1.39.53-2.03.67s-1.41.2-2.31.2Zm-.55-12.17c-1.07 0-1.93.35-2.57 1.05s-1.02 1.67-1.13 2.91h6.99c0-1.28-.29-2.26-.86-2.94s-1.38-1.02-2.44-1.02Zm14.02 12.17c-1.94 0-3.44-.6-4.5-1.79s-1.59-2.88-1.59-5.06.54-3.97 1.62-5.19 2.61-1.83 4.61-1.83c.64 0 1.29.07 1.93.21s1.15.3 1.51.49l-.62 1.72a10 10 0 0 0-1.46-.45c-.53-.12-1-.18-1.4-.18-2.72 0-4.08 1.73-4.08 5.2 0 1.64.33 2.91.99 3.78.66.88 1.65 1.32 2.95 1.32 1.12 0 2.26-.24 3.43-.72v1.79c-.9.46-2.02.7-3.38.7Zm8.31-7.09c.35-.5.88-1.15 1.6-1.95l4.32-4.58h2.4l-5.42 5.7 5.8 7.68h-2.45l-4.72-6.32-1.53 1.32v5h-2v-18.99h2v10.07c0 .45-.03 1.14-.1 2.08h.1Zm34.17 6.85v-8.7c0-1.07-.23-1.87-.68-2.4-.46-.53-1.16-.8-2.12-.8-1.26 0-2.19.36-2.8 1.09-.6.72-.9 1.84-.9 3.34v7.47h-2.03v-8.7c0-1.07-.23-1.87-.68-2.4-.46-.53-1.17-.8-2.13-.8q-1.905 0-2.79 1.14c-.59.76-.88 2.01-.88 3.74v7.02h-2.03V209.6h1.65l.33 1.83h.1q.57-.975 1.62-1.53c.7-.37 1.48-.55 2.34-.55 2.09 0 3.46.76 4.1 2.27h.1c.4-.7.98-1.25 1.73-1.66.76-.41 1.62-.61 2.59-.61 1.51 0 2.65.39 3.4 1.17s1.13 2.02 1.13 3.73v8.73h-2.03Zm14.18 0-.4-1.9h-.1c-.67.84-1.33 1.41-2 1.7s-1.49.45-2.48.45c-1.33 0-2.37-.34-3.12-1.03-.75-.68-1.13-1.66-1.13-2.92 0-2.7 2.16-4.12 6.48-4.25l2.27-.07v-.83c0-1.05-.23-1.82-.68-2.33-.45-.5-1.17-.75-2.17-.75-1.12 0-2.38.34-3.78 1.03l-.62-1.55c.66-.36 1.38-.64 2.17-.84s1.57-.31 2.36-.31c1.59 0 2.78.35 3.54 1.06.77.71 1.15 1.84 1.15 3.41v9.13h-1.5Zm-4.58-1.43c1.26 0 2.25-.35 2.97-1.04q1.08-1.035 1.08-2.91v-1.21l-2.03.09q-2.415.09-3.48.75c-.71.44-1.07 1.13-1.07 2.07 0 .73.22 1.29.66 1.67q.66.57 1.86.57Zm16.11-12.19c.59 0 1.13.05 1.6.15l-.28 1.88c-.55-.12-1.04-.18-1.46-.18-1.08 0-2.01.44-2.78 1.32s-1.15 1.97-1.15 3.28v7.18h-2.03v-13.38h1.67l.23 2.48h.1c.5-.87 1.09-1.54 1.79-2.01s1.47-.71 2.31-.71Zm5.85 6.77c.35-.5.88-1.15 1.6-1.95l4.32-4.58h2.4l-5.42 5.7 5.8 7.68h-2.45l-4.72-6.32-1.53 1.32v5h-2v-18.99h2v10.07c0 .45-.03 1.14-.1 2.08h.1Zm28.04 6.85-2.46-7.85q-.225-.72-.87-3.27h-.1c-.33 1.42-.61 2.52-.86 3.3l-2.53 7.82h-2.34l-3.65-13.38h2.12c.86 3.36 1.52 5.92 1.97 7.68s.71 2.94.78 3.55h.1c.09-.46.23-1.06.43-1.8s.37-1.32.52-1.75l2.45-7.68h2.2l2.39 7.68c.46 1.4.77 2.58.93 3.53h.1c.03-.29.12-.74.26-1.35s.99-3.89 2.55-9.85h2.1l-3.7 13.38h-2.4Zm8.1-17c0-.46.12-.8.34-1.02.23-.22.51-.32.86-.32.32 0 .61.11.84.33s.35.56.35 1.01-.12.8-.35 1.02c-.24.22-.52.34-.84.34-.34 0-.63-.11-.86-.34-.23-.22-.34-.56-.34-1.02m2.2 17h-2.03V209.6h2.03zm6.07 0h-2.03v-18.99h2.03zm6.07 0h-2.03v-18.99h2.03zm18.52 0-.4-1.9h-.1c-.67.84-1.33 1.41-1.99 1.7-.66.3-1.49.45-2.48.45-1.33 0-2.37-.34-3.12-1.03-.75-.68-1.13-1.66-1.13-2.92 0-2.7 2.16-4.12 6.48-4.25l2.27-.07v-.83c0-1.05-.23-1.82-.68-2.33s-1.17-.75-2.17-.75c-1.12 0-2.38.34-3.79 1.03l-.62-1.55c.66-.36 1.38-.64 2.17-.84s1.57-.31 2.36-.31c1.6 0 2.78.35 3.55 1.06s1.15 1.84 1.15 3.41v9.13zm-4.57-1.43c1.26 0 2.25-.35 2.97-1.04q1.08-1.035 1.08-2.91v-1.21l-2.03.09q-2.415.09-3.48.75c-.71.44-1.07 1.13-1.07 2.07 0 .73.22 1.29.67 1.67q.66.57 1.86.57Zm16.22 1.67c-.87 0-1.67-.16-2.39-.48s-1.32-.82-1.81-1.48h-.15q.15 1.17.15 2.22v5.51h-2.03v-19.38h1.65l.28 1.83h.1c.52-.73 1.13-1.26 1.82-1.59s1.48-.49 2.38-.49c1.78 0 3.14.61 4.11 1.82.96 1.21 1.45 2.91 1.45 5.1s-.49 3.9-1.47 5.12-2.34 1.82-4.08 1.82Zm-.29-12.14c-1.37 0-2.36.38-2.96 1.14-.61.76-.92 1.96-.94 3.61v.45c0 1.88.31 3.22.94 4.03.62.81 1.63 1.21 3.01 1.21 1.16 0 2.06-.47 2.72-1.4.65-.94.98-2.23.98-3.87s-.33-2.95-.98-3.84c-.66-.89-1.58-1.34-2.77-1.34Zm15.36 12.14c-.87 0-1.67-.16-2.39-.48s-1.32-.82-1.81-1.48h-.15q.15 1.17.15 2.22v5.51h-2.03v-19.38h1.65l.28 1.83h.1c.52-.73 1.13-1.26 1.82-1.59s1.48-.49 2.38-.49c1.78 0 3.14.61 4.11 1.82.96 1.21 1.45 2.91 1.45 5.1s-.49 3.9-1.47 5.12-2.34 1.82-4.08 1.82Zm-.29-12.14c-1.37 0-2.36.38-2.96 1.14-.61.76-.92 1.96-.94 3.61v.45c0 1.88.31 3.22.94 4.03.62.81 1.63 1.21 3.01 1.21 1.16 0 2.06-.47 2.72-1.4.65-.94.98-2.23.98-3.87s-.33-2.95-.98-3.84c-.66-.89-1.58-1.34-2.77-1.34Zm14.79 12.14c-1.98 0-3.54-.6-4.68-1.81-1.14-1.2-1.71-2.88-1.71-5.02s.53-3.87 1.59-5.14 2.49-1.9 4.28-1.9c1.68 0 3 .55 3.98 1.65s1.46 2.56 1.46 4.36v1.28h-9.21c.04 1.57.44 2.76 1.19 3.58.75.81 1.81 1.22 3.18 1.22 1.44 0 2.87-.3 4.27-.9v1.81c-.72.31-1.39.53-2.03.67s-1.41.2-2.31.2Zm-.55-12.17c-1.07 0-1.93.35-2.57 1.05s-1.02 1.67-1.13 2.91h6.99c0-1.28-.29-2.26-.86-2.94s-1.38-1.02-2.44-1.02Zm16.9 11.93-.4-1.9h-.1c-.67.84-1.33 1.41-2 1.7s-1.49.45-2.48.45c-1.33 0-2.37-.34-3.12-1.03-.75-.68-1.13-1.66-1.13-2.92 0-2.7 2.16-4.12 6.48-4.25l2.27-.07v-.83c0-1.05-.23-1.82-.68-2.33-.45-.5-1.17-.75-2.17-.75-1.12 0-2.38.34-3.78 1.03l-.62-1.55c.66-.36 1.38-.64 2.17-.84s1.57-.31 2.36-.31c1.59 0 2.78.35 3.54 1.06.77.71 1.15 1.84 1.15 3.41v9.13h-1.5Zm-4.57-1.43c1.26 0 2.25-.35 2.97-1.04q1.08-1.035 1.08-2.91v-1.21l-2.03.09q-2.415.09-3.48.75c-.71.44-1.07 1.13-1.07 2.07 0 .73.22 1.29.66 1.67q.66.57 1.86.57Zm16.1-12.19c.59 0 1.13.05 1.6.15l-.28 1.88c-.55-.12-1.04-.18-1.46-.18-1.08 0-2.01.44-2.78 1.32s-1.15 1.97-1.15 3.28v7.18h-2.03v-13.38h1.67l.23 2.48h.1c.5-.87 1.09-1.54 1.79-2.01s1.47-.71 2.31-.71Zm21.65 6.92c0 2.18-.55 3.88-1.65 5.11-1.1 1.22-2.62 1.84-4.55 1.84-1.2 0-2.26-.28-3.19-.84s-1.64-1.37-2.15-2.42-.76-2.28-.76-3.69c0-2.18.54-3.88 1.63-5.1s2.6-1.82 4.54-1.82 3.36.62 4.46 1.87 1.65 2.93 1.65 5.05Zm-10.2 0c0 1.71.34 3.01 1.03 3.91.68.9 1.69 1.34 3.01 1.34s2.33-.45 3.02-1.34 1.03-2.2 1.03-3.91-.34-2.99-1.03-3.88c-.69-.88-1.7-1.32-3.04-1.32s-2.33.44-3 1.31c-.68.87-1.01 2.17-1.01 3.89Zm22.65 6.7v-8.65c0-1.09-.25-1.9-.74-2.44s-1.27-.81-2.33-.81c-1.4 0-2.42.38-3.08 1.14-.65.76-.98 2.01-.98 3.75v7.02h-2.03v-13.38h1.65l.33 1.83h.1c.42-.66 1-1.17 1.75-1.53s1.58-.54 2.5-.54c1.61 0 2.82.39 3.64 1.17.81.78 1.22 2.02 1.22 3.73V223h-2.03Zm11.29.24c-1.94 0-3.44-.6-4.5-1.79s-1.59-2.88-1.59-5.06.54-3.97 1.62-5.19 2.61-1.83 4.61-1.83c.64 0 1.29.07 1.93.21s1.15.3 1.51.49l-.62 1.72a10 10 0 0 0-1.46-.45c-.53-.12-1-.18-1.4-.18-2.72 0-4.08 1.73-4.08 5.2 0 1.64.33 2.91.99 3.78.66.88 1.65 1.32 2.95 1.32 1.12 0 2.26-.24 3.43-.72v1.79c-.9.46-2.02.7-3.38.7Zm11.96 0c-1.98 0-3.54-.6-4.68-1.81-1.14-1.2-1.71-2.88-1.71-5.02s.53-3.87 1.59-5.14 2.49-1.9 4.28-1.9c1.68 0 3 .55 3.98 1.65s1.46 2.56 1.46 4.36v1.28h-9.21c.04 1.57.44 2.76 1.19 3.58.75.81 1.81 1.22 3.18 1.22 1.44 0 2.87-.3 4.27-.9v1.81c-.72.31-1.39.53-2.03.67s-1.41.2-2.31.2Zm-.55-12.17c-1.07 0-1.93.35-2.57 1.05s-1.02 1.67-1.13 2.91h6.99c0-1.28-.29-2.26-.86-2.94s-1.38-1.02-2.44-1.02Zm12.79-1.45h2.17l2.93 7.63c.64 1.74 1.04 3 1.2 3.77h.1c.11-.42.33-1.12.67-2.13s1.44-4.1 3.31-9.27h2.17l-5.75 15.23c-.57 1.51-1.24 2.57-2 3.2s-1.7.95-2.8.95q-.93 0-1.83-.21v-1.62q.675.15 1.5.15c1.39 0 2.38-.78 2.98-2.34l.74-1.9-5.4-13.45Zm26.02 6.68c0 2.18-.55 3.88-1.65 5.11-1.1 1.22-2.62 1.84-4.55 1.84-1.2 0-2.26-.28-3.19-.84s-1.64-1.37-2.15-2.42-.76-2.28-.76-3.69c0-2.18.54-3.88 1.63-5.1s2.6-1.82 4.54-1.82 3.36.62 4.46 1.87 1.65 2.93 1.65 5.05Zm-10.19 0c0 1.71.34 3.01 1.03 3.91.68.9 1.69 1.34 3.01 1.34s2.33-.45 3.02-1.34 1.03-2.2 1.03-3.91-.34-2.99-1.03-3.88c-.69-.88-1.7-1.32-3.04-1.32s-2.33.44-3 1.31c-.68.87-1.01 2.17-1.01 3.89Zm15.4-6.68v8.68c0 1.09.25 1.9.74 2.44s1.27.81 2.33.81c1.4 0 2.42-.38 3.07-1.15.65-.76.97-2.01.97-3.75v-7.03h2.03v13.38h-1.67l-.29-1.79h-.11c-.42.66-.99 1.16-1.73 1.51s-1.58.52-2.52.52c-1.63 0-2.85-.39-3.66-1.16s-1.21-2.01-1.21-3.71v-8.75zm24.78 13.62c-1.94 0-3.44-.6-4.5-1.79s-1.59-2.88-1.59-5.06.54-3.97 1.62-5.19 2.61-1.83 4.61-1.83c.64 0 1.29.07 1.93.21s1.15.3 1.51.49l-.62 1.72a10 10 0 0 0-1.46-.45c-.53-.12-1-.18-1.4-.18-2.72 0-4.08 1.73-4.08 5.2 0 1.64.33 2.91.99 3.78.66.88 1.65 1.32 2.95 1.32 1.12 0 2.26-.24 3.43-.72v1.79c-.9.46-2.02.7-3.38.7Zm17.85-6.94c0 2.18-.55 3.88-1.65 5.11-1.1 1.22-2.62 1.84-4.55 1.84-1.2 0-2.26-.28-3.19-.84s-1.64-1.37-2.15-2.42-.76-2.28-.76-3.69c0-2.18.54-3.88 1.63-5.1s2.6-1.82 4.54-1.82 3.36.62 4.46 1.87 1.65 2.93 1.65 5.05Zm-10.19 0c0 1.71.34 3.01 1.03 3.91.68.9 1.69 1.34 3.01 1.34s2.33-.45 3.02-1.34 1.03-2.2 1.03-3.91-.34-2.99-1.03-3.88c-.69-.88-1.7-1.32-3.04-1.32s-2.33.44-3 1.31c-.68.87-1.01 2.17-1.01 3.89Zm30.54 6.7v-8.7c0-1.07-.23-1.87-.68-2.4-.46-.53-1.16-.8-2.12-.8-1.26 0-2.19.36-2.8 1.09-.6.72-.9 1.84-.9 3.34v7.47h-2.03v-8.7c0-1.07-.23-1.87-.68-2.4-.46-.53-1.17-.8-2.13-.8q-1.905 0-2.79 1.14c-.59.76-.88 2.01-.88 3.74v7.02h-2.03V209.6h1.65l.33 1.83h.1q.57-.975 1.62-1.53c.7-.37 1.48-.55 2.34-.55 2.09 0 3.46.76 4.1 2.27h.1c.4-.7.98-1.25 1.73-1.66.76-.41 1.62-.61 2.59-.61 1.51 0 2.65.39 3.4 1.17s1.13 2.02 1.13 3.73v8.73h-2.03Zm12.18.24c-.87 0-1.67-.16-2.39-.48s-1.32-.82-1.81-1.48h-.15q.15 1.17.15 2.22v5.51h-2.03v-19.38h1.65l.28 1.83h.1c.52-.73 1.13-1.26 1.82-1.59s1.48-.49 2.38-.49c1.78 0 3.14.61 4.11 1.82.96 1.21 1.45 2.91 1.45 5.1s-.49 3.9-1.47 5.12-2.34 1.82-4.08 1.82Zm-.29-12.14c-1.37 0-2.36.38-2.96 1.14-.61.76-.92 1.96-.94 3.61v.45c0 1.88.31 3.22.94 4.03.62.81 1.63 1.21 3.01 1.21 1.16 0 2.06-.47 2.72-1.4.65-.94.98-2.23.98-3.87s-.33-2.95-.98-3.84c-.66-.89-1.58-1.34-2.77-1.34Zm11.16 11.9h-2.03v-18.99h2.03zm9.7.24c-1.98 0-3.54-.6-4.68-1.81-1.14-1.2-1.71-2.88-1.71-5.02s.53-3.87 1.59-5.14 2.49-1.9 4.28-1.9c1.68 0 3 .55 3.98 1.65s1.46 2.56 1.46 4.36v1.28h-9.22c.04 1.57.44 2.76 1.19 3.58.75.81 1.81 1.22 3.18 1.22 1.44 0 2.87-.3 4.27-.9v1.81c-.72.31-1.39.53-2.03.67s-1.41.2-2.31.2m-.55-12.17c-1.07 0-1.93.35-2.57 1.05s-1.02 1.67-1.13 2.91h6.99c0-1.28-.29-2.26-.85-2.94-.57-.68-1.38-1.02-2.44-1.02m13 10.5c.36 0 .71-.03 1.04-.08s.6-.11.79-.16v1.55c-.22.11-.54.19-.97.26s-.81.1-1.15.1c-2.59 0-3.88-1.36-3.88-4.09v-7.96h-1.92v-.98l1.92-.84.85-2.86h1.17v3.1h3.88v1.57h-3.88v7.87c0 .81.19 1.42.57 1.86.38.43.91.65 1.57.65Zm9.9 1.67c-1.98 0-3.54-.6-4.68-1.81-1.14-1.2-1.71-2.88-1.71-5.02s.53-3.87 1.59-5.14 2.49-1.9 4.28-1.9c1.68 0 3 .55 3.98 1.65s1.46 2.56 1.46 4.36v1.28h-9.21c.04 1.57.44 2.76 1.19 3.58.75.81 1.81 1.22 3.18 1.22 1.44 0 2.87-.3 4.27-.9v1.81c-.72.31-1.39.53-2.03.67s-1.41.2-2.31.2Zm-.55-12.17c-1.07 0-1.93.35-2.57 1.05s-1.02 1.67-1.13 2.91h6.99c0-1.28-.29-2.26-.86-2.94s-1.38-1.02-2.44-1.02Zm23.15 11.93-.4-1.9h-.1c-.67.84-1.33 1.41-2 1.7s-1.49.45-2.48.45c-1.33 0-2.37-.34-3.12-1.03-.75-.68-1.13-1.66-1.13-2.92 0-2.7 2.16-4.12 6.48-4.25l2.27-.07v-.83c0-1.05-.23-1.82-.68-2.33-.45-.5-1.17-.75-2.17-.75-1.12 0-2.38.34-3.78 1.03l-.62-1.55c.66-.36 1.38-.64 2.17-.84s1.57-.31 2.36-.31c1.59 0 2.78.35 3.54 1.06.77.71 1.15 1.84 1.15 3.41v9.13h-1.5Zm-4.58-1.43c1.26 0 2.25-.35 2.97-1.04q1.08-1.035 1.08-2.91v-1.21l-2.03.09q-2.415.09-3.48.75c-.71.44-1.07 1.13-1.07 2.07 0 .73.22 1.29.66 1.67q.66.57 1.86.57Zm22.35-12.19c.59 0 1.13.05 1.6.15l-.28 1.88c-.55-.12-1.04-.18-1.46-.18-1.08 0-2.01.44-2.78 1.32s-1.15 1.97-1.15 3.28v7.18h-2.03v-13.38h1.67l.23 2.48h.1c.5-.87 1.09-1.54 1.79-2.01s1.47-.71 2.31-.71Zm15.4 6.92c0 2.18-.55 3.88-1.65 5.11-1.1 1.22-2.62 1.84-4.55 1.84-1.2 0-2.26-.28-3.19-.84s-1.64-1.37-2.15-2.42-.76-2.28-.76-3.69c0-2.18.54-3.88 1.63-5.1s2.6-1.82 4.54-1.82 3.36.62 4.46 1.87 1.65 2.93 1.65 5.05Zm-10.19 0c0 1.71.34 3.01 1.03 3.91.68.9 1.69 1.34 3.01 1.34s2.33-.45 3.02-1.34 1.03-2.2 1.03-3.91-.34-2.99-1.03-3.88c-.69-.88-1.7-1.32-3.04-1.32s-2.33.44-3 1.31c-.68.87-1.01 2.17-1.01 3.89Zm25.04 0c0 2.18-.55 3.88-1.65 5.11-1.1 1.22-2.62 1.84-4.55 1.84-1.2 0-2.26-.28-3.19-.84s-1.64-1.37-2.15-2.42-.76-2.28-.76-3.69c0-2.18.54-3.88 1.63-5.1s2.6-1.82 4.54-1.82 3.36.62 4.46 1.87 1.65 2.93 1.65 5.05Zm-10.19 0c0 1.71.34 3.01 1.03 3.91.68.9 1.69 1.34 3.01 1.34s2.33-.45 3.02-1.34 1.03-2.2 1.03-3.91-.34-2.99-1.03-3.88c-.69-.88-1.7-1.32-3.04-1.32s-2.33.44-3 1.31c-.68.87-1.01 2.17-1.01 3.89Zm30.55 6.7v-8.7c0-1.07-.23-1.87-.68-2.4-.46-.53-1.16-.8-2.12-.8-1.26 0-2.19.36-2.8 1.09-.6.72-.9 1.84-.9 3.34v7.47h-2.03v-8.7c0-1.07-.23-1.87-.68-2.4-.46-.53-1.17-.8-2.13-.8q-1.905 0-2.79 1.14c-.59.76-.88 2.01-.88 3.74v7.02h-2.03V209.6h1.65l.33 1.83h.1q.57-.975 1.62-1.53c.7-.37 1.48-.55 2.34-.55 2.09 0 3.46.76 4.1 2.27h.1c.4-.7.98-1.25 1.73-1.66.76-.41 1.62-.61 2.59-.61 1.51 0 2.65.39 3.4 1.17s1.13 2.02 1.13 3.73v8.73h-2.03Zm5.65-1.29c0-.55.12-.96.37-1.24s.61-.42 1.07-.42.84.14 1.11.42c.26.28.4.69.4 1.24s-.13.94-.4 1.22-.63.43-1.1.43c-.41 0-.76-.13-1.03-.38s-.41-.68-.41-1.26Z"/>
  <use xlink:href="#b" width="49.27" height="49.27" transform="translate(749.83 189.02)"/>
  <path d="m838.06 298.08-2.22-5.68h-7.15l-2.2 5.68h-2.1l7.06-17.92h1.74l7.02 17.92zm-2.86-7.54-2.07-5.53c-.27-.7-.54-1.56-.83-2.58-.18.78-.44 1.64-.77 2.58l-2.1 5.53zm15.18 7.54h-2.03v-18.99h2.03zm15.6-6.7c0 2.18-.55 3.88-1.65 5.11-1.1 1.22-2.62 1.84-4.55 1.84-1.2 0-2.26-.28-3.19-.84s-1.64-1.37-2.15-2.42-.76-2.28-.76-3.69c0-2.18.54-3.88 1.63-5.1s2.6-1.82 4.54-1.82 3.36.62 4.46 1.87 1.65 2.93 1.65 5.05Zm-10.19 0c0 1.71.34 3.01 1.03 3.91.68.9 1.69 1.34 3.01 1.34s2.33-.45 3.02-1.34 1.03-2.2 1.03-3.91-.34-2.99-1.03-3.88c-.69-.88-1.7-1.32-3.04-1.32s-2.33.44-3 1.31c-.68.87-1.01 2.17-1.01 3.89Zm18.84 6.95c-1.94 0-3.44-.6-4.5-1.79s-1.59-2.88-1.59-5.06.54-3.97 1.62-5.19 2.61-1.83 4.61-1.83c.64 0 1.29.07 1.93.21s1.15.3 1.51.49l-.62 1.72a10 10 0 0 0-1.46-.45c-.53-.12-1-.18-1.4-.18-2.72 0-4.08 1.73-4.08 5.2 0 1.64.33 2.91.99 3.78.66.88 1.65 1.32 2.95 1.32 1.12 0 2.26-.24 3.43-.72v1.79c-.9.46-2.02.7-3.38.7Zm8.3-7.1c.35-.5.88-1.15 1.6-1.95l4.32-4.58h2.4l-5.42 5.7 5.8 7.68h-2.45l-4.72-6.32-1.53 1.32v5h-2v-18.99h2v10.07c0 .45-.03 1.14-.1 2.08h.1Zm16.95-10.15c0-.46.12-.8.34-1.02.23-.22.51-.32.86-.32.32 0 .61.11.84.33s.35.56.35 1.01-.12.8-.35 1.02c-.24.22-.52.34-.84.34-.34 0-.63-.11-.86-.34-.23-.22-.34-.56-.34-1.02m2.19 17h-2.03V284.7h2.03zm13.21 0v-8.65c0-1.09-.25-1.9-.75-2.44s-1.27-.81-2.33-.81c-1.4 0-2.43.38-3.08 1.14s-.98 2.01-.98 3.75v7.02h-2.03v-13.38h1.65l.33 1.83h.1c.41-.66 1-1.17 1.74-1.53.75-.36 1.58-.54 2.5-.54 1.61 0 2.82.39 3.64 1.17.81.78 1.22 2.02 1.22 3.73v8.73h-2.03Zm15.04-1.79h-.11q-1.41 2.04-4.2 2.04c-1.75 0-3.11-.6-4.08-1.79s-1.46-2.9-1.46-5.1.49-3.92 1.46-5.14 2.33-1.83 4.08-1.83 3.21.66 4.18 1.98h.16l-.09-.96-.05-.94v-5.44h2.03v18.99h-1.65l-.27-1.79Zm-4.05.34c1.38 0 2.39-.38 3.01-1.13s.93-1.97.93-3.64v-.43c0-1.9-.32-3.25-.95-4.06s-1.64-1.21-3.02-1.21c-1.19 0-2.1.46-2.73 1.39-.63.92-.95 2.23-.95 3.91s.31 3 .94 3.87 1.54 1.31 2.76 1.31Zm9.85-15.55c0-.46.12-.8.34-1.02.23-.22.51-.32.86-.32.32 0 .61.11.84.33s.35.56.35 1.01-.12.8-.35 1.02c-.24.22-.52.34-.84.34-.34 0-.63-.11-.86-.34-.23-.22-.34-.56-.34-1.02m2.19 17h-2.03V284.7h2.03zm9.4.25c-1.94 0-3.44-.6-4.5-1.79s-1.59-2.88-1.59-5.06.54-3.97 1.62-5.19 2.62-1.83 4.61-1.83c.64 0 1.29.07 1.93.21s1.15.3 1.51.49l-.62 1.72a10 10 0 0 0-1.46-.45c-.53-.12-1-.18-1.4-.18-2.72 0-4.08 1.73-4.08 5.2 0 1.64.33 2.91.99 3.78.66.88 1.65 1.32 2.95 1.32 1.12 0 2.26-.24 3.43-.72v1.79c-.89.46-2.02.7-3.38.7Zm14.53-.25-.4-1.9h-.1c-.67.84-1.33 1.41-2 1.7s-1.49.45-2.48.45c-1.33 0-2.37-.34-3.12-1.03-.75-.68-1.13-1.66-1.13-2.92 0-2.7 2.16-4.12 6.48-4.25l2.27-.07v-.83c0-1.05-.23-1.82-.68-2.33-.45-.5-1.17-.75-2.17-.75-1.12 0-2.38.34-3.78 1.03l-.62-1.55c.66-.36 1.38-.64 2.17-.84s1.57-.31 2.36-.31c1.59 0 2.78.35 3.54 1.06.77.71 1.15 1.84 1.15 3.41v9.13h-1.5Zm-4.58-1.43c1.26 0 2.25-.35 2.97-1.04q1.08-1.035 1.08-2.91v-1.21l-2.03.09q-2.415.09-3.48.75c-.71.44-1.07 1.13-1.07 2.07 0 .73.22 1.29.66 1.67q.66.57 1.86.57Zm14.33 0c.36 0 .71-.03 1.04-.08s.6-.11.79-.16v1.55c-.22.11-.54.19-.97.26s-.81.1-1.15.1c-2.59 0-3.88-1.36-3.88-4.09v-7.96h-1.92v-.98l1.92-.84.85-2.86h1.17v3.1h3.88v1.57h-3.88v7.87c0 .81.19 1.42.57 1.86.38.43.91.65 1.57.65Zm9.9 1.68c-1.98 0-3.54-.6-4.68-1.81-1.14-1.2-1.71-2.88-1.71-5.02s.53-3.87 1.59-5.14 2.49-1.9 4.28-1.9c1.68 0 3 .55 3.98 1.65s1.46 2.56 1.46 4.36v1.28h-9.21c.04 1.57.44 2.76 1.19 3.58.75.81 1.81 1.22 3.18 1.22 1.44 0 2.87-.3 4.27-.9v1.81c-.72.31-1.39.53-2.03.67s-1.41.2-2.31.2Zm-.55-12.17c-1.07 0-1.93.35-2.57 1.05s-1.02 1.67-1.13 2.91h6.99c0-1.28-.29-2.26-.86-2.94s-1.38-1.02-2.44-1.02Zm17.31 8.27c0 1.25-.46 2.21-1.39 2.88-.93.68-2.23 1.01-3.91 1.01-1.77 0-3.16-.28-4.15-.84v-1.88c.64.33 1.33.58 2.07.77s1.45.28 2.13.28c1.06 0 1.87-.17 2.44-.51s.86-.85.86-1.54c0-.52-.23-.97-.68-1.34s-1.33-.81-2.64-1.31c-1.25-.46-2.13-.87-2.66-1.21-.53-.35-.92-.74-1.17-1.18s-.38-.96-.38-1.57c0-1.09.44-1.95 1.33-2.58s2.1-.95 3.65-.95c1.44 0 2.85.29 4.22.88l-.72 1.65c-1.34-.55-2.56-.83-3.65-.83-.96 0-1.68.15-2.17.45s-.73.72-.73 1.25c0 .36.09.66.27.92.18.25.48.49.89.72q.615.345 2.34.99c1.59.58 2.66 1.16 3.21 1.75.56.59.84 1.32.84 2.21Zm17.51 3.65-.4-1.9h-.1c-.67.84-1.33 1.41-2 1.7s-1.49.45-2.48.45c-1.33 0-2.37-.34-3.12-1.03-.75-.68-1.13-1.66-1.13-2.92 0-2.7 2.16-4.12 6.48-4.25l2.27-.07v-.83c0-1.05-.23-1.82-.68-2.33-.45-.5-1.17-.75-2.17-.75-1.12 0-2.38.34-3.78 1.03l-.62-1.55c.66-.36 1.38-.64 2.17-.84s1.57-.31 2.36-.31c1.59 0 2.78.35 3.54 1.06.77.71 1.15 1.84 1.15 3.41v9.13h-1.5Zm-4.57-1.43c1.26 0 2.25-.35 2.97-1.04q1.08-1.035 1.08-2.91v-1.21l-2.03.09q-2.415.09-3.48.75c-.71.44-1.07 1.13-1.07 2.07 0 .73.22 1.29.66 1.67q.66.57 1.86.57Zm22.35-12.19c.59 0 1.13.05 1.6.15l-.28 1.88c-.55-.12-1.04-.18-1.46-.18-1.08 0-2.01.44-2.78 1.32s-1.15 1.97-1.15 3.28v7.18h-2.03v-13.38h1.67l.23 2.48h.1c.5-.87 1.09-1.54 1.79-2.01s1.47-.71 2.31-.71Zm9.5 13.87c-1.98 0-3.54-.6-4.68-1.81-1.14-1.2-1.71-2.88-1.71-5.02s.53-3.87 1.59-5.14 2.49-1.9 4.28-1.9c1.68 0 3 .55 3.98 1.65s1.46 2.56 1.46 4.36v1.28h-9.21c.04 1.57.44 2.76 1.19 3.58.75.81 1.81 1.22 3.18 1.22 1.44 0 2.87-.3 4.27-.9v1.81c-.72.31-1.39.53-2.03.67s-1.41.2-2.31.2Zm-.55-12.17c-1.07 0-1.93.35-2.57 1.05s-1.02 1.67-1.13 2.91h6.99c0-1.28-.29-2.26-.86-2.94s-1.38-1.02-2.44-1.02Zm17.31 8.27c0 1.25-.46 2.21-1.39 2.88-.93.68-2.23 1.01-3.91 1.01-1.77 0-3.16-.28-4.15-.84v-1.88c.64.33 1.33.58 2.07.77s1.45.28 2.13.28c1.06 0 1.87-.17 2.44-.51s.86-.85.86-1.54c0-.52-.23-.97-.68-1.34s-1.33-.81-2.64-1.31c-1.25-.46-2.13-.87-2.66-1.21-.53-.35-.92-.74-1.17-1.18s-.38-.96-.38-1.57c0-1.09.44-1.95 1.33-2.58s2.1-.95 3.65-.95c1.44 0 2.85.29 4.22.88l-.72 1.65c-1.34-.55-2.56-.83-3.65-.83-.96 0-1.68.15-2.17.45s-.73.72-.73 1.25c0 .36.09.66.27.92.18.25.48.49.89.72q.615.345 2.34.99c1.59.58 2.66 1.16 3.21 1.75.56.59.84 1.32.84 2.21Zm7.36 2.22c.36 0 .71-.03 1.04-.08s.6-.11.79-.16v1.55c-.22.11-.54.19-.97.26s-.81.1-1.15.1c-2.59 0-3.88-1.36-3.88-4.09v-7.96h-1.92v-.98l1.92-.84.85-2.86h1.17v3.1h3.88v1.57h-3.88v7.87c0 .81.19 1.42.57 1.86.38.43.91.65 1.57.65Zm10.36-12.19c.59 0 1.13.05 1.6.15l-.28 1.88c-.55-.12-1.04-.18-1.46-.18-1.08 0-2.01.44-2.78 1.32s-1.15 1.97-1.15 3.28v7.18h-2.03v-13.38h1.67l.23 2.48h.1c.5-.87 1.09-1.54 1.79-2.01s1.47-.71 2.31-.71Zm3.68-3.38c0-.46.12-.8.34-1.02.23-.22.51-.32.86-.32.32 0 .61.11.84.33s.35.56.35 1.01-.12.8-.35 1.02c-.24.22-.52.34-.84.34-.34 0-.63-.11-.86-.34-.23-.22-.34-.56-.34-1.02m2.2 17h-2.03V284.7h2.03zm9.39.25c-1.94 0-3.44-.6-4.5-1.79s-1.59-2.88-1.59-5.06.54-3.97 1.62-5.19 2.62-1.83 4.61-1.83c.64 0 1.29.07 1.93.21s1.15.3 1.51.49l-.62 1.72a10 10 0 0 0-1.46-.45c-.53-.12-1-.18-1.4-.18-2.72 0-4.08 1.73-4.08 5.2 0 1.64.33 2.91.99 3.78.66.88 1.65 1.32 2.95 1.32 1.12 0 2.26-.24 3.43-.72v1.79c-.89.46-2.02.7-3.38.7Zm10.63-1.68c.36 0 .71-.03 1.04-.08s.6-.11.79-.16v1.55c-.22.11-.54.19-.97.26s-.81.1-1.15.1c-2.59 0-3.88-1.36-3.88-4.09v-7.96h-1.92v-.98l1.92-.84.85-2.86h1.17v3.1h3.88v1.57h-3.88v7.87c0 .81.19 1.42.57 1.86.38.43.91.65 1.57.65Zm9.91 1.68c-1.98 0-3.54-.6-4.68-1.81-1.14-1.2-1.71-2.88-1.71-5.02s.53-3.87 1.59-5.14 2.49-1.9 4.28-1.9c1.68 0 3 .55 3.98 1.65s1.46 2.56 1.46 4.36v1.28h-9.21c.04 1.57.44 2.76 1.19 3.58.75.81 1.81 1.22 3.18 1.22 1.44 0 2.87-.3 4.27-.9v1.81c-.72.31-1.39.53-2.03.67s-1.41.2-2.31.2Zm-.55-12.17c-1.07 0-1.93.35-2.57 1.05s-1.02 1.67-1.13 2.91h6.99c0-1.28-.29-2.26-.86-2.94s-1.38-1.02-2.44-1.02Zm17.78 10.13h-.11q-1.41 2.04-4.2 2.04c-1.75 0-3.11-.6-4.08-1.79s-1.46-2.9-1.46-5.1.49-3.92 1.46-5.14 2.33-1.83 4.08-1.83 3.21.66 4.18 1.98h.16l-.09-.96-.05-.94v-5.44h2.03v18.99h-1.65l-.27-1.79Zm-4.06.34c1.38 0 2.39-.38 3.01-1.13s.93-1.97.93-3.64v-.43c0-1.9-.32-3.25-.95-4.06s-1.64-1.21-3.02-1.21c-1.19 0-2.1.46-2.73 1.39-.63.92-.95 2.23-.95 3.91s.31 3 .94 3.87 1.54 1.31 2.76 1.31Zm22.37-12.17c.59 0 1.13.05 1.6.15l-.28 1.88c-.55-.12-1.04-.18-1.46-.18-1.08 0-2.01.44-2.78 1.32s-1.15 1.97-1.15 3.28v7.18h-2.03v-13.38h1.67l.23 2.48h.1c.5-.87 1.09-1.54 1.79-2.01s1.47-.71 2.31-.71Zm15.4 6.92c0 2.18-.55 3.88-1.65 5.11-1.1 1.22-2.62 1.84-4.55 1.84-1.2 0-2.26-.28-3.19-.84s-1.64-1.37-2.15-2.42-.76-2.28-.76-3.69c0-2.18.54-3.88 1.63-5.1s2.6-1.82 4.54-1.82 3.36.62 4.46 1.87 1.65 2.93 1.65 5.05Zm-10.2 0c0 1.71.34 3.01 1.03 3.91.68.9 1.69 1.34 3.01 1.34s2.33-.45 3.02-1.34 1.03-2.2 1.03-3.91-.34-2.99-1.03-3.88c-.69-.88-1.7-1.32-3.04-1.32s-2.33.44-3 1.31c-.68.87-1.01 2.17-1.01 3.89Zm25.05 0c0 2.18-.55 3.88-1.65 5.11-1.1 1.22-2.62 1.84-4.55 1.84-1.2 0-2.26-.28-3.19-.84s-1.64-1.37-2.15-2.42-.76-2.28-.76-3.69c0-2.18.54-3.88 1.63-5.1s2.6-1.82 4.54-1.82 3.36.62 4.46 1.87 1.65 2.93 1.65 5.05Zm-10.2 0c0 1.71.34 3.01 1.03 3.91.68.9 1.69 1.34 3.01 1.34s2.33-.45 3.02-1.34 1.03-2.2 1.03-3.91-.34-2.99-1.03-3.88c-.69-.88-1.7-1.32-3.04-1.32s-2.33.44-3 1.31c-.68.87-1.01 2.17-1.01 3.89Zm30.55 6.7v-8.7c0-1.07-.23-1.87-.68-2.4-.46-.53-1.16-.8-2.12-.8-1.26 0-2.19.36-2.8 1.09-.6.72-.9 1.84-.9 3.34v7.47h-2.03v-8.7c0-1.07-.23-1.87-.68-2.4-.46-.53-1.17-.8-2.13-.8q-1.905 0-2.79 1.14c-.59.76-.88 2.01-.88 3.74v7.02h-2.03V284.7h1.65l.33 1.83h.1q.57-.975 1.62-1.53c.7-.37 1.48-.55 2.34-.55 2.09 0 3.46.76 4.1 2.27h.1c.4-.7.98-1.25 1.73-1.66.76-.41 1.62-.61 2.59-.61 1.51 0 2.65.39 3.4 1.17s1.13 2.02 1.13 3.73v8.73h-2.03Zm5.66-1.29c0-.55.12-.96.37-1.24s.61-.42 1.07-.42.84.14 1.11.42c.26.28.4.69.4 1.24s-.13.94-.4 1.22-.63.43-1.1.43c-.41 0-.76-.13-1.03-.38s-.41-.68-.41-1.26Zm17.78-7.63 4.76-8.92h2.25l-5.96 10.93v6.92h-2.1v-6.82l-5.95-11.02h2.27l4.72 8.92Zm20.46 2.22c0 2.18-.55 3.88-1.65 5.11-1.1 1.22-2.62 1.84-4.55 1.84-1.2 0-2.26-.28-3.19-.84s-1.64-1.37-2.15-2.42-.76-2.28-.76-3.69c0-2.18.54-3.88 1.63-5.1s2.6-1.82 4.54-1.82 3.36.62 4.46 1.87 1.65 2.93 1.65 5.05Zm-10.19 0c0 1.71.34 3.01 1.03 3.91.68.9 1.69 1.34 3.01 1.34s2.33-.45 3.02-1.34 1.03-2.2 1.03-3.91-.34-2.99-1.03-3.88c-.69-.88-1.7-1.32-3.04-1.32s-2.33.44-3 1.31c-.68.87-1.01 2.17-1.01 3.89Zm15.39-6.68v8.68c0 1.09.25 1.9.74 2.44s1.27.81 2.33.81c1.4 0 2.42-.38 3.07-1.15.65-.76.97-2.01.97-3.75v-7.03h2.03v13.38h-1.67l-.29-1.79h-.11c-.42.66-.99 1.16-1.73 1.51s-1.58.52-2.52.52c-1.63 0-2.85-.39-3.66-1.16s-1.21-2.01-1.21-3.71v-8.75zm30.36 13.38-2.46-7.85q-.225-.72-.87-3.27h-.1c-.33 1.42-.61 2.52-.86 3.3l-2.53 7.82h-2.34l-3.65-13.38h2.12c.86 3.36 1.52 5.92 1.97 7.68s.71 2.94.78 3.55h.1c.09-.46.23-1.06.43-1.8s.37-1.32.52-1.75l2.45-7.68h2.2l2.39 7.68c.46 1.4.77 2.58.93 3.53h.1c.03-.29.12-.74.26-1.35s.99-3.89 2.55-9.85h2.1l-3.7 13.38h-2.4Zm8.1-17c0-.46.12-.8.34-1.02.23-.22.51-.32.86-.32.32 0 .61.11.84.33s.35.56.35 1.01-.12.8-.35 1.02c-.24.22-.52.34-.84.34-.34 0-.63-.11-.86-.34-.23-.22-.34-.56-.34-1.02m2.2 17h-2.03V284.7h2.03zm6.07 0h-2.03v-18.99h2.03zm6.08 0h-2.03v-18.99h2.03zm16.32-11.8h-3.41v11.8h-2.03v-11.8h-2.39v-.92l2.39-.73v-.74c0-3.29 1.44-4.93 4.31-4.93.71 0 1.54.14 2.49.43l-.53 1.62c-.78-.25-1.45-.38-2-.38-.77 0-1.33.25-1.7.76s-.55 1.32-.55 2.45v.87h3.41v1.57Zm2.27-5.2c0-.46.12-.8.34-1.02.23-.22.51-.32.86-.32.32 0 .61.11.84.33s.35.56.35 1.01-.12.8-.35 1.02c-.24.22-.52.34-.84.34-.34 0-.63-.11-.86-.34-.23-.22-.34-.56-.34-1.02m2.19 17h-2.03V284.7h2.03zm10.16-13.62c.59 0 1.13.05 1.6.15l-.28 1.88c-.55-.12-1.04-.18-1.46-.18-1.08 0-2.01.44-2.78 1.32s-1.15 1.97-1.15 3.28v7.18h-2.03v-13.38h1.67l.23 2.48h.1c.5-.87 1.1-1.54 1.79-2.01.7-.47 1.47-.71 2.31-.71Zm12.48 9.97c0 1.25-.46 2.21-1.39 2.88-.93.68-2.23 1.01-3.91 1.01-1.77 0-3.16-.28-4.15-.84v-1.88c.64.33 1.33.58 2.07.77s1.45.28 2.13.28c1.06 0 1.87-.17 2.44-.51s.86-.85.86-1.54c0-.52-.23-.97-.68-1.34s-1.33-.81-2.64-1.31c-1.25-.46-2.13-.87-2.65-1.21-.53-.35-.92-.74-1.17-1.18-.26-.44-.38-.96-.38-1.57 0-1.09.44-1.95 1.33-2.58s2.1-.95 3.65-.95c1.44 0 2.85.29 4.22.88l-.72 1.65c-1.34-.55-2.56-.83-3.65-.83-.96 0-1.69.15-2.17.45-.49.3-.73.72-.73 1.25 0 .36.09.66.28.92.18.25.48.49.88.72q.615.345 2.34.99c1.59.58 2.66 1.16 3.22 1.75s.84 1.32.84 2.21Zm7.36 2.22c.36 0 .71-.03 1.04-.08s.6-.11.79-.16v1.55c-.22.11-.54.19-.97.26s-.81.1-1.15.1c-2.59 0-3.88-1.36-3.88-4.09v-7.96h-1.92v-.98l1.92-.84.85-2.86h1.17v3.1h3.88v1.57h-3.88v7.87c0 .81.19 1.42.57 1.86.38.43.91.65 1.57.65Zm19.66 1.43v-8.65c0-1.09-.25-1.9-.74-2.44s-1.27-.81-2.33-.81c-1.4 0-2.42.38-3.08 1.14-.65.76-.98 2.01-.98 3.75v7.02h-2.03v-13.38h1.65l.33 1.83h.1c.42-.66 1-1.17 1.75-1.53s1.58-.54 2.5-.54c1.61 0 2.82.39 3.64 1.17.81.78 1.22 2.02 1.22 3.73v8.73h-2.03Zm11.59.25c-1.98 0-3.54-.6-4.68-1.81-1.14-1.2-1.71-2.88-1.71-5.02s.53-3.87 1.59-5.14 2.49-1.9 4.28-1.9c1.68 0 3 .55 3.98 1.65s1.46 2.56 1.46 4.36v1.28h-9.21c.04 1.57.44 2.76 1.19 3.58.75.81 1.81 1.22 3.18 1.22 1.44 0 2.87-.3 4.27-.9v1.81c-.72.31-1.39.53-2.03.67s-1.41.2-2.31.2Zm-.55-12.17c-1.07 0-1.93.35-2.57 1.05s-1.02 1.67-1.13 2.91h6.99c0-1.28-.29-2.26-.86-2.94s-1.38-1.02-2.44-1.02Zm14.33 12.17c-1.98 0-3.54-.6-4.68-1.81-1.14-1.2-1.71-2.88-1.71-5.02s.53-3.87 1.59-5.14 2.49-1.9 4.28-1.9c1.68 0 3 .55 3.98 1.65s1.46 2.56 1.46 4.36v1.28h-9.21c.04 1.57.44 2.76 1.19 3.58.75.81 1.81 1.22 3.18 1.22 1.44 0 2.87-.3 4.27-.9v1.81c-.72.31-1.39.53-2.03.67s-1.41.2-2.31.2Zm-.55-12.17c-1.07 0-1.93.35-2.57 1.05s-1.02 1.67-1.13 2.91h6.99c0-1.28-.29-2.26-.86-2.94s-1.38-1.02-2.44-1.02Zm17.77 10.13h-.11q-1.41 2.04-4.2 2.04c-1.75 0-3.11-.6-4.08-1.79s-1.46-2.9-1.46-5.1.49-3.92 1.46-5.14 2.33-1.83 4.08-1.83 3.21.66 4.18 1.98h.16l-.09-.96-.05-.94v-5.44h2.03v18.99h-1.65l-.27-1.79Zm-4.05.34c1.38 0 2.39-.38 3.01-1.13s.93-1.97.93-3.64v-.43c0-1.9-.32-3.25-.95-4.06s-1.64-1.21-3.02-1.21c-1.19 0-2.1.46-2.73 1.39-.63.92-.95 2.23-.95 3.91s.31 3 .94 3.87 1.54 1.31 2.76 1.31Zm-579.9 30.02c.36 0 .7-.03 1.04-.08.33-.05.6-.11.79-.16v1.55c-.22.11-.54.19-.97.26s-.81.1-1.15.1c-2.59 0-3.88-1.36-3.88-4.09v-7.96h-1.92v-.98l1.92-.84.86-2.86h1.17v3.1h3.88v1.57h-3.88v7.87c0 .81.19 1.42.57 1.86.38.43.91.65 1.58.65Zm15.8-5.27c0 2.18-.55 3.88-1.65 5.11-1.1 1.22-2.62 1.84-4.55 1.84-1.2 0-2.26-.28-3.19-.84s-1.64-1.37-2.15-2.42-.76-2.28-.76-3.69c0-2.18.54-3.88 1.63-5.1s2.6-1.82 4.54-1.82 3.36.62 4.46 1.87 1.65 2.93 1.65 5.05Zm-10.19 0c0 1.71.34 3.01 1.03 3.91.68.9 1.69 1.34 3.01 1.34s2.33-.45 3.02-1.34 1.03-2.2 1.03-3.91-.34-2.99-1.03-3.88c-.69-.88-1.7-1.32-3.04-1.32s-2.33.44-3 1.31c-.68.87-1.01 2.17-1.01 3.89Zm25.09 6.95c-1.94 0-3.44-.6-4.5-1.79s-1.59-2.88-1.59-5.06.54-3.97 1.62-5.19 2.61-1.83 4.61-1.83c.64 0 1.29.07 1.93.21s1.15.3 1.51.49l-.62 1.72a10 10 0 0 0-1.46-.45c-.53-.12-1-.18-1.4-.18-2.72 0-4.08 1.73-4.08 5.2 0 1.64.33 2.91.99 3.78.66.88 1.65 1.32 2.95 1.32 1.12 0 2.26-.24 3.43-.72v1.79c-.9.46-2.02.7-3.38.7Zm17.85-6.95c0 2.18-.55 3.88-1.65 5.11-1.1 1.22-2.62 1.84-4.55 1.84-1.2 0-2.26-.28-3.19-.84s-1.64-1.37-2.15-2.42-.76-2.28-.76-3.69c0-2.18.54-3.88 1.63-5.1s2.6-1.82 4.54-1.82 3.36.62 4.46 1.87 1.65 2.93 1.65 5.05Zm-10.19 0c0 1.71.34 3.01 1.03 3.91.68.9 1.69 1.34 3.01 1.34s2.33-.45 3.02-1.34 1.03-2.2 1.03-3.91-.34-2.99-1.03-3.88c-.69-.88-1.7-1.32-3.04-1.32s-2.33.44-3 1.31c-.68.87-1.01 2.17-1.01 3.89Zm30.55 6.7v-8.7c0-1.07-.23-1.87-.68-2.4-.46-.53-1.16-.8-2.12-.8-1.26 0-2.19.36-2.8 1.09-.6.72-.9 1.84-.9 3.34v7.47h-2.03v-8.7c0-1.07-.23-1.87-.68-2.4-.46-.53-1.17-.8-2.13-.8q-1.905 0-2.79 1.14c-.59.76-.88 2.01-.88 3.74v7.02h-2.03V314.7h1.65l.33 1.83h.1q.57-.975 1.62-1.53c.7-.37 1.48-.55 2.34-.55 2.09 0 3.46.76 4.1 2.27h.1c.4-.7.98-1.25 1.73-1.66.76-.41 1.62-.61 2.59-.61 1.51 0 2.65.39 3.4 1.17s1.13 2.02 1.13 3.73v8.73h-2.03Zm12.17.25c-.87 0-1.67-.16-2.39-.48s-1.32-.82-1.81-1.48h-.15q.15 1.17.15 2.22v5.51h-2.03v-19.38h1.65l.28 1.83h.1c.52-.73 1.13-1.26 1.82-1.59s1.48-.49 2.38-.49c1.78 0 3.14.61 4.11 1.82.96 1.21 1.45 2.91 1.45 5.1s-.49 3.9-1.47 5.12-2.34 1.82-4.08 1.82Zm-.29-12.15c-1.37 0-2.36.38-2.96 1.14-.61.76-.92 1.96-.94 3.61v.45c0 1.88.31 3.22.94 4.03.62.81 1.63 1.21 3.01 1.21 1.16 0 2.06-.47 2.72-1.4.65-.94.98-2.23.98-3.87s-.33-2.95-.98-3.84c-.66-.89-1.58-1.34-2.77-1.34Zm11.16 11.9h-2.03v-18.99h2.03zm9.7.25c-1.98 0-3.54-.6-4.68-1.81-1.14-1.2-1.71-2.88-1.71-5.02s.53-3.87 1.59-5.14 2.49-1.9 4.28-1.9c1.68 0 3 .55 3.98 1.65s1.46 2.56 1.46 4.36v1.28h-9.22c.04 1.57.44 2.76 1.19 3.58.75.81 1.81 1.22 3.18 1.22 1.44 0 2.87-.3 4.27-.9v1.81c-.72.31-1.39.53-2.03.67s-1.41.2-2.31.2m-.55-12.17c-1.07 0-1.93.35-2.57 1.05s-1.02 1.67-1.13 2.91h6.99c0-1.28-.29-2.26-.85-2.94-.57-.68-1.38-1.02-2.44-1.02m13 10.49c.36 0 .71-.03 1.04-.08s.6-.11.79-.16v1.55c-.22.11-.54.19-.97.26s-.81.1-1.15.1c-2.59 0-3.88-1.36-3.88-4.09v-7.96h-1.92v-.98l1.92-.84.85-2.86h1.17v3.1h3.88v1.57h-3.88v7.87c0 .81.19 1.42.57 1.86.38.43.91.65 1.57.65Zm9.91 1.68c-1.98 0-3.54-.6-4.68-1.81-1.14-1.2-1.71-2.88-1.71-5.02s.53-3.87 1.59-5.14 2.49-1.9 4.28-1.9c1.68 0 3 .55 3.98 1.65s1.46 2.56 1.46 4.36v1.28h-9.21c.04 1.57.44 2.76 1.19 3.58.75.81 1.81 1.22 3.18 1.22 1.44 0 2.87-.3 4.27-.9v1.81c-.72.31-1.39.53-2.03.67s-1.41.2-2.31.2Zm-.56-12.17c-1.07 0-1.93.35-2.57 1.05s-1.02 1.67-1.13 2.91h6.99c0-1.28-.29-2.26-.86-2.94s-1.38-1.02-2.44-1.02Zm19.24 10.49c.36 0 .71-.03 1.04-.08s.6-.11.79-.16v1.55c-.22.11-.54.19-.97.26s-.81.1-1.15.1c-2.59 0-3.88-1.36-3.88-4.09v-7.96h-1.92v-.98l1.92-.84.85-2.86h1.17v3.1h3.88v1.57h-3.88v7.87c0 .81.19 1.42.57 1.86.38.43.91.65 1.57.65Zm13.41 1.43v-8.65c0-1.09-.25-1.9-.74-2.44s-1.27-.81-2.33-.81c-1.41 0-2.44.38-3.08 1.15-.65.77-.97 2.02-.97 3.76v6.99h-2.03v-18.99h2.03v5.75c0 .69-.03 1.27-.1 1.72h.12c.4-.64.96-1.15 1.7-1.52s1.58-.56 2.52-.56c1.64 0 2.86.39 3.68 1.17s1.23 2.01 1.23 3.7v8.73zm11.59.25c-1.98 0-3.54-.6-4.68-1.81-1.14-1.2-1.71-2.88-1.71-5.02s.53-3.87 1.59-5.14 2.49-1.9 4.28-1.9c1.68 0 3 .55 3.98 1.65s1.46 2.56 1.46 4.36v1.28h-9.21c.04 1.57.44 2.76 1.19 3.58.75.81 1.81 1.22 3.18 1.22 1.44 0 2.87-.3 4.27-.9v1.81c-.72.31-1.39.53-2.03.67s-1.41.2-2.31.2Zm-.55-12.17c-1.07 0-1.93.35-2.57 1.05s-1.02 1.67-1.13 2.91h6.99c0-1.28-.29-2.26-.86-2.94s-1.38-1.02-2.44-1.02Zm26.47 5.22c0 2.18-.55 3.88-1.65 5.11-1.1 1.22-2.62 1.84-4.55 1.84-1.2 0-2.26-.28-3.19-.84s-1.64-1.37-2.15-2.42-.76-2.28-.76-3.69c0-2.18.54-3.88 1.63-5.1s2.6-1.82 4.54-1.82 3.36.62 4.46 1.87 1.65 2.93 1.65 5.05Zm-10.19 0c0 1.71.34 3.01 1.03 3.91.68.9 1.69 1.34 3.01 1.34s2.33-.45 3.02-1.34 1.03-2.2 1.03-3.91-.34-2.99-1.03-3.88c-.69-.88-1.7-1.32-3.04-1.32s-2.33.44-3 1.31c-.68.87-1.01 2.17-1.01 3.89Zm17.81 5.27c.36 0 .71-.03 1.04-.08s.6-.11.79-.16v1.55c-.22.11-.54.19-.97.26s-.81.1-1.15.1c-2.59 0-3.88-1.36-3.88-4.09v-7.96H1026v-.98l1.92-.84.85-2.86h1.17v3.1h3.88v1.57h-3.88v7.87c0 .81.19 1.42.57 1.86.38.43.91.65 1.57.65Zm13.41 1.43v-8.65c0-1.09-.25-1.9-.74-2.44s-1.27-.81-2.33-.81c-1.41 0-2.44.38-3.08 1.15-.65.77-.97 2.02-.97 3.76v6.99h-2.03v-18.99h2.03v5.75c0 .69-.03 1.27-.1 1.72h.12c.4-.64.96-1.15 1.7-1.52s1.58-.56 2.52-.56c1.64 0 2.86.39 3.68 1.17s1.23 2.01 1.23 3.7v8.73zm11.59.25c-1.98 0-3.54-.6-4.68-1.81-1.14-1.2-1.71-2.88-1.71-5.02s.53-3.87 1.59-5.14 2.49-1.9 4.28-1.9c1.68 0 3 .55 3.98 1.65s1.46 2.56 1.46 4.36v1.28h-9.21c.04 1.57.44 2.76 1.19 3.58.75.81 1.81 1.22 3.18 1.22 1.44 0 2.87-.3 4.27-.9v1.81c-.72.31-1.39.53-2.03.67s-1.41.2-2.31.2Zm-.55-12.17c-1.07 0-1.93.35-2.57 1.05s-1.02 1.67-1.13 2.91h6.99c0-1.28-.29-2.26-.86-2.94s-1.38-1.02-2.44-1.02Zm14.78-1.7c.59 0 1.13.05 1.6.15l-.28 1.88c-.55-.12-1.04-.18-1.46-.18-1.08 0-2.01.44-2.78 1.32s-1.15 1.97-1.15 3.28v7.18h-2.03v-13.38h1.67l.23 2.48h.1c.5-.87 1.09-1.54 1.79-2.01s1.47-.71 2.31-.71Zm18.32 13.62-.4-1.9h-.1c-.67.84-1.33 1.41-2 1.7s-1.49.45-2.48.45c-1.33 0-2.37-.34-3.12-1.03-.75-.68-1.13-1.66-1.13-2.92 0-2.7 2.16-4.12 6.48-4.25l2.27-.07v-.83c0-1.05-.23-1.82-.68-2.33-.45-.5-1.17-.75-2.17-.75-1.12 0-2.38.34-3.78 1.03l-.62-1.55c.66-.36 1.38-.64 2.17-.84s1.57-.31 2.36-.31c1.59 0 2.78.35 3.54 1.06.77.71 1.15 1.84 1.15 3.41v9.13h-1.5Zm-4.57-1.43c1.26 0 2.25-.35 2.97-1.04q1.08-1.035 1.08-2.91v-1.21l-2.03.09q-2.415.09-3.48.75c-.71.44-1.07 1.13-1.07 2.07 0 .73.22 1.29.66 1.67q.66.57 1.86.57Zm12.93 1.43-5.08-13.38h2.17l2.88 7.93c.65 1.86 1.03 3.06 1.15 3.61h.1c.09-.43.37-1.32.85-2.68s1.54-4.31 3.21-8.87h2.17l-5.08 13.38H1098Zm17.57 0-.4-1.9h-.1c-.67.84-1.33 1.41-1.99 1.7-.66.3-1.49.45-2.48.45-1.33 0-2.37-.34-3.12-1.03-.75-.68-1.13-1.66-1.13-2.92 0-2.7 2.16-4.12 6.48-4.25l2.27-.07v-.83c0-1.05-.23-1.82-.68-2.33s-1.17-.75-2.17-.75c-1.12 0-2.38.34-3.79 1.03l-.62-1.55c.66-.36 1.38-.64 2.17-.84s1.57-.31 2.36-.31c1.6 0 2.78.35 3.55 1.06s1.15 1.84 1.15 3.41v9.13zm-4.58-1.43c1.26 0 2.25-.35 2.97-1.04q1.08-1.035 1.08-2.91v-1.21l-2.03.09q-2.415.09-3.48.75c-.71.44-1.07 1.13-1.07 2.07 0 .73.22 1.29.67 1.67q.66.57 1.86.57Zm9.84-15.57c0-.46.12-.8.34-1.02.23-.22.51-.32.86-.32.32 0 .61.11.84.33s.35.56.35 1.01-.12.8-.35 1.02c-.24.22-.52.34-.84.34-.34 0-.63-.11-.86-.34-.23-.22-.34-.56-.34-1.02m2.19 17h-2.03V314.7h2.03zm6.08 0h-2.03v-18.99h2.03zm12.27 0-.4-1.9h-.1c-.67.84-1.33 1.41-2 1.7s-1.49.45-2.48.45c-1.33 0-2.37-.34-3.12-1.03-.75-.68-1.13-1.66-1.13-2.92 0-2.7 2.16-4.12 6.48-4.25l2.27-.07v-.83c0-1.05-.23-1.82-.68-2.33-.45-.5-1.17-.75-2.17-.75-1.12 0-2.38.34-3.78 1.03l-.62-1.55c.66-.36 1.38-.64 2.17-.84s1.57-.31 2.36-.31c1.59 0 2.78.35 3.54 1.06.77.71 1.15 1.84 1.15 3.41v9.13h-1.5Zm-4.57-1.43c1.26 0 2.25-.35 2.97-1.04q1.08-1.035 1.08-2.91v-1.21l-2.03.09q-2.415.09-3.48.75c-.71.44-1.07 1.13-1.07 2.07 0 .73.22 1.29.66 1.67q.66.57 1.86.57Zm16.22-12.17c1.76 0 3.12.6 4.1 1.8.97 1.2 1.46 2.9 1.46 5.1s-.49 3.9-1.47 5.12-2.34 1.82-4.08 1.82c-.87 0-1.67-.16-2.39-.48s-1.32-.82-1.81-1.48h-.15l-.43 1.72h-1.45v-18.99h2.03v4.61c0 1.03-.03 1.96-.1 2.78h.1c.95-1.33 2.34-2 4.2-2Zm-.29 1.7c-1.38 0-2.38.4-2.99 1.19s-.92 2.13-.92 4.01.31 3.22.94 4.03c.62.81 1.63 1.21 3.01 1.21 1.25 0 2.17-.45 2.78-1.36s.92-2.21.92-3.91-.3-3.04-.92-3.89c-.61-.85-1.55-1.28-2.83-1.28Zm11.16 11.9h-2.03v-18.99h2.03zm9.7.25c-1.98 0-3.54-.6-4.68-1.81-1.14-1.2-1.71-2.88-1.71-5.02s.53-3.87 1.59-5.14 2.49-1.9 4.28-1.9c1.68 0 3 .55 3.98 1.65s1.46 2.56 1.46 4.36v1.28h-9.22c.04 1.57.44 2.76 1.19 3.58.75.81 1.81 1.22 3.18 1.22 1.44 0 2.87-.3 4.27-.9v1.81c-.72.31-1.39.53-2.03.67s-1.41.2-2.31.2m-.54-12.17c-1.07 0-1.93.35-2.57 1.05s-1.02 1.67-1.13 2.91h6.99c0-1.28-.29-2.26-.85-2.94-.57-.68-1.38-1.02-2.44-1.02m21.02-1.7c.59 0 1.13.05 1.6.15l-.28 1.88c-.55-.12-1.04-.18-1.46-.18-1.08 0-2.01.44-2.78 1.32s-1.15 1.97-1.15 3.28v7.18h-2.03v-13.38h1.67l.23 2.48h.1c.5-.87 1.09-1.54 1.79-2.01s1.47-.71 2.31-.71Zm15.4 6.92c0 2.18-.55 3.88-1.65 5.11-1.1 1.22-2.62 1.84-4.55 1.84-1.2 0-2.26-.28-3.19-.84s-1.64-1.37-2.15-2.42-.76-2.28-.76-3.69c0-2.18.54-3.88 1.63-5.1s2.6-1.82 4.54-1.82 3.36.62 4.46 1.87 1.65 2.93 1.65 5.05Zm-10.2 0c0 1.71.34 3.01 1.03 3.91.68.9 1.69 1.34 3.01 1.34s2.33-.45 3.02-1.34 1.03-2.2 1.03-3.91-.34-2.99-1.03-3.88c-.69-.88-1.7-1.32-3.04-1.32s-2.33.44-3 1.31c-.68.87-1.01 2.17-1.01 3.89Zm25.04 0c0 2.18-.55 3.88-1.65 5.11-1.1 1.22-2.62 1.84-4.55 1.84-1.2 0-2.26-.28-3.19-.84s-1.64-1.37-2.15-2.42-.76-2.28-.76-3.69c0-2.18.54-3.88 1.63-5.1s2.6-1.82 4.54-1.82 3.36.62 4.46 1.87 1.65 2.93 1.65 5.05Zm-10.19 0c0 1.71.34 3.01 1.03 3.91.68.9 1.69 1.34 3.01 1.34s2.33-.45 3.02-1.34 1.03-2.2 1.03-3.91-.34-2.99-1.03-3.88c-.69-.88-1.7-1.32-3.04-1.32s-2.33.44-3 1.31c-.68.87-1.01 2.17-1.01 3.89Zm30.55 6.7v-8.7c0-1.07-.23-1.87-.68-2.4-.46-.53-1.16-.8-2.12-.8-1.26 0-2.19.36-2.8 1.09-.6.72-.9 1.84-.9 3.34v7.47h-2.03v-8.7c0-1.07-.23-1.87-.68-2.4-.46-.53-1.17-.8-2.13-.8q-1.905 0-2.79 1.14c-.59.76-.88 2.01-.88 3.74v7.02h-2.03V314.7h1.65l.33 1.83h.1q.57-.975 1.62-1.53c.7-.37 1.48-.55 2.34-.55 2.09 0 3.46.76 4.1 2.27h.1c.4-.7.98-1.25 1.73-1.66.76-.41 1.62-.61 2.59-.61 1.51 0 2.65.39 3.4 1.17s1.13 2.02 1.13 3.73v8.73h-2.03Zm14.58-3.65c0 1.25-.46 2.21-1.39 2.88-.93.68-2.23 1.01-3.91 1.01-1.77 0-3.16-.28-4.15-.84v-1.88c.64.33 1.33.58 2.07.77s1.45.28 2.13.28c1.06 0 1.87-.17 2.44-.51s.86-.85.86-1.54c0-.52-.23-.97-.68-1.34s-1.33-.81-2.64-1.31c-1.25-.46-2.13-.87-2.66-1.21-.53-.35-.92-.74-1.17-1.18s-.38-.96-.38-1.57c0-1.09.44-1.95 1.33-2.58s2.1-.95 3.65-.95c1.44 0 2.85.29 4.22.88l-.72 1.65c-1.34-.55-2.56-.83-3.65-.83-.96 0-1.68.15-2.17.45s-.73.72-.73 1.25c0 .36.09.66.27.92.18.25.48.49.89.72q.615.345 2.34.99c1.59.58 2.66 1.16 3.21 1.75.56.59.84 1.32.84 2.21Zm2.75 2.36c0-.55.12-.96.37-1.24s.61-.42 1.07-.42.84.14 1.11.42c.26.28.4.69.4 1.24s-.13.94-.4 1.22-.63.43-1.1.43c-.41 0-.76-.13-1.03-.38s-.41-.68-.41-1.26Z"/>
  <use xlink:href="#c" width="37.55" height="35.18" transform="translate(755.69 287.48)"/>
  <path fill="none" stroke="#000" stroke-miterlimit="10" d="M268.82 97.91V10.5c0-5.52 4.48-10 10-10h486.42c5.52 0 10 4.48 10 10v84.59" filter="url(#d)"/>
  <path fill="#ccc" stroke="#382f2c" stroke-miterlimit="10" d="M552.39 191.15V170.4c-11.46 0-20.75 9.29-20.75 20.75h-97.23V68.83h215.2v122.32h-97.23Z"/>
  <path fill="#00949c" stroke="#382f2c" stroke-miterlimit="10" d="M337.19 191.15V170.4c-11.46 0-20.75 9.29-20.75 20.75h-97.23V68.83h215.2v122.32h-97.23Z"/>
  <path fill="none" stroke="#382f2c" stroke-miterlimit="10" d="M337.19 191.15h194.45"/>
  <use xlink:href="#b" width="49.27" height="49.27" transform="matrix(.95 0 0 .95 30.1 106.56)"/>
  <path fill="#382f2c" d="M95.68 127.51h-2.7l-4.45-6.49-1.41 1.14v5.35h-2.35v-14.3h2.35v6.84c.29-.35.58-.7.87-1.06.29-.35.59-.7.88-1.06l4.03-4.72h2.65l-5.34 6.26zm5.95-11.03c.96 0 1.79.2 2.48.6s1.22.96 1.59 1.69.56 1.6.56 2.62v1.23h-7.23c.03 1.05.31 1.86.85 2.43s1.29.85 2.26.85c.69 0 1.31-.07 1.86-.2s1.12-.33 1.71-.59v1.87c-.54.25-1.09.44-1.65.56q-.84.18-2.01.18c-1.06 0-2-.21-2.8-.62-.81-.41-1.43-1.03-1.89-1.85s-.68-1.84-.68-3.06.21-2.24.62-3.09.99-1.49 1.73-1.94c.74-.44 1.61-.67 2.6-.67Zm0 1.73c-.72 0-1.31.23-1.76.7s-.71 1.16-.79 2.06h4.93c0-.54-.1-1.02-.27-1.44s-.43-.74-.78-.98c-.35-.23-.79-.35-1.33-.35Zm9.54 9.3h-2.31v-15.22h2.31zm5.75 0-4.12-10.83h2.44l2.23 6.36c.14.4.27.84.39 1.31s.2.86.25 1.18h.08c.04-.33.13-.73.26-1.2s.26-.9.4-1.3l2.23-6.36h2.43l-4.12 10.83h-2.46Zm9.38-14.97c.35 0 .66.09.91.28.26.19.39.52.39.98s-.13.78-.39.97-.56.29-.91.29-.67-.1-.92-.29-.38-.52-.38-.97.12-.79.38-.98c.25-.19.56-.28.92-.28m1.14 4.14v10.83h-2.3v-10.83zm8.93-.2c1.22 0 2.17.31 2.85.94q1.02.945 1.02 3.03v7.06h-2.3v-6.63c0-.84-.17-1.47-.52-1.89s-.88-.63-1.6-.63c-1.05 0-1.78.32-2.19.97s-.61 1.58-.61 2.81v5.38h-2.3v-10.83h1.79l.32 1.47h.13c.24-.38.53-.69.88-.93s.74-.43 1.17-.55.88-.19 1.35-.19Zm8.92-3.27.15.22c-.12.48-.27.98-.46 1.53q-.285.81-.6 1.62c-.22.54-.43 1.05-.66 1.54h-1.66c.09-.38.19-.79.28-1.22.1-.43.19-.86.28-1.29q.135-.645.24-1.26c.07-.41.13-.78.19-1.13h2.23Zm9.31 11.21c0 .71-.17 1.31-.52 1.8-.34.49-.85.86-1.51 1.11s-1.47.38-2.43.38c-.76 0-1.41-.05-1.95-.16a7 7 0 0 1-1.54-.49v-1.99q.765.36 1.74.63c.975.27 1.25.26 1.82.26.76 0 1.3-.12 1.63-.36s.5-.56.5-.95c0-.23-.07-.45-.2-.63-.13-.19-.38-.38-.74-.58q-.54-.3-1.59-.72c-.68-.27-1.26-.55-1.73-.82s-.83-.6-1.07-.99-.36-.89-.36-1.49q0-1.44 1.14-2.19c.76-.5 1.77-.75 3.02-.75.67 0 1.29.07 1.88.2s1.17.33 1.74.58l-.72 1.73c-.49-.22-.98-.39-1.47-.53s-.99-.21-1.5-.21q-.885 0-1.35.27c-.31.18-.46.44-.46.78 0 .25.07.47.22.65s.41.35.78.53.88.39 1.54.66q.96.375 1.68.78c.72.405.84.6 1.09.99s.38.9.38 1.52Zm-61.73 23.12h-8.1v-14.3h8.1v1.98h-5.75v3.88h5.39v1.97h-5.39v4.49h5.75v1.99Zm5.24-5.54-3.62-5.29h2.62l2.47 3.8 2.48-3.8h2.61l-3.64 5.29 3.82 5.54h-2.63l-2.65-4.06-2.66 4.06H94.3l3.79-5.54Zm12.88-5.49c1.37 0 2.4.3 3.1.91s1.05 1.55 1.05 2.84v7.29h-1.63l-.44-1.54h-.08c-.31.39-.62.71-.95.97-.33.25-.7.44-1.13.57s-.95.19-1.56.19c-.65 0-1.22-.12-1.73-.36s-.91-.6-1.2-1.09-.44-1.11-.44-1.86c0-1.11.42-1.95 1.25-2.51s2.09-.87 3.77-.93l1.88-.07v-.57c0-.75-.17-1.28-.52-1.6q-.525-.48-1.47-.48c-.54 0-1.07.08-1.57.23s-1 .35-1.49.58l-.74-1.62c.53-.28 1.13-.51 1.8-.68.67-.18 1.38-.26 2.11-.26Zm1.88 5.85-1.4.05c-1.15.04-1.95.23-2.42.59-.46.35-.69.83-.69 1.45q0 .795.48 1.17c.32.24.74.37 1.26.37.79 0 1.46-.23 1.98-.68s.79-1.12.79-2v-.94Zm17.73-5.85c1.21 0 2.13.31 2.74.94s.92 1.63.92 3.01v7.08h-2.3v-6.67q0-1.23-.48-1.86c-.48-.63-.81-.63-1.46-.63-.91 0-1.57.29-1.97.88-.4.58-.6 1.43-.6 2.54v5.74h-2.3v-6.67c0-.55-.07-1.01-.21-1.37-.14-.37-.35-.65-.64-.83-.29-.19-.65-.28-1.09-.28-.63 0-1.14.14-1.51.43s-.64.71-.81 1.27c-.16.56-.24 1.24-.24 2.05v5.41h-2.3v-10.83h1.79l.32 1.46h.13c.22-.38.5-.69.83-.93s.7-.43 1.1-.55.82-.18 1.26-.18c.81 0 1.49.14 2.04.43.55.28.97.72 1.24 1.3h.18c.34-.59.81-1.02 1.42-1.3s1.25-.42 1.93-.42Zm16.33-3.27q1.845 0 3.06.45c.8.3 1.4.76 1.8 1.37.39.61.59 1.39.59 2.34q0 1.05-.39 1.8c-.26.5-.6.91-1.03 1.23-.42.33-.88.59-1.36.78l4.06 6.33h-2.65l-3.45-5.73h-2.3v5.73h-2.35v-14.3zm-.16 1.96h-1.52v4.67h1.62c1.09 0 1.88-.2 2.37-.61.49-.4.74-1 .74-1.79 0-.83-.26-1.41-.79-1.76s-1.34-.52-2.43-.52Zm18.28 6.9c0 .9-.12 1.7-.35 2.4-.24.7-.58 1.29-1.03 1.77s-.99.84-1.62 1.1-1.35.38-2.14.38c-.74 0-1.42-.13-2.04-.38s-1.16-.62-1.61-1.1q-.675-.72-1.05-1.77c-.25-.7-.37-1.5-.37-2.4 0-1.19.21-2.21.62-3.04s1.01-1.47 1.78-1.9c.77-.44 1.69-.66 2.75-.66q1.5 0 2.64.66c.76.44 1.36 1.07 1.79 1.91.43.83.65 1.85.65 3.03Zm-7.85 0c0 .79.1 1.46.29 2.02s.49.99.89 1.29.93.44 1.56.44 1.16-.15 1.56-.44.7-.73.89-1.29.28-1.24.28-2.02-.09-1.46-.28-2.01-.49-.97-.89-1.26-.93-.44-1.57-.44c-.95 0-1.65.32-2.08.96s-.66 1.55-.66 2.75Zm20.07 0c0 .9-.12 1.7-.35 2.4a4.7 4.7 0 0 1-1.03 1.77c-.45.48-.99.84-1.62 1.1-.63.25-1.35.38-2.14.38-.74 0-1.42-.13-2.04-.38s-1.16-.62-1.61-1.1q-.675-.72-1.05-1.77c-.25-.7-.37-1.5-.37-2.4 0-1.19.21-2.21.62-3.04s1.01-1.47 1.78-1.9c.77-.44 1.68-.66 2.75-.66q1.5 0 2.64.66c.76.44 1.36 1.07 1.79 1.91.43.83.65 1.85.65 3.03Zm-7.85 0c0 .79.1 1.46.29 2.02s.49.99.89 1.29.93.44 1.57.44 1.16-.15 1.56-.44.7-.73.89-1.29.28-1.24.28-2.02-.09-1.46-.28-2.01-.49-.97-.89-1.26-.93-.44-1.57-.44c-.95 0-1.65.32-2.08.96-.44.64-.65 1.55-.65 2.75Zm22.73-5.59c1.21 0 2.13.31 2.74.94s.92 1.63.92 3.01v7.08h-2.3v-6.67q0-1.23-.48-1.86c-.32-.42-.81-.63-1.46-.63-.91 0-1.57.29-1.97.88-.4.58-.6 1.43-.6 2.54v5.74h-2.3v-6.67c0-.55-.07-1.01-.21-1.37s-.35-.65-.64-.83-.65-.28-1.08-.28c-.63 0-1.14.14-1.51.43s-.64.71-.81 1.27-.24 1.24-.24 2.05v5.41h-2.3v-10.83h1.79l.32 1.46h.13c.22-.38.5-.69.83-.93s.7-.43 1.1-.55.83-.18 1.26-.18c.81 0 1.49.14 2.04.43.55.28.97.72 1.24 1.3h.18c.34-.59.81-1.02 1.42-1.3s1.25-.42 1.93-.42Z"/>
  <use xlink:href="#a" width="37.24" height="46.52" transform="matrix(.95 0 0 .95 251.03 107.79)"/>
  <path fill="#fff" d="M308.23 123.61c0 .85-.21 1.58-.62 2.19s-1.01 1.08-1.78 1.41-1.69.49-2.76.49q-.78 0-1.5-.09c-.48-.06-.92-.15-1.34-.26s-.8-.25-1.15-.42v-2.21q.87.375 1.95.69c.72.21 1.45.31 2.19.31.61 0 1.11-.08 1.51-.24s.7-.39.89-.68c.2-.3.29-.64.29-1.04 0-.42-.11-.78-.34-1.08-.23-.29-.57-.56-1.03-.81-.46-.24-1.04-.51-1.73-.79-.47-.19-.92-.4-1.34-.65-.43-.24-.81-.52-1.14-.85s-.59-.71-.79-1.16-.29-.97-.29-1.58c0-.81.19-1.5.58-2.07s.94-1.01 1.64-1.32c.71-.31 1.53-.46 2.48-.46.75 0 1.46.08 2.12.23.66.16 1.31.38 1.95.67l-.74 1.89c-.59-.24-1.16-.43-1.71-.58-.55-.14-1.11-.22-1.69-.22-.5 0-.92.07-1.26.22-.35.15-.61.36-.79.63q-.27.405-.27.96c0 .42.1.77.31 1.05s.52.54.96.78.99.5 1.68.78c.79.33 1.46.67 2.01 1.03a4 4 0 0 1 1.27 1.29c.29.5.44 1.12.44 1.87Zm4.82-11.33v3.82c0 .4-.01.79-.03 1.16-.02.38-.05.67-.07.88h.13q.345-.57.84-.93c.33-.24.71-.43 1.12-.55s.86-.19 1.33-.19c.83 0 1.53.14 2.11.42s1.03.71 1.33 1.29c.31.58.46 1.33.46 2.26v7.06h-2.3v-6.63c0-.84-.17-1.47-.52-1.89s-.88-.63-1.6-.63-1.25.15-1.66.44-.7.72-.88 1.28-.26 1.25-.26 2.06v5.38h-2.3v-15.22h2.3Zm14.67 4.19c1.37 0 2.4.3 3.1.91s1.05 1.55 1.05 2.84v7.29h-1.63l-.44-1.54h-.08c-.31.39-.62.71-.95.97-.33.25-.7.44-1.13.57s-.95.19-1.56.19c-.65 0-1.22-.12-1.73-.36s-.91-.6-1.2-1.09-.44-1.11-.44-1.86c0-1.11.42-1.95 1.25-2.51s2.09-.87 3.77-.93l1.88-.07v-.57c0-.75-.17-1.28-.52-1.6q-.525-.48-1.47-.48c-.54 0-1.07.08-1.57.23s-1 .35-1.49.58l-.74-1.62c.53-.28 1.13-.51 1.8-.68.67-.18 1.38-.26 2.11-.26Zm1.88 5.85-1.4.05c-1.15.04-1.95.23-2.42.59-.46.35-.69.83-.69 1.45q0 .795.48 1.17c.32.24.74.37 1.26.37.79 0 1.46-.23 1.98-.68s.79-1.12.79-2v-.94Zm10.98-5.85q.27 0 .6.03c.21.02.4.05.56.08l-.22 2.15c-.14-.04-.3-.07-.5-.09s-.38-.03-.53-.03c-.41 0-.8.07-1.17.2s-.7.34-.99.61-.51.61-.67 1.01q-.24.6-.24 1.41v5.66h-2.31v-10.83h1.8l.31 1.91h.11c.22-.38.48-.74.8-1.06s.69-.58 1.1-.77.87-.29 1.36-.29Zm7.47 0c.96 0 1.79.2 2.48.6s1.22.96 1.59 1.69.56 1.6.56 2.62v1.23h-7.23c.03 1.05.31 1.86.85 2.43s1.29.85 2.26.85c.69 0 1.31-.07 1.86-.2s1.12-.33 1.71-.59v1.87c-.54.25-1.09.44-1.65.56s-1.23.18-2.01.18c-1.06 0-2-.21-2.8-.62s-1.43-1.03-1.89-1.85-.68-1.84-.68-3.06.21-2.24.62-3.09.99-1.49 1.73-1.94c.74-.44 1.61-.67 2.6-.67Zm0 1.73c-.72 0-1.31.23-1.76.7s-.71 1.16-.79 2.06h4.93c0-.54-.1-1.02-.27-1.44s-.43-.74-.78-.98c-.35-.23-.79-.35-1.33-.35Zm14.5 6.21c0 .71-.17 1.31-.52 1.8s-.85.86-1.51 1.11-1.47.38-2.43.38c-.76 0-1.41-.05-1.95-.16a7 7 0 0 1-1.54-.49v-1.99c.52.24 1.09.45 1.74.63.64.18 1.25.26 1.82.26.76 0 1.3-.12 1.63-.36s.5-.56.5-.95c0-.23-.07-.45-.2-.63s-.38-.38-.74-.58q-.54-.3-1.59-.72c-.68-.27-1.26-.55-1.73-.82s-.82-.6-1.07-.99-.36-.89-.36-1.49q0-1.44 1.14-2.19c.76-.5 1.76-.75 3.02-.75.67 0 1.29.07 1.88.2s1.17.33 1.74.58l-.72 1.73c-.49-.22-.98-.39-1.47-.53s-.99-.21-1.5-.21q-.885 0-1.35.27c-.31.18-.46.44-.46.78 0 .25.07.47.22.65s.41.35.78.53.88.39 1.54.66c.65.25 1.2.51 1.68.78s.84.6 1.09.99.38.9.38 1.52Zm6.79-7.94c.96 0 1.79.2 2.48.6s1.22.96 1.59 1.69.56 1.6.56 2.62v1.23h-7.23c.03 1.05.31 1.86.85 2.43s1.29.85 2.26.85c.69 0 1.31-.07 1.86-.2s1.12-.33 1.71-.59v1.87c-.54.25-1.09.44-1.65.56q-.84.18-2.01.18c-1.06 0-2-.21-2.8-.62-.81-.41-1.43-1.03-1.89-1.85s-.68-1.84-.68-3.06.21-2.24.62-3.09.99-1.49 1.73-1.94c.74-.44 1.61-.67 2.6-.67Zm0 1.73c-.72 0-1.31.23-1.75.7-.45.47-.71 1.16-.79 2.06h4.93c0-.54-.1-1.02-.27-1.44s-.43-.74-.78-.98c-.35-.23-.79-.35-1.33-.35Zm9.07-5 .15.22c-.12.48-.27.98-.45 1.53q-.285.81-.6 1.62c-.21.54-.43 1.05-.66 1.54h-1.66c.09-.38.19-.79.28-1.22s.19-.86.28-1.29.17-.85.25-1.26c.07-.41.13-.78.19-1.13h2.23Zm9.31 11.21c0 .71-.17 1.31-.52 1.8s-.85.86-1.51 1.11-1.47.38-2.43.38c-.76 0-1.41-.05-1.95-.16a7 7 0 0 1-1.54-.49v-1.99c.52.24 1.09.45 1.74.63.64.18 1.25.26 1.82.26.76 0 1.3-.12 1.63-.36s.5-.56.5-.95c0-.23-.07-.45-.2-.63s-.38-.38-.74-.58q-.54-.3-1.59-.72c-.68-.27-1.26-.55-1.73-.82s-.82-.6-1.07-.99-.36-.89-.36-1.49q0-1.44 1.14-2.19c.76-.5 1.76-.75 3.02-.75.67 0 1.29.07 1.88.2s1.17.33 1.74.58l-.72 1.73c-.49-.22-.98-.39-1.47-.53s-.99-.21-1.5-.21q-.885 0-1.35.27c-.31.18-.46.44-.46.78 0 .25.07.47.22.65s.41.35.78.53.88.39 1.54.66c.65.25 1.2.51 1.68.78s.84.6 1.09.99.38.9.38 1.52Zm-79.65 23.12h-8.1v-14.3h8.1v1.98h-5.75v3.88h5.39v1.97h-5.39v4.49h5.75v1.99Zm5.25-5.54-3.62-5.29h2.62l2.47 3.8 2.48-3.8h2.61l-3.64 5.29 3.82 5.54h-2.63l-2.65-4.06-2.66 4.06h-2.61l3.79-5.54Zm12.88-5.49c1.37 0 2.4.3 3.1.91s1.05 1.55 1.05 2.84v7.29h-1.63l-.44-1.54h-.08c-.31.39-.62.71-.95.97-.33.25-.7.44-1.13.57s-.95.19-1.56.19c-.65 0-1.22-.12-1.73-.36s-.91-.6-1.2-1.09-.44-1.11-.44-1.86c0-1.11.42-1.95 1.25-2.51s2.09-.87 3.77-.93l1.88-.07v-.57c0-.75-.17-1.28-.52-1.6q-.525-.48-1.47-.48c-.54 0-1.07.08-1.57.23s-1 .35-1.49.58l-.74-1.62c.53-.28 1.13-.51 1.8-.68.67-.18 1.38-.26 2.11-.26Zm1.87 5.85-1.4.05c-1.15.04-1.95.23-2.42.59-.46.35-.69.83-.69 1.45q0 .795.48 1.17c.32.24.74.37 1.26.37.79 0 1.46-.23 1.98-.68s.79-1.12.79-2v-.94Zm17.73-5.85c1.21 0 2.13.31 2.74.94s.92 1.63.92 3.01v7.08h-2.3v-6.67q0-1.23-.48-1.86c-.48-.63-.81-.63-1.46-.63-.91 0-1.57.29-1.97.88-.4.58-.6 1.43-.6 2.54v5.74h-2.3v-6.67c0-.55-.07-1.01-.21-1.37-.14-.37-.35-.65-.64-.83-.29-.19-.65-.28-1.09-.28-.63 0-1.14.14-1.51.43s-.64.71-.81 1.27c-.16.56-.24 1.24-.24 2.05v5.41h-2.3v-10.83h1.79l.32 1.46h.13c.22-.38.5-.69.83-.93s.7-.43 1.1-.55.82-.18 1.26-.18c.81 0 1.49.14 2.04.43.55.28.97.72 1.24 1.3h.18c.34-.59.81-1.02 1.42-1.3s1.25-.42 1.93-.42Zm16.33-3.27q1.845 0 3.06.45c.8.3 1.4.76 1.8 1.37.39.61.59 1.39.59 2.34q0 1.05-.39 1.8c-.26.5-.6.91-1.03 1.23-.42.33-.88.59-1.36.78l4.06 6.33h-2.65l-3.45-5.73h-2.3v5.73h-2.35v-14.3zm-.15 1.95h-1.52v4.67h1.62c1.09 0 1.88-.2 2.37-.61.49-.4.74-1 .74-1.79 0-.83-.26-1.41-.79-1.76s-1.34-.52-2.43-.52Zm18.28 6.91c0 .9-.12 1.7-.35 2.4-.24.7-.58 1.29-1.03 1.77s-.99.84-1.62 1.1-1.35.38-2.14.38c-.74 0-1.42-.13-2.04-.38s-1.16-.62-1.61-1.1q-.675-.72-1.05-1.77c-.25-.7-.37-1.5-.37-2.4 0-1.19.21-2.21.62-3.04s1.01-1.47 1.78-1.9c.77-.44 1.69-.66 2.75-.66q1.5 0 2.64.66c.76.44 1.36 1.07 1.79 1.91.43.83.65 1.85.65 3.03Zm-7.86 0c0 .79.1 1.46.29 2.02s.49.99.89 1.29.93.44 1.56.44 1.16-.15 1.56-.44.7-.73.89-1.29.28-1.24.28-2.02-.09-1.46-.28-2.01-.49-.97-.89-1.26-.93-.44-1.57-.44c-.95 0-1.65.32-2.08.96s-.66 1.55-.66 2.75Zm20.08 0c0 .9-.12 1.7-.35 2.4a4.7 4.7 0 0 1-1.03 1.77c-.45.48-.99.84-1.62 1.1-.63.25-1.35.38-2.14.38-.74 0-1.42-.13-2.04-.38s-1.16-.62-1.61-1.1q-.675-.72-1.05-1.77c-.25-.7-.37-1.5-.37-2.4 0-1.19.21-2.21.62-3.04s1.01-1.47 1.78-1.9c.77-.44 1.68-.66 2.75-.66q1.5 0 2.64.66c.76.44 1.36 1.07 1.79 1.91.43.83.65 1.85.65 3.03Zm-7.85 0c0 .79.1 1.46.29 2.02s.49.99.89 1.29.93.44 1.57.44 1.16-.15 1.56-.44.7-.73.89-1.29.28-1.24.28-2.02-.09-1.46-.28-2.01-.49-.97-.89-1.26-.93-.44-1.57-.44c-.95 0-1.65.32-2.08.96-.44.64-.65 1.55-.65 2.75Zm22.72-5.59c1.21 0 2.13.31 2.74.94s.92 1.63.92 3.01v7.08h-2.3v-6.67q0-1.23-.48-1.86c-.32-.42-.81-.63-1.46-.63-.91 0-1.57.29-1.97.88-.4.58-.6 1.43-.6 2.54v5.74h-2.3v-6.67c0-.55-.07-1.01-.21-1.37s-.35-.65-.64-.83-.65-.28-1.08-.28c-.63 0-1.14.14-1.51.43s-.64.71-.81 1.27-.24 1.24-.24 2.05v5.41h-2.3v-10.83h1.79l.32 1.46h.13c.22-.38.5-.69.83-.93s.7-.43 1.1-.55.83-.18 1.26-.18c.81 0 1.49.14 2.04.43.55.28.97.72 1.24 1.3h.18c.34-.59.81-1.02 1.42-1.3s1.25-.42 1.93-.42Z"/>
  <use xlink:href="#c" width="37.55" height="35.18" transform="matrix(.95 0 0 .95 466.08 113.18)"/>
  <path fill="#382f2c" d="M515.18 127.43v-14.3h2.35v14.3zm8.35 0-4.12-10.83h2.43l2.23 6.36c.14.4.27.84.39 1.31s.2.86.25 1.18h.08c.04-.33.13-.73.26-1.2s.26-.9.4-1.3l2.23-6.36h2.42l-4.12 10.83h-2.46ZM536 116.4c1.37 0 2.4.3 3.1.91s1.05 1.55 1.05 2.84v7.29h-1.63l-.44-1.54H538c-.31.39-.62.71-.95.97-.33.25-.7.44-1.13.57s-.95.19-1.56.19c-.65 0-1.22-.12-1.73-.36s-.91-.6-1.2-1.09-.44-1.11-.44-1.86c0-1.11.42-1.95 1.25-2.51s2.09-.87 3.77-.93l1.88-.07v-.57c0-.75-.17-1.28-.52-1.6q-.525-.48-1.47-.48c-.54 0-1.07.08-1.58.23s-1 .35-1.49.58l-.74-1.62c.53-.28 1.13-.51 1.8-.68s1.38-.26 2.11-.26Zm1.88 5.85-1.4.05c-1.15.04-1.95.23-2.42.59s-.69.83-.69 1.45q0 .795.48 1.17c.48.375.74.37 1.26.37.8 0 1.46-.23 1.98-.68.53-.45.79-1.12.79-2v-.94Zm11.14-5.85c1.22 0 2.17.31 2.85.94q1.02.945 1.02 3.03v7.06h-2.3v-6.63c0-.84-.17-1.47-.52-1.89s-.88-.63-1.6-.63c-1.05 0-1.78.32-2.19.97s-.61 1.58-.61 2.81v5.38h-2.3v-10.83h1.79l.32 1.47h.13c.23-.38.53-.69.88-.93s.74-.43 1.17-.55.88-.19 1.35-.19Zm8.91-3.27.15.22c-.12.48-.27.98-.46 1.53s-.39 1.08-.6 1.62-.43 1.05-.66 1.54h-1.66c.09-.38.19-.79.28-1.22s.19-.86.28-1.29q.135-.645.24-1.26c.07-.41.13-.78.19-1.13h2.23Zm9.31 11.21c0 .71-.17 1.31-.52 1.8s-.85.86-1.51 1.11-1.47.38-2.43.38c-.76 0-1.41-.05-1.95-.16a7 7 0 0 1-1.54-.49v-1.99q.765.36 1.74.63c.64.18 1.25.26 1.82.26.76 0 1.3-.12 1.63-.36s.5-.56.5-.95c0-.23-.07-.45-.2-.63s-.38-.38-.74-.58q-.54-.3-1.59-.72c-.68-.27-1.26-.55-1.73-.82s-.83-.6-1.07-.99-.36-.89-.36-1.49q0-1.44 1.14-2.19c1.14-.75 1.76-.75 3.02-.75.67 0 1.29.07 1.88.2s1.17.33 1.74.58l-.72 1.73c-.49-.22-.98-.39-1.47-.53s-.99-.21-1.5-.21q-.885 0-1.35.27c-.31.18-.46.44-.46.78 0 .25.08.47.23.65s.41.35.78.53.88.39 1.54.66c.65.25 1.2.51 1.68.78.47.27.84.6 1.09.99s.38.9.38 1.52Zm-43.96 23.12h-8.1v-14.3h8.1v1.98h-5.75v3.88h5.39v1.97h-5.39v4.49h5.75v1.99Zm5.24-5.54-3.62-5.29h2.62l2.47 3.8 2.48-3.8h2.61l-3.64 5.29 3.82 5.54h-2.63l-2.65-4.06-2.66 4.06h-2.61l3.79-5.54Zm12.88-5.5c1.37 0 2.4.3 3.1.91s1.05 1.55 1.05 2.84v7.29h-1.63l-.44-1.54h-.08c-.31.39-.62.71-.95.97-.33.25-.7.44-1.13.57s-.95.19-1.56.19c-.65 0-1.22-.12-1.73-.36s-.91-.6-1.2-1.09-.44-1.11-.44-1.86c0-1.11.42-1.95 1.25-2.51s2.09-.87 3.77-.93l1.88-.07v-.57c0-.75-.17-1.28-.52-1.6q-.525-.48-1.47-.48c-.54 0-1.07.08-1.57.23s-1 .35-1.49.58l-.74-1.62c.53-.28 1.13-.51 1.8-.68.67-.18 1.38-.26 2.11-.26Zm1.88 5.86-1.4.05c-1.15.04-1.95.23-2.42.59-.46.35-.69.83-.69 1.45q0 .795.48 1.17c.32.24.74.37 1.26.37.79 0 1.46-.23 1.98-.68s.79-1.12.79-2v-.94Zm17.73-5.86c1.21 0 2.13.31 2.74.94s.92 1.63.92 3.01v7.08h-2.3v-6.67q0-1.23-.48-1.86c-.48-.63-.81-.63-1.46-.63-.91 0-1.57.29-1.97.88-.4.58-.6 1.43-.6 2.54v5.74h-2.3v-6.67c0-.55-.07-1.01-.21-1.37-.14-.37-.35-.65-.64-.83-.29-.19-.65-.28-1.09-.28-.63 0-1.14.14-1.51.43s-.64.71-.81 1.27c-.16.56-.24 1.24-.24 2.05v5.41h-2.3v-10.83h1.79l.32 1.46h.13c.22-.38.5-.69.83-.93s.7-.43 1.1-.55.82-.18 1.26-.18c.81 0 1.49.14 2.04.43.55.28.97.72 1.24 1.3h.18c.34-.59.81-1.02 1.42-1.3s1.25-.42 1.93-.42Zm16.33-3.26q1.845 0 3.06.45c.8.3 1.4.76 1.8 1.37.39.61.59 1.39.59 2.34q0 1.05-.39 1.8c-.26.5-.6.91-1.03 1.23-.42.33-.88.59-1.36.78l4.06 6.33h-2.65l-3.45-5.73h-2.3v5.73h-2.35v-14.3zm-.16 1.95h-1.52v4.67h1.62c1.09 0 1.88-.2 2.37-.61.49-.4.74-1 .74-1.79 0-.83-.26-1.41-.79-1.76s-1.34-.52-2.43-.52Zm18.28 6.91c0 .9-.12 1.7-.35 2.4-.24.7-.58 1.29-1.03 1.77s-.99.84-1.62 1.1-1.35.38-2.14.38c-.74 0-1.42-.13-2.04-.38s-1.16-.62-1.61-1.1q-.675-.72-1.05-1.77c-.25-.7-.37-1.5-.37-2.4 0-1.19.21-2.21.62-3.04s1.01-1.47 1.78-1.9c.77-.44 1.69-.66 2.75-.66q1.5 0 2.64.66c.76.44 1.36 1.07 1.79 1.91.43.83.65 1.85.65 3.03Zm-7.85 0c0 .79.1 1.46.29 2.02s.49.99.89 1.29.93.44 1.56.44 1.16-.15 1.56-.44.7-.73.89-1.29.28-1.24.28-2.02-.09-1.46-.28-2.01-.49-.97-.89-1.26-.93-.44-1.57-.44c-.95 0-1.65.32-2.08.96s-.66 1.55-.66 2.75Zm20.07 0c0 .9-.12 1.7-.35 2.4a4.7 4.7 0 0 1-1.03 1.77c-.45.48-.99.84-1.62 1.1-.63.25-1.35.38-2.14.38-.74 0-1.42-.13-2.04-.38s-1.16-.62-1.61-1.1q-.675-.72-1.05-1.77c-.25-.7-.37-1.5-.37-2.4 0-1.19.21-2.21.62-3.04s1.01-1.47 1.78-1.9c.77-.44 1.68-.66 2.75-.66q1.5 0 2.64.66c.76.44 1.36 1.07 1.79 1.91.43.83.65 1.85.65 3.03Zm-7.85 0c0 .79.1 1.46.29 2.02s.49.99.89 1.29.93.44 1.57.44 1.16-.15 1.56-.44.7-.73.89-1.29.28-1.24.28-2.02-.09-1.46-.28-2.01-.49-.97-.89-1.26-.93-.44-1.57-.44c-.95 0-1.65.32-2.08.96-.44.64-.65 1.55-.65 2.75Zm22.73-5.6c1.21 0 2.13.31 2.74.94s.92 1.63.92 3.01v7.08h-2.3v-6.67q0-1.23-.48-1.86c-.32-.42-.81-.63-1.46-.63-.91 0-1.57.29-1.97.88-.4.58-.6 1.43-.6 2.54v5.74h-2.3v-6.67c0-.55-.07-1.01-.21-1.37s-.35-.65-.64-.83-.65-.28-1.08-.28c-.63 0-1.14.14-1.51.43s-.64.71-.81 1.27-.24 1.24-.24 2.05v5.41h-2.3v-10.83h1.79l.32 1.46h.13c.22-.38.5-.69.83-.93s.7-.43 1.1-.55.83-.18 1.26-.18c.81 0 1.49.14 2.04.43.55.28.97.72 1.24 1.3h.18c.34-.59.81-1.02 1.42-1.3s1.25-.42 1.93-.42Z" opacity=".2"/>
  <path fill="none" stroke="#382f2c" stroke-miterlimit="10" d="M121.98 191.15h97.23V68.83H4.01v122.32h97.23c0-11.46 9.29-20.75 20.75-20.75v20.75h194.45"/>
  <path fill="none" stroke="#382f2c" stroke-linejoin="round" d="M120.59 313.47v-20.75c-11.46 0-20.75 9.29-20.75 20.75"/>
  <path fill="none" stroke="#382f2c" stroke-linejoin="round" stroke-width="2" d="M99.84 313.47H4.01V68.84h645.61v244.63H120.59"/>
  <path fill="#382f2c" d="m302.12 242.06-3.74 14.3h-2.56l-2.39-8.57c-.06-.21-.12-.46-.2-.74-.07-.29-.14-.58-.21-.88s-.13-.58-.18-.83-.08-.45-.1-.58c-.01.14-.04.33-.09.58s-.1.52-.16.82-.13.59-.2.88-.14.55-.2.77l-2.35 8.56h-2.55l-3.73-14.3h2.36l2.06 8.38c.07.27.13.56.2.87s.13.62.2.93.12.62.17.91c.05.3.09.57.13.81.03-.25.07-.52.13-.83.05-.3.11-.61.17-.93s.13-.62.2-.91.14-.56.21-.79l2.33-8.44h2.29l2.38 8.47q.105.36.21.81c.07.3.13.61.2.92s.12.62.18.91c.05.29.09.56.13.79.04-.32.1-.68.18-1.1.07-.41.15-.83.24-1.25q.135-.63.27-1.17l2.05-8.38h2.37Zm6.04 3.27c1.37 0 2.4.3 3.1.91s1.05 1.55 1.05 2.84v7.29h-1.63l-.44-1.54h-.08c-.31.39-.62.71-.95.97-.33.25-.7.44-1.13.57s-.95.19-1.56.19c-.65 0-1.22-.12-1.73-.36s-.91-.6-1.2-1.09-.44-1.11-.44-1.86c0-1.11.42-1.95 1.25-2.51s2.09-.87 3.77-.93l1.88-.07v-.57c0-.75-.17-1.28-.52-1.6q-.525-.48-1.47-.48c-.54 0-1.07.08-1.58.23s-1 .35-1.49.58l-.74-1.62c.53-.28 1.13-.51 1.8-.68s1.38-.26 2.11-.26Zm1.87 5.86-1.4.05c-1.15.04-1.95.23-2.42.59s-.69.83-.69 1.45q0 .795.48 1.17c.48.375.74.37 1.26.37.8 0 1.46-.23 1.98-.68.53-.45.79-1.12.79-2v-.94Zm6.66-9.8c.35 0 .66.09.91.28.26.19.39.52.39.98s-.13.78-.39.97-.56.29-.91.29-.67-.1-.92-.29-.38-.52-.38-.97.13-.79.38-.98.56-.28.92-.28m1.14 4.15v10.83h-2.3v-10.83zm7.31 9.16c.3 0 .6-.03.89-.08.29-.06.56-.12.8-.2v1.74c-.25.11-.58.21-.99.28-.4.08-.83.12-1.26.12-.61 0-1.16-.1-1.65-.31a2.38 2.38 0 0 1-1.16-1.06c-.29-.5-.43-1.2-.43-2.08v-5.82h-1.48v-1.03l1.58-.81.75-2.32h1.45v2.41h3.1v1.75h-3.1v5.79c0 .55.14.96.41 1.22.27.27.64.4 1.09.4m5.06-13.31c.35 0 .66.09.91.28.26.19.39.52.39.98s-.13.78-.39.97-.56.29-.91.29-.67-.1-.92-.29-.38-.52-.38-.97.12-.79.38-.98c.25-.19.56-.28.92-.28m1.13 4.15v10.83h-2.3v-10.83zm8.93-.21c1.22 0 2.17.31 2.85.94q1.02.945 1.02 3.03v7.06h-2.3v-6.63c0-.84-.17-1.47-.52-1.89s-.88-.63-1.6-.63c-1.05 0-1.78.32-2.19.97s-.61 1.58-.61 2.81v5.38h-2.3v-10.83h1.79l.32 1.47h.13c.24-.38.53-.69.88-.93s.74-.43 1.17-.55.88-.19 1.35-.19Zm10.17 15.84c-1.47 0-2.59-.26-3.37-.79q-1.17-.795-1.17-2.22c0-.66.21-1.23.63-1.69s1.01-.78 1.79-.95c-.29-.13-.55-.33-.76-.61s-.32-.59-.32-.92c0-.4.11-.75.34-1.04s.57-.56 1.03-.83c-.57-.24-1.02-.63-1.36-1.18s-.51-1.18-.51-1.92c0-.78.17-1.45.5-2s.82-.97 1.46-1.26 1.41-.44 2.32-.44c.2 0 .41.01.64.03s.45.05.65.08.35.06.46.09h3.75v1.28l-1.84.34c.18.25.32.53.42.85s.16.66.16 1.03c0 1.12-.39 2-1.16 2.65-.77.64-1.84.96-3.19.96a10 10 0 0 1-.95-.08c-.23.14-.41.3-.54.47-.12.17-.19.37-.19.58 0 .18.06.32.19.43.12.11.31.19.55.24s.54.08.89.08h1.87c1.19 0 2.09.25 2.72.75s.94 1.24.94 2.21q0 1.845-1.53 2.85c-1.02.67-2.48 1-4.39 1Zm.09-1.61c.8 0 1.48-.08 2.02-.23.55-.16.96-.38 1.24-.67s.42-.63.42-1.03c0-.35-.09-.62-.26-.81-.18-.19-.44-.32-.79-.39s-.79-.11-1.31-.11h-1.7c-.42 0-.8.07-1.12.2-.33.13-.58.33-.76.58s-.27.56-.27.92q0 .75.66 1.14c.66.39 1.06.4 1.87.4m.45-8.43c.67 0 1.17-.18 1.5-.55s.49-.89.49-1.56c0-.73-.17-1.28-.5-1.64-.34-.36-.83-.55-1.49-.55s-1.14.19-1.47.56-.5.92-.5 1.65c0 .66.17 1.17.5 1.54s.83.55 1.48.55Zm16.93-9.07q1.845 0 3.06.45c.81.3 1.41.76 1.8 1.37s.59 1.39.59 2.34q0 1.05-.39 1.8c-.26.5-.6.91-1.03 1.23-.42.33-.88.59-1.36.78l4.06 6.33h-2.65l-3.45-5.73h-2.3v5.73h-2.35v-14.3zm-.16 1.96h-1.52v4.67h1.62c1.09 0 1.88-.2 2.37-.61.49-.4.74-1 .74-1.79 0-.83-.26-1.41-.79-1.76s-1.33-.52-2.43-.52Zm18.28 6.9c0 .9-.12 1.7-.35 2.4-.24.7-.58 1.29-1.03 1.77s-.99.84-1.62 1.1c-.63.25-1.35.38-2.14.38-.74 0-1.42-.13-2.04-.38s-1.16-.62-1.61-1.1q-.675-.72-1.05-1.77c-.25-.7-.37-1.5-.37-2.4 0-1.19.21-2.21.62-3.04s1.01-1.47 1.78-1.9c.77-.44 1.68-.66 2.75-.66q1.5 0 2.64.66c.76.44 1.36 1.07 1.79 1.91.43.83.65 1.85.65 3.03Zm-7.85 0c0 .79.1 1.46.29 2.02s.49.99.89 1.29.93.44 1.56.44 1.16-.15 1.57-.44.7-.73.89-1.29.28-1.24.28-2.02-.09-1.46-.28-2.01-.49-.97-.89-1.26-.93-.44-1.58-.44c-.95 0-1.65.32-2.08.96-.44.64-.66 1.55-.66 2.75Zm20.07 0c0 .9-.12 1.7-.35 2.4-.24.7-.58 1.29-1.03 1.77s-.99.84-1.62 1.1-1.35.38-2.14.38c-.74 0-1.42-.13-2.04-.38s-1.16-.62-1.61-1.1q-.675-.72-1.05-1.77c-.25-.7-.37-1.5-.37-2.4 0-1.19.21-2.21.62-3.04s1.01-1.47 1.78-1.9c.77-.44 1.69-.66 2.75-.66q1.5 0 2.64.66c.76.44 1.36 1.07 1.79 1.91.43.83.65 1.85.65 3.03Zm-7.85 0c0 .79.1 1.46.29 2.02s.49.99.89 1.29.93.44 1.56.44 1.16-.15 1.56-.44.7-.73.89-1.29.28-1.24.28-2.02-.09-1.46-.28-2.01-.49-.97-.89-1.26-.93-.44-1.57-.44c-.95 0-1.65.32-2.08.96s-.66 1.55-.66 2.75Zm22.73-5.59c1.21 0 2.13.31 2.74.94.62.63.92 1.63.92 3.01v7.08h-2.3v-6.67q0-1.23-.48-1.86c-.48-.63-.8-.63-1.46-.63-.91 0-1.57.29-1.97.88-.4.58-.6 1.43-.6 2.54v5.74h-2.3v-6.67c0-.55-.07-1.01-.21-1.37-.14-.37-.35-.65-.64-.83-.29-.19-.65-.28-1.09-.28-.63 0-1.14.14-1.51.43s-.64.71-.81 1.27-.25 1.24-.25 2.05v5.41h-2.3v-10.83h1.79l.32 1.46h.13c.22-.38.5-.69.83-.93s.7-.43 1.1-.55.83-.18 1.26-.18c.81 0 1.49.14 2.04.43.55.28.97.72 1.24 1.3h.18c.34-.59.81-1.02 1.42-1.3s1.25-.42 1.93-.42Z"/>
  <use xlink:href="#b" width="49.27" height="49.27" transform="matrix(.95 0 0 .95 229.89 225.44)"/>
  <g stroke="#382f2c" stroke-miterlimit="10">
    <rect width="142.71" height="7.01" x="444.97" y="309.96" fill="#fff" rx=".2" ry=".2"/>
    <path fill="none" d="M444.97 313.34h142.7"/>
  </g>
  <g stroke="#382f2c" stroke-miterlimit="10">
    <rect width="50.53" height="7.01" x="-21.26" y="246.27" fill="#fff" rx=".2" ry=".2" transform="rotate(-90 4.005 249.775)"/>
    <path fill="none" d="M3.88 275.04v-50.53"/>
  </g>
  <g stroke="#382f2c" stroke-miterlimit="10">
    <rect width="50.53" height="7.01" x="-21.26" y="126.41" fill="#fff" rx=".2" ry=".2" transform="rotate(-90 4.005 129.915)"/>
    <path fill="none" d="M3.88 155.18v-50.53"/>
  </g>
  <g stroke="#382f2c" stroke-miterlimit="10">
    <rect width="78.03" height="7.01" x="71.2" y="65.33" fill="#fff" rx=".2" ry=".2"/>
    <path fill="none" d="M71.2 68.71h78.03"/>
  </g>
  <g stroke="#382f2c" stroke-miterlimit="10">
    <rect width="78.03" height="7.01" x="287.8" y="65.33" fill="#fff" rx=".2" ry=".2"/>
    <path fill="none" d="M287.8 68.71h78.03"/>
  </g>
  <g stroke="#382f2c" stroke-miterlimit="10">
    <rect width="78.03" height="7.01" x="501.11" y="65.33" fill="#fff" rx=".2" ry=".2"/>
    <path fill="none" d="M501.11 68.71h78.03"/>
  </g>
  <g stroke="#382f2c" stroke-miterlimit="10">
    <rect width="142.71" height="7.01" x="255.46" y="309.96" fill="#fff" rx=".2" ry=".2"/>
    <path fill="none" d="M255.46 313.34h142.7"/>
  </g>
  <path fill="#a47764" d="M44.4 380.86c-.8.4-2.4.8-4.46.8-4.76 0-8.34-3-8.34-8.54s3.58-8.86 8.81-8.86c2.1 0 3.43.45 4.01.75l-.53 1.78c-.83-.4-2-.7-3.4-.7-3.96 0-6.59 2.53-6.59 6.96 0 4.13 2.38 6.79 6.49 6.79 1.33 0 2.68-.28 3.56-.7l.45 1.73Zm2.35-16.32h2.18v15.05h7.21v1.83h-9.39zm13.62 0v16.88h-2.18v-16.88zm15.22 16.32c-.8.4-2.4.8-4.46.8-4.76 0-8.34-3-8.34-8.54s3.58-8.86 8.81-8.86c2.1 0 3.43.45 4.01.75l-.53 1.78c-.83-.4-2-.7-3.41-.7-3.96 0-6.58 2.53-6.58 6.96 0 4.13 2.38 6.79 6.49 6.79 1.33 0 2.68-.28 3.56-.7l.45 1.73Zm2.35-16.32h2.18v8.14h.08c.45-.65.9-1.25 1.33-1.8l5.16-6.33h2.7l-6.11 7.16 6.58 9.72h-2.58l-5.56-8.29-1.6 1.85v6.44h-2.18v-16.88Zm67.55 1.85h-5.13v-1.85h12.5v1.85h-5.16v15.02h-2.2v-15.02Zm22.61 6.41c0 5.81-3.53 8.89-7.84 8.89s-7.59-3.46-7.59-8.56c0-5.36 3.33-8.86 7.84-8.86s7.59 3.53 7.59 8.54Zm-13.09.28c0 3.61 1.95 6.84 5.38 6.84s5.41-3.18 5.41-7.01c0-3.36-1.75-6.86-5.38-6.86s-5.41 3.33-5.41 7.04Zm33.32 7.58c-.98.35-2.9.93-5.18.93-2.55 0-4.66-.65-6.31-2.23-1.45-1.4-2.35-3.66-2.35-6.28.03-5.03 3.48-8.71 9.14-8.71 1.95 0 3.48.43 4.21.78l-.53 1.78c-.9-.4-2.03-.73-3.73-.73-4.11 0-6.79 2.55-6.79 6.79s2.58 6.81 6.51 6.81c1.43 0 2.4-.2 2.91-.45v-5.03h-3.43v-1.75h5.56v8.11Zm17.38-7.86c0 5.81-3.53 8.89-7.84 8.89s-7.59-3.46-7.59-8.56c0-5.36 3.33-8.86 7.84-8.86s7.59 3.53 7.59 8.54Zm-13.1.28c0 3.61 1.95 6.84 5.38 6.84s5.41-3.18 5.41-7.01c0-3.36-1.75-6.86-5.38-6.86s-5.41 3.33-5.41 7.04Zm20.48-8.32c.95-.2 2.45-.35 3.98-.35 2.18 0 3.58.38 4.63 1.23.88.65 1.4 1.65 1.4 2.98 0 1.63-1.08 3.05-2.86 3.71v.05c1.6.4 3.48 1.73 3.48 4.23 0 1.45-.58 2.55-1.43 3.38-1.18 1.08-3.08 1.58-5.83 1.58-1.5 0-2.65-.1-3.38-.2v-16.6Zm2.18 6.91h1.98c2.3 0 3.66-1.2 3.66-2.83 0-1.98-1.5-2.75-3.71-2.75-1 0-1.58.07-1.93.15zm0 8.09c.43.08 1.05.1 1.83.1 2.25 0 4.33-.83 4.33-3.28 0-2.3-1.98-3.26-4.36-3.26h-1.8zm13.74-3.65-1.75 5.31h-2.25l5.73-16.88h2.63l5.76 16.88h-2.33l-1.8-5.31h-5.98Zm5.53-1.71-1.65-4.86c-.38-1.1-.63-2.1-.88-3.08h-.05c-.25 1-.53 2.03-.85 3.05l-1.65 4.88h5.08Zm18.1 6.46c-.8.4-2.4.8-4.46.8-4.76 0-8.34-3-8.34-8.54s3.58-8.86 8.81-8.86c2.1 0 3.43.45 4.01.75l-.53 1.78c-.83-.4-2-.7-3.41-.7-3.96 0-6.58 2.53-6.58 6.96 0 4.13 2.38 6.79 6.49 6.79 1.33 0 2.68-.28 3.56-.7l.45 1.73Zm2.36-16.32h2.18v8.14h.08c.45-.65.9-1.25 1.33-1.8l5.16-6.33h2.7l-6.11 7.16 6.58 9.72h-2.58l-5.56-8.29-1.6 1.85v6.44H255v-16.88Zm20.3 1.85h-5.13v-1.85h12.5v1.85h-5.16v15.02h-2.2v-15.02Zm22.61 6.41c0 5.81-3.53 8.89-7.84 8.89s-7.59-3.46-7.59-8.56c0-5.36 3.33-8.86 7.84-8.86s7.59 3.53 7.59 8.54Zm-13.1.28c0 3.61 1.95 6.84 5.38 6.84s5.41-3.18 5.41-7.01c0-3.36-1.75-6.86-5.38-6.86s-5.41 3.33-5.41 7.04Zm22.66-6.69h-5.13v-1.85h12.5v1.85h-5.16v15.02h-2.2v-15.02Zm11.04-1.85v7.06h8.16v-7.06h2.2v16.88h-2.2v-7.91h-8.16v7.91h-2.18v-16.88zm22.51 8.96h-6.56v6.08h7.31v1.83h-9.49v-16.88h9.11v1.83h-6.94v5.33h6.56v1.8Zm8.13-8.74c1.1-.23 2.68-.35 4.18-.35 2.33 0 3.83.43 4.88 1.38.85.75 1.33 1.9 1.33 3.21 0 2.23-1.4 3.71-3.18 4.31v.07c1.3.45 2.08 1.65 2.48 3.41.55 2.35.95 3.98 1.3 4.63h-2.25c-.28-.48-.65-1.93-1.13-4.03-.5-2.33-1.4-3.21-3.38-3.28h-2.05v7.31h-2.18v-16.65Zm2.18 7.69h2.23c2.33 0 3.81-1.28 3.81-3.21 0-2.18-1.58-3.13-3.88-3.16-1.05 0-1.8.1-2.15.2v6.16Zm25.41.35c0 5.81-3.53 8.89-7.84 8.89s-7.59-3.46-7.59-8.56c0-5.36 3.33-8.86 7.84-8.86s7.59 3.53 7.59 8.54Zm-13.09.28c0 3.61 1.95 6.84 5.38 6.84s5.41-3.18 5.41-7.01c0-3.36-1.75-6.86-5.38-6.86s-5.41 3.33-5.41 7.04Zm29.97-.28c0 5.81-3.53 8.89-7.84 8.89s-7.59-3.46-7.59-8.56c0-5.36 3.33-8.86 7.84-8.86s7.59 3.53 7.59 8.54Zm-13.1.28c0 3.61 1.95 6.84 5.38 6.84s5.41-3.18 5.41-7.01c0-3.36-1.75-6.86-5.38-6.86s-5.41 3.33-5.41 7.04Zm29.77.92c-.12-2.35-.28-5.18-.25-7.29h-.08c-.58 1.98-1.28 4.08-2.13 6.41l-2.98 8.19h-1.65l-2.73-8.04c-.8-2.38-1.48-4.56-1.95-6.56h-.05c-.05 2.1-.18 4.93-.33 7.46l-.45 7.24h-2.08l1.18-16.88h2.78l2.88 8.16c.7 2.08 1.28 3.93 1.7 5.68h.08c.43-1.7 1.03-3.56 1.78-5.68l3-8.16h2.78l1.05 16.88h-2.13l-.43-7.41Zm5.23 4.76c.98.6 2.4 1.1 3.91 1.1 2.23 0 3.53-1.18 3.53-2.88 0-1.58-.9-2.48-3.18-3.36-2.75-.98-4.46-2.4-4.46-4.78 0-2.63 2.18-4.58 5.46-4.58 1.73 0 2.98.4 3.73.83l-.6 1.78c-.55-.3-1.68-.8-3.21-.8-2.3 0-3.18 1.38-3.18 2.53 0 1.58 1.03 2.35 3.36 3.26 2.85 1.1 4.31 2.48 4.31 4.96 0 2.6-1.93 4.86-5.91 4.86-1.63 0-3.41-.48-4.31-1.08l.55-1.83Zm19.8 2.66v-7.16l-5.33-9.72h2.48l2.38 4.66c.65 1.28 1.15 2.3 1.68 3.48h.05c.48-1.1 1.05-2.2 1.7-3.48l2.43-4.66h2.48l-5.66 9.69v7.19h-2.2Zm22.94-8.62c0 5.81-3.53 8.89-7.84 8.89s-7.59-3.46-7.59-8.56c0-5.36 3.33-8.86 7.84-8.86s7.59 3.53 7.59 8.54Zm-13.1.28c0 3.61 1.95 6.84 5.38 6.84s5.41-3.18 5.41-7.01c0-3.36-1.75-6.86-5.38-6.86s-5.41 3.33-5.41 7.04Zm17.72-8.54v9.99c0 3.78 1.68 5.38 3.93 5.38 2.5 0 4.11-1.65 4.11-5.38v-9.99h2.2v9.84c0 5.18-2.73 7.31-6.39 7.31-3.46 0-6.06-1.98-6.06-7.21v-9.94h2.2Zm20.76 0v7.06h8.16v-7.06h2.2v16.88h-2.2v-7.91h-8.16v7.91h-2.18v-16.88zm16.5 11.57-1.75 5.31h-2.25l5.73-16.88h2.63l5.76 16.88h-2.33l-1.8-5.31h-5.98Zm5.53-1.71-1.65-4.86c-.38-1.1-.63-2.1-.88-3.08h-.05c-.25 1-.53 2.03-.85 3.05l-1.65 4.88h5.08Zm9.06 7.02-5.51-16.88h2.35l2.63 8.31c.73 2.28 1.35 4.33 1.8 6.31h.05c.48-1.95 1.18-4.08 1.93-6.28l2.85-8.34h2.33l-6.03 16.88zm18.63-7.92h-6.56v6.08h7.31v1.83h-9.49v-16.88h9.11v1.83h-6.94v5.33h6.56v1.8Zm10.94 7.92-5.51-16.88h2.35l2.63 8.31c.73 2.28 1.35 4.33 1.8 6.31h.05c.48-1.95 1.18-4.08 1.93-6.28l2.85-8.34h2.33l-6.03 16.88zm12.07-16.88v16.88h-2.18v-16.88zm3.12 14.22c.98.6 2.4 1.1 3.91 1.1 2.23 0 3.53-1.18 3.53-2.88 0-1.58-.9-2.48-3.18-3.36-2.75-.98-4.46-2.4-4.46-4.78 0-2.63 2.18-4.58 5.46-4.58 1.73 0 2.98.4 3.73.83l-.6 1.78c-.55-.3-1.68-.8-3.21-.8-2.3 0-3.18 1.38-3.18 2.53 0 1.58 1.03 2.35 3.36 3.26 2.85 1.1 4.31 2.48 4.31 4.96 0 2.6-1.93 4.86-5.91 4.86-1.63 0-3.41-.48-4.31-1.08l.55-1.83Zm14.45-14.22v16.88h-2.18v-16.88zm6.63 1.85h-5.13v-1.85h12.49v1.85h-5.16v15.02h-2.2zm13.9 5.56v1.63h-6.18v-1.63z"/>
  <use xlink:href="#b" width="49.27" height="49.27" transform="matrix(.72 0 0 .72 97.39 354.46)"/>
  <path fill="none" stroke="#000" stroke-miterlimit="10" d="M741.46 214.6H263.43c-5.52 0-10 4.48-10 10v8.32" filter="url(#e)"/>
  <path fill="none" stroke="#000" stroke-miterlimit="10" d="M483.72 154v128.62c0 5.52 4.48 10 10 10h247.74" filter="url(#f)"/>
  <path fill="#a47764" d="M281.15 55.85V48.7l-5.32-9.7h2.47l2.37 4.65c.65 1.27 1.15 2.3 1.67 3.47h.05c.48-1.1 1.05-2.2 1.7-3.47l2.42-4.65h2.47l-5.65 9.67v7.17h-2.2Zm23.27-8.6c0 5.8-3.52 8.87-7.82 8.87s-7.57-3.45-7.57-8.55c0-5.35 3.32-8.85 7.82-8.85s7.57 3.52 7.57 8.52Zm-13.07.27c0 3.6 1.95 6.82 5.37 6.82s5.4-3.17 5.4-7c0-3.35-1.75-6.85-5.37-6.85s-5.4 3.32-5.4 7.02ZM309.43 39v9.97c0 3.77 1.67 5.37 3.92 5.37 2.5 0 4.1-1.65 4.1-5.37V39h2.2v9.82c0 5.17-2.72 7.3-6.37 7.3-3.45 0-6.05-1.97-6.05-7.2V39zm22.02 11.55-1.75 5.3h-2.25L333.17 39h2.62l5.75 16.85h-2.32l-1.8-5.3zm5.52-1.7L335.32 44c-.38-1.1-.62-2.1-.87-3.07h-.05c-.25 1-.52 2.02-.85 3.05l-1.65 4.87zm7.06-9.63c1.1-.22 2.67-.35 4.17-.35 2.32 0 3.82.42 4.87 1.37.85.75 1.32 1.9 1.32 3.2 0 2.22-1.4 3.7-3.17 4.3v.08c1.3.45 2.07 1.65 2.47 3.4.55 2.35.95 3.97 1.3 4.62h-2.25c-.27-.48-.65-1.92-1.12-4.02-.5-2.32-1.4-3.2-3.37-3.27h-2.05v7.3h-2.17V39.23Zm2.17 7.68h2.22c2.33 0 3.8-1.27 3.8-3.2 0-2.17-1.58-3.12-3.88-3.15-1.05 0-1.8.1-2.15.2v6.15Zm20 1.05h-6.55v6.07h7.3v1.82h-9.47V38.99h9.1v1.82h-6.92v5.32h6.55v1.8ZM377.25 39v7.05h8.15V39h2.2v16.85h-2.2v-7.9h-8.15v7.9h-2.17V39zm22.85 8.95h-6.55v6.07h7.3v1.82h-9.47V38.99h9.1v1.82h-6.92v5.32h6.55v1.8Zm3.57-8.73c1.1-.22 2.67-.35 4.17-.35 2.33 0 3.82.42 4.87 1.37.85.75 1.33 1.9 1.33 3.2 0 2.22-1.4 3.7-3.17 4.3v.08c1.3.45 2.07 1.65 2.47 3.4.55 2.35.95 3.97 1.3 4.62h-2.25c-.28-.48-.65-1.92-1.12-4.02-.5-2.32-1.4-3.2-3.37-3.27h-2.05v7.3h-2.17V39.23Zm2.18 7.68h2.22c2.32 0 3.8-1.27 3.8-3.2 0-2.17-1.57-3.12-3.87-3.15-1.05 0-1.8.1-2.15.2zm20 1.05h-6.55v6.07h7.3v1.82h-9.47V38.99h9.1v1.82h-6.92v5.32h6.55v1.8Z"/>
</svg>
