<svg xmlns="http://www.w3.org/2000/svg" viewBox="0 0 451.35 494.68">
  <rect width="419.43" height="494.68" fill="#fff" rx="10" ry="10"/>
  <path fill="#e8e0dd" d="M277.59 256.76c.01-1.92.35-4.01.49-5.93.12-1.69-.42-3.5-.5-5.18-.35-7.75-.27-16.06-.46-24.08-.2-8.53.35-17.65-1.01-25.93-.64-3.89-2.19-7.84-2.93-11.71-2.22-11.58-1.09-40.72-1.1-52.73 0-7.93-1.44-17.09-5.85-23.8-3.09-4.7-8.89-7.48-14.27-8.68-4.4-1.23-8.79-2.56-13.13-3.98-3.67-1.21-12.36-2.89-13.82-6.16-1.6-3.61-.94-8.04-.83-12.57 2.1-2.83 3.6-5.96 4.32-8.51 2.35-.17 1.88-4.28 2.22-5.33s2.23-7.12 1.62-7.96c-.61-.85-1.31-.03-1.31-.03s1.3-11.12-1.2-17.59c-1.95-5.06-7.98-12.01-18.83-12.01h-.02c-10.85 0-16.88 6.95-18.84 12.01-2.49 6.47-1.2 17.59-1.2 17.59s-.7-.82-1.31.03 1.28 6.92 1.62 7.96-.13 5.15 2.22 5.33c.83 2.92 2.68 6.61 5.28 9.72.08 4.13.48 8.06-.99 11.36-1.45 3.22-9.85 4.94-13.48 6.16-4.23 1.43-8.5 2.75-12.8 3.98-5.38 1.2-11.18 3.97-14.27 8.68-4.41 6.71-5.85 15.87-5.85 23.8-.01 12 1.12 41.15-1.1 52.73-.74 3.87-2.29 7.82-2.93 11.71-1.36 8.28-.81 17.39-1.01 25.93-.19 8.03-.11 16.33-.46 24.08-.07 1.69-.62 3.49-.5 5.18.14 1.92.48 4.01.49 5.93.03 5.51-2.05 11.98-1.26 17.31.59 3.97 3.47 10.95 6.31 13.36 2.51 2.13 7.71 5.51 10.3 5.65.2.01.83-1.92.21-3.21-.98-2.04-4.31-3.58-5.18-5.11-.89-1.55-.97-3.57-1.13-5.3-.14-1.58-.54-3.23 0-4.83.24-.71.96-2.67 1.89-2.67.21 0 1.42 1.15 1.54 2.04.2 1.54.08 3.25.21 4.77.16 1.88 1.35 5.72 3.22 6 1.47.23 1.54-.23 1.89-.91s-.42-3.57-.14-4.56-.03-2.86-.21-3.71c-.49-2.27.17-5.18-.14-7.61-.32-2.53-1.38-5.77-2.87-7.86-1.25-1.75-3.08-3.61-3.64-5.65-.66-2.39-.5-5.7.21-8.2 2.77-9.7 6.49-19.83 8.16-30 1.67-10.15 3.13-20.56 4.37-30.65.47-3.82 1.44-16.87 2.2-22.21 0-.64.07-1.08.2-1.23-.06.34-.13.76-.2 1.23-.05 3.85 1.84 15.45 3.77 22.82 1.28 4.91.18 17.87-1.56 28.95-1.74 11.14-7.01 19.31-8.01 37.45-.8 14.45.46 29.37 1.77 43.87.98 10.89 3.03 21.82 5.3 32.41.86 3.99.49 8.44.31 12.54-.16 3.78.39 7.63.16 11.34-.45 7.26-3.11 14.59-3.01 21.96.24 16.17 3.49 33.16 5.81 49.38.64 4.48 2.87 10.46 1.75 14.22-1 3.35-4.79 6.89-6.67 10.51-1.26 2.44-4.71 4.05-6.89 5.52-1.38.93-2.61 2.19-3.9 3.21-.56.44-2.48 1.58-3.06 2.45-.8 1.2-.23 1.75-.08 1.77-.8.73-.78 2.04-.09 2.12-.43 1.17.23 1.86.94 1.73-.48.97.55 1.99 1.51 1.68.53 2.01 3.34 1.57 4.73.87.21 2.21 3.26 2.69 4.95 2.39 2.02-.36 3.93-.97 5.61-2.27.71-.56 1.65-2.18 2.07-2.53 1.31-1.11 3.24-1.65 4.56-2.83 1.19-1.08 1.58-2.9 2.38-4.09s2.55-2.55 4.07-2.79c2.09-.33 4.86-1.07 5.85-3.27.96-2.15.64-5.11.1-7.35-.39-1.65-1.11-3.41-1.08-5.04 0-.56.45-2.01.21-3.58-.25-1.73-1.12-3.05-1.37-4.36-.4-2.11-.42-4.31-.44-6.46-.07-6 1.73-12.25 2.82-18.13 1.43-7.66 3.06-15.46 3.41-23.22.21-4.87.06-9.75-.49-14.62-.3-2.63-.92-5.42-.61-8.01.87-7.3 5.04-14.4 6.06-21.8.99-7.17-.29-14.56.34-21.76.71-8.26 2.02-16.61 3.31-24.86.75-4.8 1.53-9.62 2.61-14.36.37-1.61.89-8.23 2-9.22.05-.05.37.09.68.08.34 0 .69-.16.75-.11 1.15.95 1.65 7.61 2.02 9.25 1.08 4.74 1.85 9.56 2.61 14.36 1.29 8.25 2.57 16.57 3.31 24.86.65 7.23-.65 14.59.34 21.76 1.02 7.4 5.19 14.5 6.06 21.8.31 2.6-.31 5.37-.61 8.01-.55 4.87-.7 9.76-.49 14.62.34 7.75 1.97 15.56 3.41 23.22 1.1 5.88 2.89 12.13 2.82 18.13-.03 2.15-.04 4.36-.44 6.46-.25 1.32-1.11 2.63-1.37 4.36-.23 1.57.21 3.02.22 3.58.03 1.64-.71 3.41-1.08 5.04-.52 2.28-.92 5.28.1 7.35 1.05 2.13 3.63 2.92 5.86 3.27 1.52.24 3.27 1.6 4.07 2.79s1.18 3.01 2.38 4.09c1.32 1.18 3.25 1.73 4.56 2.83.42.35 1.35 1.98 2.07 2.53 1.68 1.3 3.63 1.97 5.61 2.27 1.68.25 4.73-.1 4.95-2.39 1.4.72 4.18 1.13 4.73-.87.96.3 1.99-.72 1.51-1.68.72.14 1.38-.55.94-1.73.69-.08.71-1.39-.09-2.12.16-.02.73-.57-.08-1.77-.58-.87-2.51-2-3.06-2.45-1.29-1.03-2.52-2.28-3.9-3.21-2.24-1.52-5.58-3.16-6.88-5.52-1.92-3.48-5.68-7.18-6.67-10.51-1.11-3.74 1.11-9.77 1.75-14.22 2.32-16.21 5.6-33.2 5.81-49.38.1-7.39-2.55-14.7-3.01-21.96-.23-3.7.3-7.57.16-11.34-.16-4.09-.54-8.55.31-12.54 2.27-10.59 4.32-21.51 5.3-32.41 1.3-14.51 2.08-29.42 1.77-43.87-.44-20.46-6.2-26.36-8.01-37.45-1.8-11.02-2.4-23.82-1.56-28.95 1.36-8.29 2.81-19.51 2.18-24.34.46 2.04 3.4 19.45 3.9 23.73 1.18 10.17 2.7 20.49 4.37 30.65 1.67 10.17 5.48 20.35 8.16 30 .69 2.48.89 5.79.21 8.2-.58 2.05-2.39 3.9-3.64 5.65-1.49 2.09-2.55 5.33-2.87 7.86-.31 2.43.35 5.34-.14 7.61-.18.85-.49 2.73-.21 3.71.28.99-.49 3.87-.14 4.56.35.68 1.2 1.19 1.89.91 1.85-.75 3.06-4.01 3.23-6 .12-1.52 0-3.23.21-4.77.12-.89 1.33-2.04 1.54-2.04 1.64.03 2.21 3.82 2.1 4.94-.24 2.5-.03 5.62-1.34 7.86-.9 1.55-4.21 3.07-5.18 5.11-.62 1.29.01 3.22.21 3.21 2.6-.15 7.79-3.52 10.3-5.65 2.84-2.41 5.72-9.39 6.3-13.36.79-5.32-1.29-11.8-1.26-17.31Z"/>
  <path fill="#d16f54" d="M237.73 195.61c-.71-3.38-2.6-6.88-5.33-9.04-2.93-2.33-7.52-2.74-9.61.94-1.43 2.51-.21 6.13 1.92 7.22.24.12.82.23.97.47s0 1.16 0 2.11c-.18.16-.38.32-.59.49-.7.55-1.57 1.16-2.63 2.24-2.63 2.68-2.85 7.78-2.85 11.06s1.12 13.3 1.12 16.5-2.07 7.6-2.07 11.41c0 3.37 3.72 6.09 3.72 11.75 0 .34-.04.69-.12 1.02a4 4 0 0 1-.67 1.43c-.05.08-.12.16-.18.24-.03.04-.05.07-.07.12-.02.04-.02.08-.03.13 0 .06-.02.12-.03.18v.05c0 .02.02.03.04.03h.02c.03-.01.06-.03.09-.04 0 0 .02 0 .03-.01.04-.02.09-.03.12-.05s.06-.07.08-.1c.05-.07.1-.13.15-.2.09-.13.19-.26.27-.4a4.8 4.8 0 0 0 .66-1.64c.06-.3.08-.61.09-.92v-.17c-.09-5.36-3.63-8.04-3.63-11.23 0-3.8 2.16-6.57 2.25-11.75.06-3.46-.86-9.84-.86-16.24 0-5.89.95-8.85 2.59-10.22.56-.47 1.49-.92 2.42-1.04.22-.03.43-.04.64-.03.19.51.34.85.28 1-.12.29-2.08 1.38-2.31 4.1-.17 1.95 1.38 4.31 3.06 5.33 1.95 1.19 4.55 1.02 6.49-.1 4.27-2.46 4.9-10.38 4.01-14.61Zm-36.81-.44c0-.84-.17-1.68-.6-2.43-2.02-3.55-6.44-3.14-9.26-.9-2.63 2.09-4.45 5.46-5.13 8.72-.86 4.08-.25 11.71 3.86 14.08 1.87 1.08 4.37 1.25 6.25.1 1.62-.99 3.12-3.26 2.95-5.14-.23-2.62-2.12-3.67-2.23-3.95-.06-.14.07-.43.23-.87.26-.03.54-.02.82.02.92.12 1.86.57 2.42 1.04 1.64 1.38 2.59 4.34 2.59 10.22 0 6.39-.92 7.9-.86 11.36.09 5.18 2.25 7.95 2.25 11.75 0 3.2-3.54 5.88-3.63 11.23 0 .17 0 .33.01.5.04.61.19 1.2.46 1.75a6 6 0 0 0 .81 1.23c.05.06.1.15.16.2.05.04.13.06.19.09s.14.06.21.04c0-.04-.02-.08-.04-.12-.01-.03-.03-.07-.04-.1-.22-.5-.65-.88-.89-1.37-.29-.58-.45-1.23-.45-1.88 0-5.66 3.72-8.38 3.72-11.75 0-3.8-2.07-8.21-2.07-11.41s1.12-8.34 1.12-11.62-.22-8.38-2.85-11.06c-1.06-1.08-1.93-1.69-2.63-2.24-.28-.22-.53-.42-.75-.64-.01-.86-.14-1.65 0-1.87.15-.23.71-.34.93-.46 1.43-.73 2.43-2.63 2.45-4.54Zm20.65 58.13v.31z"/>
  <path fill="#f4bbb5" d="M238.4 171.22c-.82-2.3-2.59-3.83-5-4.3-2.73-.54-4.05.17-5.11.75-.61.33-1.05.5-1.67.48-2.92-.13-5.33-.89-7.18-2.24-4.85-3.56-5.61-10.53-5.71-16.88-.06-4-.11-8.06-.16-11.99V136c-.06-4.27-.11-8.55-.16-12.82l-.05-4.66-.21-17.54c-.02-1.31-.07-4.29.17-7.69 0-2.21.25-4.43.54-6.63.12-.95.32-1.88.4-2.83.05-.6.29-2.4-.48-2.72-.29-.12-.53 1.17-.71 1.37-.31.35-.85.39-1.32.34-.43-.04-1-.22-1.4 0-.38.22-.43.84-.48 1.24-.13 1.03-.04 2.06-.15 3.09-.24 2.37-.42 4.76-.39 7.14.03 2.43.06 4.53.05 5.37-.04 4.26-.07 8.57-.07 12.81 0 5.01.03 9.64.08 14.14.03 1.88.02 3.91 0 6.06-.01 3.12-.03 6.34.07 9.12.05 1.38.07 2.74.1 4.05.13 6.01.25 11.68 2.04 17.8.3 1.04 1.18 1.86 2.03 2.64.37.35.72.67 1.03 1.01 2.14 2.42 5.43 3.63 7.6 4.43.78.28 1.39.51 1.76.72.84.48 1.5.86 1.57 1.28.21 1.44-1.58 4.27-4.48 6.04-1.78 1.08-3.39 1.09-4.81 1.1-.98 0-1.92 0-2.76.38-.52.22-.88.45-1.14.61-.07.05-.16.1-.23.14-.03-.05-.07-.11-.1-.15-.35-.54-.93-1.44-2.17-1.79-1.86-.51-6.68-.98-11.27 5.78-4.89 7.18-1.25 12.03-.48 12.93 1.48 1.71 4.33 2.47 5.96 2.08.98-.23 1.72-.07 2.59.12.48.11.98.22 1.57.27 1.32.12 2.64.08 3.94-.13 1.32-.22 2.53-.72 3.78-1.17.4-.15.92-.27 1.2.06.17.19.17.5.08.74-.1.24-.28.44-.46.63-.81.88-1.78 1.71-2.4 2.76-.9 1.5-.86 3.47-.03 4.99.98 1.79 2.95 2.27 4.82 2.56 1.65.26 3.83.89 4.15 2.81.82-.09 1.67-.03 2.5.32.41.17.73.37.99.6-.08-1.37-.14-2.82-.95-3.97-1.13-1.61-2.77-2.61-4.72-2.87-.83-.11-1.68-.15-2.44-.49-.85-.38-1.46-1.1-1.05-2.06.28-.67.93-1.16 1.4-1.69.54-.62 1.14-1.19 1.63-1.85 2.1-2.82-.52-6.32-3.71-6.22-1.34.04-2.73.4-4.03.76-.65.18-1.33.36-2.01.48-1.78.3-3.11.29-4.32-.04-.24-.07-.53-.37-.85-.71-.28-.3-.61-.64-1.02-.95-.14-.1-.27-.19-.41-.28-.82-.55-1.53-1.02-1-3.53.36-1.7 1.81-3.77 3.37-4.81.98-.65 1.65-.79 2.25-.9.3-.06.58-.11.87-.23.23-.09.41-.09.46-.07v.28c-.04.94-.11 2.88 1.99 4.84 1.28 1.19 4.61 3.13 9.05 2.86 4.33-.27 8.33-2.55 11.87-6.79 4.75-5.68 6.68-11.63 5.16-15.91Z"/>
  <g fill="#fd9687">
    <path d="M239.96 127.8c-3.75-10.32-13.12-23.16-18.02-22.5-3.28.44-2.88 3.84-4.85 6.68-.15.22-.32.46-.5.73-.11-.12-.22-.24-.33-.35-.07-.08-.2-.06-.26.02-.68.92-1.06 1.68-1.41 2.56-.05.12-.02.25.08.34.08.08.18.17.28.27-1.24 2.55-2.27 6.01-1.61 10.23 1.3 8.31 8.6 13.14 9.9 18.17s-3.31 9.93-1.01 12.17c1.68 1.64 5.19 1.46 8.94 2.25s8.94 2.85 11.39 1.27 1.15-21.51-2.59-31.84Zm-32.08-12.24c.16-.15.18-.39.05-.57-.57-.78-1.06-1.5-1.44-2.23a.2.2 0 0 0-.25-.09c-.01-.02-.02-.05-.03-.07-1.56-2.87-.26-7.04-4.43-7.3-4.97-.31-13.82 10.17-18.26 24.51-4.43 14.34-4.43 27.38-2.61 28.69 1.83 1.3 12-1.56 15.91-2.09 3.91-.52 8.08-.52 9.39-2.09 1.3-1.56 2.07-14.72 2.09-19.04.04-7.39-.26-14.62-1.05-19.07q.36-.405.63-.66Zm.24-19.92c.55.38 1.96.77 3.08.76 1-.01 2.99-.49 3.44-1.17.45-.69.62-8.44 0-8.57s-1.78 5.55-3.67 5.74c-2.83.28-3.03-3.48-3.95-3.26-.45.11.05 3.04.22 3.79.14.62.46 2.43.88 2.72Zm6.01 17.27c.3-.54.9-1.18 1.17-1.58.21-.32-.16-1.52-.51-1.57-.36-.05-1.37.96-3.41.99-2.03.03-3.17-1.05-3.5-.91s-.71 1.46-.48 2.01c.1.25 1.6 2.85 1.99 2.96.38.11 1.06-.29 1.86-.29 1.03 0 1.66.28 1.94.21.38-.09.56-1.14.95-1.83Z"/>
    <path d="M208.35 109.01c1.02 1.02 4.91 1.47 6.24-.16.31-.38.13-2.76-.15-2.89-.36-.16-.99.58-2.89.58-2.62 0-2.62-.66-3.02-.57-.63.15-.72 2.51-.18 3.05Zm5.92-4.25c.59-.4.52-2.65.23-3.03-.37-.48-.61.66-2.95.61-2.34-.06-2.68-.88-3.15-.69-.5.21-.51 2.37-.03 2.87 1.07 1.09 4.63 1.11 5.9.25Zm.37-7.5c-.38-.25-1.25.81-3.24.78-1.98-.03-2.81-.93-3.17-.78-.33.14-.29 2.27-.07 2.56.48.61 1.88 1.04 3.24 1.06 1.13.02 2.45-.22 3.05-.83.26-.27.53-2.55.18-2.78Z"/>
  </g>
  <path fill="#d16f54" d="M210.15 181.9c-.23-.2-.55-.25-.72-.27-.06 0-.12-.04-.15-.1-.05-.12-.19-.31-.53-.35a.96.96 0 0 0-.7.2c-.05.04-.13.05-.19.02-.19-.09-.6-.26-.89-.22-.26.04-.44.27-.54.42-.04.07-.13.1-.21.07-.18-.06-.52-.13-.86.06-.21.12-.33.33-.39.49-.04.09-.14.14-.23.1-.2-.07-.54-.16-.83-.04-.28.12-.45.44-.52.61-.03.06-.09.11-.16.11-.22.02-.7.08-1 .33-.24.2-.29.53-.29.76 0 .11-.11.2-.22.17-.24-.06-.61-.08-.82.24-.15.23-.18.48-.16.67.01.13-.11.23-.23.19-.17-.05-.37-.04-.5.2-.17.31-.17.63-.15.82.01.09-.05.18-.14.2-.15.03-.38.14-.54.43-.17.3-.09.64 0 .87.04.11-.03.23-.15.24-.19.02-.44.09-.57.34-.15.29-.12.56-.09.71.02.07-.01.15-.07.19-.14.09-.37.28-.45.55s.01.61.07.78c.02.07 0 .14-.04.19-.12.12-.32.37-.36.76-.04.38.11.69.2.84.04.06.04.15-.01.21-.13.17-.34.52-.3.96.04.41.17.64.26.75.04.05.05.13.02.19-.09.19-.24.6-.11 1.01.09.32.31.42.49.44.11.02.18.13.15.23-.07.23-.14.6.03.88.19.3.59.43.82.47.09.02.16.1.15.2-.02.17 0 .41.2.55.21.14.54.1.75.06.1-.02.2.04.22.15.03.17.09.4.26.47.21.08.55-.02.7-.08.05-.02.1-.01.15.01.16.09.57.29.87.29.39 0 1.39-1.28 1.22-1.67-.12-.29-.53-.49-.72-.57a.21.21 0 0 1-.11-.15c0-.1-.04-.27-.17-.5-.11-.2-.31-.25-.48-.26-.12 0-.21-.12-.17-.24.05-.14.08-.34.03-.56-.07-.37-.26-.6-.4-.72a.184.184 0 0 1-.02-.25c.12-.14.27-.39.31-.75.03-.38-.19-.69-.36-.88-.08-.09-.06-.23.04-.28.17-.09.39-.25.54-.51.27-.48.17-.81.05-1a.19.19 0 0 1 .07-.27c.23-.11.58-.33.72-.69.15-.36.15-.73.13-.94 0-.09.05-.17.14-.19.23-.04.67-.2 1.06-.82.29-.47.37-.88.38-1.09 0-.08.07-.15.15-.16.2-.03.57-.12.92-.31.31-.17.43-.48.47-.68.02-.1.13-.17.23-.14.18.05.45.1.75.04.33-.07.66-.34.85-.52.07-.07.19-.06.26.01.1.11.28.21.56.11.15-.05.25-.17.31-.28.05-.08.15-.11.24-.07.16.08.42.16.62.01.61-.45.61-2.67.17-3.06Zm18.26-24.28c.71 1.1-1.25 2.56-2.02 3.7-.78 1.14-2.32 3.59-3.5 4.75-1.92 1.89-8.68 5.36-9.47 4.69s-.92-4.12-1.21-5.8c-.3-1.68-.57-2.67-.6-3.43-.04-.99.01-2.69.57-3.53.75-1.14 3.92-1.44 5.5-1.44s5.64.78 6.58.8 3.35-1 4.16.25Z"/>
  <path fill="#d16f54" d="M210.98 157.53c.53.21.05 1.28-.13 2.64-.19 1.4.5 3.84.8 5.76.23 1.44.43 3.61.83 5s-.28 4.96-3.92 7.52c-1.75 1.23-5.96 2.4-8.18 2.83-.36.07-.84.13-1.17.04-.2-.06-.49-.37-.68-.57-.54-.57-1.49-.91-3.56-.1-1.9.74-2.32 1.97-2.32 2.87 0 .4.07.69 0 .96-.08.31-.44.5-.71.67-1.57.99-4.52 2.17-5.72 1.06-1.15-1.07.54-2.77.65-4.53s-3.5-15.07 1.78-20.94c5.27-5.87 19.89-4.16 22.33-3.19Z"/>
  <path fill="#00949c" d="M196.84 180.76c-1.32 0-3.05.88-3.46 1.83-.01.03-.03.06-.04.09-.41 1.2.29 1.93 1.37 1.93h.2c1.48-.12 3.46-1.13 3.52-2.23.07-1.17-.67-1.62-1.6-1.62Z"/>
  <path fill="#fd9687" d="M215.56 246.19c-.95 0-2 .15-2.71.82-1.05 1.01-.91 2.68-.58 4.26.21-.36.3-.79.4-1.24.09-.44.19-.89.4-1.29.85-1.63 3.13-1.73 4.42-1.65 1.78.12 3.56.45 5.28.77 2.23.41 4.53.84 6.83.81 2.22-.04 3.96-.57 5.16-1.58 1.11-.93 1.89-2.42 2.21-4.2.3-1.66.19-3.38.1-4.91-.05-.74-.09-1.48-.14-2.23-.36-5.62-.73-11.43-.24-17.14l.09-1.02c.19-2.34.39-4.76.96-7.05.38-1.55.54-3.74-.86-5.35-1.48-1.69-4.12-.79-6.51.31-5.24 2.41-11.66 3.31-16.12 3.64-5.31.39-10.74-.32-15.7-2.04-1.08-.37-2.09-.92-3.07-1.45-1.26-.68-2.56-1.38-3.98-1.7-1.8-.41-3.35.34-4.03 1.96-.81 1.93-.59 4.49-.39 6.74.06.74.13 1.44.15 2.09l.12 3.15c.08 2.11.15 4.29.27 6.44.13 3.14.26 6.39.11 9.59-.08 1.76-.17 3.74.99 5.01.38.41.87.72 1.36 1.03.64.4 1.3.82 1.72 1.48.48.76.54 1.67.6 2.55v.18c.07.91.21 1.83.79 2.44.42.44 1.17.6 1.68.34.17-.08.29-.2.38-.36.29-.54-.01-1.23-.36-1.67-.17-.21-.36-.4-.55-.59-.29-.28-.58-.58-.81-.94-.32-.5-.46-1.08-.6-1.65-.15-.6-.29-1.17-.62-1.64-.34-.47-.83-.79-1.36-1.13-.51-.33-1.05-.67-1.42-1.17-.72-.97-.7-2.25-.68-3.39.08-4.14-.19-8.35-.44-12.41-.21-3.29-.42-6.7-.45-10.06 0-.26-.02-.59-.04-.97-.11-2.03-.3-5.43 1.63-6 1.42-.42 3.03.43 4.45 1.17.41.22.8.42 1.15.58 5.68 2.49 12.26 3.59 19.03 3.18 4.69-.28 10.32-1.64 14.02-2.82.56-.18 1.22-.46 1.93-.76 2.21-.94 4.71-2 5.99-.85 1.31 1.16 1.06 3.28.81 4.44-1.13 5.08-1.58 9.69-1.48 15.41.04 2.08.19 4.19.34 6.23.24 3.23.48 6.56.26 9.85-.11 1.63-.41 3.65-1.76 4.93-.94.89-2.35 1.36-4.3 1.46-2.67.13-5.35-.34-7.94-.79-1.93-.34-3.93-.68-5.9-.78-.19 0-.38-.02-.58-.02Z"/>
  <path fill="#feb967" d="M229.41 185.06c-.68-.89-2.47.6-3.25.69s-2.43-.36-4.18.04c-1.36.31-2.34 1.16-3.09 1.24s-3.55-1.81-8.34-.62c-4.8 1.19-6.85 4.26-7.13 6.07q-.03.225-.03.45c-.06 0-.11.02-.17.03-.03.35-.03.64 0 .89.09-.03.18-.06.27-.1.24.95.84 1.78 1.38 2.17.65.46 3.37 1.52 5.78.55 1.29-.52 1.21-1.89 1.41-2.12s1.12.37 2.86-.16c1.75-.53 3.37-1.98 4.4-2.28s3.23-.54 4.78-1.06c2.02-.67 6.49-4.24 5.29-5.81Z"/>
  <path fill="#f4bbb5" d="M209.16 228.15c.23-.16.47-.35.73-.56.35-.28.91-.95 1.36-1.03.69-.11.86 1.51 1.04 1.95.32.76.82 1.41 1.58 1.78 1.72.82 3.54 0 4.53-2.06.05-.09.1-.2.15-.32.46-.97.93-2.83 2.23-2.34 1.01.38 1.49 1.66 2.47 2.08 1.17.51 2.38.38 3.48-.25 1.49-.86 1.95-2.51 1.13-4.11-.75-1.47-.95-2.48-.65-3.39.04-.13.1-.28.16-.44.22-.57.5-1.27.46-2.07-.03-.68-.34-1.92-1.97-2.59-2.73-1.13-5.72.72-7 1.5-.73.45-1.36 1.02-1.91 1.52-1.37 1.24-1.82 1.52-2.61 1.22-.5-.19-.99-.53-1.34-.95-.08-.1-.18-.23-.27-.36-.46-.64-1.24-1.71-2.77-1.89-2.38-.28-4.54 2.05-4.81 4.24-.18 1.44-.44 2.08-.89 2.21-.1.03-.16.03-.19.04-.07-.06-.34-.37-.59-1.4-.23-.95-.33-2.07-.42-2.97-.04-.45-.08-.85-.12-1.18-.24-1.68-1.25-2.96-2.76-3.5-1.69-.61-3.71-.16-5.15 1.15-2.13 1.92-.86 4.48-.18 5.86.23.47.49.99.55 1.29.13.68 0 .89-.53 1.64-.31.45-.7 1.01-1.01 1.75-.48 1.12-.49 2.32-.02 3.3.69 1.43 1.83 1.71 2.44 1.75.73.05 1.38-.18 1.89-.37.14-.05.32-.12.46-.15.12.09.19.18.21.26.17.73-1 2.52-1.7 3.59-.65.99-1.26 1.93-1.55 2.82-.55 1.71-.24 3.52.81 4.7 1 1.13 2.59 1.69 4 2.19.42.15.82.29 1.12.42 1 .44 1.97.65 2.83.65 1.28 0 2.35-.47 3.02-1.4.72-1 .75-2.39.06-3.55.58.12 1.2.19 1.86.14 1.32-.08 2.2.1 3.3.84.94.64 1.81 1.38 3.01 1.33 1.19-.06 2.15-.53 3-.95.37-.19.73-.36 1.05-.47.7-.24 1.51-.24 2.21 0 .09.03.18.06.27.1.71.26 1.9.7 3.12.12.93-.44 1.56-1.31 1.87-2.58a9.7 9.7 0 0 0-.7-6.55c-.55-1.13-1.24-1.91-2.1-2.39-1.62-.91-3.79-.62-5.41.72-.66.54-1.14 1.31-1.6 2.06-.27.44-.75 1.21-1.06 1.46-.08-.1-.17-.24-.25-.34-.19-.27-.41-.58-.69-.88-1.93-2.02-4.31-1.27-5.88-.78-.57.18-1.11.35-1.51.37s-.71-.11-.86-.37c-.17-.29-.13-.69.11-1.07.42-.68 1.23-1.24 2.01-1.79Zm-5.08-.12c-.95 1.52-1 3.37-.15 4.81.85 1.43 2.4 2.23 4.16 2.14.85-.04 1.64-.29 2.4-.53 1.47-.46 1.88-.49 2.19-.17.1.1.22.28.35.46.44.63 1.11 1.57 2.37 1.85 2.65.58 4.1-1.75 4.97-3.14.27-.43.63-1.01.83-1.18.43-.36 1.05-.52 1.34-.36.11.06.34.25.62.82.34.7 1.11 2.74.75 3.49-.35.73-1.55.46-2.19.36-1.12-.17-2.17-.33-3.27.05-.54.19-1.04.44-1.48.65-1.87.93-2.03.04-3.62-.86-1.43-.82-2.97-.8-4.3-.72-.64.04-1.31-.16-2.1-.39-.87-.26-1.87-.55-2.98-.54-1.72.02-2.25 1.18-2.37 1.54-.49 1.42.57 2.74 1.2 3.24.33.26.67.53.94.84-.75-.15-1.43-.51-2.14-.76-.84-.3-2.11-.75-2.49-1.18-.19-.22-.22-.73-.07-1.2.14-.43.67-1.24 1.13-1.95 1.27-1.95 2.71-4.16 2.19-6.39-.18-.76-.68-1.85-2.06-2.66-.52-.31-1.04-.41-1.53-.41-.55 0-1.05.13-1.46.27.15-.29.34-.56.54-.85.65-.94 1.53-2.22 1.1-4.4-.15-.77-.51-1.49-.86-2.19-.21-.42-.82-1.24-.49-1.71.23-.34 1-.42 1.36-.29.11.04.34.12.41.62.03.23.07.58.1.98.2 2.24.51 5.62 2.59 7.04.64.44 1.72.87 3.22.44 1.36-.4 2.33-1.39 2.87-2.67.41-.97.14-2.73 1.06-3.43.32-.25 3.14 2.49 3.88 2.77 2.97 1.11 4.98-.72 6.31-1.93.48-.43.93-.85 1.37-1.12.48-.3 3.57-2.28 3.02-.62-.35 1.07-.39 2.21-.18 3.31.03.16.69 2.15.64 2.17-.07.04-.28.07-.32-.04-.04-.09-.08-.24-.12-.35-.2-.63-.52-1.67-1.6-2.27-.84-.47-1.76-.57-2.66-.28-2.18.7-3.52 3.53-4.24 5.05v.01c0-.03-.02-.07-.02-.1-.22-.95-.56-2.39-2.06-3.15-2.16-1.08-4.29.62-5.57 1.65-.21.17-.41.33-.54.42-.98.69-2.2 1.54-3.01 2.85Z"/>
  <path fill="#fd9687" d="M240.8 212.48c.42-.38 1.12-1 1.31-3.15.23-2.5-1.32-3.23-1.97-3.54-.05-.02-.1-.05-.15-.07.02-.02.04-.04.05-.06.29-.3.85-.86.98-2.39.2-2.27-2.15-4.75-4.23-5.29-1.82-.48-3.38.69-4.04 1.18-.11.09-.22.17-.27.19-.09.04-.34.03-.59.02-.5-.02-1.19-.05-1.84.25-.37.17-.67.6-.92.94-.11.16-.27.38-.33.41-.06.02-.31.05-.55.07-.66.07-1.65.18-2.43.47-1.2.44-1.73 1.02-2.05 1.37-.11.12-.22.24-.28.25-.09.02-.45-.07-.78-.14-.87-.2-2.18-.5-3.37-.31-.54.08-1.01.27-1.42.49-.18.1-.36.21-.51.32-.27.18-.5.37-.7.53-.22.18-.44.36-.54.38-.08.02-.29-.08-.49-.17-.4-.19-.95-.44-1.7-.46-.13 0-.27 0-.4.01-.15 0-.31.03-.48.07-.63.13-1.19.46-1.65.73-.3.17-.6.35-.75.35-.11 0-.34-.15-.55-.28-.43-.28-1.01-.66-1.78-.71-1.06-.06-1.71.39-2.18.71-.22.15-.41.28-.54.28-.09 0-.18-.11-.33-.3-.29-.38-.74-.96-1.9-1.14-.83-.13-1.69.21-2.2.41-.11.04-.24.09-.32.12-.05-.07-.14-.24-.22-.38-.35-.65-.93-1.74-2.08-2.38-1.1-.61-2.16-.6-2.86-.58-.26 0-.57.01-.64-.04s-.17-.24-.27-.44c-.29-.57-.72-1.43-1.84-2.02-1.23-.65-2.58-.18-3.39.1-.21.07-.43.15-.51.15s-.27-.06-.47-.13c-.75-.24-2.15-.69-3.59-.04-1.33.6-1.49 1.6-1.6 2.25-.05.27-.08.5-.18.6-.08.08-.26.16-.47.25-.79.36-2.11.95-2.4 3.22-.27 2.11.81 2.73 1.39 3.06.13.07.3.17.32.22 0 .16-.1.33-.23.56-.22.4-.53.94-.59 1.87-.06 1.01.49 1.35.85 1.58.24.15.33.21.33.33 0 .18-.21.49-.43.81-.4.59-.95 1.39-1.01 2.43-.06 1.15.46 2 .81 2.56.13.2.27.44.27.53 0 .1-.11.28-.22.48-.27.48-.68 1.19-.68 2.32 0 1.25.84 2.05 1.29 2.49l.22.22-.25.25c-.55.52-1.58 1.5-1.44 2.85.13 1.18 1.03 1.88 1.62 2.34.17.13.4.31.45.38-.08.07-.3.19-.49.3-1.17.67-3.92 2.22-3.84 6 .04 2.18.91 4.15 2.43 5.56 1.58 1.46 3.78 2.21 6.02 2.07 2.53-.16 3.53-1.92 4.26-3.2.27-.47.5-.88.75-1.11.18-.17.41-.33.67-.51 1.15-.82 2.73-1.95 2.92-4.97.13-2.04-1.63-3.18-2.68-3.87-.32-.21-.72-.47-.76-.58 0-.11.05-.26.12-.45.16-.46.4-1.16.33-2.36-.06-1.19-.58-1.85-.92-2.28-.13-.17-.26-.33-.26-.41.01-.09.26-.34.44-.51.51-.51 1.28-1.27 1.28-2.29s-.66-2-1.09-2.62c-.16-.24-.34-.48-.36-.58 0-.12.27-.52.46-.81.47-.69 1.04-1.55.99-2.33-.07-.86-.66-1.46-1.02-1.82-.09-.09-.2-.2-.24-.26.03-.06.13-.17.2-.26.23-.27.54-.64.6-1.15.04-.34-.06-.64-.18-.9.02.02.04.03.06.05.59.47 1.48 1.17 2.45 1.57 1.05.43 2.01.2 2.71.02.31-.08.61-.15.74-.11.14.05.35.21.58.4.55.44 1.29 1.04 2.44 1.23 1.01.17 2.06-.1 2.82-.29.43-.11.87-.22 1.03-.17.1.04.23.23.37.44.36.55.9 1.38 2.29 1.55.87.11 1.7-.36 2.25-.66.19-.1.42-.23.49-.24.08 0 .38.18.62.31.67.38 1.69.95 2.64.95s1.75-.66 2.44-1.19c.3-.24.68-.53.82-.53.12 0 .42.07.78.16 1.16.27 3.09.72 4.87.38 1.77-.34 2.97-1.49 3.62-2.12.13-.12.27-.26.34-.31.09.03.31.14.47.22.43.22.97.5 1.4.5.35 0 .76-.2 1.13-.38.14-.07.34-.16.46-.2-.05.11-.14.27-.21.4-.23.42-.52.94-.52 1.49 0 .7.39 1.76.65 2.45.07.2.14.38.17.47-.03.13-.3.54-.53.9-.65 1.01-1.55 2.38-1.55 3.5 0 1.03.58 2.18 1 3.03.22.44.48.95.45 1.09-.03.17-.22.42-.42.69-.34.44-.76 1-.76 1.61s.33.95.6 1.24c.19.2.31.34.31.48 0 .17-.22.63-.42 1.05-.38.78-.81 1.67-.75 2.32.05.57.39 1.35.69 2.04.17.39.41.93.4 1.05-.02.06-.17.24-.29.38-.46.54-1.22 1.46-1.07 2.59.11.85.42 1.44.63 1.83.1.18.23.42.21.47-.07.06-.42.06-.72.05-.63 0-1.59 0-2.76.3-.56.15-1.01.49-1.38.76-.28.21-.55.41-.73.41-.15 0-.53-.2-.9-.4-.78-.42-1.85-.99-2.97-1.05-1.21-.06-1.96.3-2.56.6-.27.14-.51.26-.76.31-.32.07-1.03-.09-1.77-.27-.94-.22-2.1-.49-3.16-.46-2.72.08-4.58 2.46-5.09 6.52-.43 3.39.34 5.05.9 6.26.27.58.51 1.09.54 1.64.03.45-.16 1.05-.37 1.74-.39 1.27-.89 2.87-.34 4.55.84 2.63 2.08 4.14 2.82 5.05.26.32.56.69.55.79-.05.15-.09.28.03.38s.25.03.3 0a.5.5 0 0 1 .33-.08h.98c.03 0 .06.02.11.04.11.05.26.1.38.1.09 0 .17-.03.25-.09.17-.16.08-.41.06-.49-.03-.11.34-.53.6-.83.6-.69 1.51-1.72 1.95-3.15.76-2.47.79-4.86.81-6.45 0-.76.02-1.37.1-1.7.24-.96.62-1.62.96-2.21l.1-.17c.24-.42.24-.82.23-1.08v-.04c.33.33.99.94 2.45 1.14 1.54.2 2.74-.36 3.46-.69.23-.1.46-.21.54-.21.09.02.34.28.52.47.54.56 1.35 1.4 2.39 1.34s1.65-.73 2.06-1.17c.15-.17.32-.35.41-.37.1-.01.41.12.67.22.82.32 2.2.87 3.52.4 1.38-.48 2.06-1.84 2.47-2.65.11-.22.25-.49.3-.54.06-.05.26-.12.47-.2.83-.31 2.37-.88 3.38-2.39s.51-3.51.24-4.58c-.06-.23-.12-.49-.12-.55.01-.05.14-.19.24-.3.43-.49 1.24-1.41 1.31-3.09.06-1.54-.69-2.47-1.18-3.08-.17-.22-.36-.44-.36-.54 0-.13.16-.35.33-.59.36-.5.85-1.18.85-2.22s-.5-1.81-.86-2.4c-.14-.23-.34-.54-.32-.63.02-.11.16-.29.3-.49.33-.45.79-1.06.79-1.91s-.68-1.31-1.13-1.59c-.11-.07-.27-.17-.31-.23.04-.08.17-.28.29-.45.5-.7 1.42-2.01 1.42-3.7s-.73-2.93-1.12-3.61c-.11-.19-.23-.4-.24-.46 0-.08.19-.34.33-.55.37-.53.87-1.26.94-2.06.06-.83-.42-1.2-.77-1.47-.2-.15-.32-.26-.32-.36 0-.06.06-.13.22-.27Z"/>
  <path fill="#d16f54" d="M221.49 252.7v.31zm0 0v.31zm-19.68-6.45c-3.22.92-4.85 4.69-4.46 10.34.11 1.67.25 3.34.38 4.96.16 1.97.33 3.94.42 5.91.07 1.62-.1 3.11-.35 4.72-.22 1.43-.18 3.23-.09 3.71s.38 1.63 1.85 1.71c1.21.06 1.5-.88 1.54-1.46.03-.47-.26-1.31-.25-1.44.02-.14 0-.12.02-.37 0-.16 0-.25.02-.31s.09-.09.17-.39c.06-.22.02-.33.03-.37s.06-.09.12-.24c.02.07 0 .15 0 .24 0 1.44.75 3.65 2.38 3.65 1.41 0 2.58-1.77 2.58-3.64 0-.81-.09-1.66-.43-2.41-.15-.33-.36-.65-.64-.89-.14-.12-.31-.22-.48-.3-.1-.05-.21-.08-.31-.12.02-.02.04-.05.05-.08.12-.34-.68-.65-.84-.81-.05-.05-.25-.54-.96-.54-.53 0-.71.42-.81.51-.06.06-.25.14-.45.36s-.25.42-.3.51-.17.13-.26.39c-.06.17-.03.3-.12.42s-.17.16-.33.43c-.16.28-.16.42-.2.54-.05.12-.19.26-.28.59s-.02.48-.02.62-.13.25-.09.62c.05.43.19.51.19.61s-.09.28-.05.54c.05.28.16.54.17.64.02.09 0 .2.08.37s.15.2.17.25c.06.12.03.25.09.39.08.18.2.23.19.4-.03.34-.37.73-1.07.68-1.16-.08-1.34-1.88-1.32-2.98.02-1.11.31-2.21.48-3.3.22-1.38.12-2.76.04-4.15-.1-1.69-.24-3.38-.37-5.07-.13-1.62-.26-3.29-.38-4.96-.37-5.37 1.12-8.93 4.07-9.77 2.42-.69 4.35.8 5.61 2.29.11-.14.25-.26.43-.34-1.36-1.62-3.48-3.25-6.19-2.48Zm19.24 0c-2.59-.74-4.64.7-6.02 2.24.2.05.37.15.5.28 1.27-1.39 3.11-2.63 5.37-1.99 2.98.85 4.48 4.45 4.11 9.87-.11 1.68-.25 3.37-.38 5-.14 1.71-.28 3.41-.38 5.12-.08 1.4-.18 2.79.04 4.19.18 1.1.47 2.21.49 3.33.02 1.11-.16 2.93-1.33 3.01-.71.05-1.05-.35-1.08-.69-.02-.17.11-.23.19-.41.06-.14.03-.27.09-.39.03-.05.09-.08.17-.25.08-.18.06-.28.08-.38.02-.09.13-.36.17-.64.04-.26-.05-.46-.05-.55s.14-.17.19-.61c.04-.37-.09-.49-.09-.63s.08-.3-.02-.63c-.09-.33-.24-.47-.28-.6s-.05-.27-.2-.55c-.16-.28-.24-.31-.33-.44s-.06-.25-.13-.42c-.1-.27-.22-.3-.27-.39s-.09-.3-.3-.52c-.2-.22-.39-.3-.45-.36-.09-.09-.28-.52-.82-.52-.72 0-.92.49-.97.55-.16.16-.97.47-.85.82.01.03.03.05.05.08-.1.04-.21.07-.31.12-.17.08-.34.18-.48.3-.28.24-.5.56-.65.9-.35.75-.44 1.61-.44 2.43 0 1.88 1.18 3.67 2.6 3.67 1.65 0 2.4-2.23 2.4-3.69 0-.09-.01-.17 0-.24.06.14.11.2.12.24.02.05-.03.16.03.38.08.3.16.33.17.39.02.06 0 .15.02.31.02.25 0 .24.02.38s-.28.99-.25 1.46c.04.58.33 1.54 1.55 1.47 1.48-.08 1.77-1.24 1.87-1.73.09-.49.14-2.3-.09-3.75-.25-1.62-.43-3.13-.36-4.76.09-1.99.26-3.98.42-5.97.13-1.64.27-3.33.38-5.01.39-5.71-1.25-9.51-4.51-10.44Z"/>
  <path fill="#feb967" d="M218.75 248.39c-.98-.61-2.08-1.03-3.21-1.31a15.8 15.8 0 0 0-3.87-.46c-.88 0-1.77.06-2.64.19-.4.06-.79.14-1.18.23-1.05.25-2.08.64-3.01 1.21-.78.48-1.48 1.11-1.98 1.88-.29.45-.5.95-.63 1.48q-.09.405-.12.81c-.04.71.05 1.36.26 2.04 1.58 5.13 7.09 5.91 7.71 6.51.52.5.51 1.71.51 2.57 0 .63 1.99.71 1.99.02 0-1.03-.06-2.18.64-2.7 1.12-.81 6.07-1.78 7.82-6.06.03-.07.05-.14.08-.21.51-1.38.49-2.86-.27-4.14-.51-.86-1.27-1.54-2.11-2.06Z"/>
  <path fill="#fd9687" d="M214.29 262.37c-.34.38-.94.93-1.5.88-.26-.02-.48-.2-.69-.36-.28-.2-.54-.25-.87-.19-.18.04-.33.17-.45.31-.13.14-.26.28-.43.34-.51.18-1.02-.69-1.3-.99-.59-.65-.25 1.32.35 2.96.6 1.65-.02 13.56-.11 14.25-.1.76-.38.83-.45 1.72-.07.9.44 1.38.74 1.85.27.44.2 1.09.42 1.57.3.66.95 1.05 1.63 1.09h.09c.45 0 .91-.15 1.26-.49.64-.62.4-1.49.82-2.17.29-.47.81-.95.74-1.85s-.35-.96-.45-1.72c-.09-.69-.71-12.6-.11-14.25s.93-3.61.35-2.96Z"/>
  <path fill="#cc4b42" d="M230.57 140.89c-.6.1-2.26-.06-3.58-.25-.1-.27-.22-.53-.35-.79 1.64-.88 2.91-2.28 3.2-2.77.14-.23-.88-.97-1.11-.72-.72.8-1.62 1.64-2.97 2.15a6.24 6.24 0 0 0-2.46-1.83c0-.13.01-.26.02-.4 1.82-.75 3.67-.88 4.87-1.02.19-.02.3-1.94.06-1.99-1.75-.31-3.58.08-5.12.48-.18-.66-.5-1.37-1.06-2.12 0-.03.01-.06.04-.09.42-.46.92-1.45.97-1.72.03-.15-.84-.78-.92-.61s-1.18 1.79-1.76 1.56c-.59-.23 0-2.19.06-2.33s-1.2-.55-1.27-.34-.52 2.23-1.23 2.34c-.59.09-1.58-1.98-1.63-2.13-.1-.27-1.33.33-1.21.54.11.42.3.82.47 1.23.12.29.28.59.34.91-.32.17-.61.38-.9.62-.04.03-.08.06-.11.1-.32.28-.58.6-.81.95-.65-.09-1.34-.12-2.08-.03-.13-.94-.33-1.92-.65-2.9-.08-.25-2.89.57-2.83.88.23 1.18.38 2.23.48 3.17-2.23 1.44-3.72 3.7-3.75 3.78-.04.11.99.88 1.09.77.06-.07 1.17-1.59 2.79-2.78.06 1.46 0 2.56-.03 3.39-.12.09-.24.18-.35.27-.92.75-1.51 1.77-1.87 2.87-.73-.12-1.44-.3-2.14-.52-.28-.09-.71 1.39-.55 1.43.71.2 1.53.39 2.36.54-.16 1.15-.12 2.32.06 3.33q-.93.255-1.95.33c-.21.01.07 1.49.34 1.47.64-.05 1.32-.17 2.01-.33 1 2.74 3.14 4.99 5.95 6.9 1.64 1.12 2.25 2.56 3.79 3.78 1.09.86 2.43 1.14 3.11 1.15.61.1 1.4.07 2.08-.12 3.22-.82 4.01-4.89 4.22-7.53.2-2.53 1.03-5.34 1.34-7.87.1-.78.07-1.59-.06-2.39 1.31.07 2.61.07 3.18-.02.23-.04.4-1.45-.06-1.38Zm-17.32-6.03c-.17.86-.21 1.75-.13 2.68q-.345.03-.69.09c-.1-.78-.18-1.95-.27-3.43.16-.02.33-.04.5-.04.27 0 .52 0 .76.01-.07.23-.13.46-.17.69m3.92 1.74c-.02.09-.06.19-.11.28-.28.12-.37.2-.42.16s-.14-.92.04-1.81c.43.41.59.89.48 1.37Zm.35-2.9c.18-.14.4-.24.66-.28.9-.15 1.41.33 1.69.94-.76-.07-1.53-.34-2.35-.66"/>
  <path fill="none" stroke="#333" stroke-miterlimit="10" d="M221.48 65.24h229.87m0 47.05H352.8c-1.78 0-3.21 1.44-3.21 3.21v18.91c0 1.78-1.44 3.21-3.21 3.21H220.33m231.02 33.23h-99.56c-1.78 0-3.21-1.44-3.21-3.21v-13.56c0-1.78-1.44-3.21-3.21-3.21H238.09m213.26 72.29h-98.27c-1.78 0-3.21-1.44-3.21-3.21v-19.86c0-1.78-1.44-3.21-3.21-3.21H214.94m27.19 156.22h209.22m-206.11 80.47h206.11"/>
</svg>
