<svg xmlns="http://www.w3.org/2000/svg" xmlns:xlink="http://www.w3.org/1999/xlink" viewBox="0 0 256.61 757.29">
  <defs>
    <clipPath id="a">
      <path fill="none" d="M0 0h256.61v264.83H0z"/>
    </clipPath>
  </defs>
  <rect width="256.61" height="264.83" fill="#fff2e1" rx="10" ry="10"/>
  <g clip-path="url(#a)">
    <path fill="#aa6a59" d="M110.29 660.77c0 .59-.39 26.14 1.92 43.74.22 1.67 1.68 4.51 1.68 6.18 0 11.8 1.78 38.42 0 38.98-3.81 1.2-31.42-1.14-31.42-1.14s8.28-30.03 8.29-40.3c0-12.02-4.51-47.47-4.51-47.47h24.04Z"/>
    <path fill="#4f2f25" d="M113.87 710.54s-1.29 34.06-3.2 34.73c-1.92.67-24.75.29-25.46-.48-.71-.76.72-9.72.72-9.72s-6.76 18.56-6.07 19.84c1.77 3.31 35.68 2.85 37.68.49 1.61-1.9-3.67-44.87-3.67-44.87Z"/>
    <path fill="#b75c47" d="M111.12 693.33c-1.09-15.59-.84-32.09-.84-32.57H86.24s2.28 17.89 3.6 32.57z"/>
    <path fill="#aa6a59" d="M143.7 660.77c0 .59.39 26.14-1.92 43.74-.22 1.67-1.68 4.51-1.68 6.18 0 11.8-1.78 38.42 0 38.98 3.81 1.2 31.42-1.14 31.42-1.14s-8.28-30.03-8.29-40.3c0-12.02 4.51-47.47 4.51-47.47H143.7Z"/>
    <path fill="#4f2f25" d="M140.11 710.54s1.29 34.06 3.2 34.73 24.75.29 25.46-.48c.71-.76-.72-9.72-.72-9.72s6.76 18.56 6.07 19.84c-1.77 3.31-35.68 2.85-37.68.49-1.61-1.9 3.67-44.87 3.67-44.87Z"/>
    <path fill="#b75c47" d="M142.86 693.33c1.09-15.59.84-32.09.84-32.57h24.04s-2.28 17.89-3.6 32.57z"/>
    <path fill="#ffdcb4" d="M60.73 333.36c-7.8 23.85-4.1 111.02-.54 192.78 3.59 82.57 7.09 159.63 8.04 160.34 3.64 2.75 50.24 2.48 51.45 0 1.24-2.55 7.13-318.65 7.13-318.65l-66.07-34.47Z"/>
    <path fill="#ffdcb4" d="M192.87 333.36c8.8 27.02 4.1 111.02.54 192.78-3.59 82.57-7.09 159.63-8.04 160.34-3.64 2.75-50.24 2.48-51.45 0-1.24-2.55-7.13-318.65-7.13-318.65l66.07-34.47Z"/>
    <path fill="#8c5044" d="M141.95 161.95c-2.03-5.55 0-26.85 0-26.85h-30.24s2.03 21.31 0 26.85c-2.03 5.55-18.54 11.42-18.54 11.42s.5 12.13 13.04 20.73c8.94 6.13 20.61 6.21 20.61 6.21s11.67-.08 20.61-6.21c12.54-8.6 13.04-20.73 13.04-20.73s-16.51-5.88-18.54-11.42Z"/>
    <path fill="#ffdcb4" d="M181.49 291.05H72.27c-15.33 39.23-15.49 70.77-15.49 70.77l70.1 13.84 70.17-14s-.52-28.59-15.55-70.61Z"/>
    <path fill="#a47764" d="M176.93 265.67c-3.2-6.85 23.04-72.3 16.64-78.68-7.64-7.62-45.36-22.48-48.59-25.14s-.31-5.46-.31-5.46 4.09-2.15 3.16-5.09-6.69-3.55-6.69-3.55l-.06 2.17s-4.52 4.17-14.18 4.17-14.31-4.17-14.31-4.17l-.06-2.17s-5.63.61-6.56 3.55 3.16 5.09 3.16 5.09 2.92 2.8-.31 5.46-44.09 17.42-49.9 26.3c-4.95 7.57 21.14 70.67 17.95 77.52-3.2 6.85-22.43 60.73-21.61 66.58.37 2.61 4.11 5.15 4.11 5.15s39.02 3.56 67.54 3.56 67.1-3.56 67.1-3.56 4.6-4.04 4.57-7.79c-.05-5.91-18.43-57.09-21.62-63.94Z"/>
    <circle cx="70.55" cy="197.39" r="14.86" fill="#2c2b33"/>
    <circle cx="182.91" cy="197.39" r="14.86" fill="#2c2b33"/>
    <circle cx="70.59" cy="197.39" r="14.86" fill="#8e6151"/>
    <path fill="#a47764" d="M56.59 192.39c-6.01 13.88-10.62 38.29-17.11 75.5-7.11 40.77-10.38 69.1-10.24 69.79s2.85 3.34 2.85 3.34-1.14 8.86-.45 9.56 20.63 3.96 21.19 2.89 2.24-10.49 2.24-10.49 4.3-1.11 4.71-2.22c.42-1.11 6.91-45.49 10.94-69.77 4.95-29.78 13.02-66.22 14.38-70.31 2.82-8.51-24.15-18.31-28.5-8.27Z"/>
    <path fill="#aa6a59" d="M52.21 389.33c-.49-1.06 2.44-6.96 1.79-14.77s-5.18-10.22-5.37-11.09c-.15-.67 1.07-8.36 1.4-11.44 0 0-2.44-1.4-6.89-1.88-5-.55-7.68 0-7.68 0-.39 3.08-1.28 10.43-1.9 12.22-.37 1.08-8.45 16.83-8.58 17.7-.45 2.95-1.24 15.59 4.2 23.07s16.56 5.98 20.64 5.97c4.07-.02 3.37-3.59 3.37-3.59s1.47-2.32-.04-4.1c-1.51-1.77-3.79-1.87-3.79-1.87s.31-2.37-2.09-3.27c-2.4-.89-6.14 1.55-6.14 1.55s-3.34-5.24-1.41-9.63 5.41-6.87 5.41-6.87-2.51 10.39 2.75 13.72 9.07-1.01 8.68-3.04-3.87-1.63-4.35-2.69Z"/>
    <path fill="#844d42" d="M53.8 403.73c-.74-.68-1.83-1.29-3.47-1.62-.91-.18-1.79-.28-2.63-.31-1.7-.07-3.22.1-4.44.24-.79.09-1.78.2-2.05.09-.61-.28-1.24-.62-1.86-1.05 4.66-2.91 11.37-1.21 11.4-1.21l.45.15c-1-.43-1.85-.47-1.85-.47s.15-1.12-.54-2.11c-2.8-.33-7.46-.34-11.03 2.28-1.47-1.6-2.56-3.92-2.47-7.28.11-4.34 5.17-9.45 8.16-12.11-.15.81-.3 1.78-.43 2.91 1.16-1.24 2.08-1.9 2.08-1.9s.54-2.23.69-2.76c-.6-.44-1.21-.88-1.8-1.33-2.24 1.8-10.42 8.8-10.59 15.14-.14 5.4 2.36 9.54 7.09 11.68.65.3 1.56.19 2.93.04 1.71-.19 4.04-.45 6.53.05 2.16.44 2.96 1.42 3.25 2.1.02-.43-.04-.74-.04-.74s.49-.78.61-1.78Zm-25.36-9.77-1.88-.25c-.02.2-.29 2.75.66 5.99.33.75.7 1.47 1.11 2.17.26.43.54.86.83 1.27.2.28.42.54.63.8l.19.22q.255.285.51.54l.19.19c.48.46.99.87 1.53 1.24.05.03.09.06.14.09.24.16.48.31.72.46.04.02.08.05.12.07.88.51 1.81.92 2.77 1.25-8.42-5.33-7.59-13.68-7.55-14.03Z"/>
    <path fill="#c17667" d="M32.96 386.04c1.47-.36.85-2.63-.62-2.26-.82.2-1.81.18-2.52-.1l-.06-.02c.14-.69-.06-1.39-.7-1.77-.96-.56-2.26-.13-3.25.1-.33.08-.75.14-1.04.06-.05.68-.09 1.48-.11 2.36.65.07 1.3-.03 1.94-.19.26-.06.52-.13.78-.18.03.29.11.57.26.82.34.55.93.88 1.52 1.09 1.2.43 2.56.42 3.79.11Z"/>
    <circle cx="183.02" cy="197.39" r="14.86" fill="#8e6151"/>
    <path fill="#a47764" d="M197.02 192.39c6.01 13.88 9.84 38.29 16.33 75.5 7.11 40.77 11.17 69.1 11.03 69.79s-2.85 3.34-2.85 3.34 1.14 8.86.45 9.56c-.69.69-20.63 3.96-21.19 2.89s-2.24-10.49-2.24-10.49-4.3-1.11-4.71-2.22c-.42-1.11-7.69-45.49-11.73-69.77-4.95-29.78-12.24-66.22-13.59-70.31-2.82-8.51 24.15-18.31 28.5-8.27Z"/>
    <path fill="#aa6a59" d="M201.4 389.33c.49-1.06-2.44-6.96-1.79-14.77s5.18-10.22 5.37-11.09c.15-.67-.75-8.23-1.08-11.31 0 0 2.41-1.35 6.85-1.83 5-.55 7.17-.1 7.17-.1.39 3.08 1.5 10.35 2.12 12.14.37 1.08 8.45 16.83 8.58 17.7.45 2.95 1.24 15.59-4.2 23.07s-16.56 5.98-20.64 5.97c-4.07-.02-3.37-3.59-3.37-3.59s-1.47-2.32.04-4.1c1.51-1.77 3.79-1.87 3.79-1.87s-.31-2.37 2.09-3.27c2.4-.89 6.14 1.55 6.14 1.55s3.34-5.24 1.41-9.63-5.41-6.87-5.41-6.87 2.51 10.39-2.75 13.72-9.07-1.01-8.68-3.04 3.87-1.63 4.35-2.69Z"/>
    <path fill="#844d42" d="M199.81 403.73c.74-.68 1.83-1.29 3.47-1.62.91-.18 1.79-.28 2.63-.31 1.7-.07 3.22.1 4.44.24.79.09 1.78.2 2.05.09.61-.28 1.24-.62 1.86-1.05-4.66-2.91-11.37-1.21-11.4-1.21l-.45.15c1-.43 1.85-.47 1.85-.47s-.15-1.12.54-2.11c2.8-.33 7.46-.34 11.03 2.28 1.47-1.6 2.56-3.92 2.47-7.28-.11-4.34-5.17-9.45-8.16-12.11.15.81.3 1.78.43 2.91-1.16-1.24-2.08-1.9-2.08-1.9s-.54-2.23-.69-2.76c.6-.44 1.21-.88 1.8-1.33 2.24 1.8 10.42 8.8 10.59 15.14.14 5.4-2.36 9.54-7.09 11.68-.65.3-1.56.19-2.93.04-1.71-.19-4.04-.45-6.53.05-2.16.44-2.96 1.42-3.25 2.1-.02-.43.04-.74.04-.74s-.49-.78-.61-1.78Zm25.36-9.77 1.88-.25c.02.2.29 2.75-.66 5.99-.33.75-.7 1.47-1.11 2.17-.26.43-.54.86-.83 1.27-.2.28-.42.54-.63.8l-.19.22q-.255.285-.51.54l-.19.19c-.48.46-.99.87-1.53 1.24-.05.03-.09.06-.14.09-.24.16-.48.31-.72.46-.04.02-.08.05-.12.07-.89.51-1.81.92-2.77 1.25 8.42-5.33 7.59-13.68 7.55-14.03Z"/>
    <path fill="#c17667" d="M220.65 386.04c-1.47-.36-.85-2.63.62-2.26.82.2 1.81.18 2.52-.1l.06-.02c-.14-.69.06-1.39.7-1.77.96-.56 2.26-.13 3.25.1.33.08.75.14 1.04.06.05.68.09 1.48.11 2.36-.65.07-1.3-.03-1.94-.19-.26-.06-.52-.13-.78-.18-.03.29-.11.57-.26.82-.34.55-.93.88-1.52 1.09-1.2.43-2.56.42-3.79.11Z"/>
    <path fill="#edc298" d="M125.63 429.72h2.35v-67.17c2.38-.91 10.33-3.9 15.83-5.97l-.83-2.2c-10.84 4.07-14.72 5.53-16.17 6.13-1.71-.61-9.68-3.64-15.05-5.7l-.84 2.19 7.72 2.94c1.93.73 3.86 1.46 5.32 2.01.69.26 1.24.46 1.67.62v67.14Z"/>
    <path fill="#8e6151" d="M80.21 218.67c1.14-1.78 1.32-2.05 1.32-2.53s-.81-4.04-2.41-10.64l-2.28.55c1.01 4.15 2.11 8.82 2.31 9.89-.18.31-.55.89-.91 1.45-2.36 3.68-7.27 11.32-7.77 16.94-.53 5.97 2.14 18.58 2.85 21.81.34-1.87.69-3.74 1.05-5.6q.39 1.41.75 2.73c-.99-4.84-2.71-14.12-2.31-18.73.44-5.04 5.32-12.63 7.4-15.88ZM62.78 337.7l9.86-61.25c-1.29 3.5-2.77 7.58-4.3 11.91l-7.91 49.13c.57.05 1.36.12 2.35.2Zm117.04-80.08c.41-2.93 2.26-16.74 1.72-22.84-.49-5.52-4.41-13.38-6.29-17.15-.32-.64-.64-1.29-.79-1.61.21-1.12 1.31-5.8 2.32-9.96l-2.28-.55c-1.6 6.59-2.41 10.17-2.41 10.64 0 .41.14.69 1.06 2.54 1.82 3.65 5.61 11.23 6.05 16.31.56 6.42-1.76 22.67-1.78 22.83l-.03.18.04.22c.37-1.78.85-3.8 1.43-6zm4.51 27.41c-1.61-4.44-3.12-8.52-4.37-11.83l10.85 64.48c1.02-.09 1.81-.16 2.35-.2z"/>
    <path fill="#825745" d="M92.73 88.08c0 .33-1.32 2.59-1.32 2.59s4.94 17.88 5.23 25.61-1.55 14.67 1.14 14.67 4.66-1.76 4.66-1.76 3.12 3.63 12.24 3.59c9.11-.04 13.01-3.92 13.01-3.92s-1.38 2.85 2.29 3.13 6.62-2.67 6.62-2.67.2 2.7 4.92 2.52 5.57-2.06 5.57-2.06 2.86 3 5.38 2.21c4.18-1.32 1.14-7.75 2.61-18.17.94-6.67 4.73-24.2 4.73-24.2s-7.13-4.45-7.65-4.45-59.42 2.9-59.42 2.9Z"/>
    <path fill="#aa6a59" d="M154.46 71.15c-3.01-12.58-20.04-19.34-28.68-19.34S100.1 58.58 97.1 71.15c-2.08 8.68-3 25.13-1.99 37.52.07.86.94 1.7 1.03 2.52.39 3.59.97 6.73 1.75 9.07 3.52 10.55 15.72 23.03 27.89 23.03s24.37-12.48 27.89-23.03c.74-2.21 1.29-5.14 1.68-8.48.08-.68.94-1.37 1.01-2.08 1.15-12.49.24-29.62-1.9-38.54Z"/>
    <path fill="#aa6a59" d="M97.21 102.67c.91 7.34-.84 13.3-3.91 13.31s-6.3-5.92-7.22-13.26c-.91-7.34.84-13.3 3.91-13.31s6.3 5.92 7.22 13.26"/>
    <path fill="#844d42" d="M92.27 112.32C91.43 101.22 89.03 94.07 89 94l2.25-.77c.1.3 2.53 7.51 3.39 18.91z"/>
    <path fill="#844d42" d="m88.07 103.789.866-2.206 4.03 1.583-.867 2.206z"/>
    <path fill="#aa6a59" d="M154.47 102.67c-.91 7.34.84 13.3 3.91 13.31s6.3-5.92 7.22-13.26c.91-7.34-.84-13.3-3.91-13.31s-6.3 5.92-7.22 13.26"/>
    <path fill="#844d42" d="m159.41 112.32-2.37-.18c.86-11.4 3.29-18.61 3.39-18.91l2.25.77c-.02.07-2.43 7.25-3.27 18.32"/>
    <path fill="#844d42" d="m158.71 103.168 4.03-1.584.867 2.206-4.03 1.584z"/>
    <path fill="#4f2f25" d="M168.69 56.05c-7.18-7.85-19.07-9.2-19.07-9.2s-1.43-10.75-21.68-13.42c-23.56-3.11-24.99 12.3-24.99 12.3s-16.99 5.34-19.79 18.43c-2.73 12.82 4.98 16.57 4.3 17.02-.67.45-6.17 4.71-3.64 7.4 2.52 2.69 8.64 2.03 8.64 2.03l2.55 10.49h2.71l-2.07-16.56s10.43-.67 10.66-6.51-10.51-10.51 2.05-16.34c12.57-5.83 34.56-4.64 38.82.3s-.04 16.46 1.31 17.15 5.83 2.26 5.83 2.26.48 13.02.14 19.7h2.91c.55-3.19 1.45-7.35 2.89-11.09.11-.28 2.38-.4 2.38-.4 2.17-5.7 3.74-9.45 3.43-11.92-.67-5.39-4.12-7.96-4.12-7.96s13.91-5.83 6.73-13.69Z"/>
    <path fill="#563931" d="M141.01 58.87c0 .06.01.11.02.17.92.23 1.75.49 2.52.77-.36-1.49-.24-3.84 2.01-6.94 2.33-3.22 7.81-3.93 12.18-3.9-2.63-1-4.97-1.56-6.46-1.84-3.05.65-5.9 1.94-7.65 4.35-1.62 2.24-2.34 4.2-2.55 5.86.12-6.61-1.69-17.37-14.12-20.52-7.17-1.82-12.66-1.84-16.68-1.19-1.96 1.09-3.41 2.4-4.46 3.72 3.38-1.41 9.98-2.91 20.56-.22 10.24 2.6 12.29 11 12.39 16.91-1.05-4.06-3.91-9.01-11.07-12.78-7.82-4.12-16.94-2.93-23.71-.96-.54 1.18-.81 2.2-.93 2.81 6.48-2.11 15.85-3.81 23.54.25 3.95 2.08 6.43 4.51 7.98 6.88-.3-.34-.63-.68-1-1-2.98-2.57-7.3-3.45-12.84-2.66-2.01-.28-20.14-2.39-27.07 10.38-6.29 11.58-3.87 20.05-3.13 22.06-.56.33-1.12.56-1.66.6-.55.05-1.06-.09-1.54-.32-.36.26-1.11.86-1.89 1.64 1.01.7 2.22 1.17 3.63 1.04 2.13-.19 4.13-1.83 5.68-3.34-.57 2.04-.83 4.51 1.16 5.84l-.24-1.92s.57-.04 1.44-.17c-.83-.84-.25-2.75.49-4.82.53-1.48.88-2.45.14-3.19a1.36 1.36 0 0 0-.97-.4c-.81 0-1.41.62-2.6 1.86-.48.49-1.04 1.08-1.65 1.63-.73-2.56-1.99-9.8 3.22-19.39 3.88-7.14 12.11-8.99 18.03-9.33-7.12 3.72-9.7 10.75-10.61 14.59.64-.85 1.67-1.71 3.22-2.6 1.72-4.54 5.64-10.46 14.51-11.8 4.91-.74 8.64-.04 11.11 2.07 1.82 1.55 2.59 3.6 2.93 5.05 2.22.21 4.28.54 6.07.98 0-.06 0-.11.01-.16Zm27.68-2.82a22 22 0 0 0-2.05-1.97c-4.21-.32-9.43 0-13.61 2.52-2.83 1.71-4.57 3.72-5.64 5.66.63.82 1.05 1.79 1.32 2.85.72-2.06 2.26-4.49 5.55-6.48 4.61-2.79 10.95-2.47 15.05-1.84-.19-.25-.39-.49-.62-.74m-5.34 21.23c-1.39-.84-2.94-1.04-4.61-.6-3.04.81-4.96 2.53-6.14 4.11.98.36 1.73.62 1.73.62s.01.36.03.98c.91-1.28 2.45-2.74 4.99-3.41 1.03-.28 1.94-.17 2.76.33 1.5.91 2.4 2.86 2.85 4.13.44-1.3.78-2.44.97-3.44-.64-1.04-1.48-2.04-2.58-2.72M148.97 66.4c.13.9.17 1.85.16 2.79 1.53-1.32 4.57-3.1 9.01-1.8 1.66.49 3.05 1.27 4.23 2.17.47-.22 1.31-.63 2.29-1.22a15.5 15.5 0 0 0-5.85-3.22c-4.35-1.28-7.67-.1-9.83 1.29Z"/>
    <path fill="#996a4a" d="M135.26 34.95c-6.99 4.58-21.42 13.86-31.46 15.37-4.75.71-6.56-.3-6.96-1.9-3.71 2-8.26 5.18-11.17 9.72 2.59 1.37 7.33 2.41 16.01 1.4 18.7-2.18 36.83-14.83 43.25-19.73-2.13-1.78-5.22-3.55-9.68-4.87ZM161 55.68c-2.33-2.04-2.77-4.36-2.47-6.4a39.4 39.4 0 0 0-8.16-2.32c-1.33 2.53-2.56 6.47-1.4 11.12 1.46 5.85 10.9 8.66 16.39 9.82 2.3-1.49 4.98-3.81 5.34-6.66-2.74-1.05-6.52-2.78-9.7-5.55Z" opacity=".27"/>
    <ellipse cx="111.67" cy="93.19" fill="#423734" rx="1.26" ry="5.1"/>
    <path fill="#423734" d="M141.13 93.19c0 2.82-.56 5.1-1.26 5.1s-1.26-2.29-1.26-5.1.56-5.1 1.26-5.1 1.26 2.29 1.26 5.1"/>
    <path fill="#4f2f25" d="M115.48 77.05c-2.47-.21-4.95-.15-7.41.16-.44.06-.79.14-1.12.46-.27.27-.48.72-.46 1.12.03.77.7 1.7 1.58 1.58 2.46-.32 4.94-.37 7.41-.16.83.07 1.62-.78 1.58-1.58-.04-.92-.7-1.51-1.58-1.58m20.78 0c2.47-.21 4.95-.15 7.41.16.44.06.79.14 1.12.46.27.27.48.72.46 1.12-.03.77-.7 1.7-1.58 1.58-2.46-.32-4.94-.37-7.41-.16-.83.07-1.62-.78-1.58-1.58.04-.92.7-1.51 1.58-1.58"/>
    <path fill="#965345" d="M112.64 101.14c-.06-.2-.16-.38-.31-.52l-.24-.19c-.19-.11-.38-.16-.6-.16l-.98-.08c-.16 0-.32.03-.46.1-.15.05-.27.13-.38.25-.12.11-.2.23-.25.38a.9.9 0 0 0-.1.46c.01.11.03.21.04.32.06.2.16.38.31.52.08.06.16.12.24.19.19.11.38.16.6.16l.98.08c.16 0 .32-.03.46-.1.15-.05.27-.13.38-.25.12-.11.2-.23.25-.38a.9.9 0 0 0 .1-.46c-.01-.11-.03-.21-.04-.32m29.96-.69c-.22-.2-.53-.38-.84-.35-.65.06-1.3.12-1.96.17-.16 0-.32.03-.46.1-.15.05-.27.13-.38.25-.21.21-.36.54-.35.84.01.31.11.63.35.84.22.2.53.38.84.35.65-.06 1.3-.12 1.96-.17.16 0 .32-.03.46-.1.15-.05.27-.13.38-.25.21-.21.36-.54.35-.84-.01-.31-.11-.63-.35-.84"/>
    <path fill="#e2d3d9" d="M94.26 116.28c0 1.36-.96 2.46-2.14 2.46s-2.14-1.1-2.14-2.46.96-2.46 2.14-2.46 2.14 1.1 2.14 2.46m62.44 0c0 1.36.96 2.46 2.14 2.46s2.14-1.1 2.14-2.46-.96-2.46-2.14-2.46-2.14 1.1-2.14 2.46m-45.91-9.73h-.17c-4.28 0-7.56-1.54-9.75-4.58-3.44-4.77-2.91-11.69-2.47-13.02.43-1.29 4.02-4.12 11.88-4.14h.73c7.94 0 11.56 2.84 11.99 4.14.45 1.34.97 8.25-2.47 13.03-2.19 3.04-5.47 4.58-9.75 4.58Zm-.37-20.17c-7.05 0-10.24 2.39-10.52 3.07-.34 1.02-.84 7.3 2.25 11.59 1.87 2.6 4.72 3.92 8.46 3.92h.13c3.79 0 6.63-1.32 8.51-3.92 3.09-4.29 2.59-10.56 2.25-11.6-.28-.68-3.48-3.06-10.48-3.06h-.59Zm30.64 20.17h-.17c-4.28 0-7.56-1.54-9.75-4.58-3.44-4.77-2.91-11.69-2.47-13.03.43-1.29 4.02-4.12 11.88-4.14h.73c7.94 0 11.56 2.84 11.99 4.14.45 1.34.97 8.25-2.47 13.03-2.19 3.04-5.47 4.58-9.75 4.58Zm-10.89-17.1c-.34 1.03-.84 7.31 2.25 11.6 1.87 2.6 4.72 3.92 8.46 3.92h.13c3.79 0 6.63-1.32 8.51-3.92 3.09-4.29 2.59-10.58 2.25-11.6-.28-.67-3.47-3.06-10.48-3.06h-.59c-7.04 0-10.24 2.39-10.52 3.07Z"/>
    <path fill="#844d42" d="M129.01 111.31c-.42 0-10.39-.07-11.23-6.2-.51-3.73 3.49-7.26 5.88-9.37.35-.31.78-.69.98-.9.07-1.02-.18-4.95-.48-8.26l2.36-.21c.75 8.3.45 9.11.35 9.37-.18.49-.61.87-1.65 1.78-1.76 1.56-5.44 4.8-5.1 7.27.55 4.02 8.79 4.14 8.88 4.14v2.37Z"/>
    <path fill="#e2d3d9" d="m123.09 91.32-1.18-1.06c.07-.08 1.71-1.88 4.07-1.88s3.78 1.87 3.84 1.95l-1.28.93s-.97-1.29-2.56-1.29-2.88 1.35-2.89 1.36Zm-26.38-1.86-1.6.87v1.01l2.01-.3h1.83v-1.58zm59.86.86-1.59-.86h-2.24v1.58h1.84l1.99.29z"/>
    <path fill="#fff" d="M109.01 89.65c0 1.23-1.27 2.65-2.84 3.17s-2.85-.05-2.85-1.28 1.27-2.65 2.84-3.17 2.85.05 2.85 1.28m28.24 0c0 1.23-1.27 2.65-2.84 3.17s-2.85-.05-2.85-1.28 1.27-2.65 2.84-3.17 2.85.05 2.85 1.28"/>
    <path fill="#965345" d="M115.41 122.49c-1.67-3.77 5.01-6.48 10.36-6.48 6.15 0 12.03 2.53 10.47 6.18-1.06 2.47-7.22 2.71-10.47 2.71-2.75 0-9.06.53-10.36-2.41"/>
    <path fill="#844d42" d="m114.96 123.56-1.22-1.68c.16-.12 3.89-2.68 12.09-2.68s11.84 2.42 11.98 2.53l-1.2 1.78s-3.59-2.24-10.83-2.24-10.81 2.3-10.81 2.3Z"/>
  </g>
</svg>
