<svg xmlns="http://www.w3.org/2000/svg" xmlns:xlink="http://www.w3.org/1999/xlink" data-name="Symbol Editing Mode" viewBox="0 0 444.34 438.51">
  <defs>
    <filter id="d" width="54.95" height="54.95" x="133.01" y="168.2" filterUnits="userSpaceOnUse">
      <feOffset dx="1" dy="1"/>
      <feGaussianBlur result="blur" stdDeviation="0"/>
      <feFlood flood-color="#6b6b6b" flood-opacity=".3"/>
      <feComposite in2="blur" operator="in"/>
      <feComposite in="SourceGraphic"/>
    </filter>
    <filter id="e" width="43.87" height="43.87" x="139.96" y="233.15" filterUnits="userSpaceOnUse">
      <feOffset dx="1" dy="1"/>
      <feGaussianBlur result="blur-2" stdDeviation="0"/>
      <feFlood flood-color="#6b6b6b" flood-opacity=".3"/>
      <feComposite in2="blur-2" operator="in"/>
      <feComposite in="SourceGraphic"/>
    </filter>
    <filter id="f" width="48.12" height="48.12" x="143.73" y="287.02" filterUnits="userSpaceOnUse">
      <feOffset dx="1" dy="1"/>
      <feGaussianBlur result="blur-3" stdDeviation="0"/>
      <feFlood flood-color="#6b6b6b" flood-opacity=".3"/>
      <feComposite in2="blur-3" operator="in"/>
      <feComposite in="SourceGraphic"/>
    </filter>
    <clipPath id="b">
      <use xlink:href="#a"/>
    </clipPath>
    <clipPath id="c">
      <rect width="199.53" height="231.57" x="60.22" y="113.1" fill="none" rx="10" ry="10"/>
    </clipPath>
    <symbol id="g" data-name="New Symbol" viewBox="0 0 97.62 30.61">
      <path fill="#00949c" d="M85.78 29.28H1.01c-.56 0-1.01-.45-1.01-1s.45-1 1.01-1h84.1L95.69 1.85c.21-.51.8-.75 1.31-.54s.76.8.55 1.31L86.72 28.67c-.16.37-.52.62-.93.62Z"/>
      <path fill="#caeae9" d="M95.92 2.68 85.94 26.8c-.28.67-.94 1.11-1.66 1.11H1.81c-1.28 0-2.16-1.3-1.66-2.49L10.13 1.3c.28-.67.94-1.11 1.66-1.11h82.45c1.28 0 2.16 1.3 1.66 2.49Z"/>
      <use xlink:href="#a"/>
      <g clip-path="url(#b)">
        <path fill="#dfeaea" d="M18.46.19 5.38 9.15l-.76 7.64L24.95.19zM.01 28.54 36.72.19l3.15 1.68L7.35 30.61zm10.02.93L41.56 2.08l.47.82-29.08 27.32z" opacity=".3"/>
        <path fill="#aae2e0" d="M13.46 21.8c-1.61 0-2.67-.73-3.07-2.11-.75-2.59-.23-3.66.55-5.28.2-.43.43-.9.67-1.47.37-.88.46-1.93.55-2.95.18-2.03.37-4.13 2.68-5.16 1.09-.48 1.94-.7 2.76-.7 1.18 0 2.34.46 3.82 1.19.67.34 1.27.49 1.92.49.49 0 .97-.08 1.52-.18.65-.11 1.39-.24 2.29-.24.42 0 .83.03 1.26.08 2.2.29 3.49.9 4.05 1.93.48.88.4 2-.27 3.41-1.45 3.09-3.22 4.44-7.29 5.53-2.36.63-3.02 1.26-3.86 2.05-.5.47-1.06 1.01-2.05 1.58-.73.43-3.29 1.83-5.54 1.83Z"/>
        <path fill="#56b7b7" d="M17.61 4.63c1.05 0 2.09.39 3.6 1.14.82.41 1.5.54 2.14.54 1.16 0 2.22-.42 3.81-.42.37 0 .76.02 1.19.08 3.33.43 4.79 1.65 3.4 4.63-1.4 2.98-3.03 4.2-6.97 5.26-3.93 1.06-3.5 2.19-6.03 3.68-1.47.87-3.59 1.76-5.29 1.76-1.22 0-2.22-.47-2.59-1.75-.88-3.06.07-3.71 1.2-6.42s-.17-6.44 2.98-7.84c.99-.44 1.78-.66 2.56-.66m0-1c-.9 0-1.81.23-2.96.74-2.58 1.15-2.79 3.5-2.98 5.57-.09 1.02-.18 1.99-.52 2.8-.23.55-.46 1.03-.66 1.44-.8 1.66-1.38 2.86-.58 5.64.46 1.6 1.72 2.47 3.55 2.47 2.38 0 5.03-1.46 5.79-1.9 1.03-.61 1.62-1.16 2.14-1.65.78-.74 1.4-1.33 3.65-1.93 4.24-1.14 6.09-2.55 7.62-5.8.74-1.57.82-2.83.25-3.87-.85-1.55-2.94-1.99-4.43-2.18a10 10 0 0 0-1.32-.09c-.94 0-1.7.13-2.37.25-.53.09-.98.17-1.43.17-.57 0-1.1-.13-1.7-.43-1.55-.77-2.76-1.25-4.04-1.25Z"/>
        <path fill="#dfeaea" d="M25.19 14.24c-1.67.55-3.76.59-5.09 1.61-1.06.81-1.61 2.03-2.83 2.78-.73.45-1.68.89-2.5 1.14-1.29.39-2.63.38-3.83-.03 1.01 2.79 5.32 1.26 7.8-.2 2.53-1.49 2.1-2.63 6.03-3.68 3.94-1.06 5.57-2.28 6.97-5.26.01-.03.02-.05.03-.07-1.87 1.79-4.11 2.9-6.58 3.71" opacity=".58"/>
        <path fill="#aae2e0" d="M25.16 23.95c-.15 0-.31 0-.47-.03-.36-.05-.72-.09-1.07-.13-2.25-.26-3.73-.43-3.97-1.35-.17-.68.48-1.24 1.07-1.66 2.23-1.58 5.09-2.56 6.47-2.56.36 0 .64.06.85.19.8.5 1.1 1.52.77 2.67-.39 1.38-1.7 2.86-3.63 2.86Z"/>
        <path fill="#56b7b7" d="M27.18 18.73c.26 0 .45.04.58.12 1.59.99.15 4.61-2.6 4.61-.13 0-.27 0-.41-.03-3.02-.38-6.22-.48-3.75-2.23 2.07-1.47 4.86-2.46 6.18-2.46m0-1.01c-1.67 0-4.7 1.19-6.75 2.65-.42.3-1.54 1.09-1.26 2.19.32 1.25 1.94 1.44 4.4 1.72.35.04.71.08 1.07.13q.27.03.54.03c2.19 0 3.67-1.67 4.11-3.23.39-1.37.01-2.61-.98-3.23-.29-.18-.65-.27-1.11-.27Z"/>
        <path fill="#dfeaea" d="M27.63 21.38c-.7.54-1.01.72-1.98 1.03-.72.23-1.51.31-2.27.35-.77.04-1.59-.07-2.33-.26-.31-.08-.59-.2-.87-.32-.1.83 2.31.96 4.62 1.25 1.96.25 3.35-1.32 3.62-2.74-.25.25-.52.47-.79.69M15.17 5.76c.53.06-1.08 1.12-1.55 1.97s-.73 2.53-1.19 2.62c-.52.11-.32-1.82.24-2.86.43-.81 2.02-1.79 2.51-1.74Zm-4.82 11.61c-.62.22-.95 2.81-.3 3.11s.6-1.06.85-1.66.3-1.76-.55-1.46Z" opacity=".3"/>
        <ellipse cx="17.14" cy="8.34" fill="#50bcbc" rx="1.47" ry="1.23" transform="rotate(-57.5 17.137 8.335)"/>
        <ellipse cx="27.44" cy="8.54" fill="#50bcbc" rx="1.12" ry=".86" transform="rotate(-14.85 27.45 8.533)"/>
        <ellipse cx="24.23" cy="11.8" fill="#50bcbc" rx=".69" ry=".86" transform="rotate(-14.85 24.255 11.784)"/>
        <ellipse cx="23.6" cy="21.47" fill="#50bcbc" rx=".88" ry=".68" transform="rotate(-14.85 23.614 21.494)"/>
        <ellipse cx="26.18" cy="20.98" fill="#50bcbc" rx=".69" ry=".28" transform="rotate(-14.85 26.18 20.97)"/>
        <ellipse cx="14.83" cy="17.25" fill="#50bcbc" rx="1.39" ry="1.07" transform="rotate(-32.44 14.818 17.248)"/>
        <ellipse cx="18.47" cy="13.13" fill="#50bcbc" rx="1.19" ry=".81" transform="rotate(-14.85 18.46 13.136)"/>
      </g>
      <path fill="none" stroke="#fff" stroke-miterlimit="10" d="M43.75.19 32.27 27.92"/>
    </symbol>
    <path id="a" fill="#fff" d="M39.87 1.87 29.79 26.24H2.07L12.16 1.87z"/>
  </defs>
  <g data-name="New Symbol 26">
    <g clip-path="url(#c)">
      <rect width="199.53" height="231.57" x="60.22" y="113.1" fill="#00949c" rx="10" ry="10"/>
      <path fill="#3cbaba" d="m324.64 359.37-.04.08c-.12.24-.24.48-.37.72l-57.62 17.52-.72.22c-1.31-5.42-2.74-10.82-4.27-16.15-.01.08-.02.17-.04.25-.67 4.57-1.34 9.14-1.82 13.71-.62 5.7-1.05 11.4-1.28 17.03-.48 11.26-.19 22.24.61 32.51.11 1.28.21 2.55.32 3.81.12 1.26.24 2.51.36 3.74.2 1.94.36 3.85.5 5.73H55.62c.06-.86.13-1.74.21-2.63.18-2 .39-4.06.59-6.19.39-4.26.72-8.78.95-13.53.22-4.75.31-9.72.26-14.85a259 259 0 0 0-2.62-34.44l-.3-2.1c-.15-1-.29-2.01-.44-3.02-1.53 5.34-2.96 10.75-4.28 16.17h-29.6l-.02-162.73.08-.09c10.16-11.08 24.88-16.54 36.57-20.06 7.12-2.15 14.64-4.17 21.91-6.14 3.82-1.03 7.77-2.1 11.61-3.16 8.02-2.23 18.7-7.35 22.43-14.43 1.08-2.05 1.7-4.99.19-7.08-1.35-1.88-3.96-2.44-6.32-2.74-2.13-.27-4.62-.2-7.25-.12-5.95.18-12.68.38-16.57-3.66-2-2.08-3.13-5.04-3.03-7.92.06-1.56.45-3.09.83-4.56.27-1.04.55-2.12.7-3.19.47-3.27-.41-5.24-2.32-7.96-.34-.49-.71-.9-1.06-1.31-.95-1.09-1.85-2.12-1.76-4.06a5.88 5.88 0 0 1 2.35-4.4c-1.47-.46-3.2-1.58-4.32-2.55-1.42-1.23-2.55-3.49-1.67-5.54.29-.67.73-1.28 1.16-1.88.85-1.18 1.65-2.3 1.18-3.68-.59-1.76-2.53-2.2-4.04-2.26-2.82-.12-5.2-1.2-6.53-2.97-1.12-1.49-1.44-3.39-.92-5.5.45-1.81 1.46-3.45 2.35-4.9 1.03-1.67 2.12-3.34 3.16-4.96 1.64-2.54 3.35-5.16 4.87-7.82.23-.41.48-.83.73-1.26 1.96-3.35 4.17-7.15 4.06-10.82-.07-2.19-.35-4.34-.63-6.41-.46-3.44-.93-6.99-.4-10.78 1.67-11.95 8.28-22.67 19.62-31.86 7.84-6.35 17.96-11.83 28.94-15.71 1.75-.62 3.51-1.19 5.29-1.73 18.09-5.41 36.8-4.83 52.68 1.64.07.03.14.06.21.08 8.33 3.43 16.06 8.57 22.38 14.88 6.71 6.71 11.61 14.58 14.16 22.75 6.42 20.52 2.24 42.86-11.76 62.89-8.32 11.9-17.06 25.9-15.42 41.36.84 7.98 3.9 15.56 8.84 21.93 8.11 10.43 23.18 16.41 34.4 19.59 3.3.94 6.7 1.81 9.98 2.66 10.05 2.59 20.44 5.27 29.79 10.12 17.81 9.23 29.76 24.43 36.53 46.48 5.92 19.27 7.12 40.58 8.27 61.19.3 5.43.59 10.56.97 15.61.84 11.36 1.53 22.94 2.04 34.42v.08Z"/>
      <path d="M54.79 360.3a397 397 0 0 0-4.69 17.62h-.88c1.45-6 3.04-11.97 4.75-17.86z"/>
      <path d="M58.22 413.54c-.18 5.18-.54 10.78-1.08 16.49-.27 2.82-.57 5.64-.77 8.48h-.84c.19-2.87.5-5.74.77-8.56.54-5.7.89-11.28 1.08-16.45.18-5.17.2-9.91.15-13.94-.05-2.02-.08-3.85-.15-5.47-.03-.81-.06-1.57-.09-2.26-.04-.7-.07-1.34-.1-1.91-.07-1.15-.11-2.05-.15-2.67-.04-.61-.07-.94-.07-.94s-.02-.32-.07-.94c-.05-.61-.1-1.51-.2-2.66-.2-2.3-.48-5.6-.97-9.61-.23-2-.53-4.18-.85-6.49-.34-2.32-.69-4.77-1.07-7.33-.74-5.12-1.54-10.67-2.29-16.35s-1.45-11.51-2.01-17.18c-.56-5.68-.97-11.2-1.2-16.28-.05-1.27-.13-2.51-.15-3.72l-.09-3.31v-1.29c0-1.29.13-2.02.39-3.09.28 1.07.43 1.8.45 3.08 0 .17 0 .43.01.76v.53l.09 3.3c.02 1.21.1 2.44.15 3.71.24 5.06.64 10.58 1.2 16.24s1.25 11.48 2 17.16 1.55 11.22 2.29 16.34c.37 2.56.73 5.02 1.06 7.34.32 2.32.63 4.5.85 6.51.49 4.02.77 7.33.97 9.64.1 1.15.15 2.06.2 2.67s.07.94.07.94.02.33.07.94c.04.61.09 1.52.15 2.67.03.58.06 1.22.1 1.92.03.7.06 1.46.09 2.27.08 1.62.1 3.47.15 5.49.06 4.04.04 8.8-.14 13.99Zm208.39-35.86-.72.22-.1.03c-1.3-5.35-2.7-10.67-4.21-15.93-.16-.57-.32-1.13-.49-1.69l.82-.24c1.69 5.81 3.26 11.7 4.69 17.62Z"/>
      <path d="M267.81 301.15v1.29l-.09 3.31c-.02 1.21-.1 2.45-.15 3.72-.24 5.08-.65 10.61-1.2 16.28-.56 5.68-1.26 11.5-2.01 17.18s-1.55 11.23-2.29 16.35c-.37 2.56-.73 5.02-1.07 7.33-.32 2.32-.62 4.49-.85 6.49-.49 4-.77 7.31-.97 9.61-.1 1.15-.15 2.05-.2 2.66-.04.61-.07.94-.07.94s-.02.32-.07.94c-.04.61-.08 1.51-.15 2.67-.03.58-.06 1.22-.1 1.91-.03.7-.06 1.45-.09 2.26-.08 1.62-.1 3.46-.15 5.47-.06 4.03-.04 8.78.15 13.94.18 5.17.54 10.75 1.08 16.45.27 2.82.58 5.69.77 8.56h-.84c-.19-2.84-.5-5.66-.77-8.48-.54-5.71-.89-11.31-1.08-16.49s-.2-9.94-.14-13.99c.05-2.02.08-3.87.15-5.49.03-.81.06-1.57.09-2.27.04-.7.07-1.34.1-1.92.06-1.16.11-2.06.15-2.67s.07-.94.07-.94.02-.33.07-.94c.05-.62.1-1.52.2-2.67.2-2.31.48-5.62.97-9.64.23-2.01.53-4.19.85-6.51.34-2.32.69-4.77 1.06-7.34.74-5.12 1.54-10.66 2.29-16.34s1.45-11.49 2-17.16c.56-5.66.96-11.18 1.2-16.24.05-1.27.13-2.5.15-3.71l.09-3.3v-.53c0-.32 0-.58.01-.76.02-1.28.17-2.01.45-3.08.26 1.07.39 1.81.39 3.09Z"/>
      <path fill="#bfbfbf" d="M145.44 85.05c.29-.48.49-.88.73-1.3.11-.21.21-.43.33-.66q.18-.345.36-.78c.06-.16.18-.38.32-.67.07-.14.14-.3.23-.46.12-.22.24-.44.37-.67.13-.26.3-.5.46-.75.15-.26.33-.5.5-.75.09-.13.18-.25.26-.38.09-.12.19-.24.29-.37 1.52-1.97 3.62-3.83 6.18-4.96 2.54-1.15 5.52-1.44 8.26-.86 1.37.28 2.68.77 3.84 1.45 1.16.67 2.18 1.52 2.98 2.49.19.25.39.48.56.74s.33.52.49.77c.17.25.3.52.44.78.07.13.13.26.2.39s.14.26.18.39c.21.53.44 1.04.58 1.56.07.26.17.5.22.76.05.25.11.5.16.74.39 1.94.33 3.6.24 4.73-.03.57-.11 1.01-.15 1.31l-.06.46s-.03.16-.09.46-.13.74-.27 1.3c-.25 1.12-.71 2.71-1.44 4.59-.37.94-.79 1.94-1.3 3s-1.08 2.17-1.64 3.35c-.56 1.19-1.12 2.45-1.53 3.82-.38 1.34-.83 2.66-1.4 3.96-.57 1.29-1.28 2.54-2.17 3.64-.88 1.1-1.97 2.01-3.21 2.58-1.23.59-2.59.76-3.88.57-.32-.07-.64-.11-.94-.22-.15-.05-.31-.08-.45-.15-.15-.06-.29-.12-.44-.18-.15-.05-.28-.14-.42-.21-.14-.08-.28-.13-.41-.22-.13-.08-.26-.17-.39-.25-.07-.04-.13-.08-.19-.13l-.13-.1c-.16-.13-.32-.23-.45-.36l-.37-.34c-.22-.22-.37-.41-.49-.53-.19-.24-.36-.45-.52-.65-.14-.21-.3-.39-.44-.57-.13-.19-.27-.37-.42-.56-.13-.2-.27-.41-.42-.64.03.27.06.53.1.78.06.24.12.48.2.71.09.23.21.46.33.71.15.24.32.49.53.75.12.13.3.35.54.59.12.12.26.24.41.38.14.14.32.26.49.4l.14.11.21.15c.14.09.29.18.43.28s.3.16.45.25c.16.08.3.17.47.23.16.07.33.13.49.2s.34.11.51.16c.34.12.7.17 1.05.24 1.43.22 3 .02 4.35-.64l.51-.25c.17-.09.32-.2.49-.29.33-.19.62-.43.92-.66.16-.11.28-.25.43-.37.14-.13.29-.25.41-.39.25-.28.53-.54.75-.85.95-1.17 1.69-2.48 2.29-3.82s1.06-2.73 1.44-4.06c.39-1.3.93-2.53 1.48-3.7s1.13-2.28 1.64-3.35c.26-.53.5-1.06.72-1.57.23-.51.41-1.01.61-1.49.75-1.91 1.21-3.55 1.47-4.7.15-.57.22-1.03.28-1.34l.09-.47s.02-.17.06-.48.12-.77.15-1.36c.1-1.18.16-2.91-.25-4.96-.06-.26-.11-.52-.17-.78-.06-.27-.16-.53-.23-.8-.15-.55-.39-1.09-.61-1.65a3 3 0 0 0-.19-.41c-.07-.14-.14-.27-.21-.41-.15-.28-.28-.56-.46-.83-.17-.27-.35-.54-.52-.82-.19-.27-.4-.53-.61-.8-.87-1.04-1.96-1.96-3.21-2.68s-2.64-1.24-4.09-1.54-2.97-.38-4.46-.23-2.96.54-4.31 1.15c-1.35.6-2.58 1.39-3.67 2.28-1.09.9-2.03 1.9-2.83 2.93-.1.13-.2.25-.3.38-.09.13-.18.26-.28.39-.18.26-.37.52-.52.79-.16.27-.33.52-.47.79-.13.23-.26.47-.38.69-.09.17-.17.34-.24.48-.14.3-.26.54-.33.7-.13.3-.23.58-.32.83-.08.26-.13.51-.18.74-.11.48-.12.95-.15 1.5Z"/>
      <path fill="#bfbfbf" d="M150.86 86.1c.12-.25.24-.47.35-.69.12-.21.22-.42.33-.62.12-.2.22-.42.34-.65.13-.22.24-.48.39-.75.05-.09.12-.21.21-.39.11-.17.24-.4.44-.69.28-.41.69-.93 1.18-1.45.5-.51 1.09-1.01 1.67-1.41.58-.41 1.16-.69 1.58-.89.21-.1.39-.16.51-.21l.19-.08s.23-.07.61-.2c.19-.05.42-.11.68-.17.13-.02.27-.05.41-.07.14-.03.29-.06.45-.07.62-.09 1.31-.1 1.98-.07s1.31.15 1.84.26c.23.05.44.11.62.16.19.05.35.11.49.16.29.09.49.18.64.24.29.11.54.23.78.32.24.1.45.2.67.28.22.09.43.18.65.27.22.1.45.2.7.31-.17-.21-.33-.41-.5-.6-.18-.17-.35-.35-.54-.5-.2-.15-.4-.3-.64-.44-.24-.13-.5-.29-.81-.4-.15-.06-.37-.16-.68-.26-.16-.05-.33-.12-.53-.17s-.42-.12-.67-.17c-.57-.12-1.26-.24-1.98-.28-.72-.03-1.47-.02-2.13.08-.17.02-.33.05-.48.07-.15.03-.3.06-.45.08-.28.07-.53.13-.74.19l-.66.21s-.07.03-.2.08c-.13.06-.32.12-.55.23-.46.21-1.08.52-1.71.96-.63.43-1.26.96-1.8 1.51-.53.56-.97 1.12-1.27 1.56-.22.31-.35.56-.47.74-.1.19-.17.32-.23.42-.16.29-.26.57-.36.83-.09.26-.15.51-.21.75-.05.24-.07.49-.09.73-.01.25 0 .51 0 .78Z"/>
      <path fill="#bfbfbf" d="M154.07 80.02c.54-.14.98-.19 1.44-.25s.93-.11 1.53-.13c.2 0 .54-.03 1.23.07.34.05.91.18 1.36.36.46.17.81.38.81.38s.08.04.19.11c.11.08.28.17.45.31.35.26.73.62.98.91.6.7.84 1.23.98 1.49.26.55.43.99.59 1.42s.32.85.44 1.39c.14-.54.19-1.02.16-1.52s-.15-1.03-.44-1.65c-.15-.3-.42-.9-1.1-1.69-.27-.33-.71-.74-1.11-1.03-.19-.15-.39-.26-.52-.35-.14-.08-.22-.13-.22-.13s-.4-.24-.92-.43c-.52-.21-1.16-.35-1.54-.4-.77-.11-1.15-.07-1.38-.07-.68.03-1.21.18-1.67.38-.46.21-.86.47-1.27.84Zm14.63 4.85c-.09.55-.15 1-.2 1.48-.03.24-.05.48-.06.74 0 .26-.02.55-.03.86v.81c0 .14-.02.3-.03.48-.03.86-.2 2.31-.41 3.53-.06.3-.11.59-.17.86-.05.27-.12.5-.16.7-.1.4-.15.65-.15.65s-.01.05-.04.15c-.03.09-.07.23-.11.4-.1.34-.23.81-.41 1.32-.16.52-.39 1.09-.6 1.63-.1.28-.23.54-.34.79s-.21.49-.32.71c-.21.43-.38.79-.52 1.06-.15.27-.26.47-.33.61-.15.28-.28.53-.4.76s-.22.45-.32.67c-.19.44-.36.86-.55 1.38.41-.37.75-.68 1.07-1.06.15-.19.31-.39.46-.61.08-.11.16-.23.24-.35.08-.13.15-.26.23-.4s.19-.35.34-.63.32-.65.54-1.09c.11-.22.21-.47.33-.73.11-.26.24-.53.35-.81.22-.56.45-1.14.61-1.68.19-.53.32-1.01.42-1.36l.12-.41c.03-.1.04-.15.04-.15s.06-.26.16-.67c.05-.21.12-.45.17-.72s.11-.57.17-.88c.22-1.25.4-2.74.42-3.63.01-.19.02-.35.03-.49v-1.3c0-.15-.02-.29-.03-.42-.03-.27-.06-.52-.1-.76-.09-.48-.24-.92-.41-1.45Zm-11.3 7.4c-.48.28-.84.62-1.14 1.03-.29.42-.52.94-.62 1.63-.01.12-.03.27-.04.5 0 .22 0 .52.04.92.07.5.23 1.17.59 1.82.09.16.2.32.3.48.12.15.24.3.37.44.26.28.54.51.8.73.53.43 1 .79 1.3 1.07.15.14.26.26.33.35s.11.13.11.13.03.04.08.12c.06.07.12.19.2.33.14.29.26.71.19 1.21-.06.5-.31 1.06-.63 1.54-.33.49-.73.93-1.07 1.31-.66.73-1.05 1.27-1.22 1.57-.35.61-.48 1.17-.47 1.7.01.52.18 1.04.56 1.45-.14-.54-.06-.97.05-1.38.12-.42.29-.84.58-1.34.14-.25.47-.71 1.12-1.44.34-.38.77-.84 1.15-1.41.37-.56.68-1.23.76-1.9.04-.33.03-.66-.03-.95-.02-.15-.07-.28-.11-.4s-.1-.23-.14-.33c-.1-.19-.19-.34-.26-.44s-.11-.15-.11-.15l-.14-.17c-.09-.1-.22-.25-.39-.41-.34-.33-.84-.71-1.35-1.12-.25-.21-.5-.42-.72-.66-.11-.12-.2-.24-.3-.36-.08-.13-.17-.26-.25-.39-.3-.53-.44-1.1-.49-1.52-.04-.33-.04-.59-.04-.78.02-.19.02-.32.03-.42.08-.58.19-1.03.33-1.46.14-.42.3-.84.59-1.31Z"/>
      <path fill="#f2ada5" d="M138.65 214.02h12.22l-3.86-34.3-8.36-15.22-10.94 7.93-.64 4.29 7.07 19.08 2.58 10.93z"/>
      <path fill="#fdfdfd" d="M84.9 120.75c.28.16.53.2.77.12h.03c.78-.32 1.22-2.67 1.29-4.71.05-1.21-.41-2.13-1.29-2.59a2.48 2.48 0 0 0-1.69-.22c-.17.07-.35.13-.53.18-.16.07-.3.16-.44.26-.74.57-1.02 1.48-.79 2.58.21 1 1.43 3.69 2.63 4.38Z"/>
      <path fill="#f2ada5" d="M240.33 380.22c-4.36 14.71-15.06 26.81-28.62 32.38-10.08 4.14-21.76 4.44-32.04.81-6.17-2.18-11.22-6.57-13.18-11.46-1.47-3.66-1.25-7.44.66-11.21 1.34-2.64 3.58-4.71 5.74-6.71.92-.85 1.87-1.72 2.74-2.64 5.12-5.35 8.17-12.66 8.36-20.06 0-.37.01-.74 0-1.11v-.35c0-.22-.01-.44-.02-.65-.02-.49-.06-.97-.1-1.46l-.03-.36c-.03-.29-.07-.59-.11-.88-.02-.11-.03-.23-.05-.34 0-.03 0-.07-.02-.11l-.06-.37c-.02-.14-.05-.28-.07-.42-.03-.19-.07-.38-.11-.57l-.12-.57c0-.02 0-.03-.01-.05l-.12-.52c-.05-.19-.09-.38-.14-.56-.04-.17-.09-.33-.14-.5 0-.02-.01-.04-.02-.06-.05-.19-.11-.37-.17-.55s-.11-.36-.17-.55c-.15-.45-.31-.91-.47-1.36-.74-2.07-1.49-4.2-1.25-6.34.26-2.27.51-4.41-1.27-6.69-1.43-1.82-3.16-2.29-5-2.79l-.24-.06c-.76-.2-1.54-.43-2.31-.76-.17-.07-.33-.15-.5-.23-5.7-2.78-9.87-10.3-12.37-16.2-3.11-7.33-4.92-15.63-5.51-25.39-.14-2.23-.22-4.46-.25-6.69-.17-10.89.75-21.82 1.65-32.45.22-2.63.45-5.35.66-8.02 1.28-16.4-.89-32.88-3.19-46.83-1.61-9.76-3.93-18.06-7.11-25.38-.33-.76-1.22-2.55-2.38-2.73-.48-.07-.94.14-1.36.63-.72.85-.24 2.35.08 3.35.04.12.08.24.11.35l.06.2c-1.64-.81-3.83-.88-6.69-.2-2.4.57-4.21 1.7-5.38 3.36-.57-2.94-.6-5.87.56-8.52 1.02-2.34 2.96-3.7 5.02-5.14.55-.38 1.11-.78 1.65-1.19 2.74-2.09 5.13-4.08 6.57-7.22.96-2.11 2.18-5.85-.54-7.24-.75-.38-1.64-.09-2.19.38-.84.7-1.46 1.72-2.05 2.7-.82 1.36-1.67 2.77-3.13 3.32-.55.21-1 .19-1.34-.05-.46-.33-.72-1.09-.69-2.03.05-1.75 1.24-3.4 2.29-4.86l.26-.36c1.1-1.53 2.47-3.44 2.46-5.48v-.05c0-.95-.02-2.92-.91-3.61-.3-.23-.66-.3-1.08-.19-.68.17-1 .83-1.28 1.41l-.07.14c-.72 1.45-2.18 2.99-3.8 3.17-.63.07-1.08-.08-1.22-.41-.16-.37.08-.91.62-1.36 2.07-1.76 3.49-4.3 3.89-6.99.41-2.68-.2-5.54-1.66-7.83l-.12-.19c-3.2-4.81-9.26-7.83-18-8.98-7.28-.95-14.28.64-19.22 4.36-1.34 1.01-3.55 3.1-3.23 5.71.15 1.24.86 2.3 1.54 3.32.19.28.38.57.55.85.47.76 1.46 2.68.54 4.11-.5.77-1.53 1.23-2.57 1.14-.89-.08-1.66-.5-2.23-.94-.07-.2-.14-.41-.21-.62.33-1.13-.09-2.76-.34-3.54-.4-1.25-1.09-2.95-2.55-3.23-.51-.1-.95 0-1.3.29s-.57.73-.71 1.24c-3-3.06-4.25-7.78-3.19-11.93.48 1.28 1.48 3.17 2.57 3.79.25.14.5.21.74.21.13 0 .26-.02.38-.06.02 0 .03-.01.05-.02 1.32-.53 1.53-4.33 1.56-5.08.03-.84-.17-1.58-.56-2.15 6.87-5.53 15.84-8.23 25.28-7.61 7.98.53 18.23 3.89 23.07 11.74.6.97 1.71 2.77 3.3 2.5 1.52-.26 2.06-2.19 1.82-3.97-.49-3.53-2.2-6.94-4.95-9.87s-.03-.04-.03-.04a22.8 22.8 0 0 0-5.12-4.06c-3.92-2.31-8.74-3.79-14.71-4.52-10.83-1.32-21.8.09-31.92 4.09-.88.35-1.76.72-2.63 1.1l-.47.21c-.3.13-.6.27-.9.4l-.36.15c-.06.03-.12.05-.18.08-.14.06-.29.11-.43.17-.18.07-.37.14-.56.2-.12.04-.24.08-.35.11-.74.23-1.42.35-2.07.37-1.75.07-3.8-.8-4.32-2.58s.64-3.58 1.77-5.13L81.8 85.4c.74-1.02 1.46-2.13 2.23-3.31 1.81-2.79 3.67-5.67 5.99-7.52 2.17-1.74 4.47-3.09 6.84-4 8.43-3.25 21.07-3.46 27.87 2.55 1.58 1.4 2.39 3.31 3.17 5.16.62 1.47 1.27 2.99 2.29 4.26 2.8 3.49 6.53 5.62 11.08 6.33 2.98.47 6.35 1.17 8.7 3.62 2.61 2.73 3.1 7.02 3.46 10.16.25 2.18.49 4.38.73 6.55-.05.06-.06.14-.03.22l.07.17c.11.98.21 1.95.32 2.92 1.65 15.2 3.35 30.91 7.06 46.06.41 1.69.78 3.25 1.11 4.77.28 1.3.32 2.65.36 3.95.05 1.76.11 3.59.75 5.33 1.61 4.34 2.12 8.61 2.67 13.12l.03.22c.77 6.35 1.34 12.94 1.75 20.13.2 3.45.36 6.98.48 10.8.29 8.77.27 17.69.25 26.33-.03 11.18-.05 22.72.6 34.1.03.6.07 1.2.11 1.79l.1 1.58c.75 11.89 1.39 22.17 7.35 33.21.72 1.34 1.62 2.59 2.48 3.8.66.92 1.34 1.86 1.93 2.84.32.52.61 1.07.91 1.65.23.44.47.87.71 1.3.75 1.31 1.63 2.55 2.94 3.33 2.79 1.67 5.2.35 7.52-.92.57-.31 1.15-.63 1.73-.9 1.77-.81 3.55-1.64 5.39-2.36.2-.08.39-.15.58-.23.2-.08.4-.15.59-.22l.6-.21c.2-.07.4-.14.6-.2.4-.13.81-.26 1.21-.37.2-.06.41-.11.61-.17.18-.05.36-.09.54-.14.14-.03.27-.07.41-.1.09-.02.19-.04.29-.06s.21-.05.31-.06c.08-.02.16-.03.24-.05.25-.05.51-.09.76-.13.08-.01.17-.03.25-.04.21-.03.42-.06.63-.08l.29-.03c.12-.02.23-.03.35-.03.06 0 .12-.01.18-.02l.41-.03c.12 0 .25-.02.38-.02h.21c.15 0 .29 0 .44-.01h.27c8.98 0 17.6 4.99 23.13 13.4.03.05.06.1.09.14.59.9 1.13 1.84 1.63 2.8 7.04 13.63 8.71 29.45 4.58 43.4Z"/>
      <path fill="#d16f54" d="M132.74 107.99c-7.55-4.63-15.76-6.91-23.73-6.6-8.67.34-16.79 3.88-22.29 9.73l-.07.07c-.55.59-1.15 1.22-1.81 1.69a2.82 2.82 0 0 1 1.74.81c6.96-5.6 16.03-8.33 25.58-7.7 8.09.53 18.48 3.95 23.4 11.94.75 1.22 1.66 2.51 2.86 2.3 1.4-.24 1.64-2.21 1.46-3.49-.45-3.26-1.98-6.43-4.43-9.18 0 .09-.02.19-.06.28-.1.29-.31.49-.59.59-.63.22-1.51-.1-2.07-.45Z"/>
      <path fill="#f9f0de" d="M83.36 113.11c.16-.07.33-.13.51-.17.92-.4 1.73-1.26 2.47-2.05l.07-.07c5.57-5.93 13.81-9.52 22.59-9.86 8.06-.31 16.34 1.99 23.97 6.67.5.31 1.25.57 1.71.41a.54.54 0 0 0 .33-.33c.07-.19.03-.43-.02-.66-.07-.08-.15-.15-.22-.23-.07-.07-.14-.15-.22-.22l-.26-.26c-.07-.07-.14-.14-.21-.2-.09-.09-.19-.17-.28-.26-.07-.06-.14-.13-.21-.19-.1-.08-.19-.17-.29-.25l-.21-.18-.3-.24c-.07-.06-.14-.12-.22-.18-.1-.08-.2-.15-.3-.23-.08-.06-.15-.12-.23-.17-.1-.07-.2-.14-.3-.22-.08-.06-.16-.12-.24-.17-.1-.07-.2-.13-.29-.2-.09-.06-.17-.12-.26-.17-.71-.46-1.46-.89-2.24-1.3-.05-.02-.09-.05-.14-.07-.01 0-.02-.01-.04-.02-3.59-1.82-7.9-3.03-13.08-3.66a64.9 64.9 0 0 0-34.32 5.16l-.47.21-.04.02c-.17.07-.33.15-.5.22-.04.02-.07.03-.11.05-.18.08-.36.16-.55.24-.03.01-.07.03-.1.04-.18.08-.37.15-.55.22-.03.01-.07.03-.1.04-.19.07-.38.14-.57.2-.01 0-.02 0-.03.01.14.21.29.47.4.75.37.93.6 1.89.81 2.82.08.36.17.72.26 1.08.41 1.61 1.44 3.38 3.08 3.48.24.02.48 0 .7-.06"/>
      <path fill="#d16f54" d="M244.25 381.63c-3.85 14.38-14.74 26.85-29.14 33.36-13.73 6.21-28.82 6.21-41.39-.02-1.04-.51-2.04-1.21-3.11-1.94-.6-.41-1.2-.83-1.81-1.22-1.8-1.13-3.7-2.01-5.85-1.78-4.41.47-7.27 5.28-7.17 9.47.14 6.1 4.24 10.15 8.2 14.07.79.78 1.6 1.58 2.38 2.4.72.76 1.51 1.61 2.28 2.55h-30.21c-.11-.14-.23-.29-.34-.44-5.38-7.07-8.42-14.71-8.79-22.09-.43-8.46 2.95-16.68 8.81-21.45.9-.73 1.89-1.42 2.94-2.04 4.11-2.43 8.95-3.77 13.63-5.05 5.41-1.49 11.01-3.03 15.62-6.29 9.17-6.49 12.9-19.47 8.5-29.55-.59-1.34-1.26-2.64-2.06-3.98-2.52-4.21-5.83-7.97-9.03-11.61-2.72-3.09-5.54-6.29-7.84-9.74-5.35-8.01-8.45-17.94-9.74-31.24-.85-8.76-.77-18.07.27-30.18l.39-4.5c.65-7.28 1.32-14.8 1.42-22.1.1-7.34-.4-14.61-.97-22.04-.88-11.47-3.3-23.56-7.62-38.02-.25-.83-.5-1.65-.76-2.48l-.63-2.06c-.03-.11-.07-.23-.11-.36-.29-.91-.73-2.27-.16-2.94.28-.33.56-.49.85-.49.04 0 .08 0 .12.01.78.12 1.57 1.36 2.05 2.48 3.16 7.28 5.48 15.55 7.08 25.27 2.29 13.93 4.46 30.37 3.18 46.73-.21 2.67-.44 5.39-.66 8.02-1.08 12.82-2.2 26.08-1.4 39.2.6 9.8 2.42 18.15 5.55 25.53 2.61 6.15 7 14.03 13.09 16.66.89.38 1.76.62 2.61.84 1.77.48 3.44.93 4.77 2.64 1.67 2.14 1.44 4.1 1.18 6.37-.26 2.23.51 4.42 1.27 6.53.17.47.32.91.47 1.35 1.02 3.09 1.52 6.49 1.43 9.82-.18 7.3-3.19 14.51-8.24 19.78-.86.9-1.81 1.78-2.72 2.62-2.2 2.03-4.47 4.13-5.83 6.83-1.97 3.89-2.2 7.78-.68 11.56 2.01 5.01 7.16 9.49 13.44 11.71 10.38 3.67 22.17 3.37 32.34-.81 6.75-2.77 12.99-7.29 18.05-13.07 4.96-5.67 8.7-12.44 10.82-19.59 4.16-14.05 2.49-29.99-4.61-43.72-.5-.97-1.05-1.92-1.65-2.83-2.68-4.11-6.22-7.56-10.26-9.96-4.24-2.52-8.95-3.83-13.6-3.78-5.62.07-10.62 2.38-15.46 4.61-.59.27-1.18.6-1.75.91-2.32 1.27-4.51 2.47-7.1.92-1.64-.98-2.58-2.76-3.49-4.47-.3-.56-.6-1.14-.93-1.67-.6-.99-1.29-1.94-1.95-2.87-.86-1.2-1.75-2.43-2.46-3.75-5.91-10.96-6.55-21.19-7.3-33.03l-.1-1.58c-.76-11.94-.73-24.1-.7-35.87.02-8.63.04-17.56-.25-26.34-.13-3.82-.29-7.36-.48-10.81-.41-7.2-.98-13.79-1.76-20.15l-.03-.22c-.55-4.55-1.07-8.84-2.69-13.22-.62-1.68-.68-3.46-.73-5.2-.04-1.33-.08-2.7-.37-4.03-.33-1.53-.7-3.1-1.11-4.79-3.71-15.12-5.41-30.82-7.05-46-.06-.51-.11-1.02-.17-1.53l4.56 10.6c.78 13.06 3.61 26.09 6.35 38.68l.22 1.02c.24 1.12.61 2.23.97 3.3.36 1.08.73 2.2.97 3.32.41 1.88.58 3.81.75 5.68.13 1.42.26 2.88.5 4.32.63 3.89 1.1 7.45 1.43 10.86 1.66 17.25 2.13 34.92 2.54 50.5.16 5.86.1 11.79.04 17.53-.11 10.93-.22 22.23 1.15 33.38.66 5.45 1.62 11.19 4.11 16.26 2.91 5.94 7.1 10.09 12.12 11.99 3.12 1.19 6.86.02 10.15-1.01.77-.24 1.51-.47 2.2-.66 14.21-3.88 27.59 4.53 34.55 14.59 9.19 13.29 11.76 32.08 6.89 50.29Z"/>
      <path fill="#fdfdfd" d="M87.91 135.09c.23.09 1.02.34 1.51-.09.73-.62.49-2.43.03-3.9-.36-1.15-.99-2.7-2.23-2.94-.38-.07-.69 0-.94.2-.51.42-.78 1.45-.78 2.9 0 .61.1 1.48.55 2.27.07.04.12.1.12.19.36.56.91 1.05 1.74 1.37"/>
      <path fill="#ffa0a0" d="M142.06 174.56h-.02c-1.57-.94-3.78-1.06-6.74-.35-2.44.58-4.23 1.75-5.34 3.49 0 .01-.02.02-.03.03.14.63.3 1.26.47 1.89a.21.21 0 0 1 .21-.1c4.24.57 8.6-.6 11.98-3.22-.05-.15-.09-.3-.14-.45-.13-.43-.26-.86-.39-1.28Z"/>
      <path fill="#f4ddd4" d="M129.97 168.45c1.07-2.45 3.15-3.91 5.16-5.32.54-.38 1.11-.77 1.64-1.18 2.7-2.06 5.04-4.01 6.44-7.06.9-1.97 2.05-5.45-.35-6.68-.57-.29-1.28-.05-1.72.32-.79.66-1.35 1.6-1.96 2.59-.86 1.42-1.75 2.9-3.35 3.5-.86.33-1.42.13-1.74-.1-.59-.42-.91-1.29-.87-2.4.06-1.88 1.34-3.66 2.37-5.1l.26-.35c1.12-1.56 2.39-3.33 2.38-5.23v-.05c0-.74-.02-2.71-.74-3.27-.19-.15-.43-.19-.71-.11-.48.12-.75.66-1 1.18l-.07.14c-.72 1.44-2.24 3.2-4.13 3.4-.83.09-1.44-.15-1.66-.67-.24-.55.05-1.28.73-1.86 1.99-1.69 3.36-4.14 3.75-6.72s-.19-5.33-1.59-7.53l-.12-.19c-3.13-4.7-9.08-7.66-17.7-8.78-7.17-.94-14.06.62-18.9 4.28-1.27.96-3.35 2.92-3.06 5.32.14 1.14.82 2.16 1.47 3.14.19.28.38.57.56.86.51.83 1.58 2.93.54 4.57-.59.92-1.75 1.44-2.97 1.34-.74-.07-1.4-.34-1.95-.68.77 2.12 1.7 4.2 2.6 6.21.81 1.82 1.66 3.7 2.37 5.59.76 2.02.67 4.24-.25 5.66-.21.32-.46.59-.74.83 4.94-.61 11.78-.91 18 .71 3.71.96 6.88 2.71 9.17 5.05 2.31 2.36 3.13 5.88 2.29 9.91-.9 4.34-.23 9.24 2.03 14.97.95 2.41 2.09 4.78 3.19 7.07 1.09 2.27 2.22 4.62 3.17 7 2.26 5.71 2.97 10.61 2.16 14.97l3.97.21c1.07-7.15-1.13-14.41-3.42-20.59-.56-1.52-1.2-3.04-1.82-4.51-.62-1.48-1.26-3-1.83-4.53-1.89-5.09-3.73-10.93-1.56-15.91Z"/>
      <path fill="#f9f0de" d="M95.22 147.76c-.71-1.87-1.55-3.75-2.36-5.57-.99-2.2-2-4.48-2.82-6.81-.08-.06-.15-.12-.22-.18-.04.04-.08.09-.12.13-.3.26-.67.34-1.01.34-.39 0-.74-.11-.94-.18-.64-.24-1.17-.59-1.58-1.05.04 4.8.13 9.73 1.19 14.48.29 1.32.68 2.69 1.5 3.82.87 1.19 2.17 1.89 3.38 1.81 1.23-.08 2.16-.58 2.76-1.51.84-1.3.93-3.37.21-5.27Z"/>
      <path fill="#ffb6b6" d="M166.36 435.96c.72.76 1.51 1.61 2.28 2.55h-15.43c-.15-1.25-.44-2.5-.82-3.69-.98-3.09-2.49-5.98-3.58-9.03-1.22-3.4-1.91-7.09-1.26-10.64.66-3.55 2.82-6.95 6.12-8.45 4.32-1.96 9.61-.24 13.13 2.95.75.68 1.4 1.41 2.02 2.17-1.8-1.13-3.7-2.01-5.85-1.78-4.41.47-7.27 5.28-7.17 9.47.14 6.1 4.24 10.15 8.2 14.07.79.78 1.6 1.58 2.38 2.4Z"/>
      <path fill="#f2ada5" d="M97.29 125.12c-.73 2.32 1.53 4.59 2.61 6.41 1.38 2.32 1.43 4.8 2.41 7.26 1.06 2.66 3.55 4.54 6.21 5.61 4.91 1.98 10.69 1.41 15.27-1.2 4.65-2.65 8.49-8.49 6.01-13.91-3.58-7.84-15.17-10.24-22.95-9.27-2.85.36-8.53 1.84-9.56 5.1m94.87 225.13c-2.29 2.95-5.11 5.57-8.3 7.52-.21-2.2-.65-4.37-1.33-6.4-.15-.45-.31-.91-.47-1.36-.74-2.07-1.49-4.2-1.25-6.34.26-2.27.51-4.41-1.27-6.69-1.43-1.82-3.16-2.29-5-2.79l-.24-.06c-.76-.2-1.54-.43-2.31-.76-5.96-2.57-10.29-10.35-12.87-16.43-3.11-7.33-4.92-15.63-5.51-25.39-.14-2.23-.22-4.46-.25-6.69.02 1.54 1.17 3.48 1.87 4.73 1.31 2.31 1.78 5.28 3.39 7.37.27.35.64.7 1.07.64.4-.05.68-.44.75-.84.06-.4-.04-.8-.14-1.19-.3-1.21-.52-2.44-.65-3.68-.07-.61-.11-1.24.08-1.83.19-.58.66-1.12 1.27-1.2.7-.1 1.37.42 1.72 1.04.45.78 1.91 6.94 3.8 4.28.78-1.11.18-3.88.08-5.14-.15-1.79-.32-3.6-.04-5.39.37-2.32 1.46-4.58 3-6.3.03.6.07 1.2.11 1.79l.1 1.58c.75 11.89 1.39 22.17 7.35 33.21.72 1.34 1.62 2.59 2.48 3.8.66.92 1.34 1.86 1.93 2.84.32.52.61 1.07.91 1.65.23.44.47.87.71 1.3.75 1.31 1.63 2.55 2.94 3.33 2.79 1.67 5.2.35 7.52-.92.57-.31 1.15-.63 1.73-.9 1.76-.81 3.55-1.64 5.38-2.36.12 9.87-2.54 19.8-8.56 27.55Z"/>
      <path fill="#f2ada5" d="M240.33 380.22c-4.36 14.71-15.06 26.81-28.62 32.38-10.08 4.14-21.76 4.44-32.04.81-6.17-2.18-11.22-6.57-13.18-11.46-1.47-3.66-1.25-7.44.66-11.21 1.34-2.64 3.58-4.71 5.74-6.71.92-.85 1.87-1.72 2.74-2.64 5.12-5.35 8.17-12.66 8.36-20.06 0-.37.01-.74 0-1.11v-.35c0-.22-.01-.43-.02-.65-.02-.49-.06-.97-.1-1.46 0-.12-.02-.24-.03-.36-.03-.29-.07-.59-.11-.88-.02-.11-.03-.23-.05-.34 0-.03 0-.07-.02-.11l-.06-.37c-.02-.14-.05-.28-.07-.42-.03-.19-.07-.38-.11-.57l-.12-.57c0-.02 0-.03-.01-.05l-.12-.52c-.05-.19-.09-.38-.14-.56-.05-.17-.09-.33-.14-.5 0-.02-.01-.04-.02-.06-.05-.18-.11-.37-.17-.55s-.11-.36-.17-.55c-.15-.45-.31-.91-.47-1.36-.74-2.07-1.49-4.2-1.25-6.34.26-2.27.51-4.41-1.27-6.69-1.43-1.82-3.16-2.29-5-2.79l-.24-.06c1.51-.37 2.93-.99 4.14-1.97 1.24-1 2.2-2.37 2.96-3.92.73-1.47 1.28-3.1 1.73-4.71.75 1.31 1.63 2.55 2.94 3.33 2.79 1.67 5.2.35 7.52-.92.57-.31 1.15-.63 1.73-.9 1.77-.81 3.55-1.64 5.39-2.36.2-.08.39-.15.58-.23.2-.08.4-.15.59-.22l.6-.21c.2-.07.4-.14.6-.2.4-.13.81-.26 1.21-.37.2-.06.41-.11.61-.17.18-.05.36-.09.54-.14.14-.03.27-.07.41-.1.09-.02.19-.04.29-.06s.21-.05.31-.06c.08-.02.16-.03.24-.05.25-.05.51-.09.76-.13.08-.01.17-.03.25-.04.21-.03.42-.06.63-.08l.29-.03c.12-.02.23-.03.35-.03.06 0 .12-.01.18-.02l.41-.03c.12 0 .25-.02.38-.02h.21c.15 0 .29 0 .44-.01h.27c8.98 0 17.6 4.99 23.13 13.4.03.05.06.1.09.14.59.9 1.13 1.84 1.63 2.8 7.04 13.63 8.71 29.45 4.58 43.4Z"/>
      <path fill="#d16f54" d="M85.42 121.55c-.28 0-.56-.08-.85-.24-1.44-.82-2.72-3.74-2.94-4.8-.29-1.34.09-2.51 1.03-3.23s2.28-.83 3.34-.28c1.09.57 1.69 1.73 1.63 3.18-.04 1.09-.29 4.71-1.7 5.27-.02 0-.04.02-.06.02-.15.05-.3.07-.45.07Zm-.86-8.04c-.5 0-.99.15-1.38.45-.67.51-.92 1.35-.71 2.37.2.94 1.4 3.59 2.53 4.24.22.13.42.16.6.1h.01c.63-.26 1.08-2.5 1.16-4.52.04-1.13-.37-1.97-1.17-2.39-.32-.17-.68-.25-1.04-.25m4.13 22.37c-.31 0-.65-.06-1-.2-1.79-.67-2.81-2.28-2.82-4.43 0-1.7.33-2.84 1.01-3.4.4-.33.91-.44 1.48-.33 1.76.34 2.45 2.55 2.72 3.38.33 1.04.97 3.57-.22 4.59-.31.26-.7.39-1.15.39Zm-2.97-4.62c0 1.04.3 2.89 2.26 3.63.2.08.9.3 1.3-.05.65-.56.39-2.33-.04-3.68-.35-1.1-.94-2.58-2.06-2.8-.32-.06-.56-.01-.77.15-.45.37-.7 1.37-.7 2.74Z"/>
      <path fill="#d16f54" d="M84.92 129.79c-3.34-3.34-4.66-8.62-3.28-13.14l.82.25c-1.28 4.22-.05 9.16 3.07 12.29l-.61.61Zm53.87 84.85h-.07a.443.443 0 0 1-.36-.49c1.13-7.16-1.08-14.47-3.38-20.67-.56-1.52-1.2-3.03-1.82-4.5-.62-1.48-1.26-3.01-1.83-4.54-1.91-5.13-3.75-11.02-1.56-16.07 1.09-2.51 3.2-3.98 5.24-5.41.54-.38 1.1-.77 1.63-1.18 2.67-2.04 5-3.98 6.37-6.97.87-1.9 1.99-5.25-.25-6.4-.48-.25-1.11-.02-1.49.3-.76.63-1.32 1.56-1.91 2.54-.88 1.45-1.79 2.96-3.45 3.59-.95.36-1.58.13-1.94-.13-.65-.46-1-1.4-.96-2.58.06-1.95 1.36-3.76 2.41-5.21l.26-.35c1.1-1.53 2.35-3.27 2.34-5.11v-.05c0-.64-.02-2.61-.66-3.11-.09-.07-.24-.15-.53-.08-.39.1-.63.59-.86 1.07l-.07.15c-.74 1.49-2.32 3.3-4.3 3.52-1.32.14-1.75-.51-1.88-.79-.28-.65.02-1.46.79-2.11 1.95-1.66 3.29-4.06 3.67-6.59s-.19-5.22-1.56-7.38l-.12-.19c-3.09-4.65-8.99-7.57-17.55-8.69-7.11-.93-13.94.62-18.74 4.24-1.23.93-3.26 2.83-2.98 5.12.13 1.09.77 2.04 1.43 3.05.19.28.38.58.56.87 1.12 1.82 1.32 3.57.54 4.8-.63.99-1.87 1.55-3.17 1.43-1.34-.12-2.41-.87-3.07-1.49a.44.44 0 0 1-.02-.61c.16-.17.43-.18.61-.02.56.52 1.46 1.16 2.56 1.26.96.09 1.92-.33 2.37-1.04.85-1.33-.1-3.16-.54-3.89-.17-.28-.36-.57-.55-.84-.69-1.04-1.41-2.12-1.57-3.42-.33-2.71 1.93-4.87 3.31-5.91 4.98-3.76 12.04-5.36 19.37-4.4 8.81 1.15 14.92 4.2 18.15 9.07l.13.19c1.49 2.34 2.1 5.24 1.69 7.98-.41 2.73-1.86 5.33-3.97 7.12-.52.44-.66.89-.56 1.11.1.23.48.34 1 .28 1.54-.17 2.93-1.65 3.63-3.05l.07-.14c.29-.59.65-1.32 1.42-1.52.6-.15 1.02.04 1.27.23.86.66.98 2.28.99 3.78v.05c.01 2.12-1.38 4.05-2.5 5.61l-.26.36c-1.03 1.43-2.2 3.05-2.25 4.74-.03.86.2 1.57.6 1.85.28.2.66.21 1.14.02 1.39-.53 2.18-1.84 3.03-3.23.6-1 1.23-2.03 2.1-2.75.61-.51 1.59-.83 2.43-.4 2.88 1.48 1.64 5.35.64 7.52-1.46 3.18-3.86 5.19-6.63 7.3-.54.41-1.11.81-1.66 1.2-2.03 1.42-3.95 2.76-4.94 5.05-2.07 4.75-.27 10.46 1.58 15.43.56 1.52 1.2 3.04 1.82 4.51.62 1.48 1.26 3.01 1.83 4.54 2.34 6.31 4.58 13.75 3.43 21.1-.03.21-.22.36-.42.36Z"/>
      <path fill="#d16f54" d="M134.39 214.41h-.08a.436.436 0 0 1-.34-.5c.86-4.29.18-9.15-2.08-14.85-.94-2.36-2.06-4.7-3.15-6.96-1.11-2.31-2.26-4.69-3.21-7.12-2.31-5.86-2.98-10.88-2.06-15.34.46-2.21.79-6.35-2.12-9.33-2.21-2.26-5.28-3.94-8.87-4.88-6.54-1.69-13.79-1.24-18.72-.57a.42.42 0 0 1-.48-.37c-.03-.23.13-.45.37-.48 5.01-.69 12.38-1.14 19.05.59 3.75.97 6.95 2.74 9.27 5.11 2.36 2.42 3.2 6.01 2.35 10.1-.89 4.3-.23 9.16 2.02 14.85.94 2.4 2.08 4.77 3.19 7.06 1.09 2.27 2.23 4.63 3.17 7.02 2.32 5.86 3.01 10.87 2.12 15.33-.04.2-.22.34-.42.34Zm27.79-55.95c-3.7-15.1-5.4-30.79-7.05-45.97-.35-3.23-.71-6.57-1.09-9.86-.37-3.22-.87-7.64-3.64-10.53-2.49-2.6-5.98-3.33-9.06-3.82-4.39-.69-7.98-2.74-10.68-6.1-.97-1.21-1.57-2.62-2.2-4.11-.81-1.92-1.65-3.9-3.34-5.39-6.99-6.18-19.92-5.99-28.53-2.67-2.43.93-4.79 2.31-7.01 4.1-2.4 1.92-4.29 4.85-6.12 7.68-.76 1.17-1.48 2.28-2.21 3.28L72.56 97c-1.31 1.8-2.44 3.73-1.87 5.69.62 2.1 2.96 3.12 4.96 3.04.7-.03 1.43-.16 2.23-.4.98-.3 1.94-.73 2.86-1.14l.47-.21a64.7 64.7 0 0 1 34.2-5.15c6.36.77 11.4 2.41 15.4 5.02 1.49.97 2.85 2.1 4.04 3.37 2.68 2.84 4.34 6.14 4.82 9.55.16 1.14-.05 3.03-1.29 3.24-1.07.18-1.93-1.04-2.64-2.2-4.97-8.06-15.43-11.51-23.57-12.05-9.67-.64-18.86 2.15-25.88 7.87-.18.15-.21.42-.06.6s.42.21.6.06c6.85-5.58 15.83-8.3 25.28-7.68 7.93.52 18.1 3.86 22.9 11.64.62 1.01 1.79 2.89 3.52 2.6s2.24-2.39 1.99-4.21c-.5-3.59-2.24-7.06-5.04-10.02-1.24-1.32-2.65-2.5-4.2-3.5-4.11-2.67-9.27-4.35-15.76-5.15a65.6 65.6 0 0 0-34.66 5.21l-.47.21c-.9.4-1.83.82-2.76 1.1-.73.22-1.39.34-2.02.36-1.63.06-3.62-.77-4.1-2.43-.5-1.69.64-3.44 1.74-4.95l8.69-11.93c.75-1.02 1.47-2.14 2.23-3.32 1.8-2.77 3.65-5.64 5.94-7.47 2.16-1.73 4.44-3.06 6.79-3.96 4.22-1.63 9.42-2.42 14.28-2.17 3.92.2 9.41 1.18 13.38 4.68 1.54 1.36 2.31 3.17 3.12 5.09.63 1.48 1.28 3.01 2.32 4.31 2.84 3.53 6.61 5.69 11.21 6.41 2.94.46 6.27 1.15 8.58 3.56 2.37 2.47 2.96 6.16 3.4 10.04.38 3.28.74 6.62 1.09 9.85 1.65 15.2 3.35 30.92 7.07 46.08.41 1.68.78 3.24 1.11 4.77.14.62.21 1.26.26 1.9.24-.75.44-1.5.53-2.28-.32-1.47-.67-2.97-1.07-4.59Z"/>
      <path fill="#7f3625" d="M236.32 336.53c-.5-.97-1.06-1.93-1.66-2.85-2.69-4.14-6.26-7.61-10.33-10.03-4.28-2.55-9.02-3.86-13.71-3.81-5.67.07-10.69 2.38-15.55 4.63-.6.28-1.19.6-1.77.92-2.27 1.24-4.41 2.41-6.88.93-1.59-.95-2.52-2.7-3.42-4.38-.3-.56-.61-1.14-.93-1.68-.61-1-1.29-1.95-1.96-2.88-.85-1.19-1.74-2.42-2.44-3.73-5.89-10.92-6.53-21.13-7.27-32.94l-.1-1.58c-.76-11.93-.73-24.09-.7-35.85.02-8.63.04-17.56-.25-26.35-.13-3.82-.29-7.36-.48-10.81-.41-7.21-.99-13.8-1.76-20.17l-.03-.22c-.55-4.56-1.07-8.86-2.7-13.27-.61-1.64-.66-3.34-.72-5.13-.04-1.34-.08-2.71-.38-4.07-.01-.06-.03-.13-.04-.2-.09.78-.28 1.54-.53 2.28.05.67.07 1.35.09 2.01.05 1.78.11 3.62.77 5.4 1.6 4.32 2.11 8.57 2.66 13.08l.03.22c.77 6.35 1.34 12.92 1.75 20.11.2 3.45.36 6.97.48 10.79.29 8.77.27 17.69.25 26.32-.03 11.77-.06 23.95.7 35.91l.1 1.58c.75 11.92 1.4 22.21 7.37 33.3.73 1.35 1.63 2.61 2.5 3.82.65.91 1.33 1.86 1.92 2.83.31.52.6 1.06.91 1.64.95 1.79 1.93 3.64 3.73 4.72 2.9 1.73 5.36.39 7.74-.91.56-.31 1.15-.63 1.72-.89 4.77-2.21 9.71-4.49 15.2-4.55h.27c8.96 0 17.56 5.01 23.04 13.45.58.9 1.13 1.83 1.62 2.78 7.02 13.58 8.68 29.34 4.56 43.24-4.34 14.65-15 26.7-28.5 32.25-10.03 4.12-21.65 4.42-31.88.8-6.11-2.15-11.11-6.5-13.05-11.34-1.45-3.61-1.22-7.32.66-11.04 1.32-2.6 3.54-4.66 5.7-6.65.92-.85 1.87-1.73 2.75-2.65 5.16-5.39 8.23-12.75 8.42-20.21.09-3.41-.42-6.88-1.46-10.04-.15-.45-.31-.92-.47-1.36-.73-2.04-1.48-4.16-1.23-6.24.27-2.31.52-4.5-1.31-6.84-1.47-1.88-3.24-2.36-5.11-2.86-.83-.22-1.68-.45-2.52-.82-5.89-2.54-10.19-10.28-12.76-16.31-3.1-7.31-4.9-15.59-5.5-25.32-.8-13.07.32-26.31 1.4-39.1.22-2.63.45-5.35.66-8.02 1.29-16.43-.89-32.92-3.19-46.88-1.61-9.78-3.94-18.09-7.12-25.43-.35-.8-1.28-2.67-2.55-2.86-.39-.06-.97.01-1.55.7-.8.94-.3 2.51.04 3.55.04.12.08.24.11.35l.63 2.06c.25.82.51 1.65.75 2.47 4.31 14.42 6.72 26.46 7.6 37.89.57 7.41 1.07 14.67.97 21.98-.1 7.28-.77 14.79-1.42 22.06-.14 1.51-.27 3.01-.4 4.5-1.05 12.15-1.13 21.5-.27 30.3 1.3 13.41 4.43 23.43 9.84 31.53 2.32 3.48 5.15 6.7 7.89 9.81 3.19 3.62 6.48 7.36 8.96 11.52.79 1.32 1.46 2.6 2.03 3.91 4.29 9.81.65 22.44-8.28 28.76-4.51 3.19-10.05 4.72-15.42 6.19-4.72 1.3-9.6 2.64-13.79 5.12-1.08.63-2.09 1.34-3.02 2.09-6.02 4.9-9.48 13.33-9.05 21.98.38 7.51 3.46 15.27 8.92 22.45.01.01.02.03.03.04h1.08c-.15-.19-.29-.38-.44-.56-5.35-7.04-8.38-14.64-8.75-21.97-.42-8.39 2.92-16.54 8.73-21.28.89-.73 1.87-1.4 2.91-2.02 4.09-2.42 8.91-3.75 13.58-5.03 5.43-1.49 11.05-3.04 15.69-6.32 9.25-6.54 13.02-19.64 8.57-29.81-.59-1.34-1.27-2.66-2.08-4.01-2.53-4.22-5.85-7.99-9.05-11.64-2.72-3.09-5.53-6.28-7.82-9.72-5.33-7.98-8.41-17.88-9.7-31.14-.85-8.75-.77-18.05.27-30.14.13-1.49.26-2.99.4-4.5.65-7.28 1.32-14.81 1.42-22.12.1-7.35-.4-14.63-.97-22.06-.88-11.49-3.3-23.59-7.63-38.07-.25-.83-.5-1.66-.76-2.48-.21-.68-.42-1.37-.63-2.06-.03-.11-.07-.23-.11-.36-.28-.86-.69-2.16-.2-2.74.4-.47.68-.42.77-.41.69.1 1.45 1.33 1.89 2.35 3.16 7.26 5.47 15.51 7.06 25.22 2.29 13.91 4.46 30.34 3.18 46.67-.21 2.67-.44 5.39-.66 8.01-1.08 12.83-2.2 26.1-1.4 39.23.6 9.83 2.42 18.2 5.57 25.6 2.63 6.18 7.05 14.11 13.21 16.77.9.39 1.78.63 2.64.86 1.81.49 3.37.9 4.66 2.56 1.62 2.07 1.39 3.99 1.13 6.22-.27 2.28.52 4.49 1.28 6.63.17.47.32.9.47 1.35 1.01 3.07 1.5 6.44 1.42 9.75-.18 7.25-3.17 14.4-8.18 19.64-.86.9-1.8 1.77-2.71 2.61-2.21 2.04-4.49 4.15-5.88 6.89-2 3.95-2.23 7.9-.69 11.74 2.03 5.06 7.23 9.59 13.56 11.83 10.43 3.68 22.27 3.38 32.5-.82 6.78-2.79 13.05-7.33 18.13-13.13 4.98-5.69 8.74-12.49 10.87-19.67 4.18-14.11 2.5-30.1-4.62-43.88Z"/>
      <path fill="#7f3625" d="M244.87 381.79c-1.97 7.34-5.79 14.34-11.05 20.25-5.06 5.68-11.44 10.36-18.45 13.53-13.91 6.29-29.19 6.28-41.94-.03-1.08-.53-2.15-1.28-3.19-1.99-2.25-1.56-4.58-3.16-7.23-2.88-4.06.44-6.69 4.91-6.6 8.81.13 5.84 3.96 9.62 8.01 13.62.79.78 1.61 1.59 2.39 2.41.84.88 1.75 1.88 2.64 3h-1.11c-.73-.88-1.47-1.69-2.15-2.4-.77-.81-1.59-1.61-2.37-2.39-3.99-3.95-8.12-8.03-8.26-14.21-.1-4.28 2.84-9.2 7.37-9.69 2.96-.32 5.42 1.39 7.8 3.03 1.06.73 2.06 1.42 3.08 1.93 12.51 6.19 27.53 6.2 41.2.01 14.34-6.49 25.19-18.9 29.02-33.22 4.86-18.14 2.29-36.88-6.86-50.11-6.91-10-20.2-18.36-34.31-14.5-.69.19-1.42.42-2.2.66-3.33 1.04-7.1 2.22-10.29 1.01-5.07-1.93-9.3-6.11-12.24-12.1-2.5-5.1-3.46-10.86-4.13-16.33-1.36-11.16-1.25-22.47-1.15-33.41.06-5.74.11-11.67-.04-17.52-.41-15.58-.88-33.25-2.54-50.49-.33-3.41-.8-6.96-1.43-10.85-.23-1.45-.37-2.91-.5-4.33-.17-1.86-.34-3.78-.75-5.65-.24-1.11-.61-2.22-.97-3.3s-.73-2.19-.97-3.32l-.22-1.02c-2.74-12.62-5.58-25.66-6.36-38.75a.426.426 0 0 1 .85-.05c.77 13.03 3.6 26.04 6.34 38.62l.22 1.02c.23 1.08.6 2.18.95 3.23.36 1.1.74 2.23.99 3.39.42 1.92.59 3.87.77 5.76.13 1.4.26 2.85.49 4.27.63 3.91 1.1 7.47 1.43 10.91 1.66 17.27 2.13 34.95 2.55 50.55.16 5.87.1 11.81.04 17.56-.11 10.91-.22 22.19 1.14 33.3.66 5.39 1.61 11.07 4.05 16.05 2.84 5.79 6.91 9.83 11.77 11.68 2.91 1.11 6.54-.03 9.73-1.03.78-.24 1.52-.47 2.23-.67 6.43-1.76 13.3-1.11 19.86 1.86 6.02 2.73 11.49 7.34 15.39 12.98 4.85 7.02 7.88 15.29 8.98 24.58 1.01 8.5.32 17.57-2 26.24Z"/>
      <path fill="#fffaea" d="M135.39 157.25c-2.8 1.43-5.29 2.04-6.52 5.26-.09.24-.17.5-.14.75.03.26.2.51.46.56.21.04.41-.06.6-.15 4.04-2.11 8.93-4.56 11.25-8.7.3-.54 1.57-3.17 0-2.88-.64.12-1.1 1.29-1.48 1.76a12.8 12.8 0 0 1-4.16 3.41ZM127 182.53c.28.62 1.47 2.89 2.27 2.95.42.03.75-.43.75-.85 0-.85-.66-2.33-.98-3.11-.87-2.09-1.38-4.32-1.52-6.58-.06-1 .74-4.7-.9-4.24-1.58.44-1.02 4.17-.94 5.34.13 1.93.41 4.44 1.33 6.5Zm4.09 10.02c.17.31.39.62.69.81.31.19.72.24 1.02.04.53-.34.43-1.13.23-1.73-.26-.74-1.17-3.52-2.26-2.78-.92.63-.07 2.94.32 3.65Zm3.22 7.43c.08.16.18.34.35.38.35.1.57-.37.61-.73.1-.99-.12-5.02-1.75-4.69s.39 4.22.79 5.04m12.94-12.72c.12.35.37.78.73.69.3-.08.38-.46.4-.77.11-2.36-.5-4.76-1.73-6.78-.16-.26-.35-.53-.64-.59-1.09-.26-.1 2.78.02 3.24.35 1.42.76 2.82 1.22 4.21"/>
      <path fill="#f4ddd4" d="M144.47 177.82c.12.35.37.78.73.69 1.37-.35.07-3.26-.21-4-.23-.61-1.73-4.35-2.05-2.38-.13.8.33 1.79.52 2.56.35 1.42.54 1.75 1.01 3.14Zm21.08-5.37c.07.36.27.82.64.77 1.41-.17.49-3.22.31-3.99-.15-.64-1.16-4.54-1.73-2.62-.23.78.1 1.82.19 2.6.16 1.45.31 1.81.6 3.24Z"/>
      <path fill="#7f3625" d="M129.77 178a.4.4 0 0 1-.23-.07.424.424 0 0 1-.13-.59c1.2-1.88 3.12-3.15 5.73-3.77 3.14-.74 5.5-.6 7.22.43.2.12.27.39.15.59s-.39.27-.59.15c-1.52-.91-3.67-1.02-6.58-.33-2.38.56-4.13 1.71-5.2 3.39-.08.13-.22.2-.36.2Zm2.95 2.3c-.73 0-1.47-.05-2.2-.15a.435.435 0 0 1-.37-.48c.03-.23.25-.4.48-.37 4.14.56 8.58-.65 11.87-3.22a.427.427 0 1 1 .53.67c-2.94 2.3-6.61 3.54-10.32 3.54Z"/>
      <path fill="#7f3625" d="M131.35 177.78c1.1.1 1.85.12 3.12-.11.21-.04.57-.11 1.29-.26.05 0 .18-.04.18-.04s.04 0 .09-.02c.03 0 .06-.01.09-.02.83-.18 1.52-.35 1.86-.43 1.25-.32 1.93-.65 2.88-1.2-1.11.04-1.84.09-3.08.39-.33.08-2.01.46-2.01.46s-.13.02-.18.04c-.72.15-1.06.22-1.27.26-1.25.25-1.94.51-2.96.93Z"/>
      <path fill="#cb7373" d="M177.11 344.5c.26.18.48.27.66.23 1.16-.27.56-2.98.29-3.71-.56-1.53-1.65-2.89-2.93-3.89-.77-.6-3.47-2.53-3.27-.24.04.5.3.95.57 1.36.57.88 3.19 5.17 4.69 6.24Z"/>
      <path fill="#8c4141" d="M177.68 345.17c-.25 0-.52-.11-.82-.32-1.4-1-3.6-4.46-4.54-5.94-.11-.18-.2-.32-.26-.41-.3-.46-.58-.97-.63-1.56-.06-.72.12-1.2.55-1.43.85-.46 2.33.45 3.42 1.29 1.42 1.1 2.51 2.55 3.07 4.08.17.47.75 2.61.17 3.67-.17.32-.44.53-.77.61-.06.01-.12.02-.19.02Zm-5.15-8.94c-.06 0-.11 0-.14.03-.07.04-.14.22-.1.61.03.4.26.8.5 1.17.06.1.16.24.27.42.83 1.31 3.04 4.8 4.31 5.7.23.16.32.16.32.16.06-.01.13-.05.2-.18.34-.63.03-2.26-.22-2.97-.51-1.38-1.5-2.69-2.79-3.7-1.09-.85-1.95-1.25-2.34-1.25Z"/>
      <path fill="#cb7373" d="M189.1 324.58c.5.05 1.04.02 1.62-.11.79-.18 5.73-1.81 4.18-3.07-.97-.78-3.56-.34-4.81-.72-1.58-.47-3.04-1.27-4.48-2.05-.29-.16-.59-.31-.91-.36-.33-.05-.69.05-.89.31-.29.39-.1.94.12 1.38 1.17 2.26 2.79 4.37 5.16 4.62Z"/>
      <path fill="#8c4141" d="M189.58 325.04c-.18 0-.35 0-.52-.03-2.12-.23-3.92-1.81-5.5-4.85-.39-.76-.42-1.38-.09-1.83.27-.37.77-.55 1.29-.48.4.06.75.24 1.06.41l.16.08c1.36.73 2.76 1.49 4.24 1.93.45.13 1.13.15 1.85.17 1.19.03 2.41.06 3.1.62.5.41.49.85.43 1.08-.36 1.54-4.74 2.73-4.79 2.74-.42.09-.83.14-1.24.14Zm-5.03-6.35c-.16 0-.31.06-.38.15-.16.22.03.67.16.92 1.43 2.76 3.01 4.2 4.82 4.39.47.05.97.02 1.48-.1 1.12-.25 3.98-1.4 4.14-2.1 0-.02.02-.09-.14-.22-.47-.38-1.59-.41-2.59-.43-.78-.02-1.52-.04-2.07-.21-1.56-.47-3.01-1.25-4.4-2l-.16-.08c-.25-.14-.51-.28-.77-.31h-.1Z"/>
      <path fill="#d16f54" d="M92.08 155.19c-1.37 0-2.78-.78-3.73-2.08-.89-1.22-1.3-2.67-1.61-4.05-1.13-5.05-1.17-10.28-1.21-15.33 0-.24.19-.43.43-.43s.43.19.43.43c.04 5.01.08 10.19 1.19 15.15.29 1.29.67 2.64 1.47 3.74.83 1.13 2.05 1.8 3.2 1.73 1.16-.07 2.04-.55 2.6-1.41.81-1.25.88-3.24.19-5.08-.71-1.87-1.54-3.74-2.36-5.55-1.1-2.45-2.23-4.99-3.09-7.61a.43.43 0 0 1 .27-.54c.22-.07.47.05.54.27.84 2.58 1.97 5.1 3.06 7.53.82 1.82 1.66 3.71 2.38 5.6.79 2.08.68 4.38-.27 5.85-.71 1.09-1.83 1.71-3.26 1.8h-.21Zm-9.27-41.37h-.2c-1.98-.13-3.19-2.13-3.66-3.96-.09-.37-.18-.73-.26-1.1-.22-.95-.43-1.84-.78-2.73-.13-.33-.33-.63-.49-.85l-.35-.49.57-.17c.93-.28 1.86-.7 2.76-1.1l.47-.21A65.47 65.47 0 0 1 115.53 98c6.5.79 11.65 2.48 15.76 5.15 1.55 1.01 2.96 2.18 4.2 3.5l.07.08.03.1s.01.05.02.08c.07.31.13.67 0 1.03-.13.35-.38.6-.72.72-.7.25-1.66-.1-2.26-.47-7.41-4.54-15.79-6.88-23.61-6.57-8.61.33-16.68 3.85-22.14 9.66l-.07.07c-1.04 1.11-2.34 2.49-4 2.49Zm-4.38-8.67c.1.17.19.35.27.55.38.95.6 1.92.82 2.85.08.36.17.72.26 1.08.39 1.54 1.36 3.22 2.88 3.32 1.36.09 2.5-1.13 3.51-2.21l.07-.07c5.61-5.97 13.9-9.59 22.74-9.93 8.1-.31 16.43 2 24.09 6.7.54.33 1.2.5 1.52.39.1-.04.16-.1.2-.2.05-.13.02-.31-.02-.49a22.5 22.5 0 0 0-3.96-3.29c-4-2.6-9.03-4.24-15.4-5.02a64.66 64.66 0 0 0-34.2 5.15l-.47.21c-.75.34-1.52.68-2.32.96Z"/>
      <path fill="#cecece" d="M20.46 215.1c-9.54 9.37-22.04 88.44-20.3 162.82h49.05L20.45 215.09Z"/>
      <rect width="153.4" height="205.05" x="83.28" y="139.63" fill="none" rx="10" ry="10"/>
    </g>
    <rect width="199.53" height="231.57" x="60.22" y="113.1" fill="none" stroke="#fff" stroke-miterlimit="10" rx="10" ry="10"/>
    <g filter="url(#d)">
      <path fill="none" stroke="#fff" stroke-miterlimit="10" d="M159.98 221.65c-14.6 0-26.48-11.88-26.48-26.48s11.88-26.48 26.48-26.48 26.48 11.88 26.48 26.48-11.88 26.48-26.48 26.48Z"/>
      <path fill="none" stroke="#fff" stroke-miterlimit="10" d="M159.98 210.57c-8.49 0-15.39-6.91-15.39-15.39s6.91-15.39 15.39-15.39 15.39 6.9 15.39 15.39-6.91 15.39-15.39 15.39Z"/>
      <circle cx="159.98" cy="195.18" r="9.23" fill="#fff"/>
    </g>
    <g filter="url(#e)">
      <path fill="none" stroke="#fff" stroke-miterlimit="10" d="M161.4 275.52c-11.54 0-20.93-9.39-20.93-20.93s9.39-20.93 20.93-20.93 20.93 9.39 20.93 20.93-9.39 20.93-20.93 20.93Z"/>
      <path fill="none" stroke="#fff" stroke-miterlimit="10" d="M161.4 266.75c-6.71 0-12.17-5.46-12.17-12.17s5.46-12.17 12.17-12.17 12.17 5.46 12.17 12.17-5.46 12.17-12.17 12.17Z"/>
      <circle cx="161.4" cy="254.58" r="7.3" fill="#fff"/>
    </g>
    <g filter="url(#f)">
      <path fill="none" stroke="#fff" stroke-miterlimit="10" d="M167.29 333.63c-12.71 0-23.06-10.34-23.06-23.06s10.34-23.06 23.06-23.06 23.06 10.34 23.06 23.06-10.34 23.06-23.06 23.06Z"/>
      <path fill="none" stroke="#fff" stroke-miterlimit="10" d="M167.29 323.98c-7.39 0-13.41-6.01-13.41-13.41s6.01-13.41 13.41-13.41 13.41 6.01 13.41 13.41-6.01 13.41-13.41 13.41Z"/>
      <circle cx="167.29" cy="310.57" r="8.04" fill="#fff"/>
    </g>
    <path fill="none" stroke="#0c0c0c" stroke-miterlimit="10" stroke-width="2" d="M159.98 195.18h109.64c5.52 0 10 4.48 10 10v95.4c0 5.52-4.48 10-10 10H167.28m112.35-57.7h36.95"/>
    <path fill="#0c0c0c" d="m310.96 260.28 3.15-7.4-3.15-7.41 17.56 7.41z"/>
    <use xlink:href="#g" width="97.62" height="30.61" transform="translate(346.72 117.76)"/>
    <use xlink:href="#g" width="97.62" height="30.61" transform="translate(346.72 156.59)"/>
    <use xlink:href="#g" width="97.62" height="30.61" transform="translate(346.72 195.42)"/>
    <use xlink:href="#g" width="97.62" height="30.61" transform="translate(346.72 234.25)"/>
    <use xlink:href="#g" width="97.62" height="30.61" transform="translate(346.72 273.08)"/>
    <use xlink:href="#g" width="97.62" height="30.61" transform="translate(346.72 311.91)"/>
  </g>
</svg>
