<svg xmlns="http://www.w3.org/2000/svg" data-name="Layer 2" viewBox="0 0 61 61">
  <rect width="60" height="60" x=".5" y=".5" fill="#fff" stroke="#a47764" stroke-miterlimit="10" rx="10" ry="10"/>
  <path fill="#a47764" d="M50.69 39.72c-.69-.4-1.54-.27-2.09.25l-1.25-.72c.4-.89.63-1.88.63-2.93 0-1.2-.3-2.32-.82-3.31l1.22-.71c.55.52 1.4.65 2.09.25.84-.49 1.13-1.57.65-2.41a1.777 1.777 0 0 0-2.41-.65c-.69.4-1 1.2-.83 1.94l-1.25.72a7.15 7.15 0 0 0-5.49-2.96v-1.42c.73-.22 1.26-.88 1.26-1.68 0-.97-.79-1.76-1.76-1.76s-1.76.79-1.76 1.76c0 .8.54 1.47 1.26 1.68v1.44c-2.24.22-4.16 1.48-5.31 3.28l-1.23-.71a1.75 1.75 0 0 0-.83-1.94 1.76 1.76 0 0 0-2.41.65c-.49.84-.2 1.92.65 2.41.69.4 1.54.27 2.09-.25l1.25.72c-.4.89-.63 1.88-.63 2.93 0 1.2.3 2.32.82 3.31l-1.22.71c-.55-.52-1.4-.65-2.09-.25-.84.49-1.13 1.57-.65 2.41.49.84 1.57 1.13 2.41.65.69-.4 1-1.2.83-1.94l1.25-.72a7.1 7.1 0 0 0 5.49 2.95v1.42c-.73.22-1.26.88-1.26 1.68 0 .97.79 1.76 1.76 1.76s1.76-.79 1.76-1.76c0-.8-.54-1.47-1.26-1.68V43.4c2.24-.22 4.16-1.48 5.31-3.29l1.23.71c-.18.74.13 1.54.83 1.94.84.49 1.92.2 2.41-.65.49-.84.2-1.92-.65-2.41Z"/>
  <circle cx="37.87" cy="38.13" r="1.3" fill="#fff"/>
  <circle cx="40.85" cy="39.47" r=".73" fill="#fff"/>
  <circle cx="42.57" cy="34.15" r=".9" fill="#fff"/>
  <g stroke="#a47764" stroke-miterlimit="10">
    <rect width="12.42" height="36.59" x="24.24" y="12.2" fill="#fff" rx="6.21" ry="6.21" transform="rotate(-180 30.45 30.5)"/>
    <path fill="#a47764" d="M30.45 48.8a6.21 6.21 0 0 1-6.21-6.21v-12.9h12.42v12.9a6.21 6.21 0 0 1-6.21 6.21Z"/>
  </g>
  <path fill="none" stroke="#fff" stroke-miterlimit="10" stroke-width="2" d="M24.95 22.39c-.5-.29-1.1-.19-1.5.18l-.9-.52c.29-.64.45-1.35.45-2.1 0-.86-.21-1.66-.59-2.37l.88-.51c.4.38 1 .47 1.5.18.61-.35.81-1.12.46-1.73a1.26 1.26 0 0 0-1.73-.46c-.5.29-.72.86-.59 1.39l-.9.52a5.1 5.1 0 0 0-3.94-2.12v-1.02c.52-.16.91-.63.91-1.21 0-.7-.57-1.27-1.27-1.27s-1.27.57-1.27 1.27c0 .57.38 1.05.91 1.21v1.03a5.11 5.11 0 0 0-3.81 2.36l-.88-.51c.13-.53-.1-1.1-.59-1.39-.61-.35-1.38-.14-1.73.46s-.14 1.38.46 1.73c.5.29 1.1.19 1.5-.18l.9.52a5.1 5.1 0 0 0-.45 2.1c0 .86.21 1.66.59 2.37l-.88.51c-.4-.38-1-.47-1.5-.18-.61.35-.81 1.12-.46 1.73s1.12.81 1.73.46c.5-.29.72-.86.59-1.39l.9-.52a5.1 5.1 0 0 0 3.94 2.12v1.02c-.52.16-.91.63-.91 1.21 0 .7.57 1.27 1.27 1.27s1.27-.57 1.27-1.27c0-.57-.38-1.05-.91-1.21v-1.03a5.11 5.11 0 0 0 3.81-2.36l.88.51c-.13.53.1 1.1.59 1.39.61.35 1.38.14 1.73-.46.35-.61.14-1.38-.46-1.73Z"/>
  <path fill="#a47764" d="M24.95 22.39c-.5-.29-1.1-.19-1.5.18l-.9-.52c.29-.64.45-1.35.45-2.1 0-.86-.21-1.66-.59-2.37l.88-.51c.4.38 1 .47 1.5.18.61-.35.81-1.12.46-1.73a1.26 1.26 0 0 0-1.73-.46c-.5.29-.72.86-.59 1.39l-.9.52a5.1 5.1 0 0 0-3.94-2.12v-1.02c.52-.16.91-.63.91-1.21 0-.7-.57-1.27-1.27-1.27s-1.27.57-1.27 1.27c0 .57.38 1.05.91 1.21v1.03a5.11 5.11 0 0 0-3.81 2.36l-.88-.51c.13-.53-.1-1.1-.59-1.39-.61-.35-1.38-.14-1.73.46s-.14 1.38.46 1.73c.5.29 1.1.19 1.5-.18l.9.52a5.1 5.1 0 0 0-.45 2.1c0 .86.21 1.66.59 2.37l-.88.51c-.4-.38-1-.47-1.5-.18-.61.35-.81 1.12-.46 1.73s1.12.81 1.73.46c.5-.29.72-.86.59-1.39l.9-.52a5.1 5.1 0 0 0 3.94 2.12v1.02c-.52.16-.91.63-.91 1.21 0 .7.57 1.27 1.27 1.27s1.27-.57 1.27-1.27c0-.57-.38-1.05-.91-1.21v-1.03a5.11 5.11 0 0 0 3.81-2.36l.88.51c-.13.53.1 1.1.59 1.39.61.35 1.38.14 1.73-.46.35-.61.14-1.38-.46-1.73"/>
  <circle cx="16.01" cy="20.39" r=".44" fill="#fff"/>
  <circle cx="15" cy="18.8" r=".65" fill="#fff"/>
</svg>
