<svg xmlns="http://www.w3.org/2000/svg" xmlns:xlink="http://www.w3.org/1999/xlink" viewBox="0 0 1920 1080">
  <defs>
    <clipPath id="a">
      <path fill="none" d="M1336 0h584v1080h-584z"/>
    </clipPath>
  </defs>
  <g data-name="Layer 2" style="isolation:isolate">
    <path fill="#f7f3f2" d="M0 0h1920v755.48H0z"/>
    <path fill="#d6b0a3" d="M0 751.73h1920V1080H0z"/>
    <path fill="#e5c0b5" d="M0 751.73h1920v20.55H0z"/>
    <g clip-path="url(#a)">
      <path fill="#f4c3be" d="M1592 772V0h328v992.72z"/>
      <path fill="#e59785" d="M1592 772v-19l328 185.56v54.16z"/>
    </g>
    <g fill-rule="evenodd">
      <path fill="url(#_ÂÁ_Ï_ÌÌ_È_ËÂÌÚ_200)" d="m1809.66 915.46 4.92-662.29-160.44 92.17 1.79 471.61 6.65-.51-.12-450.33 142.14-90.65-2.63 639.58z"/>
      <path fill="#f2eceb" d="m1801.97 915.04 2.63-639.58-142.14 84.52.12 456.46z"/>
      <path fill="#e87e70" d="m1814.58 253.17 2.42 6.68-4.46 622.94-2.88 32.67zm-9.94 26.74-139.59 79.41-.06 457.13-2.41-.01-.12-461.37 142.14-79.61z"/>
      <path fill="#f2eceb" d="m1673.52 543.72 1.7 123.55 6.8-.67V543.72z" style="mix-blend-mode:multiply"/>
      <path fill="#d16f54" d="m1672.1 644.11-.79-101.28 9.13-3.98-.65 110.28z"/>
      <path fill="#f2eceb" d="m1664.94 788.01 137.47 66.39-.69 59.96-136.99-96.57z" style="mix-blend-mode:multiply"/>
    </g>
    <g opacity=".7">
      <path fill="#ded4db" d="M942.33 428.27h194.96v5.57H942.33z" style="mix-blend-mode:multiply"/>
      <path fill="#fff1e1" d="M945.79 181.12h188.04V424.8H945.79z"/>
      <path fill="#f4d8bd" d="M965.36 200.69h148.91v204.55H965.36z"/>
      <path fill="#d16f54" d="M1137.3 428.27H942.34v-250.6h194.96zm-188.04-6.93h181.12V184.58H949.26z"/>
      <path fill="#a47764" d="M1098.47 262.25h-44.15c-1.23 0-2.23-1-2.23-2.22s1-2.23 2.23-2.23h44.15c1.24 0 2.23.99 2.23 2.23s-.99 2.22-2.23 2.22m2.23-13.89c0 1.23-.99 2.23-2.23 2.23h-44.15c-1.23 0-2.23-.99-2.23-2.23s1-2.23 2.23-2.23h44.15c1.24 0 2.23 1 2.23 2.23m0-11.65c0 1.23-.99 2.22-2.23 2.22h-44.15c-1.23 0-2.23-1-2.23-2.22s1-2.22 2.23-2.22h44.15c1.24 0 2.23 1 2.23 2.22m0-11.66c0 1.23-.99 2.22-2.23 2.22h-44.15c-1.23 0-2.23-.99-2.23-2.22s1-2.22 2.23-2.22h44.15c1.24 0 2.23.99 2.23 2.22m-2.23 97.62h-44.15c-1.23 0-2.23-1-2.23-2.22s1-2.23 2.23-2.23h44.15c1.24 0 2.23.99 2.23 2.23s-.99 2.22-2.23 2.22m2.23-13.88c0 1.23-.99 2.22-2.23 2.22h-44.15c-1.23 0-2.23-.99-2.23-2.22s1-2.23 2.23-2.23h44.15c1.24 0 2.23 1 2.23 2.23m0-11.66c0 1.23-.99 2.22-2.23 2.22h-44.15c-1.23 0-2.23-1-2.23-2.22s1-2.22 2.23-2.22h44.15c1.24 0 2.23 1 2.23 2.22m0-11.65c0 1.23-.99 2.22-2.23 2.22h-44.15c-1.23 0-2.23-.99-2.23-2.22s1-2.22 2.23-2.22h44.15c1.24 0 2.23.99 2.23 2.22m-2.23 97.61h-44.15c-1.23 0-2.23-1-2.23-2.23s1-2.23 2.23-2.23h44.15c1.24 0 2.23.99 2.23 2.23s-.99 2.23-2.23 2.23m2.23-13.88c0 1.23-.99 2.22-2.23 2.22h-44.15c-1.23 0-2.23-.99-2.23-2.22s1-2.23 2.23-2.23h44.15c1.24 0 2.23 1 2.23 2.23m0-11.65c0 1.23-.99 2.23-2.23 2.23h-44.15c-1.23 0-2.23-1-2.23-2.23s1-2.22 2.23-2.22h44.15c1.24 0 2.23 1 2.23 2.22m0-11.66c0 1.23-.99 2.22-2.23 2.22h-44.15c-1.23 0-2.23-.99-2.23-2.22s1-2.22 2.23-2.22h44.15c1.24 0 2.23.99 2.23 2.22M978.93 222.83h59.51v160.26h-59.51z"/>
      <g fill="#fff">
        <path d="M1011.02 268.39c0 1.29-1.04 2.33-2.33 2.33s-2.33-1.04-2.33-2.33 1.04-2.33 2.33-2.33 2.33 1.04 2.33 2.33"/>
        <path d="M1008.69 274.1a3.06 3.06 0 0 1-3.06-3.06v-9.09a3.06 3.06 0 1 1 6.12 0v9.09a3.06 3.06 0 0 1-3.06 3.06m7.5 91.04c-1.26 0-2.3-1.01-2.33-2.28l-1.22-55.55c-.03-1.29.99-2.35 2.28-2.38 1.3-.03 2.35.99 2.38 2.28l1.22 55.56c.03 1.29-.99 2.35-2.28 2.38h-.05Zm-15.01 0c1.26 0 2.3-1.01 2.33-2.28l1.22-55.55c.03-1.29-.99-2.35-2.28-2.38a2.32 2.32 0 0 0-2.38 2.28l-1.22 55.56c-.03 1.29.99 2.35 2.28 2.38h.05Z"/>
        <path d="M1022.34 365.63c0-.96-1.13-1.29-1.72-1.91-.63-.66-1.08-1.46-1.52-2.26-.59-1.07-1.64-2.14-2.93-2.21-1.81.09-2.53 2-2.78 3.16-.27 1.19-1.13 4.52.9 4.52h6.74c.72 0 1.31-.58 1.31-1.31Zm-27.31 0c0-.96 1.13-1.29 1.72-1.91.63-.66 1.08-1.46 1.52-2.26.59-1.07 1.64-2.14 2.93-2.21 1.81.09 2.52 2 2.78 3.16.27 1.19 1.13 4.52-.9 4.52h-6.74a1.3 1.3 0 0 1-1.3-1.31Zm31.15-55.27c-.97.04-1.78-.71-1.82-1.67l-.48-10.84a57.8 57.8 0 0 0-2.63-14.87l-3.27-10.35a1.745 1.745 0 1 1 3.33-1.05l3.27 10.35a61.7 61.7 0 0 1 2.79 15.77l.48 10.84c.04.97-.71 1.78-1.67 1.82"/>
        <path d="M1028.44 313.39c-.14 0-.26-.04-.37-.12-.03-.02-.07-.03-.1-.02a.12.12 0 0 0-.07.07c-.09.3-.37.53-.7.53-.2 0-.37-.08-.5-.2-.03-.03-.07-.04-.1-.03-.04 0-.07.04-.08.07-.1.36-.43.6-.8.61-.35 0-.69-.21-.8-.59-.01-.04-.04-.07-.08-.07s-.08 0-.1.03c-.13.15-.32.24-.54.24-.41 0-.73-.33-.74-.73 0 0-.01-.73-.02-1.02 0-.06-.05-.11-.11-.11-.82 0-1.05-1.07-.77-2.31.33-1.46 1.71-3.98 3.56-3.9 1.54.07 2.93 1.55 2.98 3.63 0 .37 0-.3-.01 3.28 0 .35-.29.63-.63.62Zm-37.25-3.03c.97.04 1.78-.71 1.82-1.67l.48-10.84c.22-5.05 1.11-10.05 2.63-14.87l3.27-10.35a1.745 1.745 0 1 0-3.33-1.05l-3.27 10.35A61.7 61.7 0 0 0 990 297.7l-.48 10.84c-.04.97.71 1.78 1.67 1.82"/>
        <path d="M988.94 313.39c.14 0 .26-.04.37-.12.03-.02.07-.03.1-.02s.06.04.07.07c.09.3.37.53.7.53.2 0 .37-.08.5-.2.03-.03.07-.04.1-.03.04 0 .07.04.08.07.1.36.43.6.8.61.35 0 .69-.21.8-.59.01-.04.04-.07.08-.07s.08 0 .1.03c.13.15.32.24.54.24.41 0 .73-.33.74-.73 0 0 .01-.73.02-1.02 0-.06.05-.11.11-.11.82 0 1.05-1.07.77-2.31-.33-1.46-1.71-3.98-3.56-3.9-1.54.07-2.93 1.55-2.98 3.63 0 .37 0-.3.01 3.28 0 .35.29.63.63.62Zm28.36-6.14c0 1.29-1.04 2.33-2.33 2.33s-2.33-1.04-2.33-2.33 1.04-2.33 2.33-2.33 2.33 1.04 2.33 2.33m-12.57 0c0 1.29-1.04 2.33-2.33 2.33s-2.33-1.04-2.33-2.33 1.04-2.33 2.33-2.33 2.33 1.04 2.33 2.33m16.67-35.15c0 .97-.78 1.75-1.75 1.75s-1.75-.78-1.75-1.75.78-1.75 1.75-1.75 1.75.78 1.75 1.75m-21.93 0c0 .97-.78 1.75-1.75 1.75s-1.75-.78-1.75-1.75.78-1.75 1.75-1.75 1.75.78 1.75 1.75"/>
        <path d="M1016.14 268.95c-1.8-.34-4.21-.56-7.45-.56-3.25 0-5.66.23-7.45.56-1.26.23-3.89.98-4.86 2.04-.52.63-.64 1.75.1 2.47.77.74 1.33 1.46 1.61 2.65 1.03 4.25 2.01 7.96 2.78 10.94 1.04 4.05.88 8.32-.45 12.28-.39 1.15-.51 1.97-.5 5.51-.06 4.38.42 6.03 8.77 6.03 8.36 0 8.83-1.65 8.77-6.03.01-3.28-.06-4.21-.5-5.51a21.67 21.67 0 0 1-.45-12.28c.77-2.99 1.75-6.69 2.78-10.94.29-1.19.85-1.91 1.61-2.65.74-.72.63-1.84.1-2.47-.98-1.06-3.61-1.8-4.86-2.04m1.32-15.29c-.72-.13-1.53 1-1.8 2.53s.09 2.87.81 3 1.53-1 1.8-2.53-.09-2.87-.81-3m-17.54 0c.72-.13 1.53 1 1.8 2.53s-.09 2.87-.81 3-1.53-1-1.8-2.53.09-2.87.81-3"/>
        <path d="M1008.69 243.81c-6.88 0-8.56 4.85-8.56 10.83s3.83 10.83 8.56 10.83 8.56-4.85 8.56-10.83-1.68-10.83-8.56-10.83"/>
      </g>
    </g>
    <g opacity=".7">
      <path fill="#ded4db" d="M1169.88 428.75h124.5v3.56h-124.5z" style="mix-blend-mode:multiply"/>
      <path fill="#34becf" d="M1172.09 263.57h120.08v162.97h-120.08z"/>
      <path fill="#fff" d="M1184.59 276.07h95.09v137.98h-95.09z"/>
      <path fill="#00949c" d="M1294.38 428.75h-124.5V261.36h124.5zm-120.08-4.42h115.66V265.78H1174.3z"/>
      <path fill="#f4c3be" d="M1194.13 290.86h76.01v65.94h-76.01z"/>
      <path fill="#fd9687" d="M1248.36 302.03c-4.85-1.79-9.18.05-9.73.29-3.73 1.66-5.58 4.61-6.29 5.98-.04.08-.12.13-.21.13s-.17-.05-.21-.13c-.71-1.37-2.56-4.32-6.29-5.98-.55-.24-4.88-2.08-9.73-.29-5.78 2.13-8.5 8.01-9.02 12.41-.35 2.97.23 5.86 1.72 9.18 5.24 11.72 17.55 19.52 23.05 22.63.3.17.66.17.96 0 5.5-3.11 17.81-10.91 23.05-22.63 1.49-3.32 2.07-6.21 1.72-9.18-.52-4.4-3.23-10.28-9.02-12.41"/>
      <path fill="#fff" d="m1232.01 341.68-2.19-27.42-1.72 10.97-1.36-2.21-.75 1.11h-4.6l-.02-.12-2.68 15.99-2-27.71-2.61 13.78-1.52-3.13-.67 1.19h-17.76v-1.21h17.06l1.46-2.55.93 1.9 3.64-19.28 1.94 26.91 2.26-13.46 1 6.48h2.93l1.44-2.12.62 1.02 2.8-17.79 2.1 26.29 1.54-11.55 1.9 4.15h3.08l1.83-3.79 1.12 3.39 3.6-18.67 1.64 26.17 2.15-11.14 1.79 3.9h19.18v1.2h-19.95l-.55-1.2-3.24 16.75-1.63-26.17-2.69 13.93-1.63-4.96-.87 1.8h-4.6l-.49-1.07z"/>
      <path fill="#92e4ea" d="M1235.11 390.9h-36.65c-.56 0-1.02-.46-1.02-1.02s.46-1.02 1.02-1.02h36.65c.57 0 1.02.46 1.02 1.02s-.45 1.02-1.02 1.02m1.02-6.36c0 .56-.45 1.02-1.02 1.02h-36.65c-.56 0-1.02-.45-1.02-1.02s.46-1.02 1.02-1.02h36.65c.57 0 1.02.46 1.02 1.02m-1.02 16.99h-36.65c-.56 0-1.02-.46-1.02-1.02s.46-1.02 1.02-1.02h36.65c.57 0 1.02.46 1.02 1.02s-.45 1.02-1.02 1.02m1.02-6.36c0 .56-.45 1.02-1.02 1.02h-36.65c-.56 0-1.02-.45-1.02-1.02s.46-1.02 1.02-1.02h36.65c.57 0 1.02.46 1.02 1.02m0-15.97c0 .56-.45 1.02-1.02 1.02h-36.65c-.56 0-1.02-.46-1.02-1.02s.46-1.02 1.02-1.02h36.65c.57 0 1.02.46 1.02 1.02m0-5.34c0 .56-.45 1.02-1.02 1.02h-36.65c-.56 0-1.02-.45-1.02-1.02s.46-1.02 1.02-1.02h36.65c.57 0 1.02.45 1.02 1.02"/>
      <path fill="#382f2c" d="M1247.09 371.43h18.03c.21 0 .38-.17.38-.38v-.98c0-.82-.66-1.48-1.48-1.48h-15.83c-.82 0-1.48.66-1.48 1.48v.98c0 .21.17.38.38.38"/>
      <path fill="#382f2c" d="M1261.81 370.26h4.43a.58.58 0 0 1 0 1.16h-4.43a.58.58 0 0 1 0-1.16"/>
      <path fill="#fd9687" d="M1247.28 374.33c.33-.59.51-1.26.51-1.94v-.96h16.62v.96c0 .68.18 1.35.51 1.94.36.64.57 1.37.57 2.16v24.88a4.41 4.41 0 0 1-4.41 4.41h-9.97a4.41 4.41 0 0 1-4.41-4.41v-24.88c0-.79.21-1.52.57-2.16Z"/>
      <path fill="#d9d0d8" d="M1265.04 403.29a4.39 4.39 0 0 1-3.95 2.49h-9.97a4.39 4.39 0 0 1-3.95-2.49h17.88Zm-.54-30.23h-16.8c.04-.22.09-.44.09-.67v-.96h16.62v.96c0 .23.05.45.09.67" style="mix-blend-mode:multiply"/>
      <rect width="13.95" height="14.6" x="1249.13" y="378.12" fill="#fff" rx="1.22" ry="1.22"/>
    </g>
    <path fill="#95c3c4" d="M1183.77 663.03V524.88h-172.46v290.34h172.46z"/>
    <path fill="#a47764" d="M1013.4 532.3h238.16v275.5H1013.4z"/>
    <path fill="#fff" d="M1244.67 539.72v260.67h-224.38V539.72zm13.78-14.84h-251.94v290.34h251.94z"/>
    <path fill="#fff" d="M1006.51 663.03h251.94v14.04h-251.94z"/>
    <rect width="28.7" height="37.32" x="1169.54" y="625.71" fill="#fff" rx="5.15" ry="5.15"/>
    <path fill="#fff" d="M1173.97 618.92h19.84v10.39h-19.84z"/>
    <path fill="#382f2c" d="M1195.02 624.12h-22.25c-.29 0-.52-.25-.52-.56l-.48-6.56c0-.31.71-.56 1-.56h22.25c.29 0 .52.25.52.56v6.56c0 .31-.23.56-.52.56"/>
    <path fill="#aee8ed" d="M1173.11 636.94h21.57v17.54h-21.57z"/>
    <rect width="28.7" height="37.32" x="1204.17" y="625.71" fill="#fff" rx="5.15" ry="5.15"/>
    <path fill="#fff" d="M1208.61 618.92h19.84v10.39h-19.84z"/>
    <path fill="#382f2c" d="M1229.65 624.12h-22.25c-.29 0-.52-.25-.52-.56V617c0-.31.23-.56.05-.56h22.25c.76 0 1 .25 1 .56v6.56c0 .31-.23.56-.52.56Z"/>
    <path fill="#aee8ed" d="M1207.74 636.94h21.57v17.54h-21.57z"/>
    <rect width="28.7" height="37.32" x="1186.86" y="579.12" fill="#fff" rx="5.15" ry="5.15"/>
    <path fill="#fff" d="M1191.29 572.33h19.84v10.39h-19.84z"/>
    <path fill="#382f2c" d="M1212.33 577.52h-22.25c-.29 0-.52-.25-.52-.56v-6.56c0-.31.23-.56.05-.56h22.25c.76 0 1 .25 1 .56v6.56c0 .31-.23.56-.52.56Z"/>
    <path fill="#aee8ed" d="M1190.42 590.34h21.57v17.54h-21.57z"/>
    <path fill="#fff1e1" d="M1096 628.81h57.57v34.23H1096z"/>
    <path fill="#fff" d="M1096 628.81h57.57v24.84H1096z"/>
    <path fill="#fd9687" d="m1141.01 638.44-2.89-3.11c-1.21-1.3-3.16-1.3-4.37 0s-1.21 3.41 0 4.71l2.89 3.11zm-3.56 5.58 2.89 3.11c1.21 1.3 3.16 1.3 4.37 0s1.21-3.41 0-4.71l-2.89-3.11z"/>
    <path fill="#fff1e1" d="M1065.92 594.54h57.57v34.23h-57.57z"/>
    <path fill="#fff" d="M1065.92 594.54h57.57v24.84h-57.57z"/>
    <path fill="#fd9687" d="m1110.93 604.17-2.89-3.11c-1.21-1.3-3.16-1.3-4.37 0s-1.21 3.41 0 4.71l2.89 3.11zm-3.57 5.58 2.89 3.11c1.21 1.3 3.16 1.3 4.37 0s1.21-3.41 0-4.71l-2.89-3.11z"/>
    <path fill="#fff1e1" d="M1034.38 628.81h57.57v34.23h-57.57z"/>
    <path fill="#fff" d="M1034.38 628.81h57.57v24.84h-57.57z"/>
    <path fill="#fd9687" d="m1079.39 638.44-2.89-3.11c-1.21-1.3-3.16-1.3-4.37 0s-1.21 3.41 0 4.71l2.89 3.11zm-3.56 5.58 2.89 3.11c1.21 1.3 3.16 1.3 4.37 0s1.21-3.41 0-4.71l-2.89-3.11z"/>
    <g fill="#fff">
      <path d="M1101.09 746.79h-38.21v-18.53c0-5.33 4.03-9.67 8.99-9.67h20.24c4.95 0 8.99 4.34 8.99 9.67v18.53Zm-32.28-6.39h26.34v-12.14c0-1.81-1.37-3.28-3.05-3.28h-20.24c-1.68 0-3.05 1.47-3.05 3.28z"/>
      <rect width="95.19" height="62.91" x="1034.38" y="737.5" rx="10.93" ry="10.93"/>
    </g>
    <path fill="#fff" d="M1174.18 726.33h-9.44c-.59 0-1.09.42-1.14.96l-.96 9.91h13.63l-.95-9.91c-.05-.54-.55-.96-1.14-.96"/>
    <path fill="#fff" d="M1177.07 736.74h-15.24c-.33 0-.59.24-.59.54v.6c0 .3.27.54.59.54h15.24c.33 0 .59-.24.59-.54v-.6c0-.3-.27-.54-.59-.54"/>
    <path fill="#00878d" d="M1162.98 738.43h12.96v1.59h-12.96z"/>
    <path fill="#34becf" d="M1177.31 740.02h-15.71c-3.4 0-6.16 2.54-6.16 5.66v49.07c0 3.13 2.76 5.66 6.16 5.66h15.71c3.4 0 6.16-2.53 6.16-5.66v-49.07c0-3.13-2.76-5.66-6.16-5.66"/>
    <path fill="#fff" d="M1155.44 754.11h28.02v30.04h-28.02z"/>
    <path fill="#00949c" d="M1155.44 754.11h28.02v7.58h-28.02z"/>
    <path fill="#fff" d="M1213.54 726.33h-9.44c-.59 0-1.09.42-1.14.96l-.96 9.91h13.63l-.95-9.91c-.05-.54-.55-.96-1.14-.96"/>
    <path fill="#fff" d="M1216.43 736.74h-15.24c-.33 0-.59.24-.59.54v.6c0 .3.27.54.59.54h15.24c.33 0 .59-.24.59-.54v-.6c0-.3-.27-.54-.59-.54"/>
    <path fill="#00878d" d="M1202.34 738.43h12.96v1.59h-12.96z"/>
    <path fill="#34becf" d="M1216.67 740.02h-15.71c-3.4 0-6.16 2.54-6.16 5.66v49.07c0 3.13 2.76 5.66 6.16 5.66h15.71c3.4 0 6.16-2.53 6.16-5.66v-49.07c0-3.13-2.76-5.66-6.16-5.66"/>
    <path fill="#fff" d="M1194.81 754.11h28.02v30.04h-28.02z"/>
    <path fill="#00949c" d="M1194.81 754.11h28.02v7.58h-28.02z"/>
    <path fill="#ba9b93" d="M102.57 495.8h32.05c3.5 0 6.34 2.84 6.34 6.34v184.81H96.23V502.14c0-3.5 2.84-6.34 6.34-6.34"/>
    <path fill="#fff" d="M186.54 550.13c5.37.62 11.25 1.34 16.85 1.98 1.61.19 3.35-.19 4.96 0 1.33.16 2.63.79 3.97.99 33.06 4.96 63.51 25.71 89.7 45.63 5.53 4.21 10.89 10.38 16.45 14.28s11.94 5.58 16.79 9.98c-4.62.77-9.5.63-14.09 1.77-1 .25-2.99.28-2.75 1.68h101.12c1.32.01 2.64 0 3.97.01h31.72c40.3.01 80.65-.01 120.95 0h9.91c39.96.01 80.01-.46 119.96 0 1.33 1.65 4.03.75 5.98 1.46 7.04 2.56 10.68 9.78 14.84 15.39.08 12.21-.07 24.47 0 36.69-146.91.11-293.84-.14-440.76-.05-1.88 0-3.74 1.03-4.39 1.03-.7-3.17-3.41-4.47-4.85-7.54-4.78-10.22-.12-25.19 6.86-33.57 3.73-4.48 8.74-6.62 12.86-10.43-18.38 3.03-22.97 23.15-26.26 38.67l-7.49.51c-40.08-26.52-81.3-51.41-121.43-77.83-8.71-5.73-18.23-11.24-25.26-18.86.78-7.34 10.9-24.84 18.55-26.56 7.29-1.64 19.9 1.8 27.68 2.64 8.01.86 16.19 1.19 24.16 2.11Zm116.98 77.34c-1.62-.76-7.3 1.32-5.94 1.96 1.47.65 7.33-1.3 5.94-1.96"/>
    <path fill="#755e58" d="m586.08 738.5-.85 16.22c.85 2.59 4.93 1.32 7.24 1.71 9.49 1.6 2.9 15.24 7.13 16.63l115.69.1c2.56.6 1.42 12.46 1.66 14.92-1.98.05-3.98-.07-5.95 0-6.24.22-12.59-.02-18.84 0-35.13.12-70.31-.2-105.45.14l-1.19.79c-.06 11.19 1.14 22.47-.43 33.77-3.37-.8-12.18.05-16.4 0-1.41-.02-2.94.99-3.43.99-33.41-.42-67.41-1.31-101.12-.99-5.58.05-13.73-.78-18.84 0v-34.7c-43.93-.02-87.92.04-131.86 0H294.6c-22.79-.03-45.62.07-68.41 0-6.26-.02-12.59.16-18.84 0-1.32-.03-2.65.04-3.97 0-.99-.03-1.99.05-2.98 0l.46-13.95c.58-.94 1.62-.78 2.51-.93 1.43-.24 3.38.06 4.96 0 1.32-.05 2.65.02 3.97 0 22.1-.36 44.31.04 66.43 0h11.9c13.2-.01 26.45.06 39.66 0 3.96-.02 7.94.02 11.9 0 6.6-.04 13.24.02 19.83 0v-11.9c2.18-1.58 3.27-6.26 7.93-4.96l200.88.07c1.52.42 2.41-.68 3.35-1.06.5-.2 1.79.6 2.03-.62l-.04-16.23c3 .36 6.75-.07 9.91 0m-9.91 49.57H455.22v24.79h120.95z"/>
    <path fill="#ba9b93" d="M746.69 582.34v100.63c-4.44-.24-20.31-.73-23.19 1.09-3.8 2.4-2.47 9.73-2.58 13.78-161.58.64-323.23-.86-484.8 0-7.92.04-15.88-.06-23.79 0-1.32 0-2.64-.01-3.97 0-1.65.01-3.3 0-4.96 0l-86.25.99c-.03-5.02 1.46-14.93-2.97-17.85 1.03-1.64 3.76-.99 5.44-1.01 22.62-.28 45.32-.09 67.93.02 5.27.03 10.59-.03 15.86 0 1.01 0 3.27 2.26 4.96 0h3.97c8.49 2.43 17.76-.1 26.77 0 8.18.09 16.33.98 24.79.99h17.85c.65 0 2.51-1.03 4.39-1.03 146.92-.1 293.86.15 440.76.05-.07-12.21.08-24.48 0-36.69-.03-4.87-.98-10.4-.99-15.86-.02-13.39-.08-27.54-.08-41.14 0-21.48 20.9-20.07 20.9-3.97Z"/>
    <path fill="#755e58" d="M720.91 697.85c-.12 4.41-.29 9.53 0 13.88-6.46-.66-12.99.56-19.34.78-12.25.43-24.76-.73-37.17-.78-136.11-.61-272.38 1.61-408.47 0-1.98-.02-3.97.03-5.95 0-1.32-.02-2.65.04-3.97 0-2.32-.06-8.35.69-9.48-.93l-.43-12.95c161.58-.86 323.23.64 484.8 0Z"/>
    <path fill="#ba9b93" d="M664.4 711.73c-.49 3.41 1.51 11.7-1.98 13.39-2.87 1.39-22.75.45-27.76.49-115.58.9-231.41.64-347 0-10.24-.06-20.57.41-30.8-.43l-.93-13.45c136.09 1.61 272.36-.61 408.47 0"/>
    <path fill="#916e67" d="m634.66 725.61-.9 11.26c-.84 1.18-4.89 1.54-6.5 1.66-12.42.96-28.48.26-41.18-.04-3.17-.07-6.91.36-9.91 0-.64-.08-1.46.14-1.98 0-.15-.04-.47-1.34-1.02-1.46l-198.81-.58-4.4 2.04-76.77-.06c-6.74-1.07-5.56-7.45-5.52-12.83 115.58.64 231.42.9 347 0Z"/>
    <path fill="#755e58" d="M88.39 680c5.07-.52 17.94-.69 22.8 0 .25.04 2.84.91 2.97.99 4.43 2.92 2.94 12.82 2.97 17.85.06 9.38 3.17 17.86-8.38 18.89-6.06.54-25.87 1.99-27.29-5.53-.73-3.85-.6-22.6.04-26.68.67-4.29 2.98-5.11 6.88-5.52Zm658.3 2.98c3.58.2 8.02-.59 9.48 3.91.94 2.91 1 24.2.44 27.82-.37 2.38-2.03 4.47-4.49 4.93-2.93.55-26.3.35-28.21-.49-3.27-1.45-2.81-4.58-3-7.41-.29-4.35-.12-9.47 0-13.88.11-4.05-1.22-11.38 2.58-13.78 2.88-1.82 18.75-1.34 23.2-1.09Z"/>
    <path fill="#fff" d="M208.35 697.85v75.35c-1.58.06-3.53-.24-4.96 0v-75.35c1.65 0 3.31.01 4.96 0"/>
    <path fill="#755e58" d="M711 788.07v11.9c-5.34-1.58-13.45-1.58-18.84 0v-11.9c6.25-.02 12.6.22 18.84 0"/>
    <path fill="#e2c0a8" d="M725.87 627.46c0 5.46.96 10.99.99 15.86-4.16-5.62-7.8-12.83-14.84-15.39-1.95-.71-4.65.19-5.98-1.46 6.66.08 13.27-.33 19.83.99"/>
    <path fill="#755e58" d="M207.36 788.07v10.91c-.24.08-2.43 2.12-3.97 2.97v-13.88c1.32.04 2.65-.03 3.97 0"/>
    <path fill="#e2c0a8" d="M116.15 571.94c7.03 7.62 16.55 13.13 25.26 18.86 40.13 26.42 81.35 51.31 121.43 77.83l7.49-.51c3.29-15.52 7.88-35.64 26.26-38.67-4.12 3.81-9.13 5.95-12.86 10.43-6.98 8.38-11.64 23.36-6.86 33.57 1.44 3.07 4.15 4.37 4.85 7.54h-17.85l-146.73-99.14c.28-2.4-1.38-6.27-.99-9.91m187.37 55.53c1.39.66-4.47 2.62-5.94 1.96-1.36-.64 4.32-2.73 5.94-1.96"/>
    <path fill="#916e67" d="M574.18 738.5v16.85c-.95.38-1.83 1.48-3.35 1.06l-200.88-.07v-17.85l4.4-2.04 198.81.58c.55.12.88 1.42 1.02 1.46Z"/>
    <path fill="#ffede9" d="M455.21 788.07h120.95v24.79H455.21z"/>
    <path fill="#755e58" d="M212.32 697.85v75.35c-1.32.02-2.65-.05-3.97 0v-75.35c1.32-.01 2.64 0 3.97 0m13.87 90.22v10.91c-3.17-.99-15.79-.97-18.84 0v-10.91c6.25.16 12.58-.02 18.84 0m87.25 0v9.91c-3.53-1.1-15.45-1.79-18.84-.99v-8.92zm262.73-49.57.04 16.23c-.24 1.22-1.52.42-2.03.62V738.5c.53.14 1.34-.08 1.98 0ZM117.14 581.85l146.73 99.14c-8.45-.01-16.6-.9-24.79-.99l-26.77-18.84-3.97-1.98-3.97-2.97c-4.54-4.64-10.59-7.32-15.86-10.91-25.53-17.34-50.74-35.29-76.34-52.55v-2.97c1.15-1.73 4.76-6.28 4.96-7.93Z"/>
    <path fill="#fff" d="M208.35 659.18V680c-1.68 2.26-3.94 0-4.96 0 .6-7.7-1.28-16.41.99-23.79z"/>
    <path fill="#755e58" d="M212.32 661.16V680h-3.97v-20.82z"/>
    <circle cx="214.4" cy="823.66" r="30.14" fill="#755e58"/>
    <path fill="#ffede9" d="M214.4 845.28c-11.92 0-21.62-9.7-21.62-21.62s9.7-21.62 21.62-21.62 21.62 9.7 21.62 21.62-9.7 21.62-21.62 21.62"/>
    <circle cx="304.02" cy="823.66" r="30.14" fill="#755e58"/>
    <path fill="#ffede9" d="M304.02 845.28c-11.92 0-21.62-9.7-21.62-21.62s9.7-21.62 21.62-21.62 21.62 9.7 21.62 21.62-9.7 21.62-21.62 21.62"/>
    <circle cx="701.58" cy="823.66" r="30.14" fill="#755e58"/>
    <path fill="#ffede9" d="M701.58 845.28c-11.92 0-21.62-9.7-21.62-21.62s9.7-21.62 21.62-21.62 21.62 9.7 21.62 21.62-9.7 21.62-21.62 21.62"/>
    <circle cx="450.95" cy="835.98" r="15.07" fill="#755e58"/>
    <path fill="#ffede9" d="M450.95 846.79c-5.96 0-10.81-4.85-10.81-10.81s4.85-10.81 10.81-10.81 10.81 4.85 10.81 10.81-4.85 10.81-10.81 10.81"/>
    <circle cx="574.18" cy="835.98" r="15.07" fill="#755e58"/>
    <path fill="#ffede9" d="M574.18 846.79c-5.96 0-10.81-4.85-10.81-10.81s4.85-10.81 10.81-10.81 10.81 4.85 10.81 10.81-4.85 10.81-10.81 10.81"/>
    <path fill="#382f2c" d="M487.32 529.5c1.63.1 3.03-1.14 3.13-2.77s-1.14-3.03-2.77-3.14c-.1 0-.2 0-.29.01 0-.09-.01-.19-.02-.28.23-.39.38-.82.41-1.3.06-.92-.32-1.76-.95-2.35-.07-.35-.15-.7-.23-1.04.55-.5.91-1.2.96-2 .08-1.27-.66-2.39-1.76-2.88.59-.5.98-1.23 1.04-2.06.09-1.39-.81-2.61-2.08-3-.43-.98-1.37-1.7-2.51-1.77h-.05c.08-.24.14-.48.16-.74.1-1.63-1.14-3.03-2.77-3.13.1-1.63-1.14-3.03-2.77-3.13-.94-.06-1.79.34-2.37.98-.12-.08-.24-.17-.36-.25.11-.28.19-.57.21-.89.1-1.63-1.14-3.03-2.77-3.13-.75-.05-1.45.2-2 .64-.46-.9-1.36-1.54-2.44-1.61-.83-.05-1.6.25-2.17.76-.62-.17-1.25-.31-1.88-.44 0-.01-.01-.03-.02-.04a2.945 2.945 0 0 0-3.09-1.36 2.954 2.954 0 0 0-5.87.27c-.01.21 0 .41.03.61-.24.02-.49.05-.73.08a2.94 2.94 0 0 0-3.6-.43c-.24.14-.44.32-.62.52a2.95 2.95 0 0 0-3.91-.8c-.9.55-1.4 1.49-1.42 2.47a3 3 0 0 0-.81-.18 2.954 2.954 0 0 0-3.13 2.77c-.01.19 0 .37.02.55-.12.08-.23.16-.35.24-.8-.27-1.71-.22-2.49.25-.72.44-1.19 1.14-1.35 1.91a2.94 2.94 0 0 0-2.87.1c-1.34.81-1.8 2.52-1.08 3.9a2.94 2.94 0 0 0-2.44 2.72c-.01.19 0 .37.02.54-.15-.03-.31-.07-.47-.08a2.954 2.954 0 0 0-3.13 2.77c-.05.84.26 1.62.8 2.2-.9.46-1.55 1.36-1.62 2.44-.03.54.09 1.05.32 1.5a2.9 2.9 0 0 0-.3 2.71c-.78.49-1.32 1.33-1.38 2.31-.09 1.39.8 2.6 2.07 3a2.96 2.96 0 0 0-2.43 2.72 2.94 2.94 0 0 0 1.36 2.66c-.02.13-.05.25-.06.38-.08 1.28.67 2.41 1.78 2.89-.33.44-.55.98-.58 1.58a2.954 2.954 0 0 0 2.77 3.13h.13c-.09.26-.17.53-.18.82a2.97 2.97 0 0 0 2.77 3.14c.27.02.54-.02.79-.07 0 .04-.02.08-.02.12a2.954 2.954 0 0 0 2.77 3.13h.17a30.54 30.54 0 0 0 20.03 9.18c11.97.74 22.76-5.49 28.42-15.2.33.16.69.26 1.08.28 1.63.1 3.03-1.14 3.13-2.77.08-1.22-.6-2.3-1.62-2.82 1.35-.2 2.43-1.32 2.52-2.74.07-1.1-.48-2.08-1.33-2.64.06-.41.12-.82.17-1.24z"/>
    <path fill="#7c4f43" d="M386.93 648.05s.56-10.5-.55-14.07l.4-.12c.26-.09.13-.48-.13-.45-4.06.51-12.03 3.13-12.03 3.13l-3.2 7.21 3 3.61 12.51.68Z"/>
    <path fill="#96aacc" d="M463.95 625.64c-2.37-8.46-9.24-14.67-16.94-18.39-.16-.47-.74-.8-1.2-.36-6.49 6.04-11.01 13.64-15.11 21.42-1.87 3.56-4.22 7.35-4.38 11.47-.13 3.46 1.63 4.72 4.77 5.49 8.2 2.01 18.42 2.45 26.42-.7 7.25-2.85 8.28-12.34 6.44-18.93"/>
    <path fill="#beccea" d="M436.86 617.83c-.97-8.52-8.25-15.04-14.15-20.66-3.62-3.45-7.58-6.42-12.06-8.66-4.57-2.3-9.3-4.2-13.76-6.72.04-.22-.16-.45-.43-.34-.03.01-.07.03-.1.05-.08-.04-.15-.08-.23-.13-.44-.26-.85.19-.73.57-9.71 4.52-16.9 14.72-16.11 25.66.4 5.49 3.13 10.06 6.38 14.35 1.4 1.84 2.97 3.7 4.68 5.42-.73.34-1.36.91-2.15 1.77-1.99 2.16-3.28 1.35-5.63 1.93-.93.23-1.72.63-2.4 1.31-.79.8-1.24 1.77-1.49 2.8.92 5.71 3.28 11.11 5.29 16.63 9.46 1.18 19.5 2.59 28.9 1.79 3.98-.34 8.09-.6 11.91-1.87 4.36-1.46 7.64-4.41 9.63-8.54 3.42-7.1 3.33-17.61 2.45-25.36"/>
    <path fill="#7c4f43" d="M452.33 627.6s-10.51.03-14.01 1.33c-.05-.13-.09-.26-.14-.39-.1-.25-.49-.1-.44.15.73 4.03 3.8 11.84 3.8 11.84l7.38 2.79 3.44-3.19-.02-12.53Zm32.06-4.18s-9.56-.3-13.12.84l-.12-.4c-.09-.26-.48-.12-.45.13.54 4.06 3.24 12 3.24 12l7.24 3.14 3.74-3.16-.52-12.55Z"/>
    <path fill="#00949c" d="M486.78 628.14c-.51 1.28-3.29 1.54-6.46 1.34-3.18-.2-9.56 2.02-10.27 1.83s-2.53-3.79-3.22-6.44c-.1-.39-.24-.86-.39-1.38-.1-.32-.19-.66-.3-1.03-.91-3.04-2.29-7.16-3.4-9.01-.28-.47-.64-1.28-1.02-2.27-.11-.26-.21-.54-.32-.82-.8-2.17-1.71-4.96-2.4-7.11-.01-.02 0-.05-.02-.07-.11-.34-.2-.66-.3-.96l-.74-2.41s.07-9.07.21-15.7c.01-.38.01-.74.02-1.1.08-2.94.17-5.22.28-5.66.12-.48 2.33-1.82 5.19-3.37.37-.2.74-.41 1.14-.61 5.48-2.92 12.54-6.29 12.54-6.29.1.13.18.28.26.42.06.11.13.23.19.35.4.71 1.04 1.9 1.85 3.64.15.32.31.67.47 1.04.6 1.35 1.28 2.95 2.01 4.84.65 1.69 1.2 3.9 1.65 6.38.06.33.12.67.17 1.01.48 2.88.84 6.07 1.08 9.14.03.42.06.83.1 1.24.34 4.84.41 9.27.26 11.73-.01.16-.02.32-.02.5-.01.39-.02.82-.02 1.29.04 2.94.44 6.97.81 10.61.05.39.08.75.12 1.12.42 3.91.77 7.17.54 7.75Z"/>
    <path fill="#00949c" d="M477.77 567.86c-.06-.12-.12-.24-.19-.35a6 6 0 0 0-.26-.42c-2.25-3.4-6.46-5.45-9.9-7.38-7.41-4.16-15.36-7.31-23.73-8.7-.05-.06-.12-.14-.22-.16-6.61-2.28-13.95-2.71-19.92 1.17-.27.17-.52.35-.78.53-.01.01-.04.02-.05.04-3.06 2.25-5.47 5.19-7.95 8.06-1.08 1.24-2.16 2.41-3.29 3.48-.28.27-.57.54-.85.81a47 47 0 0 1-6.84 5.19c-.78.5-1.59 1-2.4 1.52-.25.16-.51.33-.76.5-1.94 1.27-3.8 2.68-5.25 4.43-2.12 2.53-1.53 4.41.26 6.87 4.93 6.78 10.53 13.63 16.95 19.06.74.61 1.51 1.14 2.31 1.61 0 0 0 .01.01.01 2.06 1.2 4.28 2.05 6.38 3.2h.02c.5.28 1.01.57 1.5.9 1.03.68 2.01 1.42 3.01 2.17 2.12 1.57 4.22 3.17 6.62 4.32 5.16 2.44 11.31 1.68 15.41-2.23.31-.29.61-.61.88-.94.09-.09.16-.18.24-.26 1.51-1.84 2.55-3.53 4.53-4.77.17-.12.35-.21.53-.32 1.44-.78 2.93-1.43 4.25-2.43.22-.17.43-.33.64-.53.02-.01.06-.04.09-.06.36-.3.69-.62 1-.95 1.76-1.8 3.12-3.97 4.37-6.16 1.76-3.1 3.34-6.34 5.54-9.18.06-.1.14-.2.22-.3.2-.27.42-.52.64-.77 2.37-2.83 5.15-5.39 6.75-8.77.56-1.18.96-2.43 1.13-3.7.06-.43.09-.86.1-1.3.02-1.44-.27-2.86-.97-4.19Z"/>
    <path fill="#00949c" d="M455 632.97c-.05.58-4.19-.11-7.8-.33s-10.93.77-11.29.75-1.76-.98-2.83-4.53c-.73-2.42-1.17-3.34-1.98-5.3-.11-.29-.23-.58-.37-.92-.29-.74-.62-1.6-1.03-2.7-.8-2.18-2.38-5.96-3.9-9.55-.38-.87-.74-1.72-1.08-2.54-.16-.37-.33-.74-.47-1.1-1.35-3.1-2.38-5.44-2.38-5.44s9.04-1.78 17.43-3.37h.02c.54-.1 1.08-.2 1.61-.3h.01c6.55-1.23 12.26-2.24 12.31-2.05s.08 2.66.13 5.95c0 .35.01.7.02 1.06.03 1.24.05 2.57.08 3.92.04 1.92.1 3.86.17 5.61.01.34.03.66.04.98.05 1.11.11 2.12.18 2.97.17 2.24.37 5.02.57 7.68.02.37.05.75.07 1.11.29 4.16.5 7.77.48 8.11Z"/>
    <path fill="#fff" d="M480.09 572.54c-.47.3-.96.57-1.45.81-1.73.88-3.49 1.53-5.31 1.86-3.38.6-6.54-.17-9.68-1.23-3.89-1.31-7.72-3.07-11.85-3.17-3.83-.11-7.7.75-11.52 0-3.13-.61-5.83-2.3-8.1-4.52-4-3.9-6.51-8.97-9.46-13.7.01-.02.04-.03.05-.04.25-.18.51-.36.78-.53 2.65 3.98 4.68 8.45 7.81 12.09 2.43 2.83 5.44 5.08 9.16 5.8 3.76.71 7.55-.11 11.34-.01 4.47.12 8.66 2.19 12.93 3.48 2.57.77 5.17 1.27 7.88.88 2.21-.33 4.21-1.13 6.08-2.21.29-.18.59-.36.88-.55.15.32.31.67.47 1.04Zm3.83 12.23c-4.6 1.41-9.44 2.3-14.02 2.13-.86-.03-1.7-.09-2.54-.2-3.22-.42-6.12-1.76-9.2-2.58-1.42-.38-2.86-.64-4.4-.66-4.84-.02-9.57 1.23-14.41.75-4.69-.47-9.21-2.07-13.56-3.8-3.41-1.36-6.86-2.94-9.55-5.5-2.64-2.51-4.12-5.78-5.3-9.15-.1-.27-.2-.55-.3-.82.28-.26.57-.53.85-.81 1.09 3.25 2.29 6.51 4.6 9.1 2.87 3.22 6.95 4.97 10.9 6.5 4.51 1.75 9.18 3.34 14.05 3.53 4.29.16 8.51-.85 12.79-.85 1.54 0 2.97.24 4.36.6 2.49.62 4.84 1.6 7.43 2.27 1.66.43 3.39.57 5.14.54 2.98-.05 6.05-.6 8.87-1.14 1.39-.26 2.76-.57 4.13-.93.06.33.12.67.17 1.01Z"/>
    <path fill="#fff" d="M485.09 595.14c-4.18 1.2-8.29 2.47-12.25 4.29-3.77 1.74-7.68 3.42-11.87 3.76-.65.05-1.3.07-1.96.06h-.1c-1.82-.05-3.67-.32-5.49-.65-1.66-.3-3.31-.67-4.92-.97-3.43-.64-6.15-2.25-9.16-3.68h-.02c-.7-.32-1.41-.65-2.16-.95-3.83-1.54-7.96-2.05-11.89-3.22-3.23-.97-6.31-2.43-8.74-4.84-1.64-1.63-2.71-3.68-4.19-5.45-1.39-1.65-3.06-3.03-4.72-4.4-2.37-1.95-5.13-4.26-7-6.96.25-.17.51-.34.76-.5 2.52 3.51 6.63 6.21 9.77 9.16 2.58 2.43 4.12 5.69 6.78 8.02 2.85 2.51 6.42 3.74 10.05 4.63 3.51.87 7.09 1.48 10.41 2.97.88.4 1.71.81 2.56 1.23h.01c2.59 1.28 5.08 2.51 8.08 3.04 1.42.26 2.89.57 4.36.85 1.77.34 3.55.63 5.29.68.4.03.8.03 1.19.02h.1c5.61-.15 10.42-2.81 15.47-4.94 3.11-1.31 6.28-2.49 9.54-3.39.03.42.06.83.1 1.24m-31.38 17.97c-1.94-.32-3.9-.47-5.87-.62-1.81-.14-3.64-.28-5.46-.52-5.19-.72-10.05-2.82-15.2-3.72-.83-.14-1.64-.26-2.46-.38-1.16-.17-2.3-.33-3.42-.53h-.02c-2.1-1.15-4.32-2.01-6.38-3.21 1.98.97 3.97 1.8 6.28 2.2 1.02.18 2.05.3 3.08.44 1.39.18 2.79.35 4.16.64 5.77 1.21 11.15 3.4 17.08 3.89 1.07.09 2.15.17 3.22.25 1.66.13 3.32.29 4.94.59.01.34.03.66.04.98Zm.74 10.65c.02.37.05.75.07 1.11-1.31-.37-2.62-.85-3.91-1.31-4.24-1.48-8.53-1.93-12.91-.77-2.58.69-4.46 1.18-6.59.77-.11-.29-.23-.58-.37-.92.27.08.56.14.85.19 3.39.59 6.94-1.53 10.41-1.7 4.36-.2 8.39 1.64 12.46 2.62Zm31.79-3.37c-1.24.47-2.48.87-3.73 1.18-3.67.96-7.17.69-10.91.8-1.85.05-3.53.55-5.16 1.12-.1-.32-.19-.66-.3-1.03 1.75-.6 3.53-1.04 5.52-1.08 3.62-.08 7.09.13 10.64-.79 1.32-.35 2.59-.79 3.82-1.32.05.39.08.75.12 1.12m-.93-11.73c-1.58.54-3.18.97-4.79 1.31-5.95 1.25-12.61 1.99-18.79 1.21-.11-.26-.21-.54-.32-.82 5.92.47 12.16-.16 17.91-1.28 2.13-.41 4.12-.99 6.01-1.71-.01.39-.02.82-.02 1.29"/>
    <path fill="#7c4f43" d="M433.1 527.07c-.15 1.08-.24 2.18-.26 3.31-.1 6.89 1.11 14.42 5.29 20.19 5.05 7 14.29 10.47 22.98 10.32 8.27-.14 14.55-5.25 18.3-12.25 2.48-4.63 3.36-12.76 3.29-18.03-.06-4.55-1.08-8.56-4.51-11.58-5.73-5.05-12.9-8.29-19.62-12-.04-.02-.08-.05-.13-.06-.95-.25-20.57 4.33-20.57 4.33-1.72 5.37-4.01 10.28-4.77 15.77"/>
    <path fill="#7c4f43" d="m440.57 549.24-2.23 6.25s6.02 9.27 12.34 10.14 8.06-.95 8.06-.95l3.33-6.81-21.5-8.62Zm-4.89-18.35s-5.25-5.33-7.9-3.51c-4.65 3.18.17 11.87 2.4 13.85 1.29 1.15 3.07 1.43 4.75 1.82.17.04 3.8-.1 3.77-.25l-3.01-11.91Z"/>
    <path fill="#382f2c" d="M448.11 532.66c-.02-1.8-1.15-2.91-2.12-1.94-.69.69-.74 2.16-.57 3.05.14.73.65 1.78 1.55 1.53 1.02-.28 1.15-1.49 1.14-2.65Zm25.75 2.12c.1-1.79-.94-2.99-1.98-2.08-.73.64-.89 2.1-.79 3.01.08.74.53 1.82 1.44 1.64 1.04-.21 1.26-1.4 1.32-2.56Z"/>
    <path fill="#5b352e" d="M460.17 543.11a.577.577 0 0 1-.25-1.08c.36-.21 1.31-.91 1.33-1.7.02-.96-.78-2.94-1.09-3.63a.59.59 0 0 1 .29-.77c.29-.13.63 0 .77.29.13.28 1.23 2.74 1.2 4.14-.04 1.62-1.84 2.64-1.92 2.69a.52.52 0 0 1-.32.07Zm-.56 2.76c2.23.27 4.09-1.32 5.13-.39.97.87-.65 3.71-4.73 3.59s-6.04-2.39-5.37-3.79c.75-1.57 2.74.33 4.97.6Zm-.19 15.97c-.18-.01-4.53-.3-10.1-2.54-4.18-1.68-8.62-5.18-8.81-5.33a.584.584 0 0 1-.1-.81c.2-.25.56-.29.81-.09.04.03 4.5 3.55 8.52 5.16 5.38 2.17 9.69 2.46 9.74 2.46.32.02.56.3.54.61-.02.32-.29.56-.61.54Z"/>
    <path fill="#382f2c" d="M449.87 525.97c-.13-.13-.31-.24-.53-.31-1.55-.48-3.54-.01-5.06.61-.85.35-2.46 1.98-.86 1.88 1.36-.09 2.63-.32 4-.2.63.06 1.55.17 2.15-.19.72-.43.82-1.29.3-1.8Zm20.15 1.22c.15-.11.34-.19.57-.22 1.6-.24 3.5.54 4.91 1.39.79.48 2.12 2.34.55 1.99-1.33-.3-2.54-.73-3.92-.82-.63-.04-1.56-.07-2.09-.52-.64-.54-.61-1.41-.01-1.82Z"/>
    <path fill="#b2543b" d="M446.8 538.4c.13-1.49-1.79-1.81-2.9-1.87-.87-.04-1.85.01-2.65.36-1 .44-1.12 1.68 0 2.12 1.23.49 2.45.56 3.77.5.74-.03 1.72-.42 1.78-1.12Zm31.84 2.26c.13-1.49-1.79-1.81-2.9-1.87-.87-.04-1.85.01-2.65.36-1 .44-1.12 1.68 0 2.12 1.23.49 2.45.56 3.77.5.74-.03 1.72-.42 1.78-1.12Z"/>
    <path fill="#066a89" d="M424.69 608.44a.58.58 0 0 1-.5-.35c-.13-.31-3.26-7.53-4.14-12.08-.87-4.47-2.79-12.99-2.81-13.08-.07-.31.13-.62.44-.69s.62.12.69.44c.02.09 1.95 8.62 2.81 13.12.86 4.42 4.04 11.76 4.07 11.84.13.29 0 .63-.3.76-.09.04-.18.05-.27.05Zm27.98-2.52a.59.59 0 0 1-.54-.53c-.01-.12-1.05-11.89-1.64-14.44-1.03-4.42-1.89-10.69-1.9-10.76-.04-.32.18-.61.49-.65.32-.05.61.18.65.49 0 .06.87 6.29 1.88 10.65.61 2.64 1.62 14.12 1.67 14.61.03.32-.21.6-.53.63h-.09Zm8.29-4.23c-.1 0-.2-.04-.29-.1a.57.57 0 0 1-.16-.8c.29-.43 7.15-10.62 10.26-14.18 3.04-3.47 5.81-9.02 5.83-9.08a.58.58 0 1 1 1.04.52c-.12.23-2.86 5.74-6 9.33-3.06 3.5-10.1 13.96-10.17 14.06-.12.18-.32.27-.52.25Z"/>
    <path fill="#7c4f43" d="M457.57 645.03c-.41-1.06-1.41-2.19-1.86-2.74-1-1.22-2.05-2.17-3.36-3.05a.31.31 0 0 0-.27-.05c-1.36-.87-3.52-1.12-4.86-1.39-1.21-.24-3.22-.57-4.66-.23v-.06c.05-.08.09-.16.14-.24.08-.14.02-.33-.14-.37-1.53-.45-2.81 5.15-3.11 6.06-.48 1.44-2.68 7.85-.07 8.48.27.07.55-.02.71-.26.49-.75 1.02-3.41 1.3-4.45.11.75.24 1.48.32 2.14.18 1.4.66 4.28 2.27 4.8.84.27 1.35-.17 1.64-.95.45 1.76 1.22 2.91 2.58 1.8.86-.71.82-2.13.69-3.39.57 1.47 1.43 2.57 2.64 2.21 1.23-.36 1.06-2.25.95-3.21-.12-.96-.56-2.07-.48-3.03.18-1.97 2.16-.82 3.14-.37.76.34 1.44.74 2.23.01.48-.44.46-1.07.2-1.73Z"/>
    <path fill="#5b352e" d="M448.5 650.42a.574.574 0 0 1-.53-.48l-.72-4.17c-.05-.31.16-.61.47-.67.32-.06.62.16.67.47l.72 4.17c.05.32-.16.61-.47.67-.05 0-.09.01-.14 0Zm-3.15 1.77a.574.574 0 0 1-.53-.48l-.8-4.59c-.05-.31.16-.61.47-.67s.62.16.67.47l.8 4.59c.05.31-.16.61-.47.67-.05 0-.09.01-.14 0Z"/>
    <path fill="#7c4f43" d="M488.07 641.05c-.62-1.91-1.46-5.7-3.3-6.79-1.23-.73-3.82-.15-5.22-.08-1.62.08-3.25.2-4.86.39-.04-.28-.1-.56-.22-.86-.09-.22-.38-.11-.41.08-.05.35-.13.67-.22.97-.17.14-.24.38-.21.61-.61 1.47-1.68 2.5-2.61 3.99-.59.94-1.53 2.57-.99 3.71.78 1.65 2.86-.05 4.22-1.56 1.42 1.16 1.49 4.9 1.8 6.33.23 1.05.46 3.19 1.82 3.46 1.13.22 1.4-.76 1.45-1.65.1-1.68.12-3.7-.32-5.39.85.11 1.49 2.56 1.58 2.93.18.82.38 1.63.7 2.41.38.91 1.1 2.13 2.29 1.7.79-.28 1.03-1.06 1.03-1.82 1.03.27 1.7-1.25 1.74-2.2.03-.69-.03-1.39-.11-2.08.38.46.83.74 1.36.65 1.96-.32.81-3.82.49-4.8Z"/>
    <path fill="#5b352e" d="M484.13 648.61a.58.58 0 0 1-.53-.45c0-.04-.85-3.72-1.21-4.81l-.36-1.13a.579.579 0 0 1 1.1-.36l.36 1.13c.37 1.14 1.2 4.76 1.23 4.91.07.31-.12.62-.43.69-.06.01-.11.02-.17.01Zm2.03-4.41a.575.575 0 0 1-.52-.42l-.8-2.76c-.09-.31.09-.63.4-.72s.63.09.72.4l.8 2.76a.58.58 0 0 1-.6.74"/>
    <path fill="#beccea" d="M375.72 642.2c-.14-1.22-.2-2.46-.12-3.69.07-1.08.63-2.18.64-3.18 0-.25-.13-.43-.36-.53-2.27-1.02-6.3-1.68-8.72-.81-2.84 1.02-4.56 4.37-5.97 6.74-3.36 5.61-6.52 11.61-2.93 15.91 1.44 1.72 3.65 2.46 5.81 1.87 2.87-.79 4.87-4.07 6.75-6.14.66-.73 1.3-1.67 2.09-2.27.65-.43 1.33-.77 2.05-1.02.27-.09.53-.19.79-.31.62-.55.8-1 .88-1.82.14-1.44-.75-3.3-.91-4.75"/>
    <path fill="#fff" d="M377.84 646.92c-.08-.38-.29-.71-.68-.88-.04-.02-.09-.02-.13-.04.49-.36.74-1.01.5-1.62-.18-.44-.58-.73-1.03-.81l.02-.02c.26-.25.44-.58.44-.92 0-.27-.11-.5-.27-.69-.13-.22-.32-.4-.55-.51.12-.11.22-.25.29-.41.21-.25.33-.57.31-.93-.02-.46-.28-.84-.63-1.06.56-.31.9-1 .71-1.66-.06-.21-.19-.38-.35-.52.65-.24 1.1-.96.75-1.65-.03-.06-.07-.1-.11-.15 0-.01 0-.03-.01-.04-.4-.81-1.58-.84-2.1-.14-.4.54-.28 1.25.15 1.69-.25.09-.46.26-.6.48-.11.12-.21.25-.27.4-.23.58 0 1.22.47 1.55-.84.45-1.02 1.61-.39 2.32.13.14.27.24.42.31-.3.24-.51.6-.52 1.01-.02.66.46 1.17 1.04 1.33-.03.03-.05.07-.08.1-.23.2-.39.48-.4.82-.03.67.47 1.21 1.09 1.35-.37.3-.6.78-.57 1.27.05.91 1.16 1.78 1.94 1.02.06-.04.12-.1.17-.16.16-.11.3-.26.39-.45.15-.33.13-.68 0-.98Z"/>
    <path fill="#96aacc" d="M405.39 635.55h-.05c-.1-.01-2.42-.36-6.03-1.96-3.58-1.58-8.44-4.81-8.64-4.94a.57.57 0 0 1-.16-.8c.18-.27.54-.34.8-.16.05.03 4.98 3.31 8.47 4.85 3.45 1.52 5.7 1.86 5.73 1.87.32.05.53.34.49.66-.04.3-.31.51-.61.49Z"/>
    <path fill="#96aacc" d="M395.52 635.74c-.16 0-.31-.09-.42-.22l-4.63-5.92c-.2-.25-.15-.62.1-.81.25-.2.62-.15.81.1l4.63 5.92a.574.574 0 0 1-.49.93m-22.87 14.38a.58.58 0 0 1-.45-.26c-.04-.06-1.04-1.59-1.8-3.63-.78-2.1-.71-3.3-.71-3.35.02-.32.29-.56.61-.54s.56.29.54.61c0 0-.04 1.03.64 2.87.71 1.92 1.67 3.39 1.68 3.4.18.27.1.63-.17.8a.56.56 0 0 1-.35.09Z"/>
    <path fill="#5b352e" d="M430.41 539.29c-.1 0-.21-.04-.3-.11-.17-.13-1.05-.9-1.3-3.48-.26-2.74 1.39-4.03 1.46-4.09.25-.19.62-.14.81.11s.14.62-.11.81c-.06.05-1.21.99-1.02 3.06.2 2.08.85 2.67.85 2.67.23.2.28.56.08.81-.12.15-.31.23-.49.22Z"/>
    <circle cx="433.62" cy="526.04" r="4.27" fill="#382f2c"/>
    <circle cx="434.66" cy="519.72" r="4.27" fill="#382f2c"/>
    <circle cx="446.77" cy="509.64" r="4.27" fill="#382f2c"/>
    <circle cx="454.79" cy="508.22" r="4.27" fill="#382f2c"/>
    <circle cx="462.65" cy="509.77" r="4.27" fill="#382f2c"/>
    <circle cx="468.49" cy="511.43" r="4.27" fill="#382f2c"/>
    <circle cx="473.94" cy="516.77" r="4.27" fill="#382f2c"/>
    <circle cx="459.39" cy="505.29" r="4.27" fill="#382f2c"/>
    <circle cx="478.19" cy="519.03" r="3.04" fill="#382f2c"/>
    <circle cx="482.33" cy="523.91" r="3.04" fill="#382f2c"/>
    <circle cx="483.62" cy="529.61" r="3.04" fill="#382f2c"/>
    <circle cx="436.85" cy="514.46" r="3.04" fill="#382f2c"/>
    <circle cx="439.38" cy="512.6" r="4.27" fill="#382f2c"/>
    <path fill="#aa6a59" d="M834.18 792.72c0 .46-.31 20.51 1.5 34.32.17 1.31 1.32 3.54 1.32 4.85 0 9.26 1.4 30.15 0 30.59-2.99.94-24.65-.9-24.65-.9s6.5-23.57 6.5-31.62c0-9.43-3.54-37.24-3.54-37.24h18.86Z"/>
    <path fill="#4f2f25" d="M837 831.77s-1.01 26.73-2.51 27.25c-1.51.52-19.42.22-19.98-.37-.55-.6.56-7.63.56-7.63s-5.31 14.56-4.77 15.57c1.39 2.6 28 2.23 29.57.39 1.27-1.49-2.88-35.2-2.88-35.2Z"/>
    <path fill="#b75c47" d="M834.84 818.28c-.85-12.23-.66-25.18-.66-25.55h-18.86s1.79 14.04 2.82 25.55z"/>
    <path fill="#aa6a59" d="M860.4 792.72c0 .46.31 20.51-1.5 34.32-.17 1.31-1.32 3.54-1.32 4.85 0 9.26-1.4 30.15 0 30.59 2.99.94 24.65-.9 24.65-.9s-6.5-23.57-6.5-31.62c0-9.43 3.54-37.24 3.54-37.24h-18.86Z"/>
    <path fill="#4f2f25" d="M857.58 831.77s1.01 26.73 2.51 27.25 19.42.22 19.98-.37c.55-.6-.56-7.63-.56-7.63s5.31 14.56 4.77 15.57c-1.39 2.6-28 2.23-29.57.39-1.27-1.49 2.88-35.2 2.88-35.2Z"/>
    <path fill="#b75c47" d="M859.74 818.28c.85-12.23.66-25.18.66-25.55h18.86s-1.79 14.04-2.82 25.55z"/>
    <path fill="#ffdcb4" d="M795.3 535.83c-6.12 18.72-3.22 87.11-.43 151.26 2.82 64.79 5.56 125.25 6.31 125.81 2.86 2.16 39.42 1.95 40.37 0 .98-2 5.59-250.02 5.59-250.02l-51.84-27.04Zm103.68 0c6.91 21.2 3.22 87.11.43 151.26-2.82 64.79-5.56 125.25-6.31 125.81-2.86 2.16-39.42 1.95-40.37 0-.98-2-5.59-250.02-5.59-250.02l51.84-27.04Z"/>
    <path fill="#8c5044" d="M859.03 401.34c-1.59-4.35 0-21.07 0-21.07h-23.72s1.59 16.72 0 21.07-14.54 8.96-14.54 8.96.4 9.52 10.23 16.26c7.02 4.81 16.17 4.87 16.17 4.87s9.16-.06 16.17-4.87c9.84-6.74 10.23-16.26 10.23-16.26s-12.95-4.61-14.54-8.96"/>
    <path fill="#ffdcb4" d="M890.05 502.64h-85.7c-12.03 30.78-12.15 55.53-12.15 55.53l55 10.86 55.05-10.99s-.41-22.44-12.2-55.4"/>
    <path fill="#a47764" d="M886.48 482.72c-2.51-5.37 18.08-56.73 13.05-61.74-5.99-5.98-35.59-17.64-38.13-19.72-2.53-2.09-.24-4.28-.24-4.28s3.21-1.69 2.48-4-5.25-2.79-5.25-2.79l-.05 1.7s-3.55 3.27-11.13 3.27-11.23-3.27-11.23-3.27l-.05-1.7s-4.42.48-5.15 2.79 2.48 4 2.48 4 2.29 2.2-.24 4.28c-2.53 2.09-34.6 13.67-39.15 20.64-3.88 5.94 16.59 55.45 14.08 60.83-2.51 5.37-17.6 47.65-16.95 52.24.29 2.05 3.23 4.04 3.23 4.04s30.62 2.8 52.99 2.8 52.65-2.8 52.65-2.8 3.61-3.17 3.58-6.11c-.04-4.64-14.46-44.8-16.97-50.17Z"/>
    <circle cx="803.01" cy="429.14" r="11.66" fill="#2c2b33"/>
    <circle cx="891.16" cy="429.14" r="11.66" fill="#2c2b33"/>
    <circle cx="803.04" cy="429.14" r="11.66" fill="#8e6151"/>
    <path fill="#a47764" d="M792.06 425.23c-4.72 10.89-8.33 30.04-13.43 59.24-5.58 31.99-8.15 54.21-8.04 54.76.11.54 2.23 2.62 2.23 2.62s-.9 6.96-.35 7.5c.54.54 16.18 3.1 16.62 2.26s1.75-8.23 1.75-8.23 3.37-.87 3.7-1.74 5.42-35.69 8.59-54.74c3.88-23.37 10.22-51.96 11.28-55.17 2.21-6.68-18.95-14.37-22.36-6.49Z"/>
    <path fill="#aa6a59" d="M788.62 579.75c-.38-.83 1.91-5.46 1.4-11.59s-4.07-8.02-4.21-8.7c-.11-.53.84-6.56 1.1-8.98 0 0-1.91-1.1-5.4-1.48-3.92-.43-6.03 0-6.03 0-.31 2.42-1 8.18-1.49 9.59-.29.84-6.63 13.2-6.73 13.89-.35 2.31-.98 12.23 3.29 18.1s12.99 4.69 16.19 4.68 2.65-2.82 2.65-2.82 1.15-1.82-.03-3.22c-1.19-1.39-2.97-1.47-2.97-1.47s.24-1.86-1.64-2.56-4.82 1.21-4.82 1.21-2.62-4.11-1.11-7.55 4.25-5.39 4.25-5.39-1.97 8.15 2.16 10.77 7.12-.79 6.81-2.39-3.03-1.28-3.42-2.11Z"/>
    <path fill="#844d42" d="M789.86 591.05c-.58-.53-1.43-1.01-2.72-1.27-.71-.14-1.4-.22-2.06-.24-1.33-.05-2.53.08-3.48.19-.62.07-1.39.16-1.61.07-.48-.22-.98-.49-1.46-.83 3.65-2.29 8.92-.95 8.94-.95.12.04.24.08.36.11-.79-.34-1.45-.37-1.45-.37s.11-.88-.43-1.66c-2.2-.26-5.85-.27-8.66 1.79-1.16-1.25-2.01-3.07-1.94-5.71.09-3.4 4.05-7.42 6.4-9.5-.12.63-.23 1.4-.34 2.28.91-.97 1.63-1.49 1.63-1.49s.42-1.75.54-2.17c-.47-.34-.95-.69-1.41-1.04-1.76 1.41-8.18 6.91-8.31 11.88-.11 4.24 1.85 7.49 5.56 9.16.51.23 1.23.15 2.3.03 1.34-.15 3.17-.35 5.13.04 1.7.34 2.32 1.11 2.55 1.65.01-.34-.03-.58-.03-.58s.38-.61.48-1.4Zm-19.89-7.67-1.47-.19c-.02.16-.22 2.15.52 4.7.26.59.55 1.16.87 1.7.21.34.42.68.65 1 .16.22.33.42.5.62.05.06.1.11.15.17.13.15.27.29.4.42l.15.15c.38.36.78.68 1.2.97.04.02.07.05.11.07.19.13.37.24.57.36l.09.06c.69.4 1.42.72 2.17.98-6.61-4.18-5.95-10.73-5.92-11.01Z"/>
    <path fill="#c17667" d="M773.52 577.17c1.15-.28.66-2.06-.49-1.78-.64.16-1.42.14-1.98-.08 0 0-.02 0-.04-.02.11-.54-.04-1.09-.55-1.39-.75-.44-1.77-.1-2.55.08-.26.06-.59.11-.82.04-.04.54-.07 1.16-.08 1.85.51.05 1.02-.03 1.52-.15.2-.05.41-.1.61-.14.02.23.09.45.21.64.27.43.73.69 1.19.85.95.34 2.01.33 2.98.09Z"/>
    <circle cx="891.25" cy="429.14" r="11.66" fill="#8e6151"/>
    <path fill="#a47764" d="M902.24 425.23c4.72 10.89 7.72 30.04 12.81 59.24 5.58 31.99 8.76 54.21 8.65 54.76-.11.54-2.23 2.62-2.23 2.62s.9 6.96.35 7.5c-.54.54-16.18 3.1-16.62 2.26s-1.75-8.23-1.75-8.23-3.37-.87-3.7-1.74-6.03-35.69-9.2-54.74c-3.88-23.37-9.6-51.96-10.67-55.17-2.21-6.68 18.95-14.37 22.36-6.49Z"/>
    <path fill="#aa6a59" d="M905.68 579.75c.38-.83-1.91-5.46-1.4-11.59s4.07-8.02 4.21-8.7c.11-.53-.59-6.46-.85-8.87 0 0 1.89-1.06 5.38-1.44 3.92-.43 5.62-.08 5.62-.08.31 2.42 1.18 8.12 1.67 9.53.29.84 6.63 13.2 6.73 13.89.35 2.31.98 12.23-3.29 18.1s-12.99 4.69-16.19 4.68-2.65-2.82-2.65-2.82-1.15-1.82.03-3.22c1.19-1.39 2.97-1.47 2.97-1.47s-.24-1.86 1.64-2.56 4.82 1.21 4.82 1.21 2.62-4.11 1.11-7.55-4.25-5.39-4.25-5.39 1.97 8.15-2.16 10.77-7.12-.79-6.81-2.39 3.03-1.28 3.42-2.11Z"/>
    <path fill="#844d42" d="M904.43 591.05c.58-.53 1.43-1.01 2.72-1.27.71-.14 1.4-.22 2.06-.24 1.33-.05 2.53.08 3.48.19.62.07 1.39.16 1.61.07.48-.22.98-.49 1.46-.83-3.65-2.29-8.92-.95-8.94-.95-.12.04-.24.08-.36.11.79-.34 1.45-.37 1.45-.37s-.11-.88.43-1.66c2.2-.26 5.85-.27 8.66 1.79 1.16-1.25 2.01-3.07 1.94-5.71-.09-3.4-4.05-7.42-6.4-9.5.12.63.23 1.4.34 2.28-.91-.97-1.63-1.49-1.63-1.49s-.42-1.75-.54-2.17c.47-.34.95-.69 1.41-1.04 1.76 1.41 8.18 6.91 8.31 11.88.11 4.24-1.85 7.49-5.56 9.16-.51.23-1.23.15-2.3.03-1.34-.15-3.17-.35-5.13.04-1.7.34-2.32 1.11-2.55 1.65-.01-.34.03-.58.03-.58s-.38-.61-.48-1.4Zm19.9-7.67 1.47-.19c.02.16.22 2.15-.52 4.7-.26.59-.55 1.16-.87 1.7-.21.34-.42.68-.65 1-.16.22-.33.42-.5.62-.05.06-.1.11-.15.17-.13.15-.27.29-.4.42l-.15.15c-.38.36-.78.68-1.2.97-.04.02-.07.05-.11.07-.19.13-.37.24-.57.36l-.09.06c-.69.4-1.42.72-2.17.98 6.61-4.18 5.95-10.73 5.92-11.01Z"/>
    <path fill="#c17667" d="M920.78 577.17c-1.15-.28-.66-2.06.49-1.78.64.16 1.42.14 1.98-.08 0 0 .02 0 .04-.02-.11-.54.04-1.09.55-1.39.75-.44 1.77-.1 2.55.08.26.06.59.11.82.04.04.54.07 1.16.08 1.85-.51.05-1.02-.03-1.52-.15-.2-.05-.41-.1-.61-.14-.02.23-.09.45-.21.64-.27.43-.73.69-1.19.85-.95.34-2.01.33-2.98.09Z"/>
    <path fill="#edc298" d="M846.22 611.44h1.84v-52.7c1.87-.72 8.11-3.06 12.42-4.68l-.65-1.73c-8.51 3.19-11.55 4.34-12.69 4.81-1.34-.48-7.59-2.86-11.81-4.47l-.66 1.72s3.03 1.16 6.06 2.3c1.52.58 3.03 1.15 4.17 1.58.54.2.97.36 1.31.48v52.68Z"/>
    <path fill="#8e6151" d="M810.59 445.84c.9-1.4 1.03-1.61 1.03-1.98s-.64-3.17-1.89-8.35l-1.79.43c.79 3.26 1.65 6.92 1.82 7.76-.14.24-.43.7-.72 1.14-1.85 2.88-5.71 8.89-6.09 13.29-.41 4.69 1.68 14.58 2.24 17.11.27-1.47.54-2.93.82-4.39.21.74.4 1.45.59 2.14-.78-3.79-2.13-11.08-1.81-14.7.35-3.95 4.18-9.91 5.81-12.46Zm-13.68 93.4 7.73-48.06c-1.02 2.75-2.17 5.95-3.37 9.35l-6.2 38.55c.45.04 1.07.09 1.84.16m91.84-62.84c.32-2.3 1.77-13.14 1.35-17.92-.38-4.33-3.46-10.5-4.94-13.46-.25-.5-.5-1.01-.62-1.26.16-.88 1.03-4.55 1.82-7.82l-1.79-.43c-1.26 5.17-1.89 7.98-1.89 8.35 0 .32.11.54.83 1.99 1.43 2.86 4.4 8.81 4.75 12.8.44 5.04-1.38 17.79-1.4 17.92l-.02.14.03.18c.29-1.4.67-2.98 1.12-4.71l.75 4.23Zm3.53 21.51c-1.26-3.49-2.44-6.69-3.43-9.28l8.52 50.59c.8-.07 1.42-.12 1.84-.16z"/>
    <path fill="#825745" d="M820.41 343.38c0 .26-1.04 2.03-1.04 2.03s3.88 14.03 4.1 20.09c.23 6.06-1.21 11.51.89 11.51 2.11 0 3.65-1.38 3.65-1.38s2.45 2.85 9.6 2.82 10.21-3.08 10.21-3.08-1.08 2.24 1.8 2.46 5.2-2.1 5.2-2.1.16 2.12 3.86 1.97c3.7-.14 4.37-1.61 4.37-1.61s2.24 2.36 4.22 1.74c3.28-1.03.9-6.08 2.04-14.26.74-5.23 3.71-18.99 3.71-18.99s-5.59-3.49-6-3.49-46.62 2.28-46.62 2.28Z"/>
    <path fill="#aa6a59" d="M868.84 330.09c-2.36-9.87-15.72-15.18-22.51-15.18s-20.15 5.31-22.51 15.18c-1.63 6.81-2.35 19.72-1.56 29.44.06.68.74 1.34.81 1.98.31 2.82.76 5.28 1.37 7.12 2.76 8.28 12.33 18.07 21.89 18.07s19.12-9.79 21.89-18.07c.58-1.74 1.01-4.03 1.32-6.65.06-.53.74-1.08.79-1.64.9-9.8.19-23.24-1.49-30.24Z"/>
    <path fill="#aa6a59" d="M823.93 354.83c.72 5.76-.66 10.43-3.07 10.44s-4.95-4.65-5.66-10.41c-.72-5.76.66-10.43 3.07-10.44s4.95 4.65 5.66 10.41"/>
    <path fill="#844d42" d="M820.05 362.4c-.66-8.71-2.55-14.32-2.56-14.38l1.76-.6c.08.24 1.98 5.9 2.66 14.84z"/>
    <path fill="#844d42" d="m816.705 355.669.68-1.731 3.156 1.24-.68 1.73z"/>
    <path fill="#aa6a59" d="M868.85 354.83c-.72 5.76.66 10.43 3.07 10.44s4.95-4.65 5.66-10.41c.72-5.76-.66-10.43-3.07-10.44s-4.95 4.65-5.66 10.41"/>
    <path fill="#844d42" d="m872.73 362.4-1.86-.14c.68-8.94 2.58-14.6 2.66-14.84l1.76.6c-.02.06-1.91 5.69-2.57 14.38Z"/>
    <path fill="#844d42" d="m872.184 355.259 3.155-1.24.68 1.73-3.155 1.241z"/>
    <path fill="#4f2f25" d="M880.01 318.25c-5.63-6.16-14.97-7.22-14.97-7.22s-1.12-8.43-17.01-10.53c-18.49-2.44-19.61 9.65-19.61 9.65s-13.33 4.19-15.52 14.46c-2.14 10.06 3.9 13 3.38 13.36-.53.35-4.84 3.7-2.86 5.81s6.78 1.59 6.78 1.59l2 8.23h2.13l-1.62-12.99s8.19-.53 8.36-5.11-8.25-8.24 1.61-12.82 27.12-3.64 30.46.24c3.35 3.87-.03 12.92 1.02 13.46 1.06.54 4.58 1.77 4.58 1.77s.38 10.21.11 15.46h2.28c.43-2.51 1.13-5.77 2.27-8.7.09-.22 1.87-.31 1.87-.31 1.7-4.47 2.93-7.41 2.69-9.35-.53-4.23-3.23-6.25-3.23-6.25s10.92-4.58 5.28-10.74Z"/>
    <path fill="#563931" d="M858.29 320.46s.01.09.01.13c.72.18 1.38.38 1.97.6-.28-1.17-.19-3.01 1.57-5.45 1.83-2.52 6.12-3.08 9.56-3.06-2.07-.79-3.9-1.22-5.07-1.45-2.4.51-4.63 1.53-6 3.41-1.27 1.75-1.83 3.3-2 4.6.09-5.19-1.33-13.63-11.08-16.1-5.63-1.43-9.94-1.44-13.09-.93-1.54.85-2.67 1.88-3.5 2.92 2.65-1.11 7.83-2.28 16.13-.18 8.03 2.04 9.64 8.63 9.72 13.27-.83-3.18-3.06-7.07-8.69-10.03-6.14-3.24-13.29-2.3-18.6-.75-.43.93-.63 1.72-.73 2.21 5.08-1.66 12.44-2.99 18.47.19 3.1 1.63 5.05 3.54 6.26 5.4-.24-.27-.49-.53-.79-.78-2.34-2.01-5.73-2.71-10.08-2.09-1.57-.22-15.8-1.87-21.24 8.14-4.93 9.08-3.04 15.73-2.46 17.31-.44.26-.88.44-1.3.47-.43.04-.83-.07-1.21-.25-.28.2-.87.68-1.48 1.29.79.55 1.75.92 2.85.82 1.67-.15 3.24-1.43 4.45-2.62-.45 1.6-.65 3.54.91 4.58l-.19-1.51s.45-.03 1.13-.13c-.65-.66-.19-2.16.39-3.78.42-1.16.69-1.93.11-2.5-.2-.2-.45-.3-.76-.31-.64 0-1.1.49-2.04 1.46-.38.39-.82.84-1.29 1.28-.58-2.01-1.56-7.69 2.53-15.22 3.04-5.6 9.51-7.05 14.15-7.32-5.59 2.92-7.61 8.44-8.33 11.45.5-.67 1.31-1.34 2.53-2.04 1.35-3.56 4.43-8.21 11.39-9.26 3.85-.58 6.78-.03 8.72 1.62 1.42 1.22 2.03 2.82 2.3 3.96 1.74.16 3.36.42 4.77.77v-.13Zm21.72-2.21c-.51-.56-1.05-1.07-1.61-1.55-3.3-.25-7.4 0-10.68 1.98-2.22 1.34-3.58 2.92-4.42 4.44.49.64.83 1.4 1.04 2.24.56-1.62 1.78-3.52 4.35-5.08 3.62-2.19 8.59-1.94 11.81-1.44-.15-.19-.31-.39-.49-.58Zm-4.19 16.66c-1.09-.66-2.3-.82-3.62-.47-2.39.64-3.9 1.99-4.82 3.22.77.28 1.36.49 1.36.49l.03.77c.71-1 1.92-2.15 3.92-2.68.81-.22 1.52-.13 2.16.26 1.18.71 1.88 2.24 2.23 3.24.35-1.02.61-1.91.76-2.7-.5-.81-1.16-1.6-2.02-2.13m-11.29-8.54c.1.71.13 1.45.12 2.19 1.2-1.04 3.59-2.44 7.07-1.41 1.3.38 2.4 1 3.32 1.7.37-.17 1.03-.5 1.8-.96-1.2-1.04-2.71-1.98-4.59-2.53-3.41-1-6.02-.08-7.72 1.01"/>
    <path fill="#996a4a" d="M853.78 301.69c-5.49 3.59-16.8 10.88-24.68 12.06-3.73.56-5.15-.23-5.46-1.49-2.91 1.57-6.48 4.06-8.76 7.63 2.03 1.08 5.75 1.89 12.56 1.1 14.67-1.71 28.9-11.64 33.94-15.48-1.67-1.4-4.09-2.79-7.6-3.82m20.2 16.27c-1.83-1.6-2.18-3.42-1.94-5.02a30.6 30.6 0 0 0-6.41-1.82c-1.05 1.99-2.01 5.08-1.1 8.72 1.14 4.59 8.55 6.8 12.86 7.7 1.81-1.17 3.91-2.99 4.19-5.23-2.15-.82-5.12-2.18-7.61-4.36Z" opacity=".27"/>
    <ellipse cx="835.27" cy="347.39" fill="#423734" rx=".99" ry="4"/>
    <path fill="#423734" d="M858.39 347.39c0 2.21-.44 4-.99 4s-.99-1.79-.99-4 .44-4 .99-4 .99 1.79.99 4"/>
    <path fill="#4f2f25" d="M838.26 334.73c-1.94-.16-3.89-.12-5.82.13-.34.04-.62.11-.88.36-.22.22-.38.57-.36.88.03.6.55 1.33 1.24 1.24 1.93-.25 3.88-.29 5.82-.13.65.05 1.27-.61 1.24-1.24-.03-.72-.55-1.18-1.24-1.24m16.3 0c1.94-.16 3.89-.12 5.82.13.34.04.62.11.88.36.22.22.38.57.36.88-.03.6-.55 1.33-1.24 1.24-1.93-.25-3.88-.29-5.82-.13-.65.05-1.27-.61-1.24-1.24.03-.72.55-1.18 1.24-1.24"/>
    <path fill="#965345" d="M836.03 353.63a.86.86 0 0 0-.24-.41l-.19-.15a1 1 0 0 0-.47-.13l-.77-.06c-.13 0-.25.02-.36.08-.12.04-.22.1-.3.19-.09.08-.16.18-.19.3-.06.11-.09.23-.08.36l.03.25c.04.16.12.29.24.41.06.05.13.1.19.15.15.08.3.13.47.13l.77.06c.13 0 .25-.02.36-.08.12-.04.22-.1.3-.19.09-.08.16-.18.19-.3.06-.11.09-.23.08-.36zm23.51-.54c-.17-.16-.42-.29-.66-.27-.51.05-1.02.09-1.54.14-.13 0-.25.02-.36.08-.12.04-.22.1-.3.19-.16.16-.28.43-.27.66.01.24.09.49.27.66.17.16.42.29.66.27.51-.05 1.02-.09 1.54-.14.13 0 .25-.02.36-.08.12-.04.22-.1.3-.19.16-.16.28-.43.27-.66-.01-.24-.09-.49-.27-.66"/>
    <path fill="#e2d3d9" d="M821.61 365.51c0 1.07-.75 1.93-1.68 1.93s-1.68-.86-1.68-1.93.75-1.93 1.68-1.93 1.68.86 1.68 1.93m48.99 0c0 1.07.75 1.93 1.68 1.93s1.68-.86 1.68-1.93-.75-1.93-1.68-1.93-1.68.86-1.68 1.93m-36.02-7.64h-.14c-3.36 0-5.93-1.21-7.65-3.59-2.7-3.75-2.29-9.17-1.94-10.22.34-1.01 3.15-3.23 9.32-3.25h.57c6.23 0 9.07 2.23 9.41 3.25.35 1.05.76 6.47-1.94 10.22-1.72 2.38-4.29 3.59-7.65 3.59Zm-.29-15.82c-5.53 0-8.04 1.88-8.26 2.41-.27.8-.66 5.73 1.77 9.1 1.47 2.04 3.7 3.08 6.64 3.08h.09c2.97 0 5.2-1.03 6.67-3.07 2.42-3.36 2.03-8.29 1.77-9.1-.22-.53-2.73-2.4-8.23-2.4h-.46Zm24.04 15.82h-.14c-3.36 0-5.93-1.21-7.65-3.59-2.7-3.75-2.29-9.17-1.94-10.22.34-1.01 3.15-3.23 9.32-3.25h.57c6.23 0 9.07 2.23 9.41 3.25.35 1.05.76 6.47-1.94 10.22-1.72 2.38-4.29 3.59-7.65 3.59Zm-8.54-13.42c-.27.81-.66 5.74 1.77 9.1 1.47 2.04 3.7 3.07 6.64 3.07h.09c2.97 0 5.21-1.03 6.67-3.07 2.43-3.37 2.03-8.3 1.77-9.1-.22-.53-2.73-2.4-8.23-2.4h-.46c-5.52 0-8.03 1.87-8.26 2.41Z"/>
    <path fill="#844d42" d="M848.88 361.6c-.33 0-8.15-.06-8.81-4.86-.4-2.92 2.74-5.7 4.62-7.35.28-.25.61-.54.77-.7.06-.8-.14-3.88-.38-6.48l1.85-.17c.59 6.51.35 7.15.28 7.35-.14.38-.48.68-1.29 1.4-1.38 1.22-4.27 3.77-4 5.71.43 3.15 6.9 3.25 6.96 3.25v1.86Z"/>
    <path fill="#e2d3d9" d="m844.23 345.93-.93-.83c.05-.06 1.34-1.48 3.19-1.48s2.97 1.47 3.01 1.53l-1.01.73s-.76-1.01-2.01-1.01-2.26 1.06-2.27 1.07Zm-20.69-1.47-1.26.68v.8l1.57-.24h1.44v-1.24zm46.96.68-1.25-.68h-1.76v1.24h1.45l1.56.23z"/>
    <path fill="#fff" d="M833.19 344.61c0 .97-1 2.08-2.23 2.49s-2.23-.04-2.24-1.01c0-.97 1-2.08 2.23-2.49s2.23.04 2.24 1.01m22.15 0c0 .97-1 2.08-2.23 2.49s-2.23-.04-2.24-1.01c0-.97 1-2.08 2.23-2.49s2.23.04 2.24 1.01"/>
    <path fill="#965345" d="M838.21 370.38c-1.31-2.96 3.93-5.09 8.13-5.09 4.82 0 9.44 1.99 8.22 4.85-.83 1.93-5.67 2.12-8.22 2.12-2.16 0-7.11.41-8.13-1.89Z"/>
    <path fill="#844d42" d="m837.85 371.22-.96-1.32c.13-.09 3.05-2.1 9.49-2.1s9.29 1.9 9.4 1.99l-.94 1.4s-2.82-1.76-8.5-1.76-8.48 1.8-8.48 1.8Z"/>
    <g opacity=".7">
      <rect width="112.03" height="118.53" x="575.66" y="229.9" fill="#ded4db" rx="56.02" ry="56.02" style="mix-blend-mode:multiply"/>
      <path fill="#a47764" d="M687.65 285.8c0-30.94-25.08-56.02-56.02-56.02s-56.02 25.08-56.02 56.02 25.08 56.02 56.02 56.02 56.02-25.08 56.02-56.02"/>
      <path fill="#f2f1f4" d="M683.14 285.8c0-28.44-23.06-51.5-51.5-51.5s-51.5 23.06-51.5 51.5 23.06 51.5 51.5 51.5 51.5-23.06 51.5-51.5"/>
      <path fill="#382f2c" d="m625.089 277.298 1.408-.916 26.932 41.377-1.408.916z"/>
      <path fill="#382f2c" d="m622.718 279.842 1.051-1.31 31.251 25.063-1.05 1.31z"/>
      <path fill="#382f2c" d="M634.29 285.8c0-1.47-1.19-2.66-2.66-2.66s-2.66 1.19-2.66 2.66 1.19 2.66 2.66 2.66 2.66-1.19 2.66-2.66"/>
      <path fill="#a47764" d="M652.32 253.48v-8.26h-1.88v-1.01h2.93v9.26h-1.05Zm17.59 9.06c0 .89-.66 1.96-1.64 3l-2.85 3.02h5.02v1.01h-6.37v-.87l3.47-3.77c.78-.78 1.27-1.64 1.27-2.24 0-.9-.69-1.44-1.85-1.44-.85 0-1.79.44-2.53 1.15l-.46-.85c.9-.81 2.03-1.28 3.13-1.28 1.71 0 2.82.89 2.82 2.28Zm3.88 22.55c1.67.08 2.79.98 2.79 2.46 0 1.71-1.26 2.9-3.24 2.9-1.07 0-2.17-.38-2.94-.94l.46-.89c.66.54 1.53.87 2.4.87 1.44 0 2.29-.78 2.29-1.9s-.86-1.76-2.3-1.76h-1.14v-.68l2.71-3h-4.01v-1.01h5.33v.71l-2.87 3.19.52.04Zm-4.96 22.77v-2.45h.99v2.45h1.4v1.02h-1.4v2.44h-.99v-2.44h-4.45v-.87l3.32-5.96h1.05l-3.23 5.81zm-17.87 10.48v2.61c.48-.08 1.14-.13 1.56-.13 1.95 0 3.19 1.15 3.19 2.74 0 1.85-1.28 3.06-3.27 3.06-1.02 0-2.25-.4-3.12-1.01l.44-.9c.77.58 1.75.93 2.58.93 1.39 0 2.25-.77 2.25-2.01 0-1.1-.86-1.79-2.22-1.79-.61 0-1.72.09-2.38.23v-4.74h5.37v1.02h-4.4Zm-16.44 5.13-.42.85c-.61-.36-1.42-.57-2.13-.57-1.98 0-2.98 1.63-2.83 4.13.41-1.08 1.4-1.69 2.77-1.69 1.81 0 2.94 1.13 2.94 2.91 0 1.89-1.23 3.07-3.14 3.07-2.25 0-3.61-1.63-3.61-4.49s1.45-4.87 3.81-4.87c.85 0 1.87.27 2.62.66Zm-5.13 5.69c-.01.89.68 2.03 2.25 2.03 1.31 0 2.21-.79 2.21-2.1 0-1.23-.82-2-2.13-2-1.47 0-2.34.98-2.33 2.08Zm-19.27-2.56h-1.13l3.81-8.24h-4.32v1.35h-.95v-2.37h6.43v.89l-3.85 8.38Zm-11.68-22.27c0 .95-.57 1.65-1.51 2.02 1.2.36 1.95 1.19 1.95 2.36 0 1.65-1.31 2.65-3.4 2.65s-3.43-.99-3.43-2.62c0-1.18.77-2.02 2-2.38-.97-.38-1.55-1.1-1.55-2.05 0-1.44 1.15-2.3 2.96-2.3s2.98.87 2.98 2.33Zm-5.38 4.29c0 1.17.9 1.84 2.42 1.84s2.41-.67 2.41-1.84c0-1.1-.9-1.76-2.42-1.76s-2.41.66-2.41 1.76m.35-4.22c0 .99.77 1.58 2.06 1.58s2.05-.58 2.05-1.58-.77-1.57-2.05-1.57-2.06.58-2.06 1.57m-6.6-14.58.42-.85c.61.36 1.42.57 2.13.57 1.98 0 2.98-1.63 2.83-4.13-.41 1.09-1.4 1.69-2.77 1.69-1.81 0-2.94-1.13-2.94-2.91 0-1.89 1.23-3.07 3.14-3.07 2.25 0 3.61 1.63 3.61 4.47s-1.46 4.88-3.81 4.88c-.85 0-1.87-.27-2.62-.66Zm5.15-5.69c0-.89-.67-2.02-2.26-2.02-1.31 0-2.21.78-2.21 2.1 0 1.23.82 2 2.13 2 1.47 0 2.34-.98 2.34-2.08m.38-14.07v-8.26h-1.88v-1.01h2.92v9.27h-1.05Zm11.3-4.63c0 2.99-1.36 4.66-3.82 4.66s-3.82-1.67-3.82-4.66 1.36-4.66 3.82-4.66 3.82 1.67 3.82 4.66m-6.58 0c0 2.5.95 3.76 2.75 3.76s2.75-1.26 2.75-3.76-.95-3.76-2.75-3.76-2.75 1.24-2.75 3.76m10.84-10.57v-8.26h-1.88v-1.01h2.93v9.27zm6.54 0v-8.26h-1.88v-1.01h2.92v9.27h-1.05Zm13.05-6v-8.26h-1.88v-1.01h2.92v9.27h-1.05Zm9.64-7.02c0 .89-.66 1.96-1.64 3l-2.85 3.02h5.02v1.01h-6.37V248l3.47-3.77c.78-.78 1.27-1.64 1.27-2.24 0-.9-.69-1.44-1.85-1.44-.85 0-1.79.44-2.53 1.15l-.46-.85c.9-.81 2.03-1.28 3.12-1.28 1.71 0 2.82.89 2.82 2.28Zm-40.81 57.69 52.49-19.43c.38-.14.82-.03 1.09.28.7.82 1.85 1.16 2.92.76a2.65 2.65 0 0 0 1.57-3.41 2.65 2.65 0 0 0-3.41-1.57c-1.07.4-1.73 1.42-1.72 2.5 0 .41-.25.78-.64.93l-52.48 19.43c-.14.05-.21.21-.16.35s.21.22.35.16Z"/>
      <path fill="#a47764" d="M633.39 285.8c0-.97-.79-1.75-1.76-1.75s-1.75.79-1.75 1.75.79 1.76 1.75 1.76 1.76-.79 1.76-1.76"/>
    </g>
  </g>
</svg>
