<svg xmlns="http://www.w3.org/2000/svg" viewBox="0 0 256.613 264.833">
  <rect width="256.613" height="264.833" fill="#fff2e1" rx="10" ry="10"/>
  <path fill="#8c5044" d="M141.95 161.952c-2.03-5.545 0-26.852 0-26.852h-30.238s2.029 21.307 0 26.852-18.535 11.422-18.535 11.422.504 12.131 13.039 20.727c8.94 6.13 20.615 6.207 20.615 6.207s11.674-.076 20.614-6.207c12.535-8.596 13.04-20.727 13.04-20.727s-16.507-5.877-18.536-11.422Z"/>
  <path fill="#a47764" d="M193.571 186.985c-7.635-7.615-45.364-22.479-48.593-25.138s-.31-5.46-.31-5.46 4.088-2.152 3.156-5.093-6.688-3.551-6.688-3.551l-.061 2.167s-4.52 4.173-14.183 4.173-14.308-4.173-14.308-4.173l-.061-2.167s-5.631.61-6.564 3.551c-.932 2.94 3.156 5.093 3.156 5.093s2.92 2.801-.31 5.46c-3.228 2.66-44.094 17.419-49.9 26.3-4.787 7.324 19.49 66.66 18.165 76.686h99.645c-1.33-10.145 23.053-71.668 16.856-77.848"/>
  <path fill="#2c2b33" d="M70.547 182.522c-8.208 0-14.862 6.655-14.862 14.864s6.654 14.862 14.862 14.862 14.863-6.654 14.863-14.862-6.654-14.864-14.863-14.864m112.359 0c-8.209 0-14.863 6.655-14.863 14.864s6.654 14.862 14.863 14.862 14.862-6.654 14.862-14.862-6.654-14.864-14.862-14.864"/>
  <path fill="#8e6151" d="M70.594 182.522c-8.209 0-14.863 6.655-14.863 14.864s6.654 14.862 14.863 14.862 14.863-6.654 14.863-14.862-6.655-14.864-14.863-14.864"/>
  <path fill="#a47764" d="M56.592 192.395c-5.846 13.49-10.367 36.95-16.578 72.438H71.76c4.967-28.433 12.064-60.352 13.329-64.165 2.822-8.511-24.148-18.309-28.497-8.273"/>
  <path fill="#8e6151" d="M183.02 182.522c-8.209 0-14.863 6.655-14.863 14.864s6.654 14.862 14.863 14.862 14.863-6.654 14.863-14.862-6.655-14.864-14.863-14.864"/>
  <path fill="#a47764" d="M168.525 200.668c1.264 3.813 7.682 35.732 12.556 64.165h31.738c-6.17-35.488-9.952-58.947-15.798-72.438-4.348-10.036-31.319-.238-28.496 8.273"/>
  <path fill="#8e6151" d="M76.834 206.055c1.008 4.154 2.106 8.818 2.314 9.895-.182.31-.552.886-.913 1.447-2.36 3.676-7.273 11.324-7.767 16.94-.526 5.976 2.14 18.582 2.854 21.809q.517-2.805 1.048-5.6.396 1.411.746 2.732c-.994-4.836-2.714-14.122-2.308-18.735.443-5.04 5.32-12.633 7.403-15.877 1.143-1.778 1.318-2.052 1.318-2.527 0-.465-.812-4.044-2.413-10.638zm98.42 11.575c-.316-.636-.642-1.289-.786-1.61.205-1.118 1.306-5.798 2.318-9.965l-2.282-.555c-1.601 6.594-2.413 10.174-2.413 10.639 0 .41.141.693 1.062 2.539 1.82 3.646 5.605 11.234 6.052 16.31.564 6.42-1.758 22.672-1.782 22.835l-.026.181.038.225c.369-1.78.853-3.796 1.429-6.002q.485 2.695.96 5.39c.409-2.932 2.256-16.743 1.72-22.835-.486-5.52-4.406-13.377-6.29-17.153Z"/>
  <path fill="#825745" d="M92.727 88.079c0 .328-1.324 2.591-1.324 2.591s4.944 17.882 5.232 25.61c.288 7.73-1.548 14.668 1.14 14.668s4.655-1.759 4.655-1.759 3.123 3.632 12.237 3.594c9.114-.037 13.007-3.921 13.007-3.921s-1.377 2.85 2.295 3.13 6.622-2.671 6.622-2.671.2 2.7 4.918 2.515c4.719-.184 5.573-2.057 5.573-2.057s2.86 3.005 5.376 2.214c4.183-1.315 1.142-7.752 2.606-18.172.936-6.67 4.725-24.198 4.725-24.198s-7.13-4.447-7.645-4.447-59.417 2.903-59.417 2.903"/>
  <path fill="#aa6a59" d="M125.774 51.804c-8.65 0-25.677 6.765-28.685 19.344-2.077 8.684-2.995 25.13-1.987 37.515.07.861.94 1.703 1.03 2.521.39 3.593.966 6.73 1.748 9.073 3.521 10.553 15.718 23.034 27.894 23.034s24.372-12.481 27.893-23.034c.739-2.214 1.294-5.136 1.682-8.48.079-.68.942-1.375 1.008-2.085 1.147-12.488.236-29.617-1.899-38.544-3.007-12.579-20.035-19.344-28.684-19.344"/>
  <path fill="#aa6a59" d="M89.993 89.405c-3.073.013-4.824 5.971-3.911 13.309s4.144 13.275 7.217 13.263 4.824-5.972 3.911-13.31-4.144-13.275-7.217-13.262"/>
  <path fill="#844d42" d="M89 94c.023.072 2.43 7.226 3.268 18.322l2.367-.179c-.86-11.395-3.286-18.607-3.39-18.909z"/>
  <path fill="#844d42" d="m88.069 103.796.868-2.21 4.027 1.582-.869 2.21z"/>
  <path fill="#aa6a59" d="M161.685 89.405c-3.074-.013-6.305 5.925-7.218 13.262s.839 13.297 3.912 13.31 6.304-5.925 7.217-13.263-.838-13.297-3.911-13.31"/>
  <path fill="#844d42" d="m157.043 112.143 2.367.179c.836-11.07 3.245-18.25 3.27-18.322l-2.248-.766c-.103.302-2.529 7.514-3.39 18.91Z"/>
  <path fill="#844d42" d="m158.715 103.169 4.026-1.583.868 2.209-4.026 1.583z"/>
  <path fill="#4f2f25" d="M149.62 46.852s-1.433-10.745-21.681-13.421c-23.562-3.114-24.992 12.3-24.992 12.3S85.953 51.067 83.16 64.162c-2.734 12.82 4.976 16.572 4.302 17.021-.673.449-6.167 4.712-3.644 7.405s8.643 2.026 8.643 2.026l2.55 10.495h2.712l-2.07-16.56s10.434-.673 10.658-6.508c.225-5.834-10.51-10.507 2.055-16.341 12.566-5.834 34.561-4.636 38.825.3s-.04 16.462 1.305 17.15c1.347.687 5.834 2.257 5.834 2.257s.482 13.016.136 19.702h2.91c.548-3.193 1.445-7.352 2.891-11.093.11-.284 2.378-.397 2.378-.397 2.17-5.698 3.738-9.45 3.43-11.916-.673-5.386-4.115-7.964-4.115-7.964s13.912-5.834 6.732-13.688c-7.181-7.853-19.074-9.2-19.074-9.2Z"/>
  <path fill="#563931" d="M143.628 51.47c-1.62 2.236-2.338 4.204-2.555 5.862.12-6.61-1.694-17.37-14.12-20.523-7.174-1.821-12.664-1.836-16.68-1.191-1.964 1.087-3.408 2.398-4.464 3.716 3.375-1.413 9.982-2.91 20.56-.224 10.24 2.599 12.288 11.001 12.394 16.911-1.053-4.06-3.906-9.008-11.07-12.784-7.823-4.124-16.943-2.935-23.709-.956a13 13 0 0 0-.933 2.81c6.479-2.114 15.848-3.807 23.535.246 3.948 2.081 6.432 4.507 7.98 6.878-.305-.342-.63-.678-1.002-.997-2.981-2.566-7.304-3.454-12.841-2.657-2.006-.277-20.138-2.389-27.075 10.379-6.29 11.576-3.869 20.054-3.132 22.065-.562.329-1.124.556-1.662.603-.546.048-1.06-.085-1.537-.32-.356.26-1.112.86-1.886 1.643 1.01.701 2.225 1.168 3.632 1.042 2.133-.188 4.126-1.828 5.676-3.343-.574 2.04-.832 4.506 1.155 5.842l-.24-1.922s.57-.038 1.443-.168c-.83-.836-.248-2.751.493-4.818.53-1.477.88-2.454.144-3.19-.259-.259-.577-.388-.974-.397-.81.007-1.407.625-2.597 1.856a39 39 0 0 1-1.648 1.633c-.734-2.563-1.992-9.8 3.219-19.392 3.88-7.143 12.114-8.99 18.03-9.335-7.119 3.72-9.704 10.75-10.612 14.595.641-.85 1.671-1.714 3.218-2.604 1.72-4.542 5.64-10.462 14.512-11.8 4.905-.739 8.644-.042 11.113 2.07 1.815 1.552 2.592 3.597 2.927 5.047 2.221.208 4.28.539 6.075.982.003-.056.009-.106.012-.163.003.06.015.112.02.17q1.37.343 2.515.769c-.357-1.488-.245-3.835 2.006-6.941 2.332-3.216 7.805-3.93 12.18-3.899a39.7 39.7 0 0 0-6.457-1.842c-3.053.65-5.903 1.944-7.645 4.348Zm23.012 2.609c-4.207-.325-9.433-.01-13.61 2.524-2.825 1.713-4.567 3.724-5.637 5.656.63.817 1.054 1.789 1.323 2.851.717-2.058 2.265-4.488 5.545-6.477 4.608-2.794 10.948-2.472 15.052-1.839a11 11 0 0 0-.62-.742 23 23 0 0 0-2.053-1.973m-3.289 23.201c-1.386-.843-2.936-1.045-4.607-.599-3.045.813-4.965 2.53-6.145 4.106.979.357 1.733.621 1.733.621l.033.981c.91-1.276 2.454-2.737 4.99-3.414 1.033-.277 1.936-.168 2.757.33 1.498.908 2.395 2.86 2.845 4.13.444-1.296.78-2.44.973-3.44-.64-1.036-1.475-2.044-2.579-2.715m-14.384-10.877c.127.904.171 1.846.158 2.793 1.53-1.323 4.573-3.104 9.006-1.802a13 13 0 0 1 4.23 2.166c.47-.218 1.31-.634 2.29-1.22-1.534-1.328-3.458-2.52-5.851-3.224-4.348-1.276-7.67-.097-9.833 1.287"/>
  <path fill="#996a4a" d="M103.797 50.316c-4.75.712-6.563-.298-6.956-1.896-3.709 2-8.264 5.178-11.168 9.725 2.59 1.375 7.332 2.41 16.012 1.397 18.704-2.184 36.835-14.83 43.254-19.727-2.128-1.78-5.217-3.552-9.684-4.868-6.991 4.581-21.417 13.863-31.458 15.369m54.736-1.035c-3.593-1.462-6.771-2.093-8.163-2.32-1.333 2.535-2.56 6.47-1.403 11.117 1.458 5.853 10.9 8.663 16.395 9.818 2.304-1.492 4.983-3.812 5.34-6.664-2.737-1.05-6.523-2.778-9.698-5.551-2.335-2.04-2.774-4.361-2.47-6.4" opacity=".27"/>
  <path fill="#423734" d="M111.674 88.088c-.696 0-1.26 2.285-1.26 5.104s.564 5.104 1.26 5.104 1.262-2.286 1.262-5.104-.565-5.104-1.262-5.104m28.199 0c-.695 0-1.258 2.285-1.258 5.104s.563 5.104 1.258 5.104 1.259-2.286 1.259-5.104-.564-5.104-1.259-5.104"/>
  <path fill="#4f2f25" d="M115.482 77.05a35 35 0 0 0-7.414.165c-.437.057-.795.14-1.12.464-.274.274-.48.724-.463 1.119.034.766.703 1.696 1.583 1.582a35 35 0 0 1 7.414-.164c.827.07 1.619-.778 1.583-1.582-.041-.918-.697-1.508-1.583-1.583m28.188.164a35 35 0 0 0-7.414-.164c-.886.075-1.542.665-1.583 1.583-.036.804.756 1.652 1.583 1.582a35 35 0 0 1 7.415.165c.879.113 1.548-.817 1.582-1.583.018-.395-.189-.845-.463-1.12-.325-.324-.683-.406-1.12-.463"/>
  <path fill="#965345" d="m112.336 100.614-.24-.186a1.2 1.2 0 0 0-.6-.162l-.978-.075a.9.9 0 0 0-.458.102.9.9 0 0 0-.382.245.9.9 0 0 0-.245.383.9.9 0 0 0-.102.457l.042.316q.084.3.305.523l.24.186q.278.16.6.162l.979.076a.9.9 0 0 0 .457-.103.9.9 0 0 0 .382-.245.9.9 0 0 0 .245-.382.9.9 0 0 0 .102-.457l-.042-.316a1.2 1.2 0 0 0-.305-.524m29.424-.511-1.958.174a.9.9 0 0 0-.457.102.9.9 0 0 0-.382.246c-.206.205-.36.543-.348.84.014.306.115.624.348.838.22.202.53.375.84.348l1.956-.174a.9.9 0 0 0 .457-.102.9.9 0 0 0 .382-.245c.206-.206.361-.544.348-.84-.014-.307-.114-.625-.348-.839-.22-.202-.529-.375-.839-.348Z"/>
  <path fill="#e2d3d9" d="M92.12 113.821c-1.18 0-2.137 1.101-2.137 2.46s.957 2.46 2.137 2.46 2.136-1.102 2.136-2.46-.957-2.46-2.136-2.46m66.715 0c-1.18 0-2.136 1.101-2.136 2.46s.956 2.46 2.136 2.46 2.136-1.102 2.136-2.46-.956-2.46-2.136-2.46M111.012 84.8H111l-.715.003c-7.864.024-11.454 2.849-11.885 4.141-.445 1.336-.974 8.25 2.467 13.025 2.188 3.037 5.469 4.576 9.749 4.576h.173c4.279 0 7.558-1.539 9.747-4.575 3.44-4.774 2.913-11.69 2.467-13.026-.433-1.299-4.053-4.143-11.99-4.143Zm8.239 16.244c-1.872 2.598-4.715 3.916-8.506 3.916h-.012l-.119.003c-3.742 0-6.59-1.32-8.464-3.92-3.093-4.291-2.59-10.576-2.251-11.593.28-.677 3.476-3.067 10.524-3.067h.011l.564.002h.019c7.004 0 10.2 2.384 10.485 3.064.341 1.034.838 7.31-2.251 11.595M141.285 84.8h-.013l-.724.003c-7.857.026-11.444 2.849-11.875 4.141-.446 1.336-.974 8.252 2.467 13.026 2.189 3.036 5.468 4.575 9.748 4.575h.173c4.28 0 7.559-1.539 9.747-4.575 3.441-4.774 2.913-11.69 2.468-13.026-.433-1.299-4.053-4.143-11.99-4.143Zm8.24 16.244c-1.873 2.598-4.716 3.916-8.507 3.916h-.012l-.118.003c-3.742 0-6.59-1.319-8.464-3.919-3.09-4.286-2.592-10.56-2.251-11.595.285-.68 3.483-3.066 10.524-3.066h.01l.565.002h.018c7.01 0 10.207 2.389 10.484 3.06.341 1.023.843 7.308-2.25 11.6Z"/>
  <path fill="#844d42" d="M120.139 104.79c-.337-2.468 3.337-5.713 5.102-7.272 1.035-.913 1.463-1.292 1.645-1.78.099-.264.4-1.071-.353-9.372l-2.364.214c.3 3.317.556 7.249.483 8.264-.204.207-.63.583-.983.895-2.39 2.111-6.39 5.645-5.883 9.371.834 6.125 10.803 6.195 11.227 6.195l.001-2.374c-.083 0-8.328-.126-8.875-4.14"/>
  <path fill="#e2d3d9" d="M125.977 88.384c-2.357 0-3.998 1.808-4.066 1.884l1.179 1.057c.012-.014 1.25-1.359 2.887-1.359 1.582 0 2.519 1.243 2.555 1.292l1.284-.925c-.057-.08-1.432-1.95-3.84-1.95Zm-30.863 1.943v1.01l2.002-.296h1.837v-1.582h-2.239zm57.625-.868v1.582h1.837l1.989.288V90.32l-1.587-.861z"/>
  <path fill="#fff" d="M106.166 88.367c-1.571.52-2.843 1.94-2.841 3.17s1.277 1.805 2.848 1.284c1.572-.52 2.844-1.94 2.842-3.17s-1.278-1.805-2.849-1.284m28.231 0c-1.571.52-2.844 1.94-2.841 3.17s1.277 1.805 2.848 1.284c1.572-.52 2.844-1.94 2.842-3.17-.003-1.23-1.278-1.805-2.85-1.284"/>
  <path fill="#965345" d="M125.774 116.005c-5.359 0-12.035 2.709-10.364 6.48 1.302 2.94 7.615 2.411 10.364 2.411 3.25 0 9.416-.242 10.471-2.708 1.563-3.653-4.324-6.184-10.471-6.184"/>
  <path fill="#844d42" d="m113.74 121.876 1.222 1.682s3.51-2.295 10.812-2.295c7.239 0 10.815 2.23 10.833 2.244l1.201-1.78c-.141-.113-3.747-2.53-11.98-2.53-8.201 0-11.926 2.56-12.089 2.679"/>
</svg>
