<svg xmlns="http://www.w3.org/2000/svg" data-name="Layer 2" viewBox="0 0 61 61">
  <rect width="60" height="60" x=".5" y=".5" fill="#fff" stroke="#a47764" stroke-miterlimit="10" rx="10" ry="10"/>
  <g fill="#a47764">
    <path d="M48.87 23.04h-12.8c-.34 0-.61.27-.61.61v20.48c0 .34.27.61.61.61h5.12c4.57 0 8.29-3.72 8.29-8.29v-12.8c0-.34-.27-.61-.61-.61m-.61 13.41c0 3.9-3.17 7.07-7.07 7.07h-4.51V24.26h11.58z"/>
    <path d="m48.09 23.3-.18-.27H36.74v.61c0 .34.27.61.61.61h10.24c.23 0 .44-.12.54-.33.11-.2.09-.45-.04-.63Z"/>
    <path d="M46.43 23.04h-8.47v-6.97h3.67l3.92 5.69zM36.07 34.56h-4.99c-.34 0-.61.27-.61.61v7.68c0 .34.27.61.61.61h4.99c.34 0 .61-.27.61-.61v-7.68c0-.34-.27-.61-.61-.61m-.61 7.68h-3.77v-6.46h3.77z"/>
    <path d="M31.69 35.78h3.77v6.46h-3.77zm13.75-20.32v3.99l-2.98-4.33a.61.61 0 0 0-.5-.27h-2.32c.23-.48.73-.82 1.3-.82h3.07c.79 0 1.44.64 1.44 1.44ZM27.75 39.62h-2.82c-.34 0-.61-.27-.61-.61s.27-.61.61-.61h2.82c.34 0 .61.27.61.61s-.27.61-.61.61m-6.4 0h-2.82c-.34 0-.61-.27-.61-.61s.27-.61.61-.61h2.82c.34 0 .61.27.61.61s-.27.61-.61.61m-6.4 0h-2.82c-.34 0-.61-.27-.61-.61s.27-.61.61-.61h2.82c.34 0 .61.27.61.61s-.27.61-.61.61m10.51 4.05a.61.61 0 0 1-.16-1.2l2.72-.73c.33-.09.66.11.75.43.09.33-.11.66-.43.75l-2.72.73c-.05.01-.11.02-.16.02m-6.18 1.65a.61.61 0 0 1-.16-1.2l2.72-.73c.33-.09.66.11.75.43.09.33-.11.66-.43.75l-2.72.73c-.05.01-.11.02-.16.02m-6.18 1.66a.61.61 0 0 1-.16-1.2l2.72-.73c.33-.09.66.11.75.43.09.33-.11.66-.43.75l-2.72.73c-.05.01-.11.02-.16.02m15.08-10.67c-.05 0-.11 0-.16-.02l-2.72-.73a.606.606 0 0 1-.43-.75c.09-.33.42-.52.75-.43l2.72.73c.33.09.52.42.43.75a.61.61 0 0 1-.59.45M22 34.65c-.05 0-.11 0-.16-.02l-2.72-.73a.606.606 0 0 1-.43-.75c.09-.33.42-.52.75-.43l2.72.73c.33.09.52.42.43.75a.61.61 0 0 1-.59.45M15.82 33c-.05 0-.11 0-.16-.02l-2.72-.73a.606.606 0 0 1-.43-.75c.09-.33.42-.52.75-.43l2.72.73c.33.09.52.42.43.75a.61.61 0 0 1-.59.45"/>
  </g>
</svg>
