<svg xmlns="http://www.w3.org/2000/svg" xmlns:xlink="http://www.w3.org/1999/xlink" data-name="Layer 2" viewBox="0 0 645.49 364.11">
  <defs>
    <symbol id="b" viewBox="0 0 49.27 49.27">
      <g data-name="Isolation Mode">
        <circle cx="24.63" cy="24.63" r="24.13" fill="#00949c" stroke="#fff" stroke-miterlimit="10"/>
        <path fill="#fff" d="M21.86 33.81c-.53 0-1.04-.21-1.41-.59l-5.86-5.86a.284.284 0 0 1 0-.4l2.43-2.43c.11-.11.29-.11.4 0l4.44 4.44 11.55-11.55c.11-.11.29-.11.4 0l2.43 2.43c.11.11.11.29 0 .4L23.28 33.21c-.38.38-.88.59-1.41.59Z"/>
      </g>
    </symbol>
    <filter id="a" width="645.49" height="364.11" x="0" y="0" filterUnits="userSpaceOnUse">
      <feOffset dx="-5" dy="5"/>
      <feGaussianBlur result="blur" stdDeviation="0"/>
      <feFlood flood-color="#b7a09a" flood-opacity=".2"/>
      <feComposite in2="blur" operator="in"/>
      <feComposite in="SourceGraphic"/>
    </filter>
  </defs>
  <rect width="639.49" height="358.11" x="5.5" y=".5" fill="#fff" stroke="#a47764" stroke-miterlimit="10" filter="url(#a)" rx="10" ry="10"/>
  <path fill="#fff" stroke="#382f2c" stroke-miterlimit="10" d="M529.56 153.29v-18.65c-10.3 0-18.65 8.35-18.65 18.65h-87.38V43.36h193.41v109.93zm-193.42 0v-18.65c-10.3 0-18.65 8.35-18.65 18.65h-87.38V43.36h193.41v109.93z"/>
  <path fill="#fff" stroke="#382f2c" stroke-miterlimit="10" d="M142.73 153.29h87.38V43.36H36.7v109.93h87.38c0-10.3 8.35-18.65 18.65-18.65v18.65h174.76"/>
  <path fill="none" stroke="#382f2c" stroke-miterlimit="10" d="M336.14 153.29h174.77"/>
  <text fill="#1e1e1e" font-family="OpenSans-SemiBold,&quot;Open Sans&quot;" font-size="18" font-weight="600" transform="translate(107.6 96.09)"><tspan x="0" y="0">Kelvin’s </tspan><tspan x="0" y="18">Exam Room</tspan></text>
  <text fill="#1e1e1e" font-family="OpenSans-SemiBold,&quot;Open Sans&quot;" font-size="18" font-weight="600" transform="translate(301.02 96.08)"><tspan x="0" y="0">Sharese’s </tspan><tspan x="0" y="18">Exam Room</tspan></text>
  <text fill="#1e1e1e" font-family="OpenSans-SemiBold,&quot;Open Sans&quot;" font-size="18" font-weight="600" transform="translate(494.43 96.02)"><tspan x="0" y="0">Ivan’s </tspan><tspan x="0" y="18">Exam Room</tspan></text>
  <path fill="none" stroke="#382f2c" stroke-linejoin="round" d="M141.48 263.22v-18.65c-10.3 0-18.65 8.35-18.65 18.65"/>
  <path fill="none" stroke="#382f2c" stroke-linejoin="round" stroke-width="2" d="M122.83 263.22H36.7V43.36h580.24v219.86H141.48"/>
  <text fill="#382f2c" font-family="OpenSans-SemiBold,&quot;Open Sans&quot;" font-size="18" font-weight="600" transform="translate(287.75 211.89)"><tspan x="0" y="0">Waiting Room</tspan></text>
  <g stroke="#382f2c" stroke-miterlimit="10">
    <rect width="128.26" height="6.3" x="433.01" y="260.07" fill="#fff" rx=".2" ry=".2"/>
    <path fill="none" d="M433.01 263.1h128.26"/>
  </g>
  <g stroke="#382f2c" stroke-miterlimit="10">
    <rect width="45.42" height="6.3" x="14" y="202.82" fill="#fff" rx=".2" ry=".2" transform="rotate(-90 36.705 205.975)"/>
    <path fill="none" d="M36.59 228.68v-45.41"/>
  </g>
  <g stroke="#382f2c" stroke-miterlimit="10">
    <rect width="45.42" height="6.3" x="14" y="95.1" fill="#fff" rx=".2" ry=".2" transform="rotate(-90 36.7 98.25)"/>
    <path fill="none" d="M36.59 120.96V75.54"/>
  </g>
  <g stroke="#382f2c" stroke-miterlimit="10">
    <rect width="70.13" height="6.3" x="97.09" y="40.21" fill="#fff" rx=".2" ry=".2"/>
    <path fill="none" d="M97.09 43.24h70.13"/>
  </g>
  <g stroke="#382f2c" stroke-miterlimit="10">
    <rect width="70.13" height="6.3" x="291.75" y="40.21" fill="#fff" rx=".2" ry=".2"/>
    <path fill="none" d="M291.75 43.24h70.13"/>
  </g>
  <g stroke="#382f2c" stroke-miterlimit="10">
    <rect width="70.13" height="6.3" x="483.47" y="40.21" fill="#fff" rx=".2" ry=".2"/>
    <path fill="none" d="M483.47 43.24h70.13"/>
  </g>
  <g stroke="#382f2c" stroke-miterlimit="10">
    <rect width="128.26" height="6.3" x="262.69" y="260.07" fill="#fff" rx=".2" ry=".2"/>
    <path fill="none" d="M262.69 263.1h128.26"/>
  </g>
  <text fill="#382f2c" font-family="RobotoCondensed-Medium,&quot;Roboto Condensed&quot;" font-size="22.5" font-weight="500" letter-spacing="-.02em" transform="translate(60.7 324.7)"><tspan x="0" y="0">CLICK </tspan></text>
  <text fill="#382f2c" font-family="RobotoCondensed-Medium,&quot;Roboto Condensed&quot;" font-size="22.5" font-weight="500" transform="translate(159.27 324.7)"><tspan x="0" y="0" letter-spacing="-.03em">T</tspan><tspan x="11.34" y="0" letter-spacing="-.02em">O GO B</tspan><tspan x="72.48" y="0" letter-spacing="-.02em">A</tspan><tspan x="85.19" y="0" letter-spacing="-.02em">CK</tspan><tspan x="109.69" y="0" letter-spacing="-.04em"> </tspan><tspan x="113.96" y="0" letter-spacing="-.03em">T</tspan><tspan x="125.3" y="0" letter-spacing="-.01em">O</tspan><tspan x="138.52" y="0" letter-spacing="-.04em"> </tspan><tspan x="142.8" y="0" letter-spacing="-.02em">THE ROOMS </tspan><tspan x="255.02" y="0" letter-spacing="-.03em">Y</tspan><tspan x="266.4" y="0" letter-spacing="-.02em">OU </tspan><tspan x="296.87" y="0" letter-spacing="0">H</tspan><tspan x="310.61" y="0" letter-spacing="-.06em">A</tspan><tspan x="322.6" y="0" letter-spacing="-.02em">VE VIS</tspan><tspan x="380.28" y="0" letter-spacing="-.03em">I</tspan><tspan x="385.49" y="0" letter-spacing="-.01em">TE</tspan><tspan x="407.91" y="0" letter-spacing="-.07em">D</tspan><tspan x="419.11" y="0" letter-spacing="-.01em">.</tspan></text>
  <use xlink:href="#b" width="49.27" height="49.27" transform="matrix(.65 0 0 .65 121.19 300.06)"/>
</svg>
