<svg xmlns="http://www.w3.org/2000/svg" xmlns:xlink="http://www.w3.org/1999/xlink" data-name="Layer 2" viewBox="0 0 61 61">
  <defs>
    <filter id="a" width="55.39" height="56.26" x="2.35" y="2.83" filterUnits="userSpaceOnUse">
      <feOffset dx="-1" dy="1"/>
      <feGaussianBlur result="blur" stdDeviation="0"/>
      <feFlood flood-color="#fff" flood-opacity="1"/>
      <feComposite in2="blur" operator="in"/>
      <feComposite in="SourceGraphic"/>
    </filter>
  </defs>
  <rect width="60" height="60" x=".5" y=".5" fill="#fff" stroke="#a47764" stroke-miterlimit="10" rx="10" ry="10"/>
  <g fill="#a47764">
    <path d="M34.01 21.99c-.18.18-.36.39-.54.6-.2.25-.16.61.09.81s.61.16.81-.09c.14-.18.3-.35.45-.5 1.74-1.74 4.4-2.15 5.57-2.24-.09 1.17-.49 3.82-2.24 5.57-.19.19-.41.38-.64.56-.25.19-.3.55-.11.81.11.15.28.23.46.23.12 0 .24-.04.35-.12.27-.21.53-.43.76-.66 2.3-2.3 2.57-5.78 2.6-6.74l5.93-5.93a.58.58 0 0 0 0-.81.58.58 0 0 0-.81 0l-5.93 5.93c-.96.03-4.44.3-6.74 2.6Zm-12.16 6.89c.29.13.63 0 .76-.28.65-1.4 1.64-2.49 2.2-3.05.68.96 2.08 3.24 1.86 5.71-.14 1.65-1 3.09-1.69 4.01-.19.25-.14.61.11.8a.57.57 0 0 0 .81-.11c1.12-1.49 1.79-3.08 1.92-4.6.32-3.71-2.38-6.9-2.5-7.03a.57.57 0 0 0-.8-.07c-.08.06-1.89 1.56-2.95 3.86-.13.29 0 .63.28.76m10.74 10.71a.57.57 0 0 0 .77.27c2.25-1.07 3.71-2.84 3.77-2.91.2-.24.17-.6-.07-.8-.13-.12-3.33-2.82-7.03-2.5-.31.03-.63.08-.95.14a.57.57 0 0 0-.44.68c.07.31.37.51.68.44.27-.06.54-.1.8-.12 2.46-.21 4.75 1.18 5.71 1.86-.54.55-1.6 1.51-2.97 2.16-.29.14-.41.48-.27.77Z"/>
    <path d="m45.34 25.92-4.55 4.55c-1.02-.75-3.66-2.43-6.61-2.17-1.54.13-3.09.78-4.6 1.92-.25.19-.3.55-.11.8s.55.3.8.11c.92-.69 2.36-1.55 4.01-1.69 2.46-.22 4.72 1.16 5.71 1.86-.56.56-1.65 1.55-3.05 2.2a.57.57 0 0 0 .24 1.09c.08 0 .16-.02.24-.05 2.18-1.01 3.65-2.7 3.84-2.93l4.89-4.89a.58.58 0 0 0 0-.81.58.58 0 0 0-.81 0ZM26.97 24.6c.08.04.16.06.25.06.21 0 .42-.12.52-.33.65-1.36 1.61-2.42 2.16-2.97.65.91 1.98 3.08 1.88 5.45-.01.32.23.59.55.6h.03c.31 0 .56-.24.57-.55.12-2.84-1.5-5.37-2.19-6.3l4.62-4.62a.58.58 0 0 0 0-.81.58.58 0 0 0-.81 0l-4.96 4.96c-.23.19-1.87 1.61-2.89 3.75-.14.29-.01.63.27.77ZM13.92 47.7c.15 0 .29-.06.41-.17l4.87-4.87c.9.66 3.78 2.6 6.74 2.6 3.72 0 6.66-2.97 6.78-3.1.22-.22.22-.58 0-.8-.12-.13-3.07-3.1-6.78-3.1-1.55 0-3.15.51-4.75 1.51a.57.57 0 0 0-.18.79c.17.27.52.35.79.18.97-.61 2.48-1.34 4.14-1.34 2.46 0 4.63 1.59 5.52 2.35-.89.76-3.05 2.35-5.52 2.35-2.92 0-5.82-2.18-6.21-2.49-.3-.39-2.49-3.3-2.49-6.21 0-2.47 1.59-4.63 2.35-5.52.76.89 2.35 3.05 2.35 5.52 0 .61-.09 1.24-.27 1.86-.09.3.09.62.39.71s.62-.09.71-.39c.21-.73.31-1.46.31-2.18 0-3.72-2.97-6.66-3.1-6.78a.567.567 0 0 0-.8 0c-.13.12-3.1 3.07-3.1 6.78 0 2.65 1.54 5.22 2.35 6.39l-4.92 4.92a.58.58 0 0 0 0 .81c.11.11.26.17.41.17Z"/>
  </g>
  <path fill="none" stroke="#a47764" stroke-miterlimit="10" d="m3.71 3.18 53.68 54.56" filter="url(#a)"/>
</svg>
