<svg xmlns="http://www.w3.org/2000/svg" data-name="Layer 2" viewBox="0 0 61 61">
  <rect width="60" height="60" x=".5" y=".5" fill="#fff" stroke="#a47764" stroke-miterlimit="10" rx="10" ry="10"/>
  <path fill="#a47764" fill-rule="evenodd" d="M35.97 37.72c1.9 0 3.62.49 4.88 1.28.63.4 1.14.87 1.51 1.4 1.56-.11 2.94-.58 3.94-1.26.99-.68 1.59-1.57 1.59-2.53 0-1.02-.68-1.96-1.77-2.65-1.14-.72-2.73-1.17-4.49-1.17s-3.35.45-4.49 1.17c-1.09.69-1.77 1.63-1.77 2.65 0 .39.1.76.28 1.11h.34ZM13.14 26.11c.96-1.25 2.2-2.27 3.58-3.04 1.27-.71 2.67-1.2 4.07-1.44-.07-.53-.11-1.07-.13-1.6-.02-.5-.03-.99-.01-1.45-.08.01-.16.03-.24.05-1.97.41-3.82 1.6-5.17 3.12-1.15 1.31-1.93 2.86-2.09 4.37Zm8.36-4.59c.38-.04.75-.07 1.13-.08 1.08-.02 2.04.06 2.96.13 1.14.1 2.23.19 3.36.07-.06-.43-.12-.86-.2-1.28-.08-.44-.17-.88-.26-1.29-1.19.1-2.32-.08-3.49-.28-1.07-.18-2.18-.37-3.38-.33-.09 0-.17 0-.26.01a19 19 0 0 0 0 1.51c.02.5.06 1.02.13 1.53Zm8.17.02c.07-.01.13-.02.2-.04 1.48-.31 2.68-.95 3.95-1.63.77-.42 1.58-.85 2.5-1.23-.15-.5-.33-.99-.52-1.47-.18-.44-.37-.87-.56-1.28-.71.37-1.35.78-1.98 1.19-1.23.8-2.4 1.55-3.91 1.87l-.12.02c.09.41.17.83.25 1.26s.14.87.2 1.3Zm7.32-3.17c-.15-.49-.33-.99-.52-1.47-.18-.46-.38-.91-.58-1.32.11-.05.22-.09.33-.14.39-.15.78-.27 1.19-.35 1.97-.41 4.14-.06 5.99.81 1.58.74 2.91 1.85 3.65 3.18-1.38-.77-2.92-1.21-4.49-1.37-1.9-.19-3.83.05-5.56.67Zm10.53 1.86c-1.48-1.04-3.24-1.62-5.04-1.8-.81-.08-1.64-.08-2.44 0 .31.55.64 1.24.93 1.97.3.75.56 1.54.72 2.28q.525-.03 1.05 0c1.57.06 3.12.42 4.48 1.1.32-.81.49-1.65.47-2.46 0-.27-.04-.54-.1-.81-.02-.09-.04-.18-.07-.28m-8.26-1.69c.34.57.71 1.32 1.03 2.13.27.68.51 1.4.66 2.07-1.19.12-2.36.41-3.43.85-.79.32-1.49.68-2.15 1.03-.24-.68-.47-1.42-.66-2.12-.21-.76-.37-1.47-.47-2.02.78-.42 1.6-.85 2.52-1.23.79-.32 1.63-.56 2.51-.7Zm-5.7 2.28c.1.54.26 1.18.44 1.86.21.76.46 1.55.72 2.27-1.23.66-2.39 1.27-3.82 1.56-1.48.31-2.83.19-4.28.07q-.81-.075-1.68-.12c-.14-.75-.25-1.51-.33-2.24-.08-.7-.12-1.38-.15-2.01.36.02.71.05 1.06.08 1.49.12 2.9.24 4.48-.09 1.34-.28 2.44-.8 3.55-1.39Zm-9.81 1.36c.02.67.07 1.39.15 2.13.08.7.18 1.42.31 2.15h-.54c-1.45.03-2.95.34-4.35.89-.23-.63-.41-1.32-.55-2-.16-.85-.25-1.67-.28-2.32 1.34-.53 2.77-.83 4.15-.86.38 0 .75 0 1.11.01m-5.96 1.15c.04.64.13 1.39.28 2.15.14.73.34 1.47.59 2.15l-.13.06c-1.42.68-2.7 1.62-3.67 2.79-.62-.62-1.11-1.32-1.41-2.07-.1-.26-.18-.52-.23-.78-.02-.09-.04-.19-.05-.28.94-1.54 2.33-2.78 3.91-3.66.24-.13.48-.25.72-.37Zm29.13 1.11a9.5 9.5 0 0 1-1.35 1.97c-1.35 1.53-3.2 2.71-5.17 3.12-.14.03-.29.06-.43.08-.14-.99-.35-1.97-.59-2.88-.27-1.01-.58-1.94-.9-2.72 1.34-.45 2.8-.66 4.23-.6 1.48.06 2.94.39 4.21 1.04Zm-9.13-.19c-.95.39-1.79.84-2.59 1.27-1.32.71-2.57 1.38-4.15 1.7-.78.16-1.52.22-2.24.21.09.43.19.91.28 1.41.06.37.13.75.19 1.16.67-.36 1.38-.65 2.19-.82 1.51-.31 2.89-.08 4.33.16 1.07.18 2.18.37 3.38.33h.08c-.14-.95-.34-1.89-.57-2.77-.26-.99-.57-1.9-.88-2.66Zm-9.73 3.17c-.49-.02-.99-.06-1.49-.11-.92-.08-1.87-.16-2.89-.13-.71.01-1.44.1-2.15.25 0 .81.08 1.78.23 2.82.14.96.35 1.97.62 2.94.34-.03.68-.07 1.02-.14.4-.08.8-.2 1.19-.35 1.12-.44 2.06-1.05 2.97-1.64.35-.23.7-.45 1.05-.67-.07-.49-.15-.96-.23-1.42-.1-.58-.21-1.1-.31-1.56Zm-7.25.19c-.68.19-1.34.44-1.97.74-1.34.64-2.54 1.53-3.45 2.63.6.49 1.28.92 2.02 1.27 1.31.61 2.78.97 4.22.98-.26-.95-.46-1.93-.59-2.86-.15-1-.22-1.94-.23-2.75Zm10.8 2.29c-1.38.29-2.5 1.01-3.66 1.77-.94.61-1.91 1.24-3.1 1.71-.42.17-.86.29-1.3.39-2.12.44-4.46.06-6.44-.86-1.99-.93-3.63-2.43-4.33-4.22q-.165-.435-.27-.9c-.06-.31-.1-.62-.11-.93-.06-1.92.84-3.94 2.3-5.59 1.45-1.64 3.44-2.91 5.57-3.35.44-.09.9-.15 1.35-.16 1.28-.04 2.42.15 3.52.33 1.37.23 2.69.45 4.07.16s2.5-1.01 3.66-1.77c.94-.61 1.91-1.24 3.1-1.71.42-.17.86-.29 1.3-.39 2.12-.44 4.46-.06 6.44.86 1.99.93 3.63 2.43 4.33 4.22q.165.435.27.9c.06.31.1.62.11.93.06 1.92-.84 3.94-2.3 5.59-1.45 1.64-3.44 2.91-5.57 3.35-.44.09-.9.15-1.35.16-1.28.04-2.42-.15-3.52-.33-1.37-.23-2.69-.45-4.07-.16m11.12 11.19c.15.37.23.76.23 1.17 0 1.29-.81 2.44-2.11 3.26-1.25.79-2.98 1.28-4.88 1.28s-3.62-.49-4.88-1.28c-1.3-.82-2.11-1.97-2.11-3.26s.81-2.44 2.11-3.26c1.01-.63 2.31-1.07 3.77-1.22-.15-.37-.23-.77-.23-1.17 0-1.29.81-2.44 2.11-3.26 1.25-.79 2.98-1.28 4.88-1.28s3.62.49 4.88 1.28c1.3.82 2.11 1.97 2.11 3.26 0 1.22-.72 2.32-1.91 3.13-1.03.7-2.41 1.2-3.97 1.36Zm-2.27-1.48c1.09.69 1.77 1.63 1.77 2.65s-.68 1.96-1.77 2.65c-1.14.72-2.73 1.17-4.49 1.17s-3.35-.45-4.49-1.17c-1.09-.69-1.77-1.63-1.77-2.65s.68-1.96 1.77-2.65c1.14-.72 2.73-1.17 4.49-1.17s3.35.45 4.49 1.17"/>
</svg>
