<svg xmlns="http://www.w3.org/2000/svg" xmlns:xlink="http://www.w3.org/1999/xlink" viewBox="0 0 300.96 447.64">
  <defs>
    <clipPath id="a">
      <path fill="none" d="M11.27 1.56H289.7c5.39 0 9.77 4.38 9.77 9.77v434.82H1.5V11.33c0-5.39 4.38-9.77 9.77-9.77"/>
    </clipPath>
  </defs>
  <g data-name="Layer 2" style="isolation:isolate">
    <path fill="#00949c" d="M299.46 446.14H1.5V11.31c0-5.42 4.39-9.81 9.81-9.81h278.34c5.42 0 9.81 4.39 9.81 9.81z"/>
    <g clip-path="url(#a)">
      <path fill="#2d2d2d" d="M145.75 102.43c0-7.42 19.08-25.7 20.67-37.36s-5.3-14.57-5.3-14.57 1.85-14.57-11.92-20.4c-13.78-5.83-14.49-3.62-22.08-7.68C119.52 18.36 116.7 12 115.28 12s-4.95 4.06-4.95 9.01 3 9.19 3 9.19-7.6-.71-8.48.18c-.88.88.18 16.08 13.6 22.96 13.43 6.89 28.14 3.98 28.14 3.98l-.85 45.13Z"/>
      <path fill="#2d2d2d" d="M108.79 43.74c-2.52 7.15-1.46 21.2-.53 22.13s12.06-15.1 9.67-18.68c-2.38-3.58-9.14-3.44-9.14-3.44Z"/>
      <path fill="#f4c4b3" d="M124.36 142.5c-10.89-8.55-16.93-16.85-10.32-18.14 5.48-1.13 10.16-.4 11.45-13.06.24-2.5.4-5.56.32-9.35 0-2.82.24-5.24.81-7.42 3.95-15.32 20.4-16.29 20.4-16.29v.48c-.32 14.43-3.87 40.64 11.05 47.17 15.16 6.53-22.9 25.16-33.71 16.61"/>
      <path fill="#eb8b8b" d="M147.02 78.64v.08c-5.08 21.53-14.27 31.61-21.53 32.58.24-2.5.4-5.56.32-9.35 0-2.82.24-5.24.81-7.42.4-.48.81-.97 1.13-1.29 4.03-4.19 19.27-14.6 19.27-14.6"/>
      <path fill="#f4c4b3" d="M151.34 62.13c-1.61 20.44-15.94 49.6-34.77 43.24-8.99-3.05-11.53-13.57-11.11-25.35 0-1.53.08-3.05.25-4.58 1.1-11.53 4.49-23.4 7.21-30.27 0 0 6.36-1.87 16.11-2.12 9.84-.25 23.91-1.27 22.3 19.08Z"/>
      <path fill="#cc7f7f" d="M115.82 85.22c.09 0 .17-.07.19-.18.02-.12-.05-.24-.15-.26-2.74-.61-2.81-2.77-2.78-3.33.61-.26 3.35-1.58 4.63-4.67.85-2.06.86-4.46.02-7.13a.203.203 0 0 0-.25-.13c-.1.04-.15.17-.11.29.8 2.55.8 4.82 0 6.77-1.34 3.25-4.5 4.49-4.53 4.5l-.11.05-.02.14s-.37 3.2 3.07 3.97h.04Z"/>
      <path fill="#2d2d2d" d="M124.36 74.16c-.07 1.81.49 3.3 1.26 3.33.76.03 1.44-1.41 1.51-3.22s-.49-3.3-1.26-3.33c-.76-.03-1.44 1.41-1.51 3.22m-14.44-1.46c-.07 1.81.49 3.3 1.26 3.33.76.03 1.44-1.41 1.51-3.22s-.49-3.3-1.26-3.33c-.76-.03-1.44 1.41-1.51 3.22m22.93-6.93c.44 1.42-7.35-1.93-7.55-2.82s.83-1.14 2.4-.91c1.57.24 5.03 3.37 5.14 3.73Zm-24.92-2.82c-.65 1.31 7.44-.68 7.78-1.51s-.62-1.24-2.18-1.27c-1.56-.02-5.43 2.45-5.59 2.78Z"/>
      <ellipse cx="131.23" cy="80.75" fill="#ff6c89" rx="4.74" ry="2.25" transform="rotate(-6.9 131.227 80.745)"/>
      <path fill="#ff6c89" d="M108.52 79.43c-.42.76-1.61.93-3.05.59 0-1.53.08-3.05.25-4.58 2.12 1.19 3.39 2.97 2.8 3.99"/>
      <path fill="#fff" d="M126.06 89.88c-7.31 2.01-13.93-1.23-13.93-1.23s-.14 6.01 6.65 6.54c5.48.43 7.28-5.3 7.28-5.3Z"/>
      <path fill="#f4c4b3" d="M147.87 67.72c5.03-2.91 8.21.27 7.42 4.5-1.14 6.08-6.89 8.74-9.54 5.56s2.12-10.07 2.12-10.07Z"/>
      <path fill="#2d2d2d" d="M150.82 66.66c-5.89-.7-3.49-9.83-3.49-9.83s-32.12 3.89-35.41-10.18 31.52-12.17 37.41-5.19 9.88 20.15 7.48 22.05c-2.39 1.9-5.99 3.14-5.99 3.14Z"/>
      <path fill="#d16f54" d="M144.5 442.12c6.05-1.01 15.12-3.53 23.18-1.01s-10.58-110.88-25.2-99.79 2.02 100.8 2.02 100.8"/>
      <path fill="#f4e1ce" d="M274.51 628.2c-3.55 2.72-46.37 6.38-47.9 5.5-1.45-.88-5-7.78-4.52-13.8.4-4.33 1.61-6.75 1.77-8.95.08-.81.08-1.61-.24-2.5-.32-.88-1.29-1.61-2.5-2.28-3.23-1.83-8.47-3.38-9.6-7.34-1.05-3.74.48-4.33 1.61-6.46v-.07c.4-.81.73-1.91.81-3.45.08-.29.08-.66.08-1.03 0-6.9-4.03-13.72-22.66-63.77-17.74-47.63-45.64-152.8-48.22-162.56.64 4.18 4.19 25.17 6.85 43.3 3.06 20.18 6.61 69.28 10.64 111.04 3.79 39.63 16.13 108.25 14.11 111.4-2.02 3.23-34.76 5.58-42.82 3.67-8.06-1.76-13.14-3.67-13.14-9.61 0-4.04 4.84-9.32 7.98-12.33a65 65 0 0 1 2.58-2.35s-5.48-2.72-7.02-5.06c-1.53-2.28.48-2.72 1.53-16.44.97-13.8-12.66-111.48-22.74-162.41 0 0-2.98-95.85 1.53-110.52 4.52-14.68 26.21-15.63 57.98-13.8S204.97 402.96 209 413.09c4.03 10.05 33.71 97.24 44.35 137.09 10.56 39.92 14.6 40.36 16.13 44.03 1.29 3.38.24 7.85-1.53 11.01v.07c-.16.37-.32.59-.48.88-1.69 2.79-.16 5.43 3.15 7.85.56.51 1.21.88 1.85 1.32 4.6 2.79 5.56 10.13 2.02 12.84Z"/>
      <path fill="#e8ceb3" d="M172.72 312.26c-9.58 10.08-48.22 19.66-68.37 12.26-21.33-7.82 18.65-17.47 31.42-17.47s36.96 5.21 36.96 5.21Z"/>
      <path fill="#fff1e1" d="M117.54 122.33c6.05 18.14 19.66 17.39 25.45 14.7 8.46-3.92 12.31-12.88 12.31-12.88s7.31 1.93 8.82 6.21 19.19 174.16 9.61 180.21-51.91 17.64-68.04 7.56-2.02-190 4.54-193.53c6.55-3.53 7.31-2.27 7.31-2.27"/>
      <path fill="#fd9687" d="M207.5 145.1c-15.12-13.44-34.61-12.1-49.39-19.24 0 0 17.28 38.23 28.37 65.27h37.4c-3.9-21.24-10.08-40.43-16.38-46.03"/>
      <path fill="#fd9687" d="M227.66 440.14c-.48 3.47-32.74 17.1-36.77 11.53-4.03-5.56-13.14-53.38-19.19-105.31-2.66-22.9-7.26-57.98-10.89-94.75-.16-1.69-.32-3.39-.48-5.16-.65-6.45-1.21-12.98-1.77-19.43-.32-4.92-.73-9.84-1.05-14.68-2.34-33.38-2.9-64.83.56-86.44 0 0 23.71 17.34 29.27 34.51 3.06 9.35 7.42 51.29 12.66 98.06.16 1.29.32 2.58.4 3.87 4.27 37.74 9.03 78.14 14.11 106.68 11.61 64.99 13.63 67.57 13.14 71.12Zm-106.37 16.13c-3.55 1.94-30.72-26.29-30.72-30.8s-2.26-32.58-5.08-68.06c-2.1-26.85-3.06-65.08-3.23-99.99v-6.85c0-9.76 0-19.27.16-27.98 0-1.05.08-2.1.08-3.14.4-22.66 1.29-40.32 2.5-46.93 3.55-18.63 31.29-50.16 31.29-50.16-.08.56-.08 1.21-.16 1.77-3.31 52.5-6.21 90.4-7.66 124.34-.08 1.05-.08 2.18-.08 3.23-1.13 26.37-1.21 50.48.32 77.49 3.55 63.06 16.13 124.99 12.58 127.09Z"/>
      <path fill="#d16f54" d="M89.69 190.75c-.5 3.19-2.35 16.17-4.03 18.02s-10.88 8.4-11.05-1.01 15.08-17.01 15.08-17.01m18.78 57.71c-.08 1.05-.08 2.18-.08 3.23-3.79 1.94-19.19 5.08-26.13 5.73v-6.85c8.06-1.94 22.5-2.74 26.21-2.1Zm-10.88-29.99c1.69 1.21-11.69 4.68-15.16 4.11 0-1.05.08-2.1.08-3.14 3.31-.48 13.47-2.26 15.08-.97"/>
      <path fill="#fd9687" d="M81.5 220.02c-3.88-2.33 34.78-97.69 34.78-97.69S85.2 134.34 76.8 142.41c-15.33 14.72-37.97 98.45-23.86 110.21 5.64 4.7 21.18 4.16 37.88 1.56-1.02-11.37-2.68-22.74-5.25-34.11-2.16.21-3.63.22-4.07-.04Z"/>
      <path fill="#d16f54" d="M176 131.41c-1.6 17.22-6.97 32.17-6.97 32.17s8.61 2.39 9.11 4.75c.5 2.35-10.84 41.33-13.82 40.95-2.22-.28 1.51-63.33 3.02-69.21s8.65-8.65 8.65-8.65Zm-77.62-1.77c-1.93 8.4 1.6 35.95 1.6 35.95s-6.89.67-7.39 3.36 7.9 34.1 9.24 34.78c1.34.67 10.42-42 7.06-53.42s-10.5-20.66-10.5-20.66Z"/>
      <g fill="#fff">
        <rect width="16.29" height="5.58" x="81.29" y="179.39" rx=".37" ry=".37"/>
        <rect width="16.29" height="5.58" x="81.29" y="179.39" rx=".37" ry=".37" transform="rotate(90 89.435 182.185)"/>
      </g>
      <path fill="#fd9687" d="M110.98 206.5c3.28-23.94 8.57-84.67 7.31-85.43s-18.9 6.55-19.91 8.57 4.54 37.8 4.54 37.8-7.31-.76-7.31 2.27 6.05 37.55 8.32 41.33 7.06-4.54 7.06-4.54Z"/>
      <path fill="#f4c4b3" d="M119.55 207.01c-12.6-5.54-23.44-7.06-34.52-4.28-11.09 2.77-17.39 11.09-16.13 12.85s10.08-1.76 17.89-.5 14.62 7.31 22.43 5.04 10.33-13.1 10.33-13.1Z"/>
      <path fill="#fd9687" d="M156.59 121.83c-3.85 15.39-3.53 80.39 1.51 89.71s6.05 6.55 8.06-3.53c2.02-10.08 8.82-37.55 8.57-39.82s-8.06-3.53-8.06-3.53 9.83-31.25 9.32-33.26c-.5-2.02-19.15-10.58-19.4-9.58Z"/>
      <path fill="#e6e6e6" d="M164.89 176.91c4.67.78 20.33-.5 20.66 1.34.34 1.85.69 11.42 0 12.77-.69 1.34-19.66 1.34-20.66.17-1.01-1.18-2.02-14.62 0-14.28" style="mix-blend-mode:multiply"/>
      <path fill="#fff" d="M166.51 175.67c4.67.78 20.33-.5 20.66 1.34.34 1.85.69 11.42 0 12.77-.69 1.34-19.66 1.34-20.66.17-1.01-1.18-2.02-14.62 0-14.28"/>
      <path fill="#382f2c" d="M174.56 171.85c.94-.59 3.51-.85 3.73-.11s-.53 8.73-1.38 8.83c-.85.11-3.19-8.2-2.34-8.73Z"/>
      <path fill="#d16f54" d="M187.21 191.38c.84 6.72 5 22.76 4.16 23.27-.84.5 8.4 8.06 9.74 3.36s-13.9-26.63-13.9-26.63"/>
      <path fill="#f4c4b3" d="M146.77 209.53c10.84 2.02 17.39-5.29 32-3.53 14.62 1.76 17.64 8.57 17.89 12.1s-20.66 6.05-29.99 1.51c-9.32-4.54-19.91-10.08-19.91-10.08Z"/>
      <path fill="#fd9687" d="M158.55 227.01c-4.84 4.19-12.74 8.79-13.87 11.85-.16.4-.81.89-1.86 1.37-1.13.73-2.74 1.45-4.76 2.18-9.92 3.71-29.27 8.95-47.25 11.77-1.05-11.37-2.66-22.74-5.24-34.11 4.68-.48 12.74-1.85 21.61-3.47.32-.08.73-.16 1.05-.16 11.21-2.1 23.63-4.52 32.5-6.05 5.81-.97 10.08-1.61 11.37-1.45 2.42.24 4.11 1.61 5.4 3.39.81 1.05 1.53 2.26 2.18 3.55.81 1.61 1.53 3.31 2.42 4.84.97 1.69-.81 3.87-3.55 6.29"/>
      <path fill="#d16f54" d="M159.68 215.89c-8.23 1.69-16.53-3.71-18.95-5.48 5.81-.97 10.08-1.61 11.37-1.45 3.87.4 5.81 3.55 7.58 6.94Zm-16.85 24.35c-1.13.73-2.74 1.45-4.76 2.18-11.45-3.39-34.48-14.86-35-15.97-.62-1.32.32-6.85 4.11-9.84.32-.08.73-.16 1.05-.16l30.56 19.03s2.66 2.58 4.03 4.76Zm57.57 22.09c-6.29-.56-30.48-6.13-39.59-10.72-.16-1.69-.32-3.39-.48-5.16 9.68.73 35.56 7.02 35.56 7.02s2.34 2.58 4.11 5c.16 1.29.32 2.58.4 3.87Z"/>
      <path fill="#fd9687" d="M186.48 191.13c5.87 14.3 10 25.48 8.93 26.21-3.11 2.1-71.9-12.43-76.94-11.42s-13.78 13.1-14.11 17.81c-.34 4.7 100.46 47.38 116.59 36.96 9.41-6.08 8.4-39.82 2.94-69.55h-37.4Z"/>
      <path fill="#382f2c" d="m184.37 182.85-15.83.12c-.09 0-.16.07-.16.16s.07.16.16.16l15.83-.12c.09 0 .16-.07.16-.16s-.07-.16-.16-.16m-6.86 1.81-8.96.07c-.09 0-.16.07-.16.16s.07.16.16.16l8.96-.07c.09 0 .16-.07.16-.16s-.07-.16-.16-.16"/>
      <path fill="#eb8b8b" d="M148.73 75.72c.45-.93 1.65-5.64 2.44-5.77.8-.13 1.46 1.16.67 2.86-.75 1.59-3.11 2.91-3.11 2.91"/>
    </g>
    <path fill="none" stroke="#fff" stroke-miterlimit="10" stroke-width="3" d="M11.31 1.5h278.34c5.42 0 9.81 4.4 9.81 9.81v434.83H1.5V11.31c0-5.41 4.4-9.81 9.81-9.81Z"/>
  </g>
</svg>
