<svg xmlns="http://www.w3.org/2000/svg" data-name="Layer 2" viewBox="0 0 77 77">
  <path fill="#fff" stroke="#382f2c" stroke-linecap="round" stroke-miterlimit="10" stroke-width="2" d="M1 19.04V11C1 5.48 5.48 1 11 1h55c5.52 0 10 4.48 10 10v55c0 5.52-4.48 10-10 10H11C5.48 76 1 71.52 1 66V19.04"/>
  <path d="M38.55 60.22h-.03.04zm.15-.02h.04z"/>
  <path fill="#a47764" d="M38.5 24.14v32.47c-2.66-3.49-7.2-5.17-10.12-5.97-2.13-.59-4.44-.88-6.71-.88-1.66 0-3.31.16-4.84.48V16.87c0-.3.21-.56.5-.62 4.16-.86 14.68-1.6 21.16 7.89Z"/>
  <path fill="#a47764" d="M36.36 57.43c-3.58-1.72-7.3-2.86-11.09-3.4-4.36-.62-8.61-.42-12.67.59V20.77c.88-.23 1.77-.42 2.68-.57v31.01c0 .24.11.47.31.62.19.15.44.2.68.14 5.85-1.53 15.29-.65 20.11 5.45Z"/>
  <path d="M38.75 60.19h-.04zm-.2.03h-.03.04z"/>
  <path fill="#a47764" d="M60.25 16.87v33.35c-3.63-.75-7.87-.61-11.55.41-2.92.81-7.54 2.49-10.2 5.97V24.14c6.49-9.49 17.09-8.75 21.25-7.89.29.06.5.32.5.62"/>
  <path fill="#a47764" d="M64.5 20.77v33.85c-4.06-1.01-8.32-1.21-12.67-.59-3.8.54-7.52 1.68-11.09 3.4 4.81-6.1 14.26-6.98 20.11-5.45.24.06.49.01.68-.14s.31-.38.31-.62V20.21c.9.15 1.8.34 2.68.57Z"/>
  <path fill="#a47764" d="M67.89 22.65v35.67H43.12c-.43 0-.79.35-.79.79v1.83h-7.68v-1.83c0-.43-.35-.79-.79-.79H9.11V22.65h1.69c.07 0 .15 0 .22-.03v33.03c0 .25.11.48.31.63.19.15.45.2.69.13 7.16-2.03 14.95-1.38 22.3 1.82 1.28.56 2.55 1.19 3.79 1.9.12.07.25.1.39.1h.09c.13 0 .27-.03.39-.1 1.25-.71 2.51-1.34 3.79-1.9 7.36-3.2 15.14-3.86 22.3-1.82.24.07.49.02.69-.13s.31-.38.31-.63V22.63s.09.01.13.01h1.69Z"/>
  <path d="M38.72 60.2h-.02.04z"/>
  <path fill="#a47764" d="M33.63 61.22v-3h.68c1.28.56 2.55 1.19 3.79 1.9.12.07.25.1.39.1h.09c.13 0 .27-.03.39-.1 1.25-.71 2.51-1.34 3.79-1.9h.72v3"/>
  <path fill="#fff" d="M30.41 31.34c.82 0 1.49.1 2.03.3.53.2.93.51 1.19.92q.39.615.39 1.56c0 .5-.09.91-.27 1.25s-.42.62-.71.84-.61.39-.95.51l2.71 4.33h-1.56l-2.36-3.97H29.1v3.97h-1.36v-9.7h2.67Zm-.09 1.16h-1.23v3.44h1.32c.77 0 1.32-.15 1.68-.45.35-.3.53-.74.53-1.32s-.19-1.04-.56-1.29c-.38-.25-.96-.38-1.74-.38m11.39 8.54h-5.45v-9.7h5.45v1.17h-4.09v2.89h3.84v1.15h-3.84v3.32h4.09zm3.47 0h-1.35v-9.7h5.44v1.17h-4.09v3.29h3.83v1.16h-3.83z"/>
</svg>
