<svg xmlns="http://www.w3.org/2000/svg" data-name="Layer 2" viewBox="0 0 61 61">
  <rect width="60" height="60" x=".5" y=".5" fill="#fff" stroke="#a47764" stroke-miterlimit="10" rx="10" ry="10"/>
  <g fill="#a47764">
    <path fill-rule="evenodd" d="M41.65 19.04c1.89-.34 3.85.86 4.4 2.7.56 1.87-.56 3.69-2.48 4.05-1.89.34-3.85-.86-4.4-2.7-.56-1.87.56-3.7 2.48-4.05m4.21 8.82c2.26-1.2 3.73-3.65 4.86-5.85l-.3-.44c-2.13-3.07-4.4-4.7-6.7-5.2-.98-.21-1.97-.22-2.95-.04.37-1.11.61-2.24.82-3.39l-.42-.33c-2.94-2.3-5.6-3.18-7.94-2.98-2.36.2-4.39 1.51-6.06 3.6-1.28 1.67-1.92 2.14-3.89 2.85-2.31.83-4.13 1.92-5.49 3.44s-2.26 3.46-2.7 5.99c-.37 2.1-.67 2.56-2.09 4.13-1.53 1.69-2.41 3.56-2.65 5.54-.25 1.99.15 4.09 1.18 6.24.64 1.33 1.49 2.68 2.32 4.01.53.84 1.05 1.67 1.51 2.48l.27.05c1.65.37 3.12-.33 3.83-1.87.22-1.95.94-2.57 2.6-3.44 1.22-.64 2.11-1.37 2.8-2.28s1.16-1.99 1.55-3.36c.19-.68.45-1.2.83-1.59.37-.38.88-.63 1.57-.76 1.73-.32 3.1-.8 4.35-1.59 1.24-.78 2.34-1.87 3.5-3.4.92-1.25 1.64-1.53 3.16-1.27 2.36.45 4.28.4 6.02-.52ZM14.69 45.12c-.42-1.59-.87-3.21-1.11-4.83-.35-2.36-.11-4.48.72-6.31.82-1.82 2.22-3.34 4.18-4.5 1.81-1.07 2.25-1.43 3.22-3.32 1.17-2.28 2.6-3.87 4.35-4.92s3.81-1.55 6.26-1.66c2.15-.1 2.79-.35 4.56-1.57.95-.64 1.93-1.13 2.91-1.44.4-1.05.68-2.19.88-3.29-2.06-1.6-4.65-3.04-7.35-2.81-2.11.18-3.94 1.37-5.47 3.28-1.43 1.82-2.09 2.34-4.27 3.12-2.17.78-3.88 1.8-5.14 3.2-1.25 1.4-2.08 3.2-2.49 5.57-.39 2.26-.77 2.87-2.29 4.56-1.4 1.56-2.22 3.26-2.44 5.07-.23 1.83.14 3.77 1.1 5.77.68 1.41 1.55 2.76 2.38 4.09ZM45.45 27.1c1.52-.81 2.87-2.38 4.27-5.04-1.45-2.13-3.57-4.3-6.19-4.87-2.07-.45-4.17.14-6.2 1.51-1.92 1.31-2.68 1.61-5 1.71-2.31.1-4.24.57-5.86 1.53-1.61.97-2.93 2.44-4.03 4.58-1.05 2.04-1.59 2.51-3.54 3.67-1.8 1.07-3.08 2.46-3.83 4.12-.76 1.68-.98 3.64-.65 5.83.21 1.41.61 2.93 1.01 4.42.23.88.46 1.75.65 2.57 1.08.14 2.06-.32 2.54-1.31.26-2.16 1.19-3 3.04-3.97 1.1-.58 1.91-1.23 2.52-2.04.62-.82 1.05-1.81 1.41-3.08.23-.81.56-1.46 1.05-1.96.5-.5 1.15-.83 2.02-.99 1.62-.3 2.9-.75 4.05-1.47 1.15-.73 2.18-1.74 3.28-3.19 1.1-1.46 2.18-1.96 4-1.59 2.17.42 3.92.38 5.46-.44Zm-4.89 16.58c-.04-.07-.08-.14-.13-.21-.57-.91-1.4-1.68-2.44-2.21a4.73 4.73 0 0 1-.17-2.72c.22-.96.72-1.9 1.51-2.68 1.01-1.01 2.28-1.55 3.53-1.62 1.23-.07 2.43.33 3.31 1.21s1.28 2.08 1.21 3.31c-.07 1.24-.62 2.52-1.62 3.53a5.6 5.6 0 0 1-2.57 1.48c-.89.22-1.8.21-2.63-.06Zm-3.59-2.84c-.18-.8-.17-1.66.02-2.49.25-1.12.84-2.21 1.73-3.1 1.16-1.16 2.64-1.79 4.09-1.87 1.46-.08 2.9.4 3.96 1.46s1.54 2.5 1.46 3.96c-.08 1.45-.71 2.93-1.87 4.09-.86.86-1.9 1.43-2.97 1.7-.8.2-1.62.24-2.39.1.82 2.49-.35 5.03-2.71 6.15-2.82 1.35-6.43.3-8.09-2.35-1.68-2.69-.72-5.99 2.14-7.36 1.44-.69 3.12-.76 4.64-.28Zm6.62-.73c.42-.42.67-.93.74-1.41.06-.44-.04-.84-.32-1.12l.61-.61c.47.47.65 1.14.56 1.84-.09.66-.42 1.34-.98 1.9l-.61-.61Zm-12.66 7.91c-1.41-2.25-.61-4.99 1.78-6.13 2.43-1.16 5.57-.25 6.99 2.03 1.41 2.25.61 4.98-1.78 6.13-2.43 1.16-5.57.25-6.99-2.03m3.73.2c-.76-.22-1.38-.66-1.78-1.19-.42-.57-.58-1.24-.4-1.88l.82.24c-.11.37 0 .78.26 1.13.29.39.75.71 1.33.88l-.24.82ZM19.02 33.16c1.89-.34 3.85.86 4.4 2.7.56 1.87-.56 3.7-2.48 4.04-1.89.34-3.85-.86-4.4-2.7-.56-1.87.56-3.7 2.48-4.05Zm.15.85c1.46-.26 3 .68 3.43 2.1.41 1.38-.39 2.7-1.81 2.96-1.46.27-3-.68-3.43-2.1-.41-1.38.39-2.7 1.81-2.96m9.46-10.2c1.89-.34 3.85.86 4.4 2.7.56 1.87-.56 3.69-2.48 4.04-1.89.34-3.85-.86-4.4-2.7-.56-1.88.56-3.69 2.48-4.05Zm.15.84c1.46-.26 3 .68 3.43 2.1.41 1.38-.39 2.7-1.81 2.96-1.46.26-3-.68-3.43-2.1-.41-1.38.39-2.7 1.81-2.96m13.02-4.76c-1.42.26-2.22 1.57-1.81 2.96.43 1.42 1.97 2.37 3.43 2.1 1.42-.26 2.22-1.57 1.81-2.96-.43-1.42-1.97-2.37-3.43-2.1"/>
    <path d="M15.17 46.97s-3.51-5.2-4.23-8.88c-.73-3.68.51-6.44 2.12-7.76 1.6-1.32 2.36-3.88 2.8-5.71s2.34-5.85 5.44-7.13 5.24-2.61 6.04-3.75c.8-1.15 3.73-4.15 7.49-3.68s6.25 3.14 6.25 3.14l-.89 3.88c-3 .91-4.24 2.58-5.26 2.79s-5.19-.72-8.48 1.63-4.6 5.76-5.48 6.75-4.68 3.02-5.72 4.88-1.7 3.93-1.11 7.73 1.04 6.13 1.04 6.13Z"/>
    <path d="M16.97 35.5c.75-2.14 2.41-2.05 3.47-1.81s2.36 1 2.47 2.43c.11 1.44-.83 3.25-2.34 3.44s-4.42-1.73-3.6-4.07Zm9.71-9.39c.75-2.14 2.41-2.05 3.47-1.81s2.36 1 2.47 2.43c.11 1.44-.83 3.25-2.34 3.44s-4.42-1.73-3.6-4.07Zm13.02-4.77c.75-2.14 2.41-2.05 3.47-1.81s2.36 1 2.47 2.43c.11 1.44-.83 3.25-2.34 3.44s-4.42-1.73-3.6-4.07Z"/>
  </g>
</svg>
