<svg xmlns="http://www.w3.org/2000/svg" data-name="Layer 2" viewBox="0 0 61 61">
  <rect width="60" height="60" x=".5" y=".5" fill="#fff" stroke="#a47764" stroke-miterlimit="10" rx="10" ry="10"/>
  <path fill="none" stroke="#a47764" stroke-miterlimit="10" d="M29.89 13.02 10.73 46.2c-.27.47.07 1.06.61 1.06h38.32c.54 0 .88-.59.61-1.06L31.11 13.02a.704.704 0 0 0-1.22 0Z"/>
  <path fill="#a47764" d="M28.36 40.8c0-.76.21-1.3.63-1.61s.93-.46 1.52-.46 1.08.15 1.5.46.63.85.63 1.61-.21 1.26-.63 1.59-.92.49-1.5.49-1.1-.16-1.52-.49q-.63-.495-.63-1.59m3.48-4.17h-2.63a.18.18 0 0 1-.18-.18l-.6-11.56c0-.11.08-.19.18-.19h3.83c.11 0 .19.09.18.19l-.6 11.56c0 .1-.09.18-.18.18"/>
</svg>
