<svg xmlns="http://www.w3.org/2000/svg" xmlns:xlink="http://www.w3.org/1999/xlink" data-name="Layer 2" viewBox="0 0 61 61">
  <defs>
    <filter id="a" width="55.22" height="56.22" x="2.82" y="3.31" filterUnits="userSpaceOnUse">
      <feOffset dx="0" dy="1"/>
      <feGaussianBlur result="blur" stdDeviation="0"/>
      <feFlood flood-color="#fff" flood-opacity="1"/>
      <feComposite in2="blur" operator="in"/>
      <feComposite in="SourceGraphic"/>
    </filter>
  </defs>
  <rect width="60" height="60" x=".5" y=".5" fill="#fff" stroke="#a47764" stroke-miterlimit="10" rx="10" ry="10"/>
  <path fill="#a47764" fill-rule="evenodd" d="M30.02 8.47c4.31 0 7.8 3.5 7.8 7.8s-3.5 7.8-7.8 7.8-7.8-3.5-7.8-7.8 3.5-7.8 7.8-7.8m-9.97 17.98c-.31.2-.59.46-.83.77-.26.31-5.26 7.88-5.26 7.88a10.95 10.95 0 0 0-1.55 8.57c.69 2.95 2.58 5.47 5.2 6.98 3.2 1.84 7.02 2.36 11.2 1.41 1.78-.4 2.9-2.18 2.5-3.96s-2.18-2.9-3.96-2.5c-2.4.54-4.61.36-6.45-.69a4.33 4.33 0 0 1-1.63-1.66c1.42.16 2.69.2 3.8.16a1.65 1.65 0 0 0 1.4-.87c.28-.52.26-1.15-.04-1.65-1.03-1.68-1.41-3.02-1.42-3.02a2.319 2.319 0 1 1 4.45-1.31s.97 3.25 4.04 5.1c4.94 2.98 10.34.18 10.58.11-1.24 1.59-2.84 2.62-4.98 3.32a3.305 3.305 0 0 0-2.1 4.19 3.305 3.305 0 0 0 4.19 2.1c3.52-1.16 6.09-2.93 8.13-5.56a7.28 7.28 0 0 0 .27-8.55s-6.57-9.77-6.83-10.07c-.23-.29-.5-.54-.79-.74a5.1 5.1 0 0 0-3.04-1.01H23.05c-1.13 0-2.18.37-3.03 1Zm15.93 5.11c2.83 0 5.13 2.3 5.13 5.13s-2.3 5.13-5.13 5.13-5.13-2.3-5.13-5.13 2.3-5.13 5.13-5.13"/>
  <path fill="none" stroke="#a47764" stroke-miterlimit="10" d="m3.18 3.66 54.51 54.51" filter="url(#a)"/>
</svg>
