<svg xmlns="http://www.w3.org/2000/svg" data-name="Layer 2" viewBox="0 0 83.04 83.04">
  <rect width="83.04" height="83.04" fill="#fff" rx="10" ry="10"/>
  <path fill="#ffb966" d="M64.18 49.16c-.58-.99-2.38-1.55-4.39-1.19-2.01.35-3.51 1.49-3.73 2.61.69.92 2.44 1.33 4.36.99 1.91-.34 3.43-1.31 3.76-2.41m.33.13c-.02.08-.05.15-.08.23 1.21-.24 3.19-.53 5.1-.69 2.93-.2 2.94-.31-.02-.31-1.94.03-3.96.14-5.21.2.06.07.11.15.16.23l.09.16-.05.18Zm-13.02 1.64c.98.52 2.69.05 4.31-1.21 1.61-1.26 2.64-2.9 2.49-4.07-.95-.61-2.86-.22-4.53 1.08-1.68 1.3-2.53 3.06-2.27 4.19Zm11.3-7.08c-2.16.31-3.43.68-4.57 1.34.08.04.17.08.24.13l.16.1.02.19c0 .08.01.16.02.25 1.03-.82 2.25-1.54 4.21-1.74 3.15-.29 3.01-.66-.08-.26Zm-6.59 7.61c-1.97-.45-3.74.02-4.28.97.38 1.11 1.95 2.15 3.85 2.59s3.54.12 4.14-.77c-.26-1.14-1.73-2.34-3.7-2.79Zm4.02 2.71.04.18-.1.15c-.05.07-.1.14-.16.21 1.17.25 2.32.18 4.21-.06 2.69-.3 2.75-.69 0-.27-1.7.28-2.92 0-4.07-.44.03.08.05.16.07.24Zm-12.31-6.21c-1.15 1.83-1.38 3.81-.79 4.81 1.06.15 2.51-.91 3.65-2.69s1.6-3.72 1.08-4.77c-1.11-.23-2.79.82-3.94 2.65m3.73-3.07c.09 0 .19.01.28.03l.18.04.08.17c.04.07.07.15.1.23.72-1.15 1.72-2.11 3.43-2.82 3-1.2 3.02-1.4-.02-.28-1.99.76-3.19 1.59-4.05 2.63m-9.08 4.97c-1.03 1.92-1.11 3.91-.44 4.85 1.07.07 2.43-1.1 3.46-2.95 1.02-1.86 1.36-3.82.76-4.83-1.12-.15-2.75 1.01-3.78 2.93m3.54-3.33c.09 0 .19 0 .28.02l.18.03.1.16c.04.07.08.14.11.22.64-1.2 1.59-2.22 3.26-3.04 2.92-1.39 2.93-1.59-.03-.28-1.94.89-3.1 1.79-3.89 2.89Zm-8.79 5.68c-.89 2.02-.77 4.01 0 4.89 1.07-.03 2.32-1.32 3.19-3.25s1.07-3.92.4-4.88c-1.15-.07-2.71 1.24-3.59 3.25Zm3.33-3.64c.1 0 .19-.01.28 0h.19l.11.17c.05.07.09.14.13.21.57-1.24 1.45-2.34 3.08-3.28 2.85-1.59 2.85-1.79-.05-.28-1.9 1.02-3 2.02-3.73 3.18ZM33.2 60.93l-.51-.58c-2.08 1.82-3.81 4.09-4.91 6.64-1.12 2.55-1.6 5.34-1.61 8.11h.78c-.11-5.37 2.16-10.69 6.26-14.17Zm21.72-3.79c-.08-1.16-1.3-2.69-3.15-3.61-1.85-.93-3.7-.91-4.43-.13.16 1.16 1.56 2.54 3.37 3.43s3.48 1.01 4.21.31m4.03.92c-1.55-.03-2.68-.45-3.74-1.16l.03.24v.19l-.11.11c-.06.06-.12.11-.19.16 1.11.53 2.33.75 4.09.72 2.67 0 2.6-.19-.09-.27Zm-8.77.47c-.16-1.15-1.47-2.6-3.38-3.39-1.9-.8-3.75-.65-4.42.19.25 1.14 1.75 2.4 3.61 3.17 1.86.76 3.51.78 4.19.03m4.07.67c-1.54.07-2.69-.29-3.78-.92.02.08.03.16.04.24l.03.19-.11.12c-.05.06-.11.11-.18.17 1.13.46 2.35.6 4.11.47 2.66-.17 2.58-.35-.11-.26Zm-8.64 1.03c-.25-1.13-1.65-2.49-3.61-3.13-1.95-.65-3.79-.32-4.37.57.37 1.11 1.97 2.22 3.86 2.83s3.5.51 4.11-.28Zm4.05.4c-1.51.17-2.67-.11-3.8-.67q.045.12.06.24l.04.19-.1.13c-.05.06-.1.12-.16.18 1.15.38 2.35.44 4.08.19 2.62-.34 2.53-.51-.12-.25ZM32.1 55.29c-.7 2.23-.16 4.19.77 4.88 1.05-.26 2-1.73 2.72-3.77.7-2.04.73-4.03-.03-4.93-.58.03-1.25.41-1.85 1.06-.7.72-1.26 1.64-1.61 2.77Zm3.15-4.17c.1-.02.19-.04.29-.04h.19l.12.14c.05.06.1.13.15.2.47-1.31 1.29-2.49 2.87-3.56 2.77-1.83 2.76-2.03-.07-.27-1.85 1.19-2.9 2.3-3.54 3.54Zm6.04 11.14c-.35-1.1-1.87-2.33-3.85-2.78-1.97-.47-3.76.21-4.13 1.2.59 1 2.39 1.75 4.21 2.16.9.2 1.74.26 2.32.2.69-.11 1.2-.37 1.45-.78m3.98.09c-1.46.27-2.61.08-3.76-.38.03.08.06.15.09.23l.06.18-.08.13c-.04.07-.09.13-.14.19 1.16.29 2.32.26 3.98-.11 2.53-.51 2.42-.68-.14-.24Z"/>
  <path fill="#ffb966" d="M43.52 15.39c-1.21 0-2.89 1.47-4.23 3.49-1.5 2.14-1.87 4.53-1.21 5.51 1.23-.04 2.83-1.45 4.26-3.48 1.47-2.22 1.82-4.51 1.19-5.52Zm.34-.26c.04.07.08.15.12.23.33-.72.82-1.63 1.29-2.69.46-1.05.91-2.22 1.46-3.31.83-1.68 1.56-2.31 1.51-2.35-.01-.03-.85.54-1.79 2.21-.62 1.08-1.15 2.24-1.68 3.24-.53.99-1.1 1.87-1.52 2.54.1-.01.2-.02.3-.02h.2l.1.17Zm-8.95 14.16c1.1-.65 1.99-2.73 2.33-5.24.33-2.5.09-4.72-.85-5.44-1.25.51-2.61 2.78-2.93 5.43s.39 4.73 1.44 5.25Zm3.45-15.83c-.6 1.08-1.06 1.91-1.41 2.65-.18.37-.33.71-.46 1.05-.07.16-.13.33-.19.49l-.08.25-.04.13v.03l-.01.02c-.22.32-.06.09-.11.16s0 .01 0 .01l-.02.08.07-.04c.05-.07-.11.16.11-.16s.02 0 .02 0h.03l.14-.05.19-.05.15.12c.06.05.12.11.18.16.22-1.41.54-2.84 1.69-4.74 1.86-3.17 1.46-3.25-.26-.09Zm.47 11.42c-1.85 1.64-2.8 3.8-2.47 5.01 1.11.38 3.04-.53 4.77-2.1 1.73-1.58 2.77-3.26 2.62-4.44-1-.58-3.06-.12-4.92 1.52Zm5.06-1.78.16.1v.45c.21-.31.06-.08.11-.15s0 .08 0 .08l.05-.04c.1-.15-.13.19-.11.15s.02-.02.02-.02l.03-.03.12-.11.24-.22c.16-.15.32-.31.48-.47.31-.33.61-.68.92-1.08.61-.79 1.23-1.75 1.92-2.95 1.89-3.35 1.61-3.63-.21-.18-1.17 2.18-2.55 3.43-3.95 4.34.08.03.15.07.22.11Zm-13.78 7.77c.57 2.42 1.87 4.05 3.04 4.17.88-.97 1.12-3.22.6-5.62s-1.62-4.23-2.79-4.42c-1.01 1-1.43 3.45-.86 5.86Zm.39-5.93c.07-.09.15-.18.23-.26l.16-.16.19.03q.12.015.24.06c-.31-1.55-.26-3.29.68-5.62.41-1.01.75-1.78.97-2.31.05-.13.1-.25.14-.35s0-.01 0-.01c-.04.06.35-.52.19-.28s0-.04 0-.04l.02-.05.02-.08c.03-.1.04-.15.03-.16s-.04.02-.09.1q-.03.06-.09.15s0 .01 0 .01l-.19.28-.02.04-.04.08c-.03.05-.06.11-.09.17-.26.49-.63 1.24-1.07 2.25-1.14 2.66-1.42 4.52-1.29 6.14Zm-2.77 12.43c.65 2.32 1.93 3.98 3.11 4.09.88-.97 1.1-3.24.46-5.59-.64-2.34-1.9-4.04-3.07-4.16-.91 1-1.15 3.33-.5 5.65Zm.03-5.7c.07-.09.13-.18.21-.26l.15-.16.19.02c.08 0 .16.02.24.04-.45-1.47-.57-3.1.03-5.38 1.15-4.01 1.01-4.17-.23-.16-.75 2.62-.85 4.36-.58 5.9ZM25.4 43.75c.62 2.37 1.93 4.02 3.1 4.11.87-.97 1.1-3.25.48-5.59-.63-2.34-1.93-3.98-3.1-4.09-.88.98-1.1 3.2-.48 5.57m.01-5.61c.06-.09.13-.17.2-.25l.14-.15.19.02c.08 0 .16.02.24.04-.49-1.41-.68-2.94-.25-5.11.78-3.83.63-3.96-.24-.14-.55 2.48-.58 4.12-.28 5.6Zm1.6 16.69-.75-.2c-.91 3.37-1.53 6.85-1.64 10.36-.06 1.75.02 3.52.16 5.24.11 1.74.25 3.51.78 5.23l.74-.23c-.49-1.61-.64-3.33-.74-5.05-.14-1.74-.22-3.44-.16-5.17.11-3.44.71-6.85 1.61-10.18m15.08-24.75c-.92-.72-2.97-.56-5.01.72-2.04 1.27-3.35 3.18-3.29 4.48.97.67 3.02.22 5.01-1.07 1.99-1.3 3.29-2.93 3.3-4.13Zm3.66-3.18c-1.18 1.36-2.32 2.17-3.62 2.73.07.04.14.09.2.14l.15.12v.2c0 .1 0 .2-.02.29 1.21-.74 2.25-1.79 3.55-3.37.49-.6.86-1.02 1.1-1.31l.08-.1.04-.05.02-.02-.19.28.01-.02c.06-.08.12-.15.16-.2.08-.11.11-.17.1-.17a.6.6 0 0 0-.18.14l-.09.08-.05.05-.03.03h-.01v.02c-.17.25.23-.33.19-.27-.05.05-.12.11-.19.18-.28.27-.69.68-1.2 1.27ZM39.67 36c-.97-.67-3.01-.29-5 1.1-1.98 1.39-3.26 3.29-3.21 4.59.97.66 3.02.24 5.01-1.17s3.25-3.26 3.2-4.52m3.47-3.82c-1.07 1.62-2.18 2.62-3.46 3.34.07.04.15.08.21.13l.16.11v.21c.01.1.01.21 0 .31 1.18-.89 2.18-2.13 3.36-4.02 1.81-2.77 1.62-2.81-.27-.07Zm-5.77 10.17c-.98-.66-3.02-.22-5.01 1.16s-3.29 3.27-3.22 4.58c.98.65 3.01.21 5-1.15 1.98-1.35 3.29-3.29 3.23-4.59m3.46-4.23c-1.03 1.82-2.15 2.93-3.44 3.72q.12.06.21.12l.16.11v.22c.01.11 0 .22 0 .33 1.2-.97 2.22-2.33 3.35-4.45 1.72-3.15 1.52-3.17-.28-.05M23.11 50.41c.7 2.43 2.15 3.98 3.33 3.98.79-1.04.89-3.3.22-5.66s-1.94-4.02-3.12-4.13c-.88.99-1.14 3.38-.43 5.8Zm-.04-5.84c.06-.09.13-.18.2-.26l.15-.16.19.02c.08 0 .16.02.24.04-.48-1.44-.63-3.02-.24-5.1.69-3.65.52-3.77-.25-.14-.51 2.38-.6 4.08-.3 5.6Zm11.97 4.17c-.97-.65-3.02-.25-4.98 1.15-1.96 1.39-3.15 3.38-2.98 4.67 1.03.57 3.01-.02 4.9-1.38 1.89-1.37 3.12-3.16 3.06-4.44m3.47-4.21c-1.06 1.91-2.19 2.97-3.46 3.72q.12.06.21.12l.16.11v.21c.02.1.01.21 0 .32 1.17-.93 2.19-2.2 3.36-4.42 1.77-3.36 1.56-3.37-.28-.05Z"/>
  <path fill="#d16f54" d="M24.93 76.04s-9.05-19.2-4.94-36.77c-2.19 16.41 6.3 35.93 6.3 35.93z"/>
  <path fill="#d16f54" d="M26.11 75.13s9.43-14.06 31.59-11.44c-20.67-1.13-30.26 12.36-30.26 12.36l-1.33-.91Z"/>
  <path fill="#d16f54" d="M26.96 75.99S21.01 63.96 11.3 60.33c7.32 3.49 13.6 15.59 13.6 15.59z"/>
  <path fill="#d16f54" d="M24.93 74.87h2.51v1.17h-2.51z"/>
</svg>
